<mxfile host="app.diagrams.net" modified="2024-05-27T04:06:21.125Z" agent="Mozilla/5.0 (Macintosh; Intel Mac OS X 10_15_7) AppleWebKit/537.36 (KHTML, like Gecko) Chrome/124.0.0.0 Safari/537.36" etag="XWkKpqVUTZc254V4C075" version="24.4.8" type="device">
  <diagram name="Page-1" id="vtc3H7QWTGBQVeGK8XM8">
    <mxGraphModel dx="933" dy="523" grid="1" gridSize="10" guides="1" tooltips="1" connect="1" arrows="1" fold="1" page="1" pageScale="1" pageWidth="850" pageHeight="1100" math="0" shadow="0">
      <root>
        <mxCell id="0" />
        <mxCell id="1" parent="0" />
        <mxCell id="jlDc-I086ySutYxGqEFr-1" value="AWS" style="sketch=0;outlineConnect=0;html=1;whiteSpace=wrap;fontSize=12;fontStyle=0;shape=mxgraph.aws4.group;grIcon=mxgraph.aws4.group_aws_cloud;strokeColor=#d6b656;fillColor=#fff2cc;verticalAlign=top;align=left;spacingLeft=30;dashed=0;" parent="1" vertex="1">
          <mxGeometry x="120" y="40" width="650" height="330" as="geometry" />
        </mxCell>
        <mxCell id="KS9WaMUxeq6iMbUElf53-8" value="" style="rounded=1;whiteSpace=wrap;html=1;fillColor=#dae8fc;strokeColor=#6c8ebf;arcSize=5;" vertex="1" parent="1">
          <mxGeometry x="390" y="80" width="370" height="270" as="geometry" />
        </mxCell>
        <mxCell id="3UMmtsEZR_l9ThYTv81G-8" style="edgeStyle=orthogonalEdgeStyle;rounded=0;orthogonalLoop=1;jettySize=auto;html=1;entryX=0;entryY=0.5;entryDx=0;entryDy=0;entryPerimeter=0;" parent="1" source="jlDc-I086ySutYxGqEFr-2" target="3UMmtsEZR_l9ThYTv81G-5" edge="1">
          <mxGeometry relative="1" as="geometry" />
        </mxCell>
        <mxCell id="jlDc-I086ySutYxGqEFr-2" value="" style="sketch=0;points=[[0,0,0],[0.25,0,0],[0.5,0,0],[0.75,0,0],[1,0,0],[0,1,0],[0.25,1,0],[0.5,1,0],[0.75,1,0],[1,1,0],[0,0.25,0],[0,0.5,0],[0,0.75,0],[1,0.25,0],[1,0.5,0],[1,0.75,0]];outlineConnect=0;fontColor=#232F3E;gradientColor=#F78E04;gradientDirection=north;fillColor=#D05C17;strokeColor=#ffffff;dashed=0;verticalLabelPosition=bottom;verticalAlign=top;align=center;html=1;fontSize=12;fontStyle=0;aspect=fixed;shape=mxgraph.aws4.resourceIcon;resIcon=mxgraph.aws4.lambda;" parent="1" vertex="1">
          <mxGeometry x="554.51" y="115" width="78" height="78" as="geometry" />
        </mxCell>
        <mxCell id="jlDc-I086ySutYxGqEFr-3" value="&lt;font style=&quot;font-size: 14px;&quot;&gt;&lt;span&gt;AWS Lambda&lt;/span&gt;&lt;/font&gt;" style="text;html=1;strokeColor=none;fillColor=none;align=center;verticalAlign=middle;whiteSpace=wrap;rounded=0;fontStyle=1" parent="1" vertex="1">
          <mxGeometry x="543.01" y="90" width="101" height="25" as="geometry" />
        </mxCell>
        <mxCell id="jlDc-I086ySutYxGqEFr-11" style="edgeStyle=orthogonalEdgeStyle;rounded=0;orthogonalLoop=1;jettySize=auto;html=1;exitX=0.5;exitY=0;exitDx=0;exitDy=0;entryX=0.5;entryY=1;entryDx=0;entryDy=0;entryPerimeter=0;" parent="1" source="jlDc-I086ySutYxGqEFr-4" target="jlDc-I086ySutYxGqEFr-2" edge="1">
          <mxGeometry relative="1" as="geometry" />
        </mxCell>
        <mxCell id="jlDc-I086ySutYxGqEFr-4" value="Mangum-Layer" style="rounded=1;whiteSpace=wrap;html=1;fillColor=#d5e8d4;strokeColor=#82b366;fontStyle=1" parent="1" vertex="1">
          <mxGeometry x="533.5" y="217" width="120" height="30" as="geometry" />
        </mxCell>
        <mxCell id="jlDc-I086ySutYxGqEFr-12" style="edgeStyle=orthogonalEdgeStyle;rounded=0;orthogonalLoop=1;jettySize=auto;html=1;entryX=0;entryY=0.5;entryDx=0;entryDy=0;entryPerimeter=0;exitX=0.995;exitY=0.275;exitDx=0;exitDy=0;exitPerimeter=0;" parent="1" source="KS9WaMUxeq6iMbUElf53-6" target="3UMmtsEZR_l9ThYTv81G-3" edge="1">
          <mxGeometry relative="1" as="geometry">
            <mxPoint x="451.5" y="159" as="targetPoint" />
            <mxPoint x="390" y="154" as="sourcePoint" />
          </mxGeometry>
        </mxCell>
        <mxCell id="jlDc-I086ySutYxGqEFr-13" value="" style="shape=image;verticalLabelPosition=bottom;labelBackgroundColor=default;verticalAlign=top;aspect=fixed;imageAspect=0;image=https://fastapi.tiangolo.com/img/logo-margin/logo-teal.png;" parent="1" vertex="1">
          <mxGeometry x="528.75" y="243.68" width="124.75" height="45" as="geometry" />
        </mxCell>
        <mxCell id="jlDc-I086ySutYxGqEFr-15" value="&lt;font style=&quot;font-size: 14px;&quot;&gt;&lt;span&gt;Users&lt;/span&gt;&lt;/font&gt;" style="text;html=1;strokeColor=none;fillColor=none;align=center;verticalAlign=middle;whiteSpace=wrap;rounded=0;fontStyle=1" parent="1" vertex="1">
          <mxGeometry x="56.25" y="185" width="47.5" height="30" as="geometry" />
        </mxCell>
        <mxCell id="3UMmtsEZR_l9ThYTv81G-1" value="" style="sketch=0;points=[[0,0,0],[0.25,0,0],[0.5,0,0],[0.75,0,0],[1,0,0],[0,1,0],[0.25,1,0],[0.5,1,0],[0.75,1,0],[1,1,0],[0,0.25,0],[0,0.5,0],[0,0.75,0],[1,0.25,0],[1,0.5,0],[1,0.75,0]];outlineConnect=0;fontColor=#232F3E;fillColor=#DD344C;strokeColor=#ffffff;dashed=0;verticalLabelPosition=bottom;verticalAlign=top;align=center;html=1;fontSize=12;fontStyle=0;aspect=fixed;shape=mxgraph.aws4.resourceIcon;resIcon=mxgraph.aws4.cognito;" parent="1" vertex="1">
          <mxGeometry x="412.5" y="252" width="78" height="78" as="geometry" />
        </mxCell>
        <mxCell id="3UMmtsEZR_l9ThYTv81G-2" value="&lt;font style=&quot;font-size: 14px;&quot;&gt;&lt;span&gt;Amazon Cognito&lt;/span&gt;&lt;/font&gt;" style="text;html=1;strokeColor=none;fillColor=none;align=center;verticalAlign=middle;whiteSpace=wrap;rounded=0;fontStyle=1" parent="1" vertex="1">
          <mxGeometry x="390" y="326.5" width="125" height="23.5" as="geometry" />
        </mxCell>
        <mxCell id="3UMmtsEZR_l9ThYTv81G-3" value="" style="sketch=0;points=[[0,0,0],[0.25,0,0],[0.5,0,0],[0.75,0,0],[1,0,0],[0,1,0],[0.25,1,0],[0.5,1,0],[0.75,1,0],[1,1,0],[0,0.25,0],[0,0.5,0],[0,0.75,0],[1,0.25,0],[1,0.5,0],[1,0.75,0]];outlineConnect=0;fontColor=#232F3E;fillColor=#E7157B;strokeColor=#ffffff;dashed=0;verticalLabelPosition=bottom;verticalAlign=top;align=center;html=1;fontSize=12;fontStyle=0;aspect=fixed;shape=mxgraph.aws4.resourceIcon;resIcon=mxgraph.aws4.api_gateway;" parent="1" vertex="1">
          <mxGeometry x="412.5" y="115" width="78" height="78" as="geometry" />
        </mxCell>
        <mxCell id="3UMmtsEZR_l9ThYTv81G-4" value="&lt;font style=&quot;font-size: 14px;&quot;&gt;&lt;span&gt;API Gateway&lt;/span&gt;&lt;/font&gt;" style="text;html=1;strokeColor=none;fillColor=none;align=center;verticalAlign=middle;whiteSpace=wrap;rounded=0;fontStyle=1" parent="1" vertex="1">
          <mxGeometry x="399.25" y="95" width="106.5" height="20" as="geometry" />
        </mxCell>
        <mxCell id="3UMmtsEZR_l9ThYTv81G-5" value="" style="outlineConnect=0;dashed=0;verticalLabelPosition=bottom;verticalAlign=top;align=center;html=1;shape=mxgraph.aws3.dynamo_db;fillColor=#2E73B8;gradientColor=none;" parent="1" vertex="1">
          <mxGeometry x="670.75" y="113" width="72" height="81" as="geometry" />
        </mxCell>
        <mxCell id="3UMmtsEZR_l9ThYTv81G-6" value="&lt;font style=&quot;font-size: 14px;&quot;&gt;&lt;span&gt;DynamoDB&lt;/span&gt;&lt;/font&gt;" style="text;html=1;strokeColor=none;fillColor=none;align=center;verticalAlign=middle;whiteSpace=wrap;rounded=0;fontStyle=1" parent="1" vertex="1">
          <mxGeometry x="653.5" y="196" width="106.5" height="24" as="geometry" />
        </mxCell>
        <mxCell id="3UMmtsEZR_l9ThYTv81G-7" style="edgeStyle=orthogonalEdgeStyle;rounded=0;orthogonalLoop=1;jettySize=auto;html=1;entryX=0;entryY=0.5;entryDx=0;entryDy=0;entryPerimeter=0;" parent="1" source="3UMmtsEZR_l9ThYTv81G-3" target="jlDc-I086ySutYxGqEFr-2" edge="1">
          <mxGeometry relative="1" as="geometry" />
        </mxCell>
        <mxCell id="3UMmtsEZR_l9ThYTv81G-10" value="&lt;font style=&quot;font-size: 14px;&quot;&gt;&lt;span&gt;Verify&lt;/span&gt;&lt;/font&gt;&lt;div&gt;&lt;font style=&quot;font-size: 14px;&quot;&gt;&lt;span&gt;Token&lt;br&gt;&lt;/span&gt;&lt;/font&gt;&lt;/div&gt;" style="text;html=1;strokeColor=none;fillColor=none;align=center;verticalAlign=middle;whiteSpace=wrap;rounded=0;fontStyle=0;fontColor=#0000FF;" parent="1" vertex="1">
          <mxGeometry x="436.5" y="200.68" width="78.5" height="40" as="geometry" />
        </mxCell>
        <mxCell id="3UMmtsEZR_l9ThYTv81G-12" style="rounded=0;orthogonalLoop=1;jettySize=auto;html=1;exitX=1.005;exitY=0.355;exitDx=0;exitDy=0;exitPerimeter=0;entryX=0;entryY=0.25;entryDx=0;entryDy=0;entryPerimeter=0;startArrow=classic;startFill=1;endArrow=none;endFill=0;" parent="1" source="KS9WaMUxeq6iMbUElf53-6" target="3UMmtsEZR_l9ThYTv81G-1" edge="1">
          <mxGeometry relative="1" as="geometry">
            <mxPoint x="387.5" y="169.43500000000006" as="sourcePoint" />
          </mxGeometry>
        </mxCell>
        <mxCell id="3UMmtsEZR_l9ThYTv81G-13" style="rounded=0;orthogonalLoop=1;jettySize=auto;html=1;exitX=0;exitY=0.5;exitDx=0;exitDy=0;exitPerimeter=0;entryX=1.002;entryY=0.428;entryDx=0;entryDy=0;startArrow=classic;startFill=1;endArrow=none;endFill=0;entryPerimeter=0;" parent="1" source="3UMmtsEZR_l9ThYTv81G-1" target="KS9WaMUxeq6iMbUElf53-6" edge="1">
          <mxGeometry relative="1" as="geometry">
            <mxPoint x="378.25" y="380" as="sourcePoint" />
            <mxPoint x="373.44921875" y="185.5" as="targetPoint" />
          </mxGeometry>
        </mxCell>
        <mxCell id="3UMmtsEZR_l9ThYTv81G-16" value="&lt;font style=&quot;font-size: 16px;&quot;&gt;&lt;b&gt;1&lt;/b&gt;&lt;/font&gt;" style="ellipse;whiteSpace=wrap;html=1;aspect=fixed;fillColor=#67AB9F;strokeColor=#000000;" parent="1" vertex="1">
          <mxGeometry x="351.5" y="242.68" width="25" height="25" as="geometry" />
        </mxCell>
        <mxCell id="3UMmtsEZR_l9ThYTv81G-17" value="&lt;font style=&quot;font-size: 16px;&quot;&gt;&lt;b&gt;2&lt;/b&gt;&lt;/font&gt;" style="ellipse;whiteSpace=wrap;html=1;aspect=fixed;fillColor=#67AB9F;strokeColor=#000000;" parent="1" vertex="1">
          <mxGeometry x="353.5" y="122.5" width="25" height="25" as="geometry" />
        </mxCell>
        <mxCell id="3UMmtsEZR_l9ThYTv81G-18" value="&lt;font style=&quot;font-size: 16px;&quot;&gt;&lt;b&gt;3&lt;/b&gt;&lt;/font&gt;" style="ellipse;whiteSpace=wrap;html=1;aspect=fixed;fillColor=#67AB9F;strokeColor=#000000;" parent="1" vertex="1">
          <mxGeometry x="419.25" y="208.18" width="25" height="25" as="geometry" />
        </mxCell>
        <mxCell id="3UMmtsEZR_l9ThYTv81G-20" style="edgeStyle=orthogonalEdgeStyle;rounded=0;orthogonalLoop=1;jettySize=auto;html=1;entryX=0.5;entryY=0;entryDx=0;entryDy=0;entryPerimeter=0;startArrow=classic;startFill=1;exitX=0.5;exitY=1;exitDx=0;exitDy=0;exitPerimeter=0;" parent="1" source="3UMmtsEZR_l9ThYTv81G-3" target="3UMmtsEZR_l9ThYTv81G-1" edge="1">
          <mxGeometry relative="1" as="geometry">
            <mxPoint x="451.75" y="200" as="sourcePoint" />
          </mxGeometry>
        </mxCell>
        <mxCell id="3UMmtsEZR_l9ThYTv81G-21" value="&lt;font style=&quot;font-size: 16px;&quot;&gt;&lt;b&gt;4&lt;/b&gt;&lt;/font&gt;" style="ellipse;whiteSpace=wrap;html=1;aspect=fixed;fillColor=#67AB9F;strokeColor=#000000;" parent="1" vertex="1">
          <mxGeometry x="508.5" y="122.5" width="25" height="25" as="geometry" />
        </mxCell>
        <mxCell id="KS9WaMUxeq6iMbUElf53-2" value="" style="outlineConnect=0;dashed=0;verticalLabelPosition=bottom;verticalAlign=top;align=center;html=1;shape=mxgraph.aws3.users;fillColor=#D2D3D3;gradientColor=none;" vertex="1" parent="1">
          <mxGeometry x="50" y="130" width="60" height="55" as="geometry" />
        </mxCell>
        <mxCell id="KS9WaMUxeq6iMbUElf53-6" value="" style="rounded=1;whiteSpace=wrap;html=1;fillColor=#e1d5e7;strokeColor=#9673a6;arcSize=5;" vertex="1" parent="1">
          <mxGeometry x="140" y="80" width="200" height="270" as="geometry" />
        </mxCell>
        <mxCell id="KS9WaMUxeq6iMbUElf53-3" value="" style="sketch=0;points=[[0,0,0],[0.25,0,0],[0.5,0,0],[0.75,0,0],[1,0,0],[0,1,0],[0.25,1,0],[0.5,1,0],[0.75,1,0],[1,1,0],[0,0.25,0],[0,0.5,0],[0,0.75,0],[1,0.25,0],[1,0.5,0],[1,0.75,0]];outlineConnect=0;fontColor=#232F3E;fillColor=#7AA116;strokeColor=#ffffff;dashed=0;verticalLabelPosition=bottom;verticalAlign=top;align=center;html=1;fontSize=12;fontStyle=0;aspect=fixed;shape=mxgraph.aws4.resourceIcon;resIcon=mxgraph.aws4.s3;" vertex="1" parent="1">
          <mxGeometry x="201" y="107" width="78" height="78" as="geometry" />
        </mxCell>
        <mxCell id="KS9WaMUxeq6iMbUElf53-5" value="" style="shape=image;imageAspect=0;aspect=fixed;verticalLabelPosition=bottom;verticalAlign=top;image=data:image/png,iVBORw0KGgoAAAANSUhEUgAAB4AAAAQ4CAMAAADfDTFxAAAACXBIWXMAAA7EAAAOxAGVKw4bAAAE+GlUWHRYTUw6Y29tLmFkb2JlLnhtcAAAAAAAPHg6eG1wbWV0YSB4bWxuczp4PSdhZG9iZTpuczptZXRhLyc+CiAgICAgICAgPHJkZjpSREYgeG1sbnM6cmRmPSdodHRwOi8vd3d3LnczLm9yZy8xOTk5LzAyLzIyLXJkZi1zeW50YXgtbnMjJz4KCiAgICAgICAgPHJkZjpEZXNjcmlwdGlvbiByZGY6YWJvdXQ9JycKICAgICAgICB4bWxuczpkYz0naHR0cDovL3B1cmwub3JnL2RjL2VsZW1lbnRzLzEuMS8nPgogICAgICAgIDxkYzp0aXRsZT4KICAgICAgICA8cmRmOkFsdD4KICAgICAgICA8cmRmOmxpIHhtbDpsYW5nPSd4LWRlZmF1bHQnPlRFTVBfSE9SSVpPTlRBTCAtIDI8L3JkZjpsaT4KICAgICAgICA8L3JkZjpBbHQ+CiAgICAgICAgPC9kYzp0aXRsZT4KICAgICAgICA8L3JkZjpEZXNjcmlwdGlvbj4KCiAgICAgICAgPHJkZjpEZXNjcmlwdGlvbiByZGY6YWJvdXQ9JycKICAgICAgICB4bWxuczpBdHRyaWI9J2h0dHA6Ly9ucy5hdHRyaWJ1dGlvbi5jb20vYWRzLzEuMC8nPgogICAgICAgIDxBdHRyaWI6QWRzPgogICAgICAgIDxyZGY6U2VxPgogICAgICAgIDxyZGY6bGkgcmRmOnBhcnNlVHlwZT0nUmVzb3VyY2UnPgogICAgICAgIDxBdHRyaWI6Q3JlYXRlZD4yMDI0LTA1LTI3PC9BdHRyaWI6Q3JlYXRlZD4KICAgICAgICA8QXR0cmliOkV4dElkPjA3YTdiNjU0LTNkODUtNDk1Ni1hNmFjLTBhZTllYjBkNTExMjwvQXR0cmliOkV4dElkPgogICAgICAgIDxBdHRyaWI6RmJJZD41MjUyNjU5MTQxNzk1ODA8L0F0dHJpYjpGYklkPgogICAgICAgIDxBdHRyaWI6VG91Y2hUeXBlPjI8L0F0dHJpYjpUb3VjaFR5cGU+CiAgICAgICAgPC9yZGY6bGk+CiAgICAgICAgPC9yZGY6U2VxPgogICAgICAgIDwvQXR0cmliOkFkcz4KICAgICAgICA8L3JkZjpEZXNjcmlwdGlvbj4KCiAgICAgICAgPHJkZjpEZXNjcmlwdGlvbiByZGY6YWJvdXQ9JycKICAgICAgICB4bWxuczpwZGY9J2h0dHA6Ly9ucy5hZG9iZS5jb20vcGRmLzEuMy8nPgogICAgICAgIDxwZGY6QXV0aG9yPlNhbnRpYWdvIEdhcmNpYTwvcGRmOkF1dGhvcj4KICAgICAgICA8L3JkZjpEZXNjcmlwdGlvbj4KCiAgICAgICAgPHJkZjpEZXNjcmlwdGlvbiByZGY6YWJvdXQ9JycKICAgICAgICB4bWxuczp4bXA9J2h0dHA6Ly9ucy5hZG9iZS5jb20veGFwLzEuMC8nPgogICAgICAgIDx4bXA6Q3JlYXRvclRvb2w+Q2FudmEgKFJlbmRlcmVyKTwveG1wOkNyZWF0b3JUb29sPgogICAgICAgIDwvcmRmOkRlc2NyaXB0aW9uPgogICAgICAgIAogICAgICAgIDwvcmRmOlJERj4KICAgICAgICA8L3g6eG1wbWV0YT7E9b9YAAADAFBMVEUhJCgiJSkLGBoddtL9/v0MGBsMGhv+/v79/v4NGx38/PwMHB0LGhoLGBgNGRwMGBkgJCcQGx0yQGIUHiH9/f4KGRwfIycPHR41QmL3jIsRHyAzQGQzQV/3+PgYHyEQHB0oKy8bIiX9+vojJir7/Pzziofx8/Tk5eX1jIwTISULHR5N5JItMDQNGh76+vra29zv7/A7PkElKCwbKiz+/f0kMEH19fYfKjn7+Pbf3+AVIybp6urr7e73j46Ljo8wPlu3u7751dM0Qma9vr8xNDf3kZHV19lbXWD8/PxydHeRlZh3enxDyYY7R2YOGR0qMzeDhYckL0D78/EbJipJ140ZJjGHiYz2iohBxIf65OIuO1ULFxj3l5ZM35BL3Y8qNUlobXA8QkVER0o9RkcmM0RjZWcvLC4gLj9RVFb52teio6QuPESUmZkfedO+w8P4zsyanp7JztH77On63dxNT1JnaWy0trdGz4mora01Ojxub3EYJCpeY2fNzs4WL0iZpKooOjk0Q2TmhITz+Prk6e41h9fCw8Q0NjqwsbJP5ZOjp6rh4uLNy8vGycv5+vrzh4keWZatrq/P09b4xsPV4epKTE8mfdRVWFpMVFZVW19daW96g4Xn7/TT1NWwtLVpdHb3/Pv5vrsOGRsgLzRFUW0bYaf3nZvj5+vO3OYiLDn2pKKtbG1pR0rS0dFKk9t6f4Q4Oz6oqaqJkZ1KNzo5RWBAwYdgbIb2godBQ0f4trXTuLlrp+L3rqw9SVCJt+fni4xUZGzr+fZQ4JVNzZNLWGqgyO08MzW+cnTJxcWIV1p8jZnY6fA5UU3Uh4q81/IyR0RteY9hYGNGSlPPenqps8FSXHWv0O+Xwuuhm52m6dHY+O50UVEzRXFanN6TmqJK2pb0fISaZmc1jm5bP0OP5se6xtR4hJdCt4PNoqSZXl8ccsto17gdUYg9qnjjfXxf6KNAwJXifYLXg3xtxeS1jpBqu9U/pIiTdXkogNR6sOYjaVYrgdUod1+0fIWfkHkNGyHfbXhUAAABAHRSTlP/////////////////////////////////////////////////////////////////////////////////////////////////////////////////////////////////////////////////////////////////////////////////////////////////////////////////////////////////////////////////////////////////////////////////////////////////////////////////////////////////////////////////////fvXoqAAB/U5JREFUeJzs3U1LY+m6xnEz6o1jOTNhcSJxEkwMTeigiGDQTjLJyLEJuAlBCgeJlFJOYygtwUGQYqPTGok6y0foqbP+OCdWEsuXFcvbczjXc1f/f13Qe+OqVal7X7me9ay87KkETKYAAPHUBe0M8zJS5xsAgqUuaGeYl5E63wAQLHVBO8O8jNT5BoBgqQvaGeZlpM43AARLXdDOMC8jdb4BIFjqgnaGeRmp8w0AwVIXtDPMy0idbwAIlrqgnWFeRup8A0Cw1AXtDPMyUucbAIKlLmhnmJeROt8AECx1QTvDvIzU+QaAYKkL2hnmZaTONwAES13QzjAvI3W+ASBY6oJ2hnkZqfMNAMFSF7QzzMtInW8ACJa6oJ1hXkbqfANAsNQF7QzzMlLnGwCCpS5oZ5iXkTrfABAsdUE7w7yM1PkGgGCpC9oZ5mWkzjcABEtd0M4wLyN1vgEgWOqCdoZ5GanzDQDBUhe0M8zLSJ1vAAiWuqCdYV5G6nwDQLDUBe0M8zJS5xsAgqUuaGeYl5E63wAQLHVBO8O8jNT5BoBgqQvaGeZlpM43AARLXdDOMC8jdb4BIFjqgnaGeRmp8w0AwVIXtDPMy0idbwAIlrqgnWFeRup8A0Cw1AXtDPMyUucbAIKlLmhnmJeROt8AECx1QTvDvIzU+QaAYKkL2hnmZaTONwAES13QzjAvI3W+ASBY6oJ2hnkZqfMNAMFSF7QzzMtInW8ACJa6oJ1hXkbqfANAsNQF7QzzMlLnGwCCpS5oZ5iXkTrfABAsdUE7w7yM1PkGgGCpC9oZ5mWkzjcABEtd0M4wLyN1vgEgWOqCdoZ5GanzDQDBUhe0M8zLSJ1vAAiWuqCdYV5G6nwDQLDUBe0M8zJS5xsAgqUuaGeYl5E63wAQLHVBO8O8jNT5BoBgqQvaGeZlpM43AARLXdDOMC8jdb4BIFjqgnaGeRmp8w0AwVIXtDPMy0idbwAIlrqgnWFeRup8A0Cw1AXtDPMyUucbAIKlLmhnmJeROt8AECx1QTvDvIzU+QaAYKkL2hnmZaTONwAES13QzjAvI3W+ASBY6oJ2hnkZqfMNAMFSF7QzzMtInW8ACJa6oJ1hXkbqfANAsNQF7QzzMlLnGwCCpS5oZ5iXkTrfABAsdUE7w7yM1PkGgGCpC9oZ5mWkzjcABEtd0M4wLyN1vgEgWOqCdoZ5GanzDQDBUhe0M8zLSJ1vAAiWuqCdYV5G6nwDQLDUBe0M8zJS5xsAgqUuaGeYl5E63wAQLHVBO8O8jNT5BoBgqQvaGeZlpM43AARLXdDOMC8jdb4BIFjqgnaGeRmp8w0AwVIXtDPMy0idbwAIlrqgnWFeRup8A0Cw1AXtDPMyUucbAIKlLmhnmJeROt8AECx1QTvDvIzU+QaAYKkL2hnmZaTONwAES13QzjAvI3W+ASBY6oJ2hnkZqfMNAMFSF7QzzMtInW8ACJa6oJ1hXkbqfANAsNQF7QzzMlLnGwCCpS5oZ5iXkTrfABAsdUE7w7yM1PkGgGCpC9oZ5mWkzjcABEtd0M4wLyN1vgEgWOqCdoZ5GanzDQDBUhe0M8zLSJ1vAAiWuqCdYV5G6nwDQLDUBe0M8zJS5xsAgqUuaGeYl5E63wAQLHVBO8O8jNT5BoBgqQvaGeZlpM43AARLXdDOMC8jdb4BIFjqgnaGeRmp8w0AwVIXtDPMy0idbwAIlrqgnWFeRup8A0Cw1AXtDPMyUucbAIKlLmhnmJeROt8AECx1QTvDvIzU+QaAYKkL2hnmZaTONwAES13QzjAvI3W+ASBY6oJ2hnkZqfMNAMFSF7QzzMtInW8ACJa6oJ1hXkbqfANAsNQF7QzzMlLnGwCCpS5oZ5iXkTrfABAsdUE7w7yM1PkGgGCpC9oZ5mWkzjcABEtd0M4wLyN1vgEgWOqCdoZ5GanzDQDBUhe0M8zLSJ1vAAiWuqCdYV5G6nwDQLDUBe0M8zJS5xsAgqUuaGeYl5E63wAQLHVBO8O8jNT5BoBgqQvaGeZlpM43AARLXdDOMC8jdb4BIFjqgnaGeRmp8w0AwVIXtDPMy0idbwAIlrqgnWFeRup8A0Cw1AXtDPMyUucbAIKlLmhnmJeROt8AECx1QTvDvIzU+QaAYKkL2hnmZaTONwAES13QzjAvI3W+ASBY6oJ2hnkZqfMNAMFSF7QzzMtInW8ACJa6oJ1hXkbqfANAsNQF7QzzMlLnG8BPJKN0cX+xVu/3F/eP0pH2kRzd1Pr1fm1xv5iOkr9+f6gL2hnmZaTON4CfyKVv6o2N9sFBe6PRqxWFT9qoWOudf2qXtra/NuqLxSipeyj/T9QF7QzzMlLne/CU7je+a/Vq6UkH5f49OqjRqBcnXnZHN73W6KD99PuqIZGuD8/QT0f62cChYr/XsKsfxSxmiWS02NvYqlRXyrvN27PL7tltc7dcLW2fDwL+2mPYHz8RXmq1ev3aTTHKmf5SidzgafqpdL15/0g+di+7Hz83d8or1crBXatWtJ3LF3VBO8O8jNT5nirW25vV+3+qle3FCcckov3t4UGb1VJ/4mV3+nzQEMODGjfvKoVErnYwPEO79s4lHP9w/Xalumn+p9SLWcYS0dF5ZbdTyOZnZ2dPTxcWTk9PZ2fnD7vlUmv/tcfQuq5O/JOuS+27+/Xe9JdKRv3tzbOTpdT9A/njdPBA/hj8p9lsptOsfqq/ejHgnLqgnWFeRup8Tx3Vq53v1i53WhOOSd6clzsjzfZiNOGwm+rl2vCg3Y3Fdy3AyVxjd3iGcuOIBRjv0Cifdeya289jnYzq25Xy7erVcWrut8fyS5kve82VykZ/4sK31V2d9Ad9WFu9PPv8fR/dqKXf8ixJ5I4aW9Xds876/Oz0k0fy21z2+OLD2W71oHUT/fQ8PqkL2hnmZaTO92AB/jx8Mk+nTrYnHJNrVTrj53xm5bwYf1Si3k0tDA/qtN+5AEefDodnWNt+3xnwT9deKzxbpt7iqvJ8H5k7Ori9yC9MOH5meX33btIdo6nNpfzrf9zMwvHJbXVj8S1712TUq64ez85MPFl+fu268avugtUF7QzzMlLneyo6Ko9a5nS9NOGKPHe3czF+th83t+LvviWL56un31tiOr/XeN8NZBbgGIkoXbyXjnL6uISvvXY8ea2a6Or66QJc7LdXLi+W5ib+htnlw7OVrbgb11NvWIB/m0nNX3TOyqXG0U/eyRztt0p/fyikXrmomEsVOs3rwWr+K94zUhe0M8zLSJ3vgc35UVscVye8DSsq7RXGz/altWot/qDa1pfhIafLt/33PRQW4BjJYq1fH6jtv+mO5T/d+xbgi0rvUfYTyfr27XzqJ7/nNNMt9dNxT+GfL8DfLSztVVuvX1Yli63rD0uzPz3V8snO15tf8QJNXdDOMC8jdb4HKodLwyfx/M75UewRUfVqefxMz17s1GMPSrf+czU6ZL088ebc61iAY6Tb5ebtwE6pMeHmPx4ZLMBvWfyeuXhyC3rx6+beeurp7efZVDabfXJL+r+XM6srG3Fvp3rjAjyTL3R2K61X3sUc1bd2Osf5J1cU0/nUcjaVf7olzs+f3A7+Cr/eHlhd0M4wLyN1vqfu3zGSGT6Js7cHsQtnIl2efyiUhaWzXuyjTm/vjM4z2CTfvO+hsADH2C8Xsvcjmf9YeudY/1Haq4XTuemZ32ee/Hq68D3/6fTcYaUXjc+QzH1d+fL4d0wvzKaWjzNXVxeZ+eX8wu+PVtD1zVbM5/IeLcAz0088eySDp1OnEr+LnrrfiO9vNTNPDj/Np5YK61cX64WlbH524dHZ5lJ77f6v99k9dUE7w7yM1Pke2CiPFr3sajV2c5vuN/MPpTOdX9uIvdAuls5GW4/C7UH8TvqnBgvwFQvwM4MFOM8C/GYbzQ/rmRcK45dzp1NLL3+ayext9aPxGfZbKyfzP9a85YsPH3c3ryuVUqlUqVQ3zy6WH/2wU/76cg+8ObppvJDKHD4xWDkzx/OPtscz+eO9zdaE1xai2nZzPTs+9PfZ48PVz+Xq9f0DKVWuqyuf904KP1b600x38lrulrqgnWFeRup8D/Qqa8OncP4k9oNIiZvz7uOr8MOD2M887Fc7o1vZmZWNd74n88cOuMMCPDZYgFMswG/Wqu6edZ+73DscLWT5+ZPLFz/udssb41Anc63rtYed5XRq/vB2s9172OZGxfbtSTb/r4fr0avqYA/87DGMd8CD1XV39+9Hv5qfz/bW/lpffnQvey7bqdTj1s1EsnhXfnjz428L2cKHv683+rnRH5aIbr5WdlYzqYXxYznNdrf7v9rrwOqCdoZ5GanzPXX/gtfe8Ak8m/l4HvPzRK/08CGke+ubsZ95uCmvj961clipR+97KOyAY7AAmxy1zu9e2C7tjva0Syc72y9/fte4Gd/WKdavf7yKnF/fK5fuWv2jh3u7yai/USmvFsbv0FpY+rDy4j3/ox3w3PJhdePr1ye/7j5ttyvVnbOT8TurZmaPV6u9mG+3yd2c7xw+bLaXTm6rW+e9xfT4SiBx/wWZ5+1q8+TbeHO/sN4tGb/hI3jqgnaGeRmp8z2QrjWHF/zTS2sbMR+KSG6Urx4vwIVmO+YOc7LWHFdK5+69X473aAf8iQV4ZLwAf2MBfrdosTJ6LfV4rxS9cmAiUd/qPnzfRTbz8TpmbTzq/WcvMzt6VWYu9aVUe3bK0Q54en7tbvDf/uvRr+GjKbYOdjuZ/J+jnevyWsy32ySiRvXL3Mx4mf+yu3UT8wpvtPhp56/58XZ6drn5+ld0+aMuaGeYl5E63wO5Ynn5+9I5kz9sx1yJJw+6ww8hLZx+/9e31euXC0Ey6nWHt93+zF423vsl8eyAYzy8BnzLAvxePxbgwusLcDJqd9dHO8o/l1dX2vXiy5u6UbG3vXMyesHlX6eFzwfP/ocZ7YBHC3DMH3LUb2yVV4/He+D1l9e0idxNtTM/Wn9PM7fX57FfzppML55XuuujS9/p2b9WzkPolP876oJ2hnkZqfN9L1cdv9MjU9mPnv80kbsefk5pZmn47pHUVfnlx3yT+xujV5Jnj5vxn1N6A94FHWO8A15iB/xub94BpxdXxu+R+v3bSbU16f/6KPdp92T8SaDs1W7r6SXn0x3whIfUuF5bOh2foVx/dtGaLDY+Zkc/zhe6B/1/TzpRolbpFsafFJ7vVH6tT4urC9oZ5mWkzve9XGltfrQ92Oy9+KhpMlr5Nlx4v6x+X4j/+HZbf3EtHtVLo6/hWD5Zif+mjjdgBxyDd0H/7715B1wvdVMzo/1vt9IoTjr2/uvRT5YfbiEf1J4c+JMd8PAMR63rs8L4DKtbT88wFZ1vfhmtvwvru1uvfcQ3XS+drY/X6qXdX+smtLqgnfkfAAAA///svU+L6kq3P74DF3xw9B00dyaEk8ZMgomyCUciQTDoTjIJv4FjDbgJQTYZmKDSTlX80+BAvM3GnvZIojNfglPv6LycXyVV0aixO+59npP2ufmce7l3t0mqaqWyVn1qrVorlteNiHp+OyAaehl+vm9G4+LrxTtGyt2T43TetY7/xRYv95jxCo9MJ2fJv2wn4ijoAMQ+4N9HSAZM5Pb6Cm1AF3rXEsOhRzaMpXc4Ly9VThauYRgweMJcLnkpJsvS6ckBQpAttEP9PH5tfFBrYWtbaEMcLF3l+bvX3hmiVtB3hlheNyLq+e2AWFQnyHgO5Qv2utZmrpLI0HajBBf2u9pFzAhlehkD8kbjF08Bxww4ELEP+PeBr0MxYHwgeznfHqf8y7ubuUS9YXmHcLmScpLCJgwDdtNMShPk/OH6in/pi1Fqc4wCrblX+3x/+hzCvOpR4ER5Y7577Z0hagV9Z4jldSOint8OCLWG/LfpfvXCfzsX4Y/MxFQ3ULGslIuDSILshZSUL390gOHUYJ2tb7f1bLYjUMEp6D+MgiZwqpN1MiPPVbWeXXc+KGzuv1x166BfUWRELocD5HKH455ub+ugjYFwFnyaowTnp63TPvVhuBkaN7i8nu0MqFuOaWKY26lsE/mAZ3LW7SRx0Sa4UFg7GaPn7kCzoF+3tOM24z752l0Ykbt2Sei2MShjR8jv/nwyPO/FoGaJHJxFawoPP74voRnwoNUsQEqa4fTK+/lUMTwr0ch8pvKjuf/NhmPA4KupjdAmNEvqqk9uRP3JQhHQbC/4g/KDwBtF0mPuZTtgUjoVPTpr91sAHwL4AvEPikB8FkStoO8MsbxuRNTz2wE2aKFMG+mlcZGKYwETZWXoYWUrrVxTQBvmuatYqK6QMrqSpyO3bjVEWanyVVuuVdRgC/whA8Y7LdPmm4auG1LVFk3t/YJu+MC5XDL00cho8kp3sQ12pRG4MOgADDyDinW0J9GuVkEbjcX6pK+YMK+INhqI1rkaG+M9ujPfw3Ercnc/D8hbeP3WHOX0aW6MIQN+tedOJ4VLC0dQ9Zeu4shlpBvNqt1o3ZKYn6AGcPTCVUcjQSEBDS4uceJwj23ztnmt7Rx6hhBsPI8/+2732vXsBT4A0vxZ5bs3OjpD+oBV2UK0k+wHxCOegjjmfntMl06O3nnngD8ywPhcRgvOJFvcd45PyL3waFOKpduVD0/1YUSL7yM6nmKk9cVHQeQ6rYoJZrTUNCQwc2uL+vtL10+DqBX0nSGW142Ien67wNc6PJOYIYfaeZfMoesgTk2a2tqG0Vpvln22y0x0vB2zVKlyvgDHCCE7B0ramFml/q5fHOpN+0lT15c7fO9GQRP4QF3UFN3arcp0nu7tijOdFytqJ5iF5vC1WqlVdWvaK9PjPL2cFDe8XJlnA9QZvn1pdAEaWh13tPy2ZVaNjdXv962NwXe1rReMgwv1VsOWNlZpN+0XZ6Nq90XtBDM6Z+AUGHftZ7P9WnTHPWoqDU3NhqXB+EBzOiUXoTpnprrt/Hs/7/gbxHJUvfUk8+3SdFXO5+nyqm8Z1e5C7YRNR4a3Gqbz4JqpXclkiAmaWXMuMfcnOVZA29nWXpQ2xQlqe2fp19oWtCf3GU/aOjCVKfq54h8erj65XdtvnckCll8Nu7kp9qeGeVukfUgGvDB6KJy416x8/NCWvfM2fk+Tz4RlwDmhYnle4J7dOj4BF18RNWaKSpjSYusng0THihPtxRl3x4WtZiqSPivuVstlb9K3wIezb9UDTlh9OkStoO8MsbxuRNTz2wUh8JBkJdP9i1QcqFhS2rLVQU13l/zMij/1RmK5+gguwJ/JWev8CQSuyUZxUs6THFcocBw5zi93balWv1D37zJgPPvCDyflMefUgmHTjPMgejXkny4X/A6orNm0ejS6HFzPcCTdKxli6/JyoauXVgAlyQTMal352e47vXU7m6f7bXuBCNdgYW92y+NA6J4l7a+FygJeIjbdcb+BywvcGxj3dNjsqhepC4PRaUlOp5YowckfhXHZ+fdQWfgbJIS5rJeWNMkxaKAFblyeWnxjG3J2dX5aU+fBvWlTDVTJGKFK055zSb8t+/c+CEE9aZsFbefpqXN89vI5c96aOM+w+EoQ+VLRzzNbO/4syGC5BfDqHMPBsg2+BIVv2UFJU68jnA8Ya/RJZMSG5sdmzzkpxKEcGLTR8AkmnA/Y+W7Uppc/jh7VjhMTV7zd7bF0pUTZKfCO7G1BJX4op8LBnFkLJvQYzGjwnsCHwIEP54cuX8tB/ZkQtYK+M8TyuhFRz2+I7wpKK5DsmacEkcCrsC4qoz9lKa0K2TCpb0+sLCG0XpHHammccROcUvfV4dI704j27NjxVJcr9bOd7HeioHOdVlfqk+eVUR/GfUPULje9qfVC1HtvZ1cnnpnlTKlszzfAByiPNWnJWWprOpkGj3VmHtLjIu9k3MeobYO3xieF4B7IXrOhBm3n5ajtizLrMSc9TqbI3sbehzPB2ZeTHNweyoZ51NSEsH1ShjRzfhHLOYXu1lfJuR9rHmY8fHgu7QdBKhkQtRIcNVny7X1gwnb/c1YOaBu8Wy173rbWhqdV6VkND2jE+3nZ3B9/HiA3a1mZU5RaM3bMoxt5PK0GJU29jlAMGBdkGi4jk+nmNkTpR2Jd9dJxcEXbtykelgGDxY9skegJO+UgWjxroHmTWomXSbICgBGVdhktBpa6r1UsJ8xN3sqnT8sXJpLs8lXZ179/9gKGUSvoO0MsrxsR9fyGOO54lW31hCDigybMucfxKoVnuz348b6eZh7I1U0UxlUoVc/iqAdzpbjk0o9n33+KGS9HcutUAO8wYKrCl/KF1EWtdfCcXvPpIl6mbhq9MZM5v/ohk35bDe3zsm3CwQDb9bk9K3Osv7uPLLfiFwOM2NqzJXdWiDXD0EUxiIMLW9tavZ0VlU08pBhyCUgeHuKtXDXAjWNzuZY8K7+d9cmR7zMz7utmqFilgefLfPAX5fMBV+Ve8rJtoiW3yyR7IWTQNrnTa+cbA1qb/hUD7C7/gAEW5lWL9t7orqqFGJhvBGF8wMJcIuHBIieQKQQ5xI4lOJkV75uDYRkwmNaLKnpCmpYOJjxbGcIJmCGtC4/Olb6o8ivyAo9LtePfc5Qmlc4mNHxL6bflsPt+DMUnQNQK+s4Qy+tGRD2/IfB9E5VdyUuLk6V/pzVy//4tLws4QVXgQaTEj6e1X0Hhmo1iRs4Pq+JCRSkGlydPPpeH9mkwzdUo6Nz6hf9BBj0FgJ02K6ebaVS9pk/8Zcwfk8d/pPOvsnbq/vIYMGdV97JF/3nRBFOqtgZzcUgHjCRF6mb9/EXiwsIeXinL/kxbyiL7sVq9YoDpIwPGBnP7lf7qK1D7zWeKOcCVPzrA4kprwaO3TzcbQcRP2EvISkx8Fnqg2jP6j6Nck4++tgu0bp5tDAAD7Ar2VxgwrSw0uTg+7CZMf9kAv8OAs40RYvP5ohnK6h3Tz7Bj3bfjH54B49naDpUuLOh1r9DRsUDZ6jIq8goGWhP1ninLh65gggbm9mGN9JDxHMUJp75hXu9ufzVt7D+EqBX0nSGW142Ien5D5Fo2UiSkXjsxoGq3CBXqpJYjMKI1gx/zScQIUCNPRwNeOTPgUpl7/lciCP9iuf5prMtVBgyoxuSSz3qan1kp25OV/Fbc+DeREyzDHneCnW1g/jSz0JEB/2VY4wCzmeF+iJoyzAdZ1Ad2OXo593sP5tUV+XxBTNG4C1Oj8THDylZeg273sVBioZQKvuVCJp32keEMS5fCVMfJZU3v7RfloOjijvxKur+nii/HzXPt58nKKgnazvjbPo8j1ja/tAUN4+6VGm8d7e/tDDiMD/gYAz1pvoR6LCG8/PAkP/OlhwvPgAlcG3LuK3vIDOdoYwZ74Q8lun+GjTbDBwo6wsxyymE6Etvqj7fDa8mwTNrnCnpg86/mR8HeESNqBX1niOV1I6Ke3xBE9gna2UShaJ9Enyx4Vzc/5C1XlajNJWQkzYbf4lFevYZEWfZvYeeoCt9Hu18pZlzuTftOrO6YY5CZICfVuS/G5EoUNDFo8Z6zLVPI9/ql4muxP+3l01AlJ5mZ6AsfwjvmZomUdZqkV7vicNMeWv1VHjnWnpmSfZLMy2PAzKQ0dfZJUwy4bTLpLfNcBtrxzHjEF11j8A08srwCv9Ge+UkWJvKpFzpHAcuIdp8z6XF55Yy7V85z3iKC60kfH6RxgrCWy2W5gG5iyDL45+r1EIRFbe1DQv9CvtzrW+3N7LU4XXr7wiw5MtUPDz4RlDZk3JfELKXs5dVYXYLVdAHXP4iZytpF9M4ThbHT9mwzGzptp/9AZmBTO2lbm8Et6PwvMOB8E0jfs/aPKbak/BsYcIvfoSb6cjjeieXmFno5maKvKGF4Bgw+Kd1b8RUrKP4ba4xQajpON98/jXwEgctjRG9Z/hC1X69ZMLd1iiyD76A9as+s/m41TruXPqTK4WK8okPUCvrOEMvrRkQ9vyEwSp3Bj5eZSCdL7sbscAjJ+WcdMC6oxk6iYSl7B+3j14np3wymsjxdQBaMW80ku1apdG2pXfJCPzOnqvQKA8Zbdt9zInOTkd3Q5moLPGhT9rLx5q3G98P1nRfpQFXLr02njGq9rraelM2Kg6NMkruf/nAjjwGnOJJx3MyFlWVURVHm9alXYzFF5gsOu3xM00WdV0S7qpc8A/RINhcn5hRYpxWH1hjc0pLsbmVh2tKmtGSQNNj+x2VrqGyD56u8NIVmm1m9NsE/ebmyRV1XzaFn0ZnpRpIbmlrfqlpXslC5WqBgh42P9xgJ1Si7AntmAtJ8g583cN+jMOEP9nnbmDGIe6cnbdh2XdVq/KHtZ9o6Ka4FGLD7lF9hwJz1euC/qcJbfnhrFHQYH/BC95Ztw6cwR3++OJ7XNnqjiX7j6JUJz4DdNS36GPpgFQmfKnoVicnw9hHDumU0658NFX2dA9OgIeUdl6TaQt06H0KlZnthew9cqRpyqBEhagV9Z4jldSOint8IubUBdcafef1EtYlT0lV6RdvNMNvpjuBBpF7VrxgoHn7QX5lixedcxeaiBfNIJ4D55cVKaysMtq191/6rSCNdly+Kx2idwChoDO/IHsFmVkPebGUpnKA621YXaHu33Yd0+VBGgsBb/A8vi99EFxta3WmAwNdalx+WYaYjltzs60fj4DHgBJt6eABLhSEvNxaq2noxq7MlDPx6eHb+b4pbWU3ZrGhqSzNtfUeibg1lvxrDtt0ZpJSJQvlVEvfadgDG7aw9LE9Jjn/IVzP9I+CUugAwZ5DDMCXJdP7dqsNt4Bxu6mjj/5ku8d3K3C0qn6O2FdkooZo+TJlvfazC13YJjv+5WBmcW+CcUCnCje1xW0TPyuENAy2VHvMlqbsH7yQHI7/lZhEdCWdoSfOtSzwf8I0M2H1Weuks2R5YstcvtnWjKX+QpupClGEYcMXKo/3ZzTys2avrXvGkiXg8CXwLA97yPS+FjYJi8zCwfEO9PfOtvIuaVx0iqSO5Y3V+6v4tXR7+3Gddio7hg7omNotwnZTKzyqf+jBS1Ar6zhDL60ZEPb8RMIGHpDTDWP7NPcxGJQhHMNBYWPB5aMAMv6tYMCATY/MbX1wzRtS8XUp2ajytBcrJM5jDKUFoiW2kLFIF6XjiI5ABY8L/elouU5YaW8pNTOjkRhSy3Q3cq3vgNl0UfY0L3T5in//qKxWBQnkMwQ1CtjFauk96SPaae99xU88APzhbxhPJzILbAChgUEZvvoNEhYmx3w4o+KOgHWJlppJv2YIRT0MaMtPHlW464wZ9AOOmBLWrI5v9nNbVD7Q8RoBbKKreRJmwZvLW+TeOzvdQHf6QLngmzyk0UMxJoFW3EYdKMkXl4+T8g4YBX9TX6WUcNK7KKMKuXF0gc4APqojoJgpDeS742h5sZfTWk2yp6hOLNoNk7DoDfr5qgJOsswRgx0XFbKlrN13Wh4M6GUMYH3Bjiizh12boTJfZwzlef1hE2ExYDurVPvoUVvwLfAJW9aw6Ld4w0IbHmx/be/gxEHPkW6D1bp1C88b5BIWt2HZf0sNzT6yHHWwUiFpB3xlied2IqOe3BwoluUqk+vujLwvv8NCbyEhwUwuviyuXELKz+SGNBkZtNynX5KVPNrAFlYcENUH2pUbW7w8UVPkVHVvMWOLhnsAo6NxcLMFwJnY5Muv48SkYoXaH0A+cLlWRnRksJFQd9W3KL04iyohcvaYjVyK5s4/jPDBgx5j1paf6QevhWc+UAXxjJtJT9ritOpg34SHpZ3rmO5dKqQraauYmTfPkxDSliu0lUq5hy9Zcqwe8bQzhy3mkX+XTMpIErtkW9EFn6Nn+w9PA1NxGci//9XROuah9E65ykv1D1b36Uxu2/UBb9nnbLfkVRoY90v4NcC8I6yMG/FeAAXbfPrkzZGc74xc+mlAM2FzBwL0Hlg91ftpBFp2hPk2QfgsDztpFNPfK3tKD4A+ngM0bklXtvWXfV5RGhKBeShk3AHJ6kqjri+PVkfvwYppfhDjyHBmiVtB3hlheNyLq+e3h+yEtvD+Xc6eluwvoP0gbulgJvAKz730r7g8JBYn1wkLGy7J9p4BV8RXpkR9V7fRICpFTu23kK1xuDloqkAHjJqK5CVI3s6cKCReqcPM7tdIRc1eVIiIyffu8bCKWoxpF6AdOMcZxnILPAANF6jujhB3rLDp5eUdgHL5MxTiqpPxY6Ps0bb3WRj2Y8pXvZ+Oum/ob/JEehitbc60ecMVARrOw6Z6fNsLwAcql9MCWP2ZRBFVB6nhclM/V8QDlisikrZZn/BZNRIqd8LfLtm2UnYPN+8rDAwb8gQ/Y/TmQAbuTC6yxhHcKRryHUD5gswwjBFiuGrqNtfIDzZzlYXvgNh/wWh6SyAB74e2EhDZdmOnTDaN98UopJl+77poWR+HtX9njm0PAcHUDc3OM9dpnLiActYK+M8TyuhFRz28P+OHkQ1k55mpUazDBFbPqQr2HEdorVC5T+bDjRqioYFKC0xs+G/FiwPQNqXHz5aKQnqD+RB5UbiJ6hCMoCpqgFJgME6gjWT2jZxiBrHNmbLknR7DcYlRGYZ+6duEoxIh5tQSNQ+Z1f1gsHBlwhhvuT444A5Jd8kwAOTsrdXwIV2V7jeNfNWnq9iBTCKioQ23lEoxWLZTtUEQruB4wkRN3kJozK0UV/vtioE/IQZwkJe0jjyaWa7VhkBOz5NdnqnrNw8h3lv4LRWgRuS7aFkgvq/ML/oQRe7Q2+Mr5otPCMuCgKGiwkGB21cXgV0v4hGDAWK5Lo2xuYyX0gztH88lXfokBdw5eCVqHB7wJvAmPrX89Wdd9CDDvkOG2ZGiA0cZGMj28OMxEdHi4SuKG8m3+9H8WUSvoO0MsrxsR9fz2kFPFHfx48389HfS1xvedP/1X3jrYlzkKmF02n3Dv3oVnvPPVlk8dd5HhBBb2MhIXWMomPH36WFA8mhTEgPG1Ac9MpOj24rIY3rzbhzpm8gSf0JhAzkROg8qyfRlo0htsYnKMQz4y4EJPqp/chQn/Y3kGeHmWJuwLVkEjf1z62Gyj9PYVWdjLfEpu4RrIj1JSKAdfcD3gHMUX3Mdk6OE+yC7V96jfzKv88VlSlYeVaf9gRmcpQoj6qOBuenCln1mvbQU5OcHECGy7glKIsJZ9aBtY2A8ScVwyYEHyDh+laX3+67UDQviACVxEvgYmb4d+sNDdeGU4m/tfYsCDhoGeQG9gNujcdwP+IcOVPi4JcUSrWkJb0Chkkqrw7vrwuTC7nAEC2tjgSspFDfBPhKgV9J0hlteNiHp+eyAGL0hfv82Oen6/cVnUQ884uDi3VXQQaSh6+iZn6miPeOk7D0tlq+iA41RaBA10WxvCoNN0Uz1EMF9EQWPZyhCexU2XLosVO7vkbZdmP5fdaGpK/VmG51DLemCuC6CKl8j51Ta9Xh0Z8NgwT+ki9n07gz89FEqNs0pKmGajZQtd89gsvrbLrGuAV38FWsasiRIuPXwYhgVHGOgD7rR0GGCe+lENPJIj1A0Yu8xOpY+dzWtxRkKlb72cFFsiBhXrT/c5eaOBujtoGfBUWKbPB57HpepNuGj6Ex1fc+Clovw1BkzOxN/YKQ3BgHOU7BngpR36uxRMHT2Ybj79EgMWXrw0Y/l2130CPkAG+JG0bjHAc7vohRfAU1rCE8qUyRYrF9nHcU2UNpv2xvi5/8wngaNW0HeGWF43Iur5fUBu24b7V1z/mM25C3eJn0v2QYWvuxuYtbGneGQXF1E6iNTk6UhS1gsdFUgaLS42oB1QdeTqYjdeLucABgxsXB/+iTMaAc/JCQZsZqw49LTT8Db0+vI8uPD70w5Fhu3kSwbc657nvs91NvAnlh61zt/XXESZkI7hqh1NQs8aBp+VASsTdMFrI8wZzGAf8FxEqVOYUSOwGcyLpf2z3P64coEX3u74Fk7ioPG5FwN95P+qaMEwc7bdCGZPBIqed6pIe3/7+Bzw9ShosJo5DyO6CSF8wHjHRjOHW8mhH3ywcU49pF9iwFTLywadn0EDTGVh+tdEKv8aLiMXhCpbKDFNCdZDEhp/oZfqPyOFQOBCXQXYBtXn/DyIWkHfGWJ53Yio5/cB2BpV9E0vm4hoErgM+cfz5qjjhYUEDyKNJY8p4Qo8tpgkLd8e8SEEi5WCM77jgoK0tOXFAwdEQRP7JrLJ+eq5B9jtNy7OrFKpWNzU6uDnujyE1i3V1jrB0l1syjBwOn/I2HdkwP3KecV5bKAjA7xqXjBJL1NnIn841VuvbaCB/5cePG5AtdBh4L4dJp9TsA8YpShLJMfVa0dFxb5rUR64UuPDeYZnxQncGCgffQsOKC9NOFtqeLlLtGofZk/kePVKBG23D9dk3O6wzRCSAZcDDTBTfPodOxGCAQMDjBgw17vBANd0LwectP8lBky1FLR/RI9MZIDRjMvkh7cY4LlSRKlRivCDorQqOihODu25cB6Q6JwHBKA+dTboqBX0nSGW142Ien4f0alCL+CfZBvZGZyqQkPB+oqzeaos+ccoiyIrcR4elWWX/iQeGg8DazOMci10RoTRPc9TCRmiAAZM1FASjq/lbqDLlFAbXRGg5hYlVPm+q7FZTrpW8m/O96HdZyVv29hjwF9TxcvtXEGHCwlmx19sgas1FKGVt73Nd7Vach//yErXxm3C7AiJnhFmhzHYB/wEvQMJZilea6aBPAOppflh8BJGLFBw2rgo+w265ypMvc0Oy4+KDt8SQ8vXHrxHIWApuutd8jEDvh4FzeZH4c5sXUEIHzA+kH/BAA+8rftEmX/5RQasoK6VjcZ39y9rZIBTtxngFvriEl/RyT683kW7Fxmm6ETKfyZ9ExJRK+g7QyyvGxH1/D5CkF9dBfSvdBGd3hm04O5u5k05Jm3KUSaM8U1aFXgQCe8YrOt2Tf/wO2krI+hrTdPytWHWIE1K9gykZwKioAkZ5uJKFPpPgUHDmLBV5wBqx7HPLX35/7m2YaVQV1pVZQvFQRtepQKPAT8Whpd6XjBgNmumqFzsGKs1xIDHBwOsGT1XPuz46sLjycq7TyxvwgS5BvuAaygOeVy8Sm9feKh+v4ZJ54DNdZhSIl3mBV8ylQ6KgU5PjssPs5h3vfJkybz2ahdVSNC/jmWPuf6ODzi9aoYtShCIUD7gQxAWHT4Iq2MXkQE+PYZ0gw94waOuLaWK2zVcQD7g5FvxFh/wwuihTF6vNVdahFApPXu2vNi0zcX2o+xrnw5RK+g7QyyvGxH1/D6CahhIEezQbt+2NnQjaZiy6L9wUeTcGKO+PHcvE1QUpcTNRJ9HsIEcw04M9BWYsArxY3mG9EwQA0bnWTMnuS6uQhuSrsp557hn1tsjTuh1pDI9BsySm0sDPDBgTFXQeY0ABrwYQibHLe1r495vyu4WLm2FOQkc7AOW4SGS55V+lSS1vAix4+rgHWwVSIGf07rvHBaR1WGSM9IXmyeuXAafXG6u2odDQT1OOaxMfi0XtDv2Qv/3UhaH8AFjuS4ywCxXDf3gdXWHEnH0FO2799dbMmEJ+6Z3Ah9V2SDwv+AfvjLTp9A9AQuuzRK65pMzFFyAqbOCVx0ryU3aiql2cCct268e5/rnEbWCvjPE8roRUc/vI/CWgtinF+/SqsItrXHxxE60dHQQCS7YsXrDS8PRfPHFU9YmnEuTCkujdgUSOsl6OOUUEAVN8JBNpJZ6GIfpogRz7+VnXfzKJesnHenMQ8pfjwGztB5wXgMxYG7TvQgCC2DA+xKsXMDQevfKuPkSZMDkj26IIQX7gFGU07dp86pY5t7xbDJMRuGOdxzm+XVxzLHSebFgkrO8L2GSjByzvuD4cxyc49zBRR2WAf8VwIC5ov1bh1XDnAMmaugccJLlQxuoLL9ivK/mGLx2CwMemIZngFEySywnobJGqdXHzoMj9q80vO9h44X/rWXrkMeNfStPixuDt53M3Zfn4z4polbQd4ZYXjci6vl9RC7bQITJ82ZVRktHIz2sTl2VnpuVHro2DjsQrfyJnhdRpBEz7s+u4AesZgT0FLLwAQw4J0H+mZ40wxTAeUG5CMq6iV+5pLMwkAGeaciieQyYWUmXBthjwGO9cXEQxseAvehp7xxyejy9Nu7SEoZ8kRPx/IFB/Q30ASuM26lUn78qFtVERpAMDF87A6X+RDbK29r44qYBhS/3YSUeWbQNc20/7oIPITnYequyAu9l6vgVH7B3DtjPv38FoXJBmyg5auJBCm2f6k0vTHt6UowhvA+40x2R8Ak7rxpSjmdRiSW6e0OEVANlk008jryJTbXsKeMrjO1My95r067UO07u8M+kf64gagV9Z4jldSOint9HEJSGTjGM9ZrLDM0fY/fbLZ3WfsuKbdd+FCa2o9axShOy1szyJEpKRBmZMwxJX8G4gPIy948G+CwKGsObjzD5dJ//OAwHIyoTuOXm+dMCMLg8J3SoBzzlL3c6PQZMGkEG+IIBN1ZQe35Lv3007sIqpAG+8AFjRBW2kinaV8VS37/Czr3x2sfpfnOCOU1/hSbwEAeNP8EY6CRXPISHY4QNdfpXdNolCNkX5JcoHPJw/Y4P+HTxcTvC5YLueWkv9XXYGkTHaki7p46vHGF4BnxMRdk3696uT8GrFSZ3rvU2oP8TVPozeQiazA00xXNSQ2TSXH7VtzZNRdxvP3UdJIioFfSdIZbXjYh6fvuAbUew9Dtp2WtnI0yEUTnJ2elhz8GL5H7SaVJydDJWG7q67ZE5yZuHyWQyEQ4P3LQGb7pkwASOAlKC03CcDyHn3d+relXrL0DNee8c7hMamMeAuR/V+sX1HgMONsDnDBjzMgqHALcME24b5AMm8Cpka+yreFUs6wUywNzHySgdaEMSuhxKBxtFiVB9s2X9YOcJXIGG6pt1PcXWWvMM8CEZ5UcMeBYcBY3Y/+X2/y0IlQu64blzE6N5yKQf2LbNoNdd1I4H2G5hwNmfRdRsEUU1+qohwcPtIfvS9QozpfhjrBXgwH3OK6Z9wL+eydWrVJuvKfyTu4OjVtB3hlheNyLq+e1HVoKBPUyPzzrBzQrnxjM9G9sT/kTVbddp9ZV1D7p6YcoZeujzCBI5mXtIhAQ3qaG7LqKgD1mB0kX7YwOco0xkgKd269rqXjga4HMGXAhKy3dgwH+FYMDEIaNwCDBl+TyHcwCCfMC4wMPlTaptXk0kuF6ghJCk1ApT8GYuwXp8TLnqRZBTPPQSMKVjBDguoNNpSVR0J7BtrY3GGJoBz8bvMeC/ywC/Xw8Y7UEPK+GyM2K5+St0kSeZmS9T5k31gCWvHrDlmfBjPeCQb84BgcuonHHqTTluXOcGLbFZLMO9DR9YQIRLG76mnp97/2SIWkHfGWJ53Yio57cfawWWZU/njS3m1NqDpfaY6ulOFfG9toKr/qHWwbCcAu0De+KkJb7bh/pCD8lv3x4v/vv2LQnwAP73z7frDPiQlICx5I/jYHNCDSU12Inzqwa45RngCx8wV1QuY31uYsAE3s17405eDtr7zx34txsZsG8bFu9IKBfVaH81OinrZRclq/MwPKouzlxrm2EMtPGZyxqMe8LM7//GBzyqztx+esf4e6Hxfh+wa2GvMeDhGDLgv3yJQIS/iwGH8QEvdJSkNFHshjv0RAgvXkXovO6bnjcwYGw+gguPr6m2ig7WY16ti8SbsQ+bgBMfKF4+89NphQ80ZdPLcwybOTPCSaan17bXjut9DkStoO8MsbxuRNTz249Bd+Maj29gNU9gdbPt6j5A007P32K5fQmW9PshzokcJcHipWnLT1EJ3DPAj2mO/ADL4tUoaLzjGeBhiJICPgYsXzXAnYWBujbyqL2PAV+as9sY8MEAJ9OFj8Zd3t0SBc2dMmC4Bkod0nheYmt6BjjMMSQwUE2Cej8zW7glkYjOYvgHPDDl2woFDBhudZ77Jk7afvK2v6trdDpHm9FuoqYrDHhhcSgVpc8A/6MMuIUytIDZp4SJuHdODnh1lOGukYfwDBjDNQtuELP5plcGA2uMUAarQrsbtlLCumJ4abNLNf8PBN5RKzW7OeyXUezBAc+F8lBRQxc/jgJRK+g7QyyvGxH1/PaDqqCUAI/FBUW0lBLcMSxdWAltBJM59vgXgvIsZEE3fSqIwGXk2WLyk6JVfPd/Zs2Fd9c5Az4kJQjFgAm8ge7fXd+CXj/pSFMZnqvsb2TAuS7tjbv3wbCLMz1kIo4LH3CO4lGez3e2oOciyqKdD5GI44uz2BHh+eTED3nuGmDvCamJeXxCjkI+4Mw7W9CHY0jkoSIwYMCuhb3CgBdFeGT1hAH/oz5gVX71Ek8b+1CfplDzSjG8lWxfB8Mz4JzQmP7LfQK3UzxHPXYoL8aUqmpIHTFXvFIMy83F6WEil12I/ObHKk8WTphwirRq59nPPxWiVtB3hlheNyLq+e0Hrsrwu3/YgY9yoa8gI7m0EnN+hw4i1Yj1Ajn7jnuNDjDCC8LKF6uVD7BoIdVzGQVN4BLrcr10SQkRhEVUdtAwra4HYdVrG7g2YCXPVeYxYK5kv+MDDhMFjREmMmJkid9/NG4tjFUJ8gETOQUGzKXeCcJqoTIW35bdUCQHLF/Q1saquXduyKE80Jnx8OX4BCJnky6VTR5yeAe0jRJxfM0fij1/4AN++QFPcEfHgLMNb2XGTeRwpZqrE7SZkkcnByDCM2Bqbnupzkc17/vBDie4M/nZImQRxpe2d4pqV73g7xigwdv5olKTJb3YG6cP8ZFfWfo3A8z/zYhaQd8ZYnndiKjntx+5wROiTKufLapRHLvEL+CsyVacQbUI9NQc1atP5m0vsSOEiCJalh/nWzyIISgTFg/ZRDrMMSSHR8EjMit/KM9Z7+Wha9BSBd5TsgcGHLQFfWDAgVvQF+eATbhucVYnIfobAsHngG1Y6zFV+nlVLIsqTEWZ7jWuXXIGb2sjXxId6eMi9EWmJycFDf9bhrQ0+c4xJA2lomSXtcOf3o2Cxioww+kFA07/LQY4jA/4GBzAFvgQB5EwXNU5dF5oqWi+G8JnwhIOaTjAkvGQSSv7gsLnkulJ9/SzuoIc1Z2g1UPinY0Jaq2ZP5vD3XLMpVGsYJo25p84EjpqBX1niOV1I6Ke334QeOuVgS6/ZkPorqApe72MtOm8NFHmxiruJf1Nr85yBoiolHreMkOPMigXNEpFyfZCJeLQhiSM9LmeiEO1izC/8FjxOjx4bwv61nPA6DTpuCSGCHEOgeBc0DIMlM28k4jDO6DN9cMmNFQVJBpaceKB8CqUfeEkx+iXL90eNFQ76aqr9EWCxr8wPWRRe5cBY8S+hxZszX+HAQ7DgPEBWlmAdc3suhE7IFc3iykUjN5vdHy7/OEZcLY69epwmdnDE6iskYbLuEdaeglzhEyY8ygG+sFfOuWiy7iQVeeLvcjPPO6eZIqLT1wPKWoFfWeI5XUjop7fp1D1MdKRsmqP3d3IjH5ZcY7aKi4zyrDGwITxIkDXnGn5bg9u9JLTMJFGEEEM2Ibani1fSUVJrOctDWC+hsUYaBRqezUV5VyCXIs71l3/+3zAX77s+zBV9i1VZd9FcC7o7u7N+ePzpHk1HaTZdo3O8zh0Wfd1A2bpfE43OzigjQbMAz2WFidGoAZTLh2LaFxiv3HD0R/Hx2lxZMABryZH1VDc0b+HAYfxAWM506tKmZg0Xz4u4fjCo9n651u75d8pDusDJihtAxeM/2KHreOBIIJCSx83Cec2hJY4+FUSTF750J4S65bY/EEi9j4xO583IUfUCvrOEMvrRkQ9v09R5+GZRK4vPcF0URmGvwzgyVHiEmqYtqaU3C20zHJ0ZggaJbiFzZTDG6KgXNBoG/SP/DDY0uRqm6EFMOo6gbrzJiSgZEnGrzSy2EAb/bY7dOzvi4IG3G8IqUg6r4Qe97sIzgVtWrAq5DsFEeSdaycz9CZMGQsH3soqkWlra2y9mGWcTZBk+SwfU2MIzzqXZ1ftiwjTfCfp4aF7BwY8DDDAx0SY0fmAv2ALo4eM0tv0Y785dUi07GRQ83/KYRkwrop91uXQbN7YHjeCMbz7inamU/RGC7FD3EKrSidze+3j4pOACLfkjSdxO3y2j38cUSvoO0MsrxsR9fw+RVa2YErG8syGJYOCS7NhT4jmFbvG0l15sxdboZXN0g3vZEnle/ACG+u0tIUD1XNzvVMPOMOVGkEre7zD5zmGYQorV42o/A7umq6qwfWACbyB+p63uv8OBqwZK1gducBfySiMDeZo3J3vgRec4ko94JFLMZPjkhlsKXJ4dQwPaPeMcIdqXE/iCurxkjjHUEWjZKHfOG0C1QN+IPtXrFQOR4fDUyv9YPw1tPDJFwNM4KDSRMYsunPA4HWKr8iM/Uny2fetEobXUeIaYPRG3ZOpEY4BY7mO6VUg40qK/wm5RRWtRJPsrvZhOsoc1bDGKARryi+8x1OqO820QPuKz+UdvIXmX8Jm+/jnEbWCvjPE8roRUc/vU3iVWTLc1Ci5GnTcD9xAXqCQyx5fgot9diieOc00aecywf9KXwlowYgn/bUEYFVfkHa9jIL+Ai6CNvl5GZgXd9DasKlM5pldik4Rxa1tuQuCPxijjgdJF6jiMnSWLfVDJV1fFHT24qYbGfC8CiWXSBnBKhwjFsaw6AycD5VwKdgH/NKETlaWloNrvFJ11G+2Xw1bzB7L7VE2qFVzj+0NV/Kpsr445VQLaYpom32l7WwTnnXx14rQRrA8Bze1L2/KHgrbR8iAvwjzJjKpD+xHXmBiXRmmkdFb2aeZTsIxYIJqNT0TTjef/EaQyFbQGW7HC1z5yD5Sql1G9Ru+zbz0bgQ1551ZVrT4oGkGWt/AdUJeN8O4maNB1Ar6zhDL60ZEPb9PQWlV6Lpj86Xln9BKBQbwtKSdq2JoC4bNJhhjcWadVNFCmfEOxdHOGqtXyyTgrgxpLI4G+IIBa8oUqc4zT6QLTIVR2Elm2nC8cNnuxjWlD4/WPhvEzgRNQpq+b7cuGPC7UdDhGHC9O0NK9fUpUIVTWbvnjrugBwvmDME+YO+M0QMntQLVZ32PImkLm1rYZA7gsc2pd/rb2/xPF88PgM1tuOx4YIzgtrMVdDYtPeseZNAyljCzC13Fz67HCBWdbIvyHLBz6lxeom489oyn96rX56i9d1g3RQ73g5PNjlAMmKA0uw9TRCbTJV8tJQCM2hqei5YrVlvv5osk8K24Qc5rJn9g7uD5Q64Aphn3qgV6hbNGHhngWmyA/0MQy+tGRD2/T4Fnu1Cp/Cs9hiXndsE5gbyjPOk8KnbGVc/p3nqho5TBV6rWbWvt9J+Pj5kUd6DIAVHQ2LGw3WtAKg5sD0N9n/NDN2pmsEDZnBIT/iVI69TFGdRVz+3WwZ6Gi4IOx4AHWhMpw14z0D2bbehcKvP4mGKbH+xyQgT7gLcmsq/pKyURtCqy0ONqiGrAh8eKQxgHnVdySh7u5uv7M+NXb8xgdn/2Si2mlvIDrQ744/an557PFCT87Hoi50WvR8uAidzeK2qfKCz5+XW7BCwkv/TCnkpV9fSwbhgGjOH16pT8A77DstE6tZGEIHvpKDNcsbu93mc3mccQlR5L0O2a9yCwqpkxKfCB/dl/EoKcIWu0hZ439vEW9H8IYnndiKjn9ykIqgLTXwEODHfXrEYgi/Py3mVYyHKfafk8Vouq87C4zkO+WLtcgWPEizFx1ThD256zNIABfxFUA/IJdmVcrORxwe6T7o8oEzW1lSfo+FMxIP8TYAVN+Hua5o872n+nDxgQXLQrMN6Jl15gjNBQvEyarIZKUBXMgAdqs+DKPrXSXy7Fi1MojOdfXL97Q9U5b/mQYoy57sZA/3Fa5tmBoEpv7hAzq9H+su0cVZtBc8dNfO/AS9+STOnnmTHxrezFEEV4DtiBKg/RkjLJFJWXa2dwcUGTi2mUDbQsVc4s9ccMGKOyC7nI/Yk61RbPpxb+Up3CT/DhD3okzoMjGr4430z9SUK1t7+yRZjDDKKOjimf75CjLgAG7N5W5hdxENZ/CGJ53Yio5/cpMKI1RKkFHqAa0oPPFFLZKqR5Hl2YXIReEriIjjiyY+VSkeVwEZ0mHZcO9wZEQYP1PbKxyULfPH9OZ64XTjJRE3hlBmN92LF0mQEZUPw+5+q1/Kt4NB3hoqDDnQMmcLMEk4ClgtI5gJ/7by7vIadiqAQIBx/wSVH6HC73SCj7qUhdDFTY8mN3ifTcMxY35FkAKxroBP5asn8knTmQ7l0UhQfvbofa7smXbVNbdIjmYaVXjm2r1RLcm3+YnW9cd2p63kvOFN05YLfv2WoebUInuR5/rYyjoFZ3Y9jjB67UOCeYHzNgQm0YgP8iv+1EPtmAdi8QtI2X5YMlLfHigsPQ1k86OrIPLjzZVPHKm+V1M+ArJrYbWEpxKb9LsKNF1Ar6zhDL60ZEPb/PoRplX8L2DCMF+8FylEynjtcl6dcATfNioMyW6Vl3fsrCct+3T2h5/jiVDoGyQQz4S64iwaDbZ9owt35jkKMWSv8BakHD2ydVfxYROS/K2ql1IPBtV4ebdV+ninbsUTgGHC4TlhN+Bv2oD49FsXXeg3qlmYe8p/dXuOO5ByNk2f7OEV6ejdRYN9Uz8VKaXYRROYzPCxsCRM5EyyYannN6zg8DurmQYNsZclQ7b/t7y7ZgVkl26M+T6RVbSiSm1Rd/YDyefTK8knxRngN2QOCNGSqolXhkSlJXy57vHxC5jmpWixxysHClqnq+wrmeCQsjcEpYb7UnZTQpIP7LlvXFhZMXy3Xs0hu8AHDgmdKYDy6iCjECEGnRWKGaxH+UZyeLpY43rft864JB5+q10jf4KTQG8Tng/xDE8roRUc/vc9Srfa8quaO9aSU4Ey1GeHraxbfAdBDb7hCShGS+JNdPuOD3dXcGjxInnjfHVFsBUdBuuOkrdJWx9Kzhj4SmskoP6qhvx31SocWTUG299aqn/B0fNIZw1y2RmmmD48jCRUEbjQsjEMCAgQzNDSJR5E4560GnMVqhJIBWiGRLbud4VKa5Xz25IVtBFf/YvNU9TahPre0VzOr88HaLB/iLkxJyA4vysbB0Tqof5MHPLjawhEAmXxRPPdnUWp6QcFVU4P1tdypN+GKcM2L+rQHhqbliD9mJo/QBO/perb16xQqS6XGp2TjfR3FWN8Mx84hI56p6WbL3KgMG9ldYqxWxaS0LLHqC41vIXm5SYPhC6XlCeWbKr0prcG5ECTzbkHZvSHiPzNDc+i8ZiDOYMKdQ7F4waMpEhSQypbDppqNA1Ar6zhDL60ZEPb/PsRbb5NGwkiXxmuupMqMPOvNKMM5A5VE+H3Y8VPbbDuQSOaqj7u0NrPSe4Ho+GxXIgDFqi3hQEnAFcaGuhRyB4VR2bioW1HTP9LDhERW800X5jP4slKoNdQ05KEEN6loX8HuYHYSWsj4+8XdGQTv7kwrKAsZyltsDWFeC6mxfZH0Fi/4UlvxlirFADKoTeNSaHnZb6ja7FmDPqSwPd0sf0vRGXtQHkEXh1BqIdwh35hNv03CVkI6YoypYCbjoYdpBMdTUmoev5IHNt+2X+uHVAusiz9DWKTc5CQygtgoyginGshut7VqghE59XpENZzGXZOFdUZ4DdptUlf7hE3gmJ6OqbL5o82092+l0snV1/iQ3LToDjed/FXbNyqV/BTHgB6ZsyGewlaqkD6fj9OHboYdyK2iNlFu/NI8bA0y+1PzZfVqAGVBfOz3ZqvNFQ6yO+hwMiEs80pZ9WtyX0pSJEyfw8AwYdGV7ZNkYtW6ZhpdizghX/DgaRK2g7wyxvG5E1PP7HEJFOhSUTyTKunnNAHv7rFCjboIqwxJ4Y4PyC2YKS8PZzcPc8BNgCJdcBtrvXrPiK7RzGQXt/JUSUV6gB3bcl8SKSuUIYQs0/Zj5CpN9DMXDNiBGaEYPbQ8y+VH3xWVhGJ5tmdViHh77SIxfRb+qChsFHY4BE7mKvoIs6pGhwZKh7o4bX2u1Zo9DdGVpBOYVCYDnA0/8SberotlYqB0CNtO1PIvGTSWz5fYALFdeRGNCQq38tWe83JhpP/s0OhgHgELgOoHI1Yaw7YcUN5FMzWt70W1OSO90rL73t03g5uTgXl1tlC5YSqlaw95MSEcm7BjeFy0DdjOiy8VDwb5HNk2Wf+i83DUrC02rmKLczhdQ6KETgMVrg0sBIwbsLDW4cxQKDJP+M/PVa2G8EeuBMwHLCXt++ehdl2GZ8coyFLHWeNG0xb4mKoa1emNYdMVD2gI09yyUemExblefmZ7eXR+WnER2UX2lYR5rchZXQ/rPQSyvGxH1/D6Hc6T/qH2ninath6psHQ0w05wHsjm16wWSPDK9oc4rsijKCq8PezDJMKCI+t5nugMZMFCfml2CVSKS7Hj6qkuKbSvSyCqnoBrjJoqvfSJbG40fkdJaDsHVstgVbd6Y9fPQN5lhSraG+/r5d0ZBO6ibOtrqfmRXsAei/BP0YAojwIDFbJthUvw6oLozL+Phsm/NNnx3jppq2SXWs4K7tsHbcheIV9Jfe8gAsOSodosH2G1uy78dZ0B6eSXPB7BSLNyFfuams2Pbw4nXNrfpnlIrTNOR2yGRKpRLQ73JS0a7tHSmCJvv9WESrijPAUN05kqRPorgMU0u+8VhW9cNXW8Pi+WUt/WTKUyNfVB2mCrnC5B4F+neqBsUogx7Xd83dz5PT4rJT0pgBuiGoY9mVmmS9zbCnZSV1k/1zNGL5bYHjxLXG4J3JNbMp4bZlXm9BFc2SWZnB/Lvz4KoFfSdIZbXjYh6fp8jJ5i94xdfbFy1EuuKfiRKBeUyFtZ9GiVPSHjJQ4Zl09x46RRCY1MZz/01lf0ndYKioJ0/U2rTS07/9TnFpgsFjkmzf6K1f7Knv/hTIuJruccgJZlJua1OaEAVWE9zpstN9WSv7u/MBQ3H3S2RiUMPmAJZdsfNeuPmekrg0cwgUHsJ7SMkkqkUy66MhufuVpskoloPzyzLcHRvlfeLl5teMZ/vgMiJ9PHNjouNYAZN1SUy7W8777TNsKnnwxDt873ZrTz0tlQfHsFIWCAR1FnO0g0YPBc1A3YkMK+9sgeKCsSeeXYE7yLF/nH4exrw306QeA4M+CNk6OZ+fdUDiwEKq/R8tvzh8dgRNpXKHMwvdPN+vyDSQoX3lhLg++PyK7CCA4abJtkUvNepcfKJPcCxAb4RsbxuRNTz+xwE/lI6qN/MJpjYOgBE6bA2T5ev1C/HiJY9yx/V+SPLHLbMEo5fa/jzhGJfYcBYbtCQpoXjjck/Ho8O6MLSME82wHOUVi2SKV+rBS797NNVO+ns4MjfzYAxYi5vaObYg9TJuNNjq7oI7ZnF1W7/sCUKUD4YYFwwjWn6MLCH5zRXYI+XsuTwZ+v2SnNYozj2HpGaNq/kkcapRnPKJP1tc762U5ylXJzaFuaKP3TviBRZ+inyyABHeg4YdVSVN1PyfRb7L241rFaC0zSHYsBJdjx55ff19/gnvn6pvi65hw8exeb7euBRYTxrDseHvnxjC2S+TI85Bm2hfwX29/cE+29H1Ar6zhDL60ZEPb8v0WqP0fI9mW5eT4FH5GTP15cg++a1y3LfRSufuAKgDE9JUmAUtPsDNW8umcCHJJebxlm+C4zKyr1ATe8A8N/52bj+zlzQaNy4OSxf6wFZtNcXR0quAsPVNuOzwLRhejqbEOZGPn2tGcB/B2GqPZxj0Zx4zaWGVw8xYYIq5YNfSSKQ/8Is2L0g08RMpbmqlNzd0mjPAXsd7bT4PnltcC6eJ06uyuC3GIoBs2SRb2Sp9130GFVv6KurYkYgi4pKBRJZoq6U/F/Cg4PDvzKkZX5Y6SFaRK2g7wyxvG5E1PP7EmoThTA5SXupqx3Ect0Jci99XW6uZtwDXLDbLNHpizV8hqH7ze78LGokmAG7HHivtHtc5uwp6fFuVDW3F0lAqJate5kSTpvlJhulMjhTVn9vFDQct2pKxXL6oguZdL7/l/h+ct8zEB1xszya2bLeOJAmfLDnh6uAtUbyme4b8i/w3y9uTSAk52RBup6OERf21VlQ219TedB2YP7h9b5qlU+N09c0uRvZFUFV/p0M+BYfsHtDZyE3i8vCcyIIyUK+P1L2wcFTX95nwMlUukCOy5OiXhUr9Q9D1HPUtqHo/atLna+pt6XVFDXhykayoNntlW/z6IgMs7Sk87itT4eoFfSdIZbXjYh6fl9iaxeRUn2npq6Dp1ca+ckCj4oeQMzFIXlB09L5ody6PNcYFAWNIDxJE+ZMk5B9JdhCEPiCL6XP7XXigZlIe+FC6h9FQbvPCZkJy/djd3M5bjZv/dQuLn0fufV+kz+YLR8DdlcmNWOZurDzqYIlt35xdg3mBmrseSy/p59zgmn02Iu2nwtF+2rw3lbcjE8s8DeyX3WqbAAG/G/1AaP9iFAMGI5ONfVV4Xxw7ixiy9bP1sVkOOI9Bsxy9GpntXlR/bDgsAdgRC36yhMz3FSvvVvPd20aSyZgLZqm9Vr9EyqgU0StoO8MsbxuRNTz+xJCq6bwvAT++9mdv6citqYNr+PFxXvaEevMTcV4nZadur1phiPz5VVpJtlmq3OR2SdXl+Ezu9sLjohvX2Ret6arcn6cp5eTfnE2qna14C00IpddiLxenNAkx6TTLMNx+fLE0kFf65c34C3RHbPS1S5VGb6v8u6P+8uUFoLahf21W5dcZqA2lOZrH4y74I27P2sqtdb6xsRDBFVvKNJoaDm15TZ8Qz2JW1P3drP9Y5UnQSus286qPzSqtfcsxLvAO1XkXRiXzPd2SAl8W7Gldsnf9hK2vb52mzBv/Gy2S5NVmQbymJZewStxDzEJWrfqyFKu+JJJfF/Y7h/txu/VjM9RczRZ7dq7k9o/OkHdy1VjBkXLph4SX5/BPCJ7YBbJptZ5p0OaAqfM8b/j/1NVnGDkxmIecHzpCvB1q2Y7U9+ZSmlnOejQaI6klyUwn8S9+m5AHwWGIc36K/oN3JtKPafBjeXezvrr59PvCfUfQdQK+s4Qy+tGRD2/gwFV1N/XOQKfm9VNcbKkgeH8YW0Me7H9hex3GAFWB7yxeS1aM51XxMo75Wq+uBnzRWlY6pXp8RhonOKG7/7PB1rvv//7SsvY9d/eAbCOjape3IFxl3t9a2YolV9Lu4sReLa178qyaC62F7kR8WzFNqyduzIBC5NXXdn/1s4iJqIytYEJzk4vxddO233Yds9pu/FB2xhRr8iSMZq9bgzHkg3eeyP/7/99IbAvf8t38isPIajs3hler5x/cxZRefAam7U5/jF5JYi/d2sXLCFq4BParZwYqlQBGF+weDHsfTbEi8Zy2SfbGIJpOOY4QMD7r6NmVZzfmKElGkStoO8MsbxuRNTz+58Blhuo2r7WFWXZPYpYaWVvcYIen4N3VK3yZNbMRmXRUrPXitVAEODqRaMmuhmIxK65X6id8LFPfwfAimGr7U047q477tCnj86elKMGdXU+n2+zF94+8Fu2VXFbsd12Kq26cGP6DT9ylA0jgFPD7kdJkpy257BtJOTW9po70rsFA7csKvsGkIc2315u3X8igOHVPdEqiuKK90UdhN48/vtA4OATenJ6YoOe/AQsWuw23O/o4xcNJA5G0XDvtW33Lb1okYzidkStoO8MsbxuRNTz+x/HL/DI38c9aJrPA2rNQ58h2wyZLfM/H1HM2iv4RF35BxC1gr4zxPK6EVHP7xgxzlFvtN2IH6Zs35zGI0aMvxVRK+g7QyyvGxH1/I4R4xwaDxN/jItXj3fHiPHPIGoFfWeI5XUjop7fMWKcAWugGg+7d0+XxYjxDyBqBX1niOV1I6Ke3zFinCKHy2X39PLjLKjEVYwY/ySiVtB3hlheNyLq+R0jxikGc4n75oRAF6R30xTHiPEPIGoFfWeI5XUjop7fMWL4gRGqOHRDsApL+TeOMsWI8bcgagV9Z4jldSOint8xYviRoxqbshuCtdL38eyMETWiVtB3hlheNyLq+R0jhoPcIJvNrtdZVeOXjFs5oyjOo+5UjBhRK+g7QyyvGxH1/I4Rw0HHdPM8Kc1Zzy0Wm0r/FSfhiBE9olbQd4ZYXjci6vkdI4aDLW+VirPX0oqDlSMLS/uT16mL8X8CUSvoO0MsrxsR9fyOEcOB2uyNOZLkGBYWfFwZ+zgEK0b0iFpB3xlied2IqOd3jBgOVKPsK12c4trmR2UYYsT4BxC1gr4zxPK6EVHP7xgxHJwa4HHJXsdngGN8AkStoO8MsbxuRNTzO0YMBz4DnCrQQ2URO4BjfAZEraDvDLG8bkTU8ztGDAdHA8xy/WZtK8QzM8ZnQNQK+s4Qy+tGRD2/Y8RwkJVHpd6qN+mXhiNlv435b4zPgagV9J0hlteNiHp+x4jhAM9qpmzL3Sdtvl0LeDwvY3wORK2g7wyxvG5E1PM7RgwHWI7Kqq35toPHp49ifCJEraDvDLG8bkTU8ztGDBcYgTvIxfY3xmdC1Ar6zhDL60ZEPb9jxIgR49MiagV9Z4jldSOint8xYsSI8WkRtYK+M8TyuhFRz+8YMWLE+LSIWkHfGWJ53Yio53eMGDFifFpEraDvDLG8bkTU8ztGjBgxPi2iVtB3hlheNyLq+R0jRowYnxZRK+g7QyyvGxH1/I4RI0aMT4uoFfSdIZbXjYh6fseIESPGp0XUCvrOEMvrRkQ9v2PEiBHj0yJqBX1niOV1I6Ke3zFixIjxaRG1gr4zxPK6EVHP7xgxYsT4tIhaQd8ZYnndiKjn9x0AI85wIjXs4i//cM9+ue0oe34jYFej7sU/B+z/2oA/L6JW0HeGWF43Iur5/fmRwztbP+prCveVq6U62W2HwiPp2u+1Ta2z23VEPb8NOWFdzw6o/ztFgnFhvc128Ki7ESM2wDcilteNiHp+f37gg5bpR6Myrw8oPIdEt9YqDa1ORdK1dQu0vf3Vttfa3tS2wt/ao38PcHXxtG+t8feu+Rtmc8QfhK91YbswK61OdH2J4SE61XyXiOV1I6Ke358e2GBeLflRtIYj4+d+m4M/v/AjSzLrkfRtUR0Vpdr2V++WNkXJ/NW7/0kMusaw/fPlvbUCkXNrGf5GIxh8RGRfhFuOETWvdpvFUbUVVVdiHBG1gr4zxPK6EVHP708PLFuxEolE8jED8fg1kUgxu6a5xh3hEd1iPlWKSFfWivRjv6r94t3d/vjbr9/9TyIrrRhyI67fuQRfq+p28P03LDCBd1RV7eR+/Qm/Bzy7/d+64E4qsDaafqWtRlRdiXFE1Ar6zhDL60ZEPb8/PbDsHhjgfzEcCcExzw/JFLfcyC1HV2Oia4DnkfStZuX/+C0D/NBX7sgAv7clm5WNWbP7v/ivN0KpXX2mi5FtyauKPpMaqrsAWPCTh9gAfwpEraDvDLG8bkTU8/vTAzLgFN0vlYoApf6knOfSmUTeEgWgLLEIGfB/d3+LAZvDyXhmR7N0uA1rpVTuGeZ7Bng+yrNlqfIb5nPw0iRZ0niPZv9bsXgdP/eqC9z5/zXFGk9Hlai6EuOIqBX0nSGW142Ien5/ekAGnG6L5t7FU6MrG5O3THpszAXsnhmw2rWrXe0eIn2ohajYe/W9aLO/zQBHJo+FdTTA2YVYte/CPf8fj6gV9J0hlteNiHp+f3pABszxx0BnXKg0p+mHb0Vzi90zA6ayWzUr4H9nj/5NyA3q6nZNveeenW9+2wBXpCgZMOZnwPggq26z0YTWxzhB1Ar6zhDL60ZEPb8/PSAD9htgAl9rEvmYmCoacc8MOEcB4PdwuJbAnZ6+G6D8n8WA0YCj6kqMI6JW0HeGWF43Iur5/elxyYCdEyvdMptYGU/EBQPOCR1ALAF9WQsnChTLUZ26qqpzVa2DnwjfD4Jzg/v3E3OIERR8lHt94IvqWj4GjBGAN23V+Rzc0TlV3gQlrOvbbbYDHpSjBh3YPj7orAcOrcRyeCe7HuAEDi5Tnc4Prip/DDUCWvGlAAFjyHa+53Iuqabwk8463cq6DwfPzqJbcMp5jCuL7ydNge5l66qTdgP/gguDDuUcLSKowbpzEBqQpCOwudtPNxId9PtpOP6T1rvzDmodSG99IT3wEtbgxRDwCSfGGu+0ujrJciMtu6YwNFRhDYcKnnHdGBIUErtaP8kVEni3MzzQIefH+hZK2umcM8BuiXxeNmuqI1YcDhhOG+eG46tB0woDEs9Sx3NX4A06zzq8JvCAuivfAfVbh7P+zyNS7Xx/iOV1I6Ke358ekAEXqie5NjBzxyXpWe2CAWOCVrN5w5CU7iJL+aRLUHNTaeqjkd7kxcr6aKNywkLmjdFGb1ZFzZ9rIvd93rX5pi4pYqUeTFS7fgZM4HXzp2S027pUNbeC/wZ8WxGrkmTXtCw+0J5qL27X6vuavJ8LTt+2pi3uO7jjemwaTd7e16ngmYER2T3o7mYzavJd7bBdK1Rku7sVBi1Z0pXWwN829j3bsOXGGvQBjF9GBHPQakAxiS+niUQGLRMMuio/zQfYtmLWWo4ZoloNsbuoI+EI8xrvSNLgZXPrmC9neM1J4Zkr6dVua52D0msh6XVfskfT3ZJtWcMH865k6Ht/u2uzqveZDLPjbVGD9pKoV0TnzWzAm1kMrn4p+LxhS3q7PTKUhoofx11/AXfrm43hv1sAF3crdazuvBAwFWxz69hHSt3L+op5HBf/Usx5B+u0GnKtkgV9ELY1W6wMqPrh1cBpRSx+KrJ2cCBg2e5PpXGcVoTacK8HglQHx07FuBlRK+g7QyyvGxH1/P70CGLAX740SuQjPeyeMmDAurb7qm5NystecQMM1EH1YXi9YuulFZ0f08v+kAd2BW6o5nD1ibem5TxJr/qzqql6ZClHbRf2yJou873SRnJMc4AJBgbYY8DOvrhoFCc06TzJkF8O5h/LdVqiNPsxmRSBfdJeDjZSqxrDaqMO2lovJGtT1YBha/dX5eXUkrqtII8rkRNUsznclUlyvJxuqo2tABtZ20PLqKh7ZdijZ426/1ZCmPPWTFqoXam0LOtOYBFGZfeKAUa9XJY2vLw4LDvADxXww27Vf/3LbqhmtanXHLkPTGmkA3PjXAMusfXdMj8GPbAMcT7IERSQ1HTM/pGmJyXDdIwgkF7l56Y4LYO/OC+iA6WHd8zN60bOgut75bLsH5oqlaZ5NpnK9183Xdx5lwO1Js12yzE5Lvfb/NNWCNoCx4DYZaPYy5Nkflk05BY8R4w5hhPdvezP+IaK7q43eMuwn7amtOmv6NXOMrpzgcAGFaU9eWMfmPK0JDW2mGryw6bScl7NC3w1XfBqluXlDryauTOWnFwszrprb1JiLaNY5FXIwIncei4aM7eBYdPeb9/1nsd4F1Er6DtDLK8bEfX8/vQIZMBfHAZc3pinDBiwXGW2GnNMOs1w4/JUWmTRM4iOPJu4P7DpdIEs7/gWpKhUXekvyUIagCmMl692CzUjbOUhuKPAsAxHlvt6I4jH1Kx8BhlgvP5k9GnQAsuCxvM9XZwji00IDamUJzkG9InuG0Ax07Mnx0aawx45dI4h5eqmNV4NbdsqO31kCly5rwRluARsnS+WSdAp0EphXB5WNWRXDJqcyt1Nj2TYUm17YoA7ixlJF2XxFfSOmamONObyaJXnCo6YSHrS9PKIYTlVHvWcQRfIfPmV161emW8NTo8hqaK+GheccTIMmS81K1ROMI1egU0mHoGsSrYGBCWostVD0hvTP4w9lB6VtVf5pbHnV2MgDcU/NM3inEckWS6/UnBnQfNStWg4VNCdlVVtBWxDg8VNzejnOYZNpdg0l+8bpis2Irfw3720qhq8W5Vn46khVYc0eCHgpzfa4ls5Yt0dLZlUMpEBErHkFqEpFjnVK85rrRXHq5n9E4jdeTUMeDWy8ySc5zj6+JKwSp/jZhqcVDgQyI+8ez0QZG8mvhs/HuNdRK2g7wyxvG5E1PP70yOIAecoccU8rJr7UwZMtWSLZgr0ajpZAe3LTvknqPhz68omzzD53rS/myzzDJsuyXOokGtDoHPpXv/Hrke/pcdDe+uYNCI3F9skV8ivJtNemQRqtwl45QUHPjBgYOEbzZ6j6if9/qQ8LqTKbRG2TQB6O+VSXL68WpWBOp4sycwP10YeEnHg2+40wy2HwCqUVz1wVYplhjX1cm4Ii2qfTHPlXn83XdGF5LhkQxOwbTPPY8MoFzgy3z5jwOt96ZEpb3Q6DWyhw4CprThcpjh6NZn0ymMmPTFMGPBLbbuzcjoNKPxqmefKuxXNpA3nnNQxE1ZOaGyWKSDiHRjnkkyTk2prIOx5q1xIPaTe6FVbnONEriUPOSi9lSO9lfSUdcRKbasky/WlYhrY7uUJA57rK5p7fgBi2BVlILjBvNof//FW7u3coabJ0mFt5AMgqEaPY8lybwreE/fM9SSXhQ5U5Uc+w/nv1ty750qJHf8olZYk3ev1aDL9x7jUzQJmLpVoJpVgwdj1mkq88FOYiAPfitNnbgVfzWRVfntmC5LzXvG/EgmGP/ixsadlIlFcQANc3xtlMj1e9qY9IEcmv5HnMQf+VUStoO8MsbxuRNTz+9MjiAELc34cEAVdr5ZI5m3XlBumKL2W/yzkDciB8Qo/SReWhrhfVGr2psyk6KHoPs8cllP5frNb0SpdqUSy5LDiUCVcEPvjFNnT5dqTWHW4I2Ctl0r0wICJ73ODZpjlq2KCFqrtFZsmdeiiBW33mTTX16uyzQPOy6RTDz/MgwGuIgP8jWXIMV3i5ZrMW1wqsxyZl3veKr/jGLJU7VYqDbs5/YPlZqI78m278Jxerjhyao3sUx+wY4ABr6RpQFdnupPNSpWHwOxOmzYQU3VTTjFlvety4Kyo0wxLvzZt2f6rVGaY9POJAe44kq+WmeeJJFcWmmm/jgucpczxumaCnj2Txaa9nw8IXJAnZAowTdl8EnmLLgD7X3Gk5xjgZ4Ys57mVtTFO8lwM9rZUKjwzP5RuzVkbaUqxkGaK7lDlv3qFdL6oZC8EQu2lHcOSFi8+7UWpWPiTKYrq4e5SVaxUnuQmuHtcgnc7BpgFa4NlURK7YJLkv6Zo46lDbRc1qVd4zL9K8l4VMLBmQgZYFSd/sMxbni7CV8OkMk3cea0GMMDSqQEuIQPcmK0AG5/97D51FX0H1gdFcR5z4F9E1Ar6zhDL60ZEPb8/PSADLkj/Ux+4WNfVlqlYTIZ9bZycA84JlSHgHUX+SRU624oMOO8fP2xIjUUrz5bb3S2V+96Zy7NyqrCsUg5x/Ukzzzu+kaUIfF3he+nURHZ8mB3N4IDR5M1th6ovZH2VTpeVy43EAwMGerrPAjMjax3ccQYDQ5bcuVkmc4JdIp/zJd7UVLUi6qvCM9DU3QsGnEgCQ7hRXrbr7aI6JR+5iX1ugHOCWQQDtKqLLE4J831zxSWXm4bjXnUY8HMhPxnycnexps4N8MOf6QJd0qtiTQMDfWqXn8m+9DQX1llNHJUBB262sC8Erhm9NLPcACOqzhuKRaYTiXMGnG2MgMHb7FUKz3XmSnGcKm9enDjkxus4ldfF1lrAsfVCZ9KFEt/YdoTtAix40ume7UiPqldJZ5+6N2zK3cZJngsgta7OpbiNVs8KWA7vWvRD/gcYKkUJaqO549L5zeJsExrLdZQ+mcqXlJe6QGUr/IpJrqQ9TuA1i/467lcXdXh3H9zddldWjgF+eOTomV2pZ+sVu8SkCpa9dYKjYRR0V3UqRDoMOO8x4ETyTyAVZQFejcZPyaSBf0EGOJABU+tqvsD2XFlkWzVpx6XyRmPwe1/B/11EraDvDLG8bkTU8/vTAzJgRq/tFy72YtWwllwmTTadMzVHBkxpSo9l+qI6wHM5XFh3h+Wv5aHpPENQplxhKM/xHEbg1Fx+BUZEcsKPcZ7NsPrCCdMFvG3RBmaad86ytqo/WLJX3Q4ooM2p7GI0Boy2dsHADgxYMHWaHb821lSOADd0arNyhtzJTliTanAsY9kaeBQldPbAxiUS/doFAwa2bqmD+7/jOPXC71JpsnpOuIVWtcymS11VwAkiRwl7fpdgaNsJoXIYcJLtVSvqeiCchos5BjjxwJIleV7vDJyFhr1kkiVZE6hc7juVNZvLDFfa5zBcMPvMY9mobQUc2K2sbNGOAV6cMGDVLjLcVFmDHmA5avFzl+T+f/bOplVxZd3jy1EOju5AziwQOpJMwsoLm9AhIQiK7iSTsAcZa8BGgiwyiLKU5VTFN3AgIhud9kiis3yCy5p6R/1xblXiu3b3ss/pE723ft0HTi9Xxaqnaj9P/vXyVLsM7zGqrCWR1csdeCNSRW2P6IHJRx3Bb8Y0JYUryFABYymOdab2anWagoQk+I1Li7RT+kIIT0RHpcVR3fAY2FQQnM2lKA7PJ6FJZuLIogIX7r8IoP/AmwUu1bUvRMeiqWTGqESlG3BgiIO/YWkYgDGs5db4HEEQOVufK9RQn8AWbOr0aAl6H5R5OlbAoGu4ubMBcRkUKOjD0SEAX1XApfKrSMlVjwfvKATTqehDRW5bKKvWLxK3g34wkL1uJO7xffdEClgcOm41xB1nl30RF/Nd7UviOBd0p7nuU3nX28WfitlOK3Mf/pPRxtmMWdmqkFXZUUacm4N7oPUkJjqz7XEe3nAWQLgwCbJcl5JL5223jWoFAjjXtuzzuu0VcMOCv6Dul209M4uLsgqiUalcH4lSuJUp/IrmWsawl6J9oYAxeWxsI3ygdcVnSj8PwKvmGkQyZ7JrID8bJ9NcFT4aKmBRGm86l0uNYQDGuHd9a5jG7JtCyc5kWyEhaGaf8bmxIhjPzOMwvhM7+70Dux8HYGCmiZWl5IEZfU9iVVEz3Wq4Ce2QiIMUatl+qrWbYU6QJXWgKFkziBQwtsvifU5ndsiEtZqugf30yTa+Cbm3jDJi3fJpng8hqGWeR321sv2x7XelecZgVtMeLirVfRNzm7o8Aq8AuSgAp/HuLssknJ4Ql044TXKcCeuggMMATI+1fdcsxOsKOL9TwFN1iPXb2u4kd6fp9EWpN4nvnsXHJm4H/WAge91I3OP77okUMEbJMh3+gVtrRynxa7dpn96GBKPE167B70zKF9bPI0qFQouoaIbh7SRXY1qVn0WXgZu5qkkMzxjbU8TEyvYmPAM0rMbiWAbOcEdVyDXXrMi+XqS82itg3lFwGgjY3Qf8piemnt0GQwJ3/Cy3i7v1YyYwpRT2ck0Bs+ZuoXBVcKhU+iIA2/qAo7PmaidwiVwVT4truIcZKmA5a9pXvHwUgGl3s4rSYUzMDAihf+9CYIKYjMXnvjrtrIo9GN/t3VnWzmSdggq4c6yAJ2qb4qRqEJ2xEpig4v1PGIQOAVggfBrHFpvdFc2Jjjbui6wz2Spg7N33iCvj/jgTludnU0re2AWxhOA5rEjXjdM0WURBXSbFZXNn3M7UzGTHGhGV9r/sS08clqLr/mq7BqzoDWLbHU0o3HtRAD7KhHWmgNm/d13DF3riTxRwMdvHhnphl3wEvNfMk2J2xlw5xob4OXE76AcD2etG4h7fd0+kgFOioshbvvbZedYx7PAM7EEBBw7w32vN47dMCj089YcbwJiwmniTTpT9yavU1CyXFiMFbNFUOt+1yjMvaMAJUwCZIBomkKn1t8nuUXbTzX+Ss7Pzum0VcIKwu88pyTzstMnZOoVhPbsjlJ35SFrsc04ITHOOJ9vXFPC8uQuKHa/KYVj1/OQxCCOi5NT2KjBBWrKI1w07UsB0r3gtj3IUgKW/dydmKtWB2Ad6dNc2vrJWcNmprUp+XeaW6v4ZIL6Lz+cKONDG3GcObgOrwMXSBLHL2HgIwMxKBbUfz/bWm2iONJIX3k4B12era8HoOBd0odrCpEzt8CF8+ZDfrdMGErV1Pi2398YlVtMwz8e0Ovijny0efjFQh5wytPgoAHOSuXtRYcpufvtmlfieAh5g2LJ46JpvlAtj6XfXgP9p5DmsbW12rQ8q/jKVGtaOc7wgPk7cDvrBQPa6kbjH990TKeA/6fmyFTFo13tVbbLN7XBQwPaYeqZfzeLblnJtLSax9XQV5nokCIHgvU3TsKqLvJKOAnAiob3TGM6x7Z7ZhLk2EiQJuiRnqzKWyjTL+0cZbh7DBxfX020VMJmrZDAs3zxskyYYCwShboEXil0Wn/em+9aQ5SGXPNqEtVfAqdbbXjQFKgjf7rlm8rr0aG5ND+ugCZ9V8Jfw5QMoYEm9mok5CsCHyk3XebyfUfdte2uOJUruGqXAasPFyr3ITAiqLJ4r4Ma0+jWd5OjhWNcKJQa0h9wK630Azk2qFJaq1/bfUPMdNoW/VHZrwOvSNQF8ooDf1nNs6RzZu2RmZG6un67CE9pCwqXu/r2IFJj/7uSIxKYHSx8l2uL9sHQQBWB5ud/fxhT0OS6Nw6mN7yvg1OCgZwP9KABfVcBQ/7+r2t6+ZWueTi2NoyRdiBuI20E/GMheNxL3+L57IgVMZauqucU3ipv9wcqdAk4QXn2U4gb1dc9xnPB/vdYohY3DqVASBl/Ncp1xJjvIf6WSUQCGC50LiUtT8jw7dk2jNg2g1GnMXAX7R/4VPiVk3X3/iqWWb+cZobcKWFi9ZbHnVvkwAUwKPj3C6jVb0LJ9fFg9mrwuZOXnKwo4NRru4w1TghrSPTv2lKhkuHTLmBCHnxhDejTUK5ECZq3KtbMuYQBOzmu7yhXAS4OSz+7b5oxb8mcl4wfhDHfdOGzXJU2JO1fABN8czxUxreTfF47qFwuTRnQ8+hCAVwVHxP4x7x2st3iXseT7lExABZxK9xpXZ2OPFXCtzmJDdXr4kNfGNMVWSyclGOOFFufOxcpAWFo/Ly252wBMD41DAFbneH/8QwUMuuZ9/yympFMO7JhTBQzeq7ZrwAJhcWmMzXQPw7BOJ7G5eeUUM+IDxO2gHwxkrxuJe3zfPdtd0PqEz22BF9Xsp2d3CpjMzYDQS+EiRf0V/qUo7jMGVCg87ZIgGhuru6RhJiwR5/pyeheAmZWRYZ/TyRHMX8Vm3SacRuZraxAAR9QBEWhpbF4+nxTeKmDgpd+T4nBz1JkJjaUwmO3DH8jiyWVNMyC0socAvFPAn8T2XskxfKiAT29JSJDT9p/YoFkiDj8CLx+jpTuLFDBrXj1sGgbg9LK8q1y5LYfNPYAnMS5r2hMnT0nr5kFFk/5cOVfACSGouXkulRwBS3PSYG1uc2YeAnBQHIun1oPfgA0LQgIq4NTIuX5l0rECbr7T2It5dMdko+b0cdo5C8BmSxaH+sVVlMCwWPhmsy9ddiSR7m0DcD+rXQnA31fASTF7CMA8VMDCuQJOCOWtAiYaKo5hf+6HIfgrpsHYuf52hPgpcTvoBwPZ60biHt93z+V1hKcfbxUwycxeMEyU5oPBMPy7RZ2unhJfpr6TzdN9aTlsZ8Y9p03tAjBJeJraq7/PJVnERbo1NisNoQQDcJJuDU5ZT89zYW0VcOilqeHRjClQwH0RyzTtMABnzKMAXMhcVcBJ6iQAXyrgBDkbJs8CsNamR4PqNFTA+I8C8PPybfdvEICTFJ0/bVq22uTDAOwUjwKwyV4oYDgJW7bcRXvJ0tSzKM8zaq0ER/FZAE7SZ8YbOJ4QKuAk/r0AfKSAtSH9x0kAXmmvtCi55wF4KVNt9TIAg/B9EoDh/nGx7/wwAH9fASepowBcUq8pYCHXZEMFLBANHQRgeb7cDsPtSHxtoinoXyNuB/1gIHvdSNzj++65fhnD4eOdAmYKQAHLGVeNsMI/qloLck9kR13KuCi36q6plb1JRaeftwEYLg93gjfTzcxlEDZG4sD3GKiAk6Ph7iG7P0Zwvsn4oICHfwIFfPhAYEwuhS3KgeAPaTHjHx1gehtyySu7oD9dBuBzBTx7Pw/A/lzG22olUsD5jwZgJU2/r08bZxYruYmbp9ijPV5PcI/XuQIOb11kSjND7w77eDqVpvLjcIF0G4CZKAAnR+0z41laKVLAyY8oYO1cAYc7xPLV0zVgGIDFtnpxF/RFAOZh6XAC+0oAFn+mgNPUqQL+dqmACd5gtwq4AxXw0qmq6vFINCpoE9avEbeDfjCQvW4k7vF99yRKhcxHFDDhZZ4xumvWpifArBWr2assKlnXbG4qk1Jn5anyPgA/wWhZqrxpvupkJOpZWjc7cA04lcxq5dNHebnvrQHztXa4BrwXyLkA7oJ+razgGvDxFDRJFJf4H9lfUMBPZCVLnawBk4T1VfwcyutwDfhjAXhT7z/Tbb1w0rSKvSLgGvDxFLTAVKmLXdDbCq4mhaZvufWlnFRaBjzUAwLwX5EC5guOmErXm2+n1pvkyHAX9PcD8JECLmYk7P14FTcAleNa6lkA9tsna8ACw3sVjycv1oAD9X1b+lcU8EkADo4UsLIPwMzEkrYBmLG4JPh27WzsrNAxpF8jbgf9YCB73Ujc4/vu2aaitH6igJ+e7K6YhlGCPAFYWPD89xTOmnYu+kGnUj0JwE/hXl4hFzQzMs619FJuossYtijw5Nmzzr98vwt6CndBFw8+NtyIhDlBTmh2WfFd38cIIqcBqdS+3AX9UwUMd0HL+PFaokBUP6XEhWbfpIBnr3mcfjeIi7bBXdD9xWETFrNysItzwMcGg5f+zOG7kZc7VsAduAsaG1euWO/DCrj8msdax8mi4REsuW2eHUPS4MtEZv9rRGPqW/6UeFvnT/dQ2/AmirZ1PQD/OxRwZ6b34RQ0zMLtyzgGB8XFOET8CnE76AcD2etG4h7fd88H14DhOeCvopw198uEzGpjWSZwhDBfQ1p53x+z5YtrJVoDbnhFy9hlRRJynpqVKfZbiVnBc8Btw9v1DhEUDNPYNM6++3AOeNIdpSTrEABtbSGOqGqHCM8Bs+PC/kJ4T6eBVLqigLmfKWAQ41hR6h0kas52UhjlFFY3KeCK2xI5ydq/LJC5jWn5lQYBZ3mVlrraVbVU6F5mwio1Tau4TcNBEkG5y43kb7PGyTlgUPsUltH2qp+wN8B6hc7TxxUwPAfczxb3rzyJykIeSa/aaUZlotbLJ7lBbZ8arKxm606RmFUHWL/dPJQGry6f++Mwkci/TQHrYpr7Nt0OiSjBWXQMyWA5bN7b21vITTTLLK4uX98QHyFuB/1gIHvdSNzj++75sAIuVVlOzLt7v9+ouAonmwRJlJ38SFrs45ttZrhPYQCeGHUxvyjvPuhsqpJIO4FAGP00tnQ3ez9dri7llnux2+eQCWtNPR8nwvCsNszmTCbIgtpKKoPazv1Gnrp9ZRf0zxWwXV1yxyqwtOlCFQYzbNyggCfWiwhfP/aZsAKH5kDZHK+9foWt3zW6YrYvFfDmhebq5dLeMGqfUpwaf6yABcaU01hL3ytQKJTlQdW+QQHD76YkfzennxCm7VEqX92cliQKegvDWG33puLpQ5Fu+4xnvmBU/6h0JTtKsdVy7t+jgKNd0Koicr23XYZKMwO6NTODAbg5pDG63dxX0jaGnLyooFSUv0bcDvrBQPa6kbjH993zwTVgEHC1cR+X65sotJDEVG2L/aEGFPCmukwqw1rkp5mg2WXxSAEDBTeSlwZDRM9qFHt9Ll8tkUIZSNt+1ohKkIytDmm57l8k1D/NBT2oTqMCRK64YJPsAmgwMqjVRUrSZ2FcIRrl3ly8mgv6j58r4Ggv77qwimolQJkotwyYYfMGBbzauPLoefFWCodegvD8F04ZNDtCdNfDy3aRmeH9l/6lAi4sJHGgzrYGI1auLMpVmGR74rB/sd/KYS7oYrafkrLaznqePpDpBUx0/WMFPNX7nxWHh8GRn61FUXEK2/jGVKz8SGw3A+K0aUG5Lv5Ju4XQuAJTq/dxtlcj+GlPBNFxsy9tzkfiuwZL/+gYUlfC5/om/IoPKGAzr4jZaHs7sSqPWXyngKf6AOMka8VE9i1pa4mbuzZSwL9G3A76wUD2upG4x/fd82EFDITPMvnc8ic5AcA0jCGdmq+hE51aLSzN+jwDfk7wmyr7OZkWnQ5JNrxeMg00ZFhCIAK/LkdLhR4I3lxfL4UfEKVyncJpt3yR6fHoNiSXHSltLYBfIeRsi6WS0T5covRNwakX1YNZLhswkKSu3ob0AQXMTMx8Oj0wK1Gtcn6LTs/X4d7rGxQw0fFZERuoBSJ8SsOoS6OvcB1VYMptLi29ag1Y1aDwKn66VMBTZ46HlymEhTuTHjCMBTX4xGWpPojRAgg0Ff39mZNUPuqIoJihRlJ10/mJAs5V1P4n8dVmCPKJYFRZTA/1KbHrmK+4/Hp+oUFC4OFVU6D34a/lgr/ZT8mBOSUIxpLF5FCfRaVLfp3G5bEHS/9IAb+yeN6p5WALfqSA/wrfjASjTeP5dSHs1qnFJrGdAi69jdNpeMVW1EtTR+Lk7JW7jBEfIm4H/WAge91I3OP77vnwGrDQ2MCkitlvfnHzVvP1DK1w45oNPrBrGfyTnFG1Wq3p6932nMbTz1mtwjcaFqvgQ9cvz6aFsqZmWCq6cmc1dWl4Z71ZKxdqmr5gRbqtXdbg+D7gLEf167pRK2yKfvVF4WQHJsF8EjpaXcL7745pGKb+2pYUDk9dOQf8AQVM5MqLPqiIY8AGGmpd5riuFp5wukEBk8SmN3+mB/unsJxSh+ekSMLT3zkuX9d9w7fcRUvmqNFlLugux7Fds1mYVsqa6SxBfZqhBlffFW45NsuTBsnPHJni2lW/9rapGXpdovqZ8PjUDxUwwftsGl/qfnMikERxzKbCSr69gY7JShSd8fnz/1rInLGAxq0azRqweluh6N5sRZJEbZxP0a1dadCtXzNmOG/+AwXsVQeU3Fr7b3Yn8X0FvJuCFuD6szJf+4bmq+s2K1N4KlLAoJF5+Xn5ajXLm7Jm9ZYK17Km19uM+ClxO+gHA9nrRuIe33fPhxUwiBNmlsbxfntdddftPvdZZi0YG6JrY0dKvu444yGr9F8GMp5i135lBUIo+yzKbUe1dCeb5z5T0TynwDSH9GdKHqzdai/DiqIyrHqXfbVXwAnBdlkO56RsT//2+k5zOD30o31OQsXPUjhO59sg8FMcy9Jc8qX2Kwr46clWs/IoDRtYdbKsklRYKwg9+w0KGO4QGyujVL89rrrOC6uMqPm2ZOOtyopAu7ayQ1YefYXJSSi3cnIfcG6iSnjq66CrqyY8hURRLTeMTrzRpdNif+gWgRxljKX8TMlDYL11VhJF+V0PO+iHChiEzSWe4tj2uEnA5Xmgm5+l97H7zcnMQccMrgUxouK3wVsC+z7ujdu0iNNtM7yiAy7uA0MNt6U/Uctt6R8oYPvvDPcsSu/VcpD48RowXOQgK2YbTz7Ty2xmIHFKfg5vIA4V8NNTeTzHcXHZdXRnMVdEqj+eMug/9F8kbgf9YCB73Ujc4/vu+fAaMNxibKxbCtVnl/N8n+sDNTOFG2QTRENbzymKk/J5tp8fOppZZ3GFdWp2YqKt87JIz1vDVl6SFalueTBuksJEc5a0SLPzJfi53BqbhYs90EcKGO4lVjMSx/XzS5gj6uu8Z3jRhCnZ8IzegFZkuk/TbFZ151wyWyv9ggKGs7T+GDRk20CZXpjT6I7FGxQw3D2tOQNKocOnKP3l2No+hSltgCCWFblPf5XYV39BU5TrdU5yQefe3CGQ9+xyMAQBmpLe9WgjUq6g5sURJWf8CkEKoMlzYL18ZL0B6IhO9AU/CMAJYTZmcfASMzAJeJjJeJ2L20rKnFQ3p1dSWZAdYBEWtiUPrC7Px+Db4c87trFeRqXnYWlrFpX+gQJebb5J4oiju9qE/L4C3mXCSjQq6pBOU3IfNFBq66Bb05ECBr2x0V8kXIZjh5XleUav8WgL1q8St4N+MJC9biTu8X33JFbTniznff47Abg2HvS7UaqpBMk3nbnMcSDYcvS7W1x9iX6JsJuvLPg5xwFfWa3lJn5Xkrm6NkkwDW28VEAJkYLJoOv+7pgtwZSd4fZR/aUTHty9oLwe0As/FHckYVt1VgkLKHKr1zwcChaCt+qQ/Sp/lVoZ1SsOgafewK1GtUWL7sLSQqlWp6Xu/rAwszKB41avpG5IBNqa3dZKyWeN1ba2JZftDw37agBuTMcynT25yYnfVOd09BR5CNp2uEZxYnRbfVqm2WG32dBpkdInuXBqgV26tfAVhH+rtvqwLGwo/VItbDeelcDbiKwoWROGQCJXXA+UrfUGbnObQ4zh/SXd1783HWubdUlR+nOLgE21az2W3tqTBX11vf9B145ZGnwV+K3l2uB3R5KCmrMtzdFSZm8a2xj3W+Pi/krlqfnSbznh6xsTGG3YgrrhkRUrQw/XBdisYoZmj7vGkrYdQ2z0tgwHlQLib6VcZ+lxJQrACXJqZWQF2oiT813T2+3yQ9xO3A76wUD2upG4x/f9w6wKhtGcXOrBiFKhqBUm27ySTFDQrGqv2311LW0a7C50J3PBxted8bpqGbVpich5ZVOtapPOkwAPqeruelHvjh3dL092V7WTRKnQBI8aL14dS5vZF1mwou+uaZtJKO4SQs6r+aq77r46uqkVgsOVeyTDT2uaYf5tFMtepzagPmWm8EKg0qZohKVJpvSmaYdjxgIz0TTj6sEVBlQXfMli7ICmlO2dUZhpU6vZuWsmShDAftrpBjJQIc0MzeSo2iw4ukYxZ2+ahm/6Wm1jf1EV8a9w5oHxys0msNuurOX2uvV6t1e1mpVVdNpHYIKyb6mq4cFN2iQRdcTWegETDXTQsKahVYjrPfnU8cAjdAu0HP4rV9oYFrDnuBc29Wrjoq7VTN1xXN3SCsAgW6PlSgUDjoSz0jm7oBULwc6yQmNS1oqRPBcYG3SgqjYnnURj8mbU4B5skglg1+zPH8Ou2XYMyVdgh7uubhYrDdiDhUbU6YnEyqv9DcbbIhpTnfNLPBAfJ24H/WAge91I3OP7/xoCA/yiBpxqKXfs9RJEx3sr1iqlL5HFmZVdCaJFVrJhF2qGbzQ3Xuf0tgWGB4HHKG6C7wX/M4gOeJLWLACPe4i+BJNjGDJBfsl14MylUFuK6YX364kJQaSblo1m2fvOlMDHgPczloGZCvY+tiQEAt4zRZIC04BLluQX/S+cs3ZvJGc10AxfK1eO1wUS4Oe2vdoHG9AR0HqF4Ia2EjneDjq7BVPwQNCXoKnBlx8d4gGvGJPC22xylu0RZhiFpUElP5iHCrxEgRY0zq/c+MHvgwoWZpNLE4VjAbxfNd+ufoj4OHE76AcD2etG4h7f/9eA4YMPglKDObn1PUESHZ4vdXahVCBy4P9HE4ZEbsXbdhDwQKmc9IfAdPjALvHMB10yCZ5UCkqr3OE5iVxpWnubNmAFYGgiGgaLi+uA+OWODxtog8p+8K3gOgkStM0O67r7EQwZ5c2ESJBCOHPA8M6zSPuXXxOZ2L6oA4hHOebQ9NB64Bs+ar3w0fB1ZTdvsetL+DU/NBd4uVnxjdzZb3209FEDEsRJC35eXdDGFezuKx/BsQBMdPVDxMeJ20E/GMheNxL3+Eb8VhINz3C/WZWtG050Knof5lu8w37/UnpT3aq2isJVggzeFhg311ACCUScxO2gHwxkrxuJe3wjfiuJRsVl820jmqslCU9tc/IwOitzZxClZpbN9wqNbSax2jqfZBflO6wp4v8RcTvoBwPZ60biHt+I30oiN+mJz1yv6fGrFR94Rpbm5m7tX1m+/V0QDW0gppbWm82v+JJdqbIytz3fhUDERdwO+sFA9rqRuMc34vdCNNS5grNZN8yEtW7TsvRaLv0ry7e/C5KYjSVcWXbVMBNWd0nRc9Xr/LwgAvH7iNtBPxjIXjcS9/hG/GaImjNQKG6eXSyyLUlW8nX/XtMyBOaC5cT+MDOuv89pmRs6ZbSFCBEvcTvoBwPZ60biHt+I3wzJz/R2n+JkmoY5ppbrmv3rZ5B+L4zdhJnEZBnUVJHZoTrl0RYsRLzE7aAfDGSvG4l7fCN+NySzsV7bg3l+vhxmx1WNJ/4r7ip9h4QQaNX6cDnPL1vtjAMvTIq7Soj/78TtoB8MZK8biXt8I343CaETVDZNwzS18tQ7ylRxfySY1WRa1nzLKG4qk+vZvxCI/yRxO+gHA9nrRuIe34j/AAmBWdmeV/pOOsV7giRywcSbrJh/xl0TBOIJBeAbQfa6kbjHN+I/QYIkvjAMcaebr46BebDCjJRxVwSBgMTtoB8MZK8biXt8IxAIxN0St4N+MJC9biTu8Y1AIBB3S9wO+sFA9rqRuMc3AoFA3C1xO+gHA9nrRuIe3wgEAnG3xO2gHwxkrxuJe3wjEAjE3RK3g34wkL1uJO7xjUAgEHdL3A76wUD2upG4xzcCgUDcLXE76AcD2etG4h7fCAQCcbfE7aAfDGSvG4l7fCMQCMTdEreDfjCQvW4k7vGNQCAQd0vcDvrBQPa6kbjHNwKBQNwtcTvoBwPZ60biHt8IBAJxt8TtoB8MZK8biXt8IxAIxN0St4N+MJC9biTu8Y1AIBB3S9wO+sFA9rqRuMc3AoFA3C1xO+gHA9nrRuIe3wgEAnG3xO2gHwxkrxuJe3wjEAjE3RK3g34wkL1uJO7xjUAgEHdL3A76wfhfAAAA///snd1PG2e6wHct22FiMy7YxJEhsOwiV4PqJntYsOKtCuqu0i/FbIQmF3Dh5pQV0lJFRdqtErnCRKDNUaIiFXG0JUEFGSSSi1X2oCjam0qJlKs2Oo0Qkc4Vd/Bv+LwfM/7CfLxmmIf35fmRD8f2fPjJo+fn5513ZjBegkDnN4IgyIkFukBLBsZLEOj8RhAEObFAF2jJwHgJAp3fCIIgJxboAi0ZGC9BoPP7NPLWuSKdnZ3nhOjkSwgvd8Aqq3Fs5QjnECEuf+qtt6CTFOFAF2jJwHgJAp3fp4+3aKltb28PhzsQpIpwOExyg7gYDXwygC7QkoHxEgQ6v08Tb1mtEJNvk6b7PI2N5JfzhMo5jg0cvAcgW5Ubj6cx5NP9GrVwu9Uio4ahgS7QkoHxEgQ6v08Rb9HOl6q3KeH3+1taPKTi0t/7E6pJ+Qv8Mf2jWMkrOHgDe21FTOGh0prIVo9d/6GyPw/etTpWXe/XiPKlKv9j9sX632pp0f2JhNZENEw6YTQwNNAFWjIwXoJA5/dpgQ48k863I6F73MFn49L2qjcOsVmlaEk0MQVjGwwKdIGWDIyXIND5fUog3W843JRI6Lqomnzl1HjZY+uu8vV9FxLc6uHW4Nu93HH632dv75BvF1q3+O4cAy16ItFE+uDOc9DZe5qBLtCSgfESBDq/TwOs+w13aHrLHl7aT1kVL4WqizR9O1+mfPndGrRsdVgx11q8Qu+13lxzwZqb2v3s7r3x7f46Uf0J9tjanp9onw9c+cGsz1L5cWp+hAMjeZht2h/OU/2FgvxLb6LHg8+hg6GALtCSgfESBDq/TwNEv7FowO8PBvcw8G6HhEL0ICr9a1+7lD3tq/m4zFS2WUrPsoOUHl9pIzX3pXLrNXSz7xIH7LWnwrJVb6pcwt77g7e5l+VqPb8HNUJRuWNVQdljv/mqrEPAu749lW2j6p9lkDYYu2BAoAu0ZGC8BIHOb/Wh3W9UI/YNignYw6Yy7Svg8udrPix/hi9Q/j4+X8rnKRfwbgNUbn3XPhxKwHt92gpdVTd/FS9ZnvMdRsC1TLvH03tQKxYVO1b5StWeVv8n2ZPZ9tit8iVqfhzWBeORYBigC7RkYLwEgc5v9emkM690P2mAW2qW19oKKft9bNglP3ScGznZHO7rw1Hh/q1/eb2pI4w9MAzQBVoyMF6CQOe36pyj/m1paSEC9ufpFCzkROGKgI+MrlEDYw8MAHSBlgyMlyDQ+a04b7VHA1qC4mfkoUs5IiN6QuuItaOBAYAu0JKB8RIEOr/VhvS/mhb0lxkYe2BEHD2RoD1wJxrYdaALtGRgvASBzm+16YwFgsEKAWMPjIij0wTqCLfjcWDXgS7QkoHxEgQ6v1Xm3Ll20v9WCjiPLTAijM4M3IQzsdwHukBLBsZLEOj8VpnOzmhLsCjgBA5BI/XCBJzuaMdBaLeBLtCSgfESBDq/VaYzrHmYgP04AI0cDV1Pp33YArsPdIGWDIyXIND5rTLtms4ETA2MAkaOTLoJjwK7DXSBlgyMlyDQ+a0y7XoLF3DQ78cjwMiRSafDKGCXgS7QkoHxEgQ6v1Wm3eOxBGwbGP2LHAkUsNtAF2jJwHgJAp3fKkMF3FIm4KP1v3kcvkZQwG4DXaAlA+MlCHR+q0x7YyOpmSUBH63/zeMBZAQF7DbQBVoyMF6CQOe3yhABezyOCRgvJH26Yf//KGC3gS7QkoHxEgQ6v1WGCLjROQEjpxo9gQKGALpASwbGSxDo/FYZLuAWFDDiANgBgwBdoCUD4yUIdH6rDBcwOwqMAkacAAXsNtAFWjIwXoJA57fKlAs4n0cBI0cGBew20AVaMjBegkDnt8qUC1j35fEqHMhRQQG7DXSBlgyMlyDQ+a0ylQLGWczIkUEBuw10gZYMjJcg0PmtMpUCRpAjgwJ2G+gCLRkYL0Gg81tlbAG3tLSgf5EjgrOgQYAu0JKB8RIEOr9VxhYwghwZHQUMAnSBlgyMlyDQ+a0y7Y0eFDDiEGwQBQXsNtAFWjIwXoJA57fKEAF7UMCIg6CA3Qa6QEsGxksQ6PxWGRQw4jAoYLeBLtCSgfESBDq/VQYFjDgMCthtoAu0ZGC8BIHOb5VBASMOgwJ2G+gCLRkYL0Gg81tlUMCIw6CA3Qa6QEsGxksQ6PxWGRQw4hx5PA0JAugCLRkYL0Gg81tlUMCIY+h+FDAE0AVaMjBegkDnt8qggBHHQAHDAF2gJQPjJQh0fqsMChhxDhyCBgG6QEsGxksQ6PxWGRQw4jAoYLeBLtCSgfESBDq/VcYWMN6MAXEIFLDbQBdoycB4CQKd3ypTFHAwmEcDIw6AAnYb6AItGRgvQaDzW2XKBQxduRElQAG7DXSBlgyMlyDQ+a0yeAwYcRgUsNtAF2jJwHgJAp3fKtPe2IgCRpwEBew20AVaMjBegkDnt8qggBGHQQG7DXSBlgyMlyDQ+a0yOASNOAwK2G2gC7RkYLwEgc5vlUEBIw6DAnYb6AItGRgvQaDzW2VQwIjDoIDdBrpASwbGSxDo/FYZFDDiMChgt4Eu0JKB8RIEOr9VBgWMOAwK2G2gC7RkYLwEgc5vlUEBIw6DAnYb6AItGRgvQaDzW2XaGxsbUcCIg6CA3Qa6QEsGxksQ6PxWGRQw4jAoYLeBLtCSgfESBDq/VQYFjDgMCthtoAu0ZGC8BIHOb5VBASMOgwJ2G+gCLRkYL0Gg81tlUMCIw6CA3Qa6QEsGxksQ6PxWGRQw4jAoYLeBLtCSgfESBDq/VQYFjDgMCthtoAu0ZGC8BIHOb5VBASMOgwJ2G+gCLRkYL0Gg81tlUMCIw6CA3Qa6QEsGxksQ6PxWGRQw4jAoYLeBLtCSgfESBDq/VQYFjDhB2fVMUcBuA12gJQPjJQh0fqsMChhxAhQwINAFWjIwXoJA57fKoIARh0EBuw10gZYMjJcg0PmtMihgxGFQwG4DXaAlA+MlCHR+qwwKGHEYFLDbQBdoycB4CQKd3yqDAkYcBgXsNtAFWjIwXoJA57fKoIARh0EBuw10gZYMjJcg0PmtMihgxGFQwG4DXaAlA+MlCHR+q0x7o8eDAkYcBAXsNtAFWjIwXoJA57fKoIARh0EBuw10gZYMjJcg0PmtMihgxGFQwG4DXaAlA+MlCHR+qwwKGHEYFLDbQBdoycB4CQKd3yqDAkYcBgXsNtAFWjIwXoJA57fKoIARh0EBuw10gZYMjJcg0PmtMihgxGFQwG4DXaAlA+MlCHR+q4wt4JYW6LqNyAzeDQkQ6AItGRgvQaDzW2VsAQeDaGCkflDAgEAXaMnAeAkCnd8qUxJwUIcr34jsoIABgS7QkoHxEgQ6v1WmTMB+NDDiAChgt4Eu0JKB8RIEOr9VxhZwPuj359HASJ1gBwwIdIGWDIyXIND5rTJFAfspaGCkPsrm0qOA3Qa6QEsGxksQ6PxWGVvAOgOwgiNSgx0wINAFWjIwXoJA57fK4HnAiMOggN0GukBLBsZLEOj8VhkUMOIwKGC3gS7QkoHxEgQ6v1UGBYw4iwcF7DbQBVoyMF6CQOe3yqCAEYdBAbsNdIGWDIyXIND5rTIoYMRhUMBuA12gJQPjJQh0fqsMChhxGBSw20AXaMnAeAkCnd8qgwJGHAYF7DbQBVoyMF6CQOe3ypxKAeMlv44TFLDbQBdoycB4CQKd3ypzGgWcx4tuHicoYLeBLtCSgfESBDq/VeaUCFjP5/P2Y3rVTTTw8YECdhvoAi0ZGC9BoPNbZU6LgEsXuuZXvUYDHxsoYLeBLtCSgfESBDq/VUZ5AdPeV7cFHPLZAvazp5FjAAXsNtAFWjIwXoJA57fKqC9gJlst1rMyuDJkNPmKBsZ7Px0TKGC3gS7QkoHxEgQ6v1VGeQGTFpi4Njr06sHSg7/e7QyFQj7S/OIg9PGBAnYb6AItGRgvQaDzW2VOh4Cjg68+/cut3PUHU0YTG4bOY/97bKCA3Qa6QEsGxksQ6PxWGcUFrLOx5mBq4f0/3L9//8p/fT1o+Kh/8wcuidQBG1VAAbsNdIGWDIyXIND5rTJqC1jnx3sDPUsD88te7/LF97/rCdHzgKF3TE10PwoYAugCLRkYL0Gg81tllBawbs22iq1cn/u91xuJzAw8GRwJoYCPCRQwDNAFWjIwXoJA57fKnAYBa7GpTy7GuyIRb/xK7odwPoQj0McDChgG6AItGRgvQaDzW2VOhYCjU59cjkeIgGfjAx+uhEPQ+6UqKGAYoAu0ZGC8BIHOb5U5FQI2Br+4TwXcEJmdu/5d1kenYXk8u6dBKxsIl0ABwwBdoCUD4yUIdH6rjPoCTiQ0Y+qLNSrgMw2RtYFPB4l/g8HG0K4TkdQNhEuggGGALtCSgfESBDq/VYYIuNHyjnonxhYFfHuLCbihoeHSla3xDj0fbCQCrjoSzL6JoISPAp6GBAJ0gZYMjJcg0PmtMu2NjZaA8+pdmsIWcGr8y9/3cQFfmLm10dkUCu0WMB8JQAEfGRSw20AXaMnAeAkCnd8qUxSwruDUYFvA2d/+5b0+5t+G2fjAP3o6mICrrkXJ1YsCPjIoYLeBLtCSgfESBDq/VcYWsIL9LxNwgtA0dCN36QLz75mzF25+PRj2EQPjXOhjAgXsNtAFWjIwXoJA57fKnAYBd/T8cKvvXS7gyOw3SzeM0OkRsE6o+eyxbREF7DbQBVoyMF6CQOe3ypwGAUdXvvv+3bNEwGfONDRE5nY2smwIGnrv3CFf676LOonKsf1/o4DdBrpASwbGSxDo/FYZW8DH2BHBQQWsaYnw50s3zxIBn6EC7rqyvjBE/FsmYBc/u/Cm9HLq2SK/86K9vL0mKuDiU0feyUpQwG4DXaAlA+MlCHR+q0xpFrSCUAEHuhPGwif/pGcBUwF7u+bvPegZqRCwe9eG1kW3pCf8Jeray3z58jqblObnAwMMnWyiyrfCO1kFCthtoAu0ZGC8BIHOb5U5BQIODH188z49CYkKuGv58ubrXzEBh3jnT+8N7NYMcJ13owILHLkDtpfN5/N69fpqdMD0nfZO1rlFFLDbQBdoycB4CQKd3ypzCgQcXflkhp8FfOaMd3n67e0/rVAB8x44f5Tusp4dcm1bdZFOlNrlmkePDwEK2G2gC7RkYLwEgc5vlSm7EpZy0F4uEYj23MjFZ9kQdIO3azY+v70z6AsxAYfyzL9aIJYa6knFEj4fa4uP8VzgPFWwVogZRiqVZZgnAronRriQSKdpq5xnowJ+FLAkQBdoycB4CQKd3yqj8LWg+WU4ArGphe8bIlzAkeXpxcvb1wcTTMD0algEot+eqanxwR6jKR8iBvaEjm+CdDqhRaMxI2smk8kxQu9kbyVj1Y8ne0cnR3snRzm91YzaTGYmRzOjGYtR6yczWoIvMElWl5lk7yRvoOsmGxqbHCM7ZHIFp/XSnZRRwDIAXaAlA+MlCHR+q0xJwHo+r9ZMaNZsBrTYxpOb3L9nGkgDPHNlYGc0nOcGpl1ewPj564df5HJfPHz++dDICBUwuyZlyMnvJexoajoRJuYdo9bMZIb5j7P089/97AH/Y+93Vr1MjTw5NpY0s0YhTXa47qF5FLDbQBdoycB4CQKd3ypTEnC9h/xOLEzA3YHY8y/nzvI50N6u6cW1iVufjhtcwCHymQPRoee5ifiLF4tXcp/d7siPhPjsLI+jJwrrCV1PF2LZscxwf39b8507zXvR1tzWRv/ob+4nj9rOV9JWorntPPm5c/5O253m8830xTvkIftNnrF+7txhi5FnyA/9g62k+HLzB218G23Nza2EfiLlzJhp0EY4Ua+BUcBuA12gJQPjJQh0fqtMWQd8nFdHAoAf3u2Opj6+ucanQHu9y32Lj27mno2fawrxY8CkRc5O/Wni7RcffXRhcW5zaaOHj0J7HL1UFj0Y3RHLJntJx9tPvEo8W8PAbcy+loGZYe/U9G9z0cHnq2Gi5StiKq56h/0EfQ+Xdet5smH6FNVvK90L4uDMZJI4OM3mh6OAJQC6QEsGxksQ6PxWGWWPAfMhVK07tbK+FudXwfJ2zS6uzW2u/218qInPgs77A7Gen3PxWS9l+e3NJzeMPBuFbnTyUllkPzoMcyzTT0X3QfMHlnFbqwTcxhvgO3sblgu4eder1J6WgKnb79j/Zi/t0jR5G3kXtXFrbfqHJ6mBfShgOYAu0JKB8RIEOr9Vxj4NqSXY4phvTgS2gMf//G18mp8DHKEN8Pa9nTeZ31gC1v2B6NR3t5aXP/ISR0filzeXPh+iLbBzAqZ9pBaIph6T7re50nPNtOe0fhWfa7ZbUWroSm+2lsu0tfwvvmzpUVHA/FG1g4vutt/7wQcfVOzZMOmCswabEO3z8T8PDwrYbaALtGRgvASBzm+VsQUcVFLAiUBsYWuieBGO6fja3MDWkzfj2WIHrMWmPvyqK8Le0tCwfP/e0u1OOgodsg4FO7EfWjSWTWbaSqO85Ke1v7Wf/OKepU/seUy4rWjn5uZSb8wfNjNf77VgW/Fxa3P5stYKmpvPV3wjsN5qkZk0wxr7BKKTA1DAbgNdoCUD4yUIdH6rjKoCZkeAE1ps6NNv2FWwCHQKNGmA11+/vGumyccOBoNUjrcXvu86y6/T0dAQf/Tt0uedI6ESR7MwPfqrBQyzd7ifKo5OPD6e+c910N9fc5o0/V7AmuDJpJHmLTAK+GQDXaAlA+MlCHR+q4yiQ9D8PkhaYGX8i5m+ri4qYHoO8Pw3m1s7f1vN/KKJCzjo1zqmFr4/WxRww7vz9z77Y9jqgRuPfJkw3v+aj4ebme0ymd5rY5P0h0DPAc6MjvbSX/SM3l7rr9HeUQEqTvUVXNA6ZZhvvLf3GmGSPce+H2QyZriJHQMWO0ENBew20AVaMjBegkDnt8oUBayUf/l9kALR2A9PBvpmu3gDfIE0wAO5H5+92cj8shCyO+COwf++ZXfAxMDeSxdzX98N8+Y3dEQBs/43SvtfYt6xJL3glEEJG52d57LZc/TyU+SHQ/5OpazrYxUfsEcVWO/Olj+uYNcS5H01nrM31NnebrC9YHuW7TQMspummUz2ZjKsB6YfBI8Bn2igC7RkYLwEgc5vlSleC1pBAXenVpa+v9JlDUAvxxfntzfXX//5zdOMqXlCIerfgKat/PA/79oCpvcLnp5bX/hVBxWw78gCZpe5NK9lhkfHTCMWCDby7zlp6/V0Ol0oJFqsJ4s3hSgNf9tY7Tj5M89f9nms64Ww99F5UqWlSvCrfVWsqbhG9lowWLa3bC9GGL50wTTHSLduhhPCnxoF7DbQBVoyMF6CQOe3yqg4BJ1nl3FKaNGp7758+xKbYNUQmZ1enJ8byO08e7m6kfmPppAnH2TXoYz23Lh3oYuaNxL5HTtX6b259f8cyo+McIPVL2B+/DdqPM48Jv1tQQsEy/AHAt0x2nOmjKgWDOaLdw3M78K6mxG9cjVdUK98ml24WdPsp8tudET+RY29ByH6DSQQixkFCvtKQDNgpGjggmEmSddOXzr0LGg2VI0CdhvoAi0ZGC9BoPNbZRQUsG7d7jY29N31m8uWf5f7FtfmaAP8ZnWVdMBUwPw8pejQ+F/is5Gurq6zZ5mBG2b7bn78eWcTN/ARJmGx/jea6unNmLo/2NJimdfPzMsGgdl9EFKxAFdvgOA/gGDtpwMB7aAlaxKjA84E8kWgQE1cUjBt09NGMpnMMgEfzsC6HwUMAXSBlgyMlyDQ+a0yCg5BWwLWeqaefLPG/duwPL340yPm3zerG21/TGqNoRAXcGDo9peX+manp2dnZ7uIgRu8Z7vuDzy52x4aOdIkaKv/jSVHH5thzU+a3BYP92+AtpaTvWP0/gf0uHDhQO0eTH3+9cf4d4AkuzVEMkkc7KMG9tEfXzpdCJtJM20b+GALo4BhgC7QkoHxEgQ6v1XmpN8PWHjfdJ0LOJa68eDW4jTvfyPL8Zn57c2tnWekAb7aP2pq1p2QNE3L3v1ibTEej/dNT1+g87W83oa+mW8X7jaNHMG/fC800us+zpiWYXV+SNhIUf+OUQHz7jNapz0doGBYtyNMJh9PJidNs0AVzI85p+kRajojq8DuTqgfZiAah6BBgC7QkoHxEgQ6v1XmhAtY+DqZfGCZ9L+plc++ujjdVWqA57ZzzL8bV//dazZxAWuBgNY5uD6/NjOzuBhfjPdd6Ip4vd6uvomtDw3WAde117q1F1o3FVxnWtetoWPi36w5xtRrGEa3UYgR47nrX/s2R3x/Osj2wxTDyPJOmF6C0hfysBF62gPTQWi23KE/PQrYbaALtGRgvASBzm+VOckCtibsiixi2SURi/38IHc/bh8Anl6cf7Sd+5EOQF+9WtYBEwEHsoPvX3k0/+jR/PzMzKX4NGmCvWfOrH2zc5ddEauuHafdL1t7d5be1sBnfy/wdxjZZJLpt8CPCOf3Oqp7XOT1fMW/g1qhkEgkCmk+64qOiRtsRhZ7H3nSTGY76FcEFPDJBbpASwbGSxDo/FaZEyzg4ikzh1/Ekgvrfwcuv3iXX14jwvy7Sfrfl6urVzfOD1/7ZcEegg50pwYfTkzMbW9/M/fo/sziJXracOTMhUvffjh+BAETp9F1R83H55r8pR0Lk/Y3mS0YhW42Jdqf97HDwu6hV/mXEwzSCWAFpuDJa0k+J9rHe+BOszNc8IvclAEF7DbQBVoyMF6CQOe3ypxcAXvEBczOPmLHf3/7PLc2fdYaf15enLmyvblFJ0CTBvjp0+FrWXsSFpGksfJ6YGB7YHNze3vuyvzbM/EL1MCRiU8Wsk31CjiR0DTSXcdi5mODnVjEJip3hFmLWUgUz0XK6w4JmG+j8hymGu/S+a0Vdr3IBBzoJgrOJum9CBNUwfRNpAUOG2aUnaJ8WAWjgN0GukBLBsZLEOj8VpkTezvCOsaf+fWf2fHfB99fefGRNQA9PT1D+t/czjOqX+Lf88OPf9ERZAc5tW5iyZ7Pcrl7m7l794iCt+fmZ+L0yLH3vSvXB+lFoevZdz1BxN4d0GLZ7C/CXHFUcHSI1ywU0iGP7gs1Otn7MjfqVePEuw2s7/kiF3B3gDfBSTYbmr2JPGOaBS7sQxoYBew20AVaMjBegkDnt8oQAZ/oDlhgAX78l+r31We5i5eYfyOk/40vPprbpJeg5P3v+bbhZDYaZG/XqCV73uz8uL6+tZXL5UgbPPFobZEOQ1+4dOv5bV9dg9A6EXA3sRkxbtboYHtF+uFoOJtkN7pnU6vplbiqJLp357qPeTn2dsv3ompF+coLOlcPRQcsooWweS2ZZD0wu5FiU6HTDOdFDIwCdhvoAi0ZGC9BoPNbZU7uELSvvuO/WmDl1cM/XH6x/DvW/y6T/nd+jk7Aemb593xbJpntKBNw9odnz16/3lnfohLeHNi+Mv9e32zk7NmJrYV0PROhiduYgLu7U6aRTtu7FSO9Je1/fcUPVenAoh51/6HZx4jVa9k1iapy66xj54eC7R44z58OZ82wbtn8UAZGAbsNdIGWDIyXIND5rTJAAtYrqfkeEQHr1tk1WqDnt8/f/+p+X6n/Jf7dtCdAU/+2ns8kDY33dGwIOvWvl8+fUQe/3iEWZk3wTHz2bGRt4slgth4Bs0PLXMBhy3MavScDPac2XXZtLfLG0hUo9x4e3odS9KpjuGu21a4Y6xXNtsYupkVnYwULBXMySfc8zwRcyJpGkx8FfIKBLtCSgfESBDq/VQbmGPCB7ZkgxdnPgdjUUu7iiwvLXtb/di2T/neCnQBs+7etrTWTLFh6Io1qNGaMbrwkL6++ecAa4dzmJjFw36z33b57L9+pS8CWf7uNIVvA/kDUSCZJPzxSIeB8UbZ65RoqSOyDvWzVHQPLV71PiHernl4zhCiX7it9mXyQaCobDjf5UcAnF+gCLRkYL0Gg81tlXBRwecvL7Eeo6OT27Yf3Xau1mljPzwsPb81d8kY4y9PxmUcTA7kd1v8y/ba2tbZmzChbRGNTpaLG4NON1dWN1Y03b96QRnhnK7e5fYX0wJGGv1//68iIuIDJ94AAPwY8FLb3LdpOpFZIe8ovrqUTadr3UKhcRaUYy3yrWVQKmEWAR86OX776hN+at/S1u2B+Fwf+RtIFF9hoeZp/kyDfUIxwBwr4BANdoCUD4yUIdH6rjIsCtiYp20ph85Sqm7lDV3kbZg170dT4g1tz773weunVJ+n1N+I/0f7XHn+m7W9bPxFwttDCjwDTA5/R2OCNpxv0Z3X1JVPwOjPwdCQy//cHI746BGx/uHA2Zn+yaDZpdhbSBy9d9rF2d792ax1I1IT4PGHHb9eR5L3CmrfbYy5sfhzYHDMLBetIdjSWSkVRwCcY6AItGRgvQaDzW2XcEDBvzOyThBKWf2mbWCkS3ovRZu1QvXCpl2aG65l69eB94t/Z37GzfyNd0/HFtUcTxeO/V3kD3NbanzESfAoW3QMi4Mfjw//u//fTpz9cpQp+9mxnfeve9hzpgd+7fP32UP0C1mKpsNW1BsImv7PfYbGPzxb7Xn5qcbcl4IouuMzAVMBW1KqGl2t2wGx3i/033yY9QTlhJJNm2O7ko0Yqpu27jgpQwG4DXaAlA+MlCHR+q4wLAs7TC/lX93Maka9W3clZAj6waWPolas0phbe/+r+i2Wv18sE3DUbX5yf22b+fWkd/z3f2n++v7/1WjhtLa0xAZuPMzeGh2+0MQOvviQ98I9bue25n/qmp7998y8Ba1o7Zgm4OxAzouQxk1jMTIbTIqvSyz4cm6JctG/3vl1w6WhvOlEWykMdZrdjHwwapplsL/B91zqIgOkULTwP+IQCXaAlA+MlCHR+q8xxCrh4vFcvk2U6zYZSo7EKotGARl7Si5dqsqxRC3vlxXUGYkODr5bev3XzYpzot4FOv+qano6vPdoesG+AxPpfamBCf2/YYwmYd8BD7/RmMneHx/uf/vB04+oqHYbe2coNzK0t/nri/xY6EqIf2+8vCjimWV1kOEkELBg9u/9lawgbnJSNcRAFYQHbw9bBQIEI2LS2XBSw/3AXw0IBuw10gZYMjJcg0PmtMsco4LKjkGUdGhWwVojFSiZhLolFtUSZoNJ7tXd2H1b+hlhq8NWPN3+izS89/Euv/jw7vbj4aHuT3gCY6Zf7t7WV/B4eHitYHbA1BD2UfPzOtcxo5sbTNvKzyrpgauD/Xfv1zMWPswXBQeiigLuJgK12NRoW7YB5J231v2RV9GZF7MaBpn0HQbMG5a8aRxBwd8G8ZqZ5z10SMB4DPplAF2jJwHgJAp3fKnNcAi6eZarR0s1N0qLFhlbGXy08f7C09OmTh5TrD//E/n7yZGnpswfP//Hq56meVNTPria1l4F1nd6qlstczw7+/Hzp4Se5b+7HLf02dC1fmF5cm5/Y3sytv372hvv3qd3/tg5nktFQmYA7YtnfJK+9M/rHDOmBbww/fbp6dXX1zbOdddIDz8ysXb87FAqJXY/DuhIWFzBrIgvhTtMMp6m/dk953nM19mg9XUWB3yxQACLg8onQIgLW6AUor5kJS8ABFPDJBrpAS8b/AwAA///svX9MW+mV/z8TgYNjY8bYGRNj8GTHMTGqJ8k44E8cEtNMh6ZBmGGRZ1RYiaShYVsiGrbTEVNnC8SoHcFCNNTV8MMN1I4WaLLKlKB0tmoUIs0n2QAdsglZrTZVpFFE1PxTaUYfqdJX6vr7nPM895d/EJxJc7F13wZj7Otr83B1X36fc57zKOOVpuQ+vrNZpfn5fwsAC1W8mnKoFlKbTGaT2eHqWZofn+2qXu2crpkOLZYtLk4tLpaFQtM1w8ODHee6T46PjS73NDpMJquJKnmxkVqtwQ0Mhvql2u6O6SrI/U7m7KX8DdrD0P155QGWX53nws+Uv8VNxNoVYJtjDQWwyeF3zzS0tra0tzc1eY9Z5ubqoBbr9uzKas3U7u479ekCOFcCYJzK4/H7X4gBgCPrxZgAYPTA5iT8nQHF38HdgnaSOlEl1roB7MQEPdRB+2IUwGoFwBtbcp+gM0zKeKUpuY/vbNbfFMBqyjiNyRztWRoZmxhfeNC10tFZEypb7AtX7Q7bmaqqwvsXFwmGOzuqCYWPvDU+MTY/OnL1WHt91OUxm9S0MprN+dWYHY3R+vbjI6Nkjyf7O2oGdlcextorItsQFD9j9dXsI678meV/mQMmZNoUEQGYuNPXZwiB61tamvZ4vZa5O3XogW8vdK/W9FW/dfWrAJgWT0EAOWDg1yxa716EzxvqWMxgMEiTwHz4fjte+EfoRg6HgW+0FVnf5Gq+UJ186PE53I4YrfvSrN8B48soAH7ekvsEnWFSxitNyX18Z7P+tgCG7KfJ4XFFl+cnjnR1TIevT6JVXUOTOdftZTUd73UfGa+dmB9Z2tNT73I1CmDxNLqi9ctXCc7fftA1GApPcnuD5pPE/QbDfVPTq6uC/a0r4kToS75b3LFYhAWg6TxgSK/ONDRUEA/c5LUcKyLI7iUMvgcEnupc+U9n5CkBTFw/nTtE/Ku/NMaZ0bQBDJF3HydxYhf2xH86iGjpAksR/FVcTb7OmHdElK/3GXAiMD8NaV0A1qkUAMshuU/QGSZlvNKU3Md3Ngt6QYu7M3110d5O4H6hA7LJ41oenTjZf66jc7qsqiSevYeTIPjwdXu4bFdN5yCxwx909RNHfPCt8draCVDt+PjbsydPdXedq+4YHJ6e2n19UoTfoUp7uC8E+CX298oVcfjZQi7UArf4Dc4ItecIYKvB8SIAuKK1lVhgQDA4ZgAw8cD9q8Odta84nhrAZlzlr9zs8W93aLTpLGmQS6vI+cx3AnzprsRiAFbFram03pyz4ICJB3bGDDEfc8DrBbAuogBYFsl9gs4wKeOVpuQ+vrNZAOBnuxwDV8gDoWdHY7RneexIx/9cFwE2j7uxF8m59/DevXsTfTB3Y5LgOLRruHO1AzTYWRPquw4+ehK3EYBuI+63Mty3iNFnWPyIVl/VYewZ8MtSwATAMR9nz3kH7EcA9xAL3NRkmbNYKIGJB+7vnJrd40qzI7SOtawiDpgVQTsChphau1WXFoBzmQtOwG56Wn9rT2HusVqj9flYEZYYwGu9dR17LQXAz1tyn6AzTMp4pSm5j+9s1t8EwGo1XeA9ujw2frK7urOscmgS3C65GHO4Rs3GvXuNxs0EvnvhpsDeeBpPllReD1f1lZUNDAyULfZV2a/zPlrwz5D6RfcL+H2w8Og2s7/UAGMHaC/lr7clEBP8L66A63iZOOCZaANxwGiBvYS/c3OUwLPVux6c/lluugCmBAYAQxEWZMGtag7A6TS7TmNpwtRaH/C5unWu8lpDzbskBxy/qnDieyV/nALg5y25T9AZJmW80pTcx3c265kDmK7yB1FXV3Rporuz7Pp18KmA1cM5h41xyjEigOGaghh/O5zgiCVmN2czH60mON9is7HUb2jfcGf1CsUvm31URBxwMfG/FL6FhL9NP3FQAFP/qzGZiD0FAM+0YRIYLLAFYtBA4PNXbnd39l+6mj6AMQgNAFZDHTjnRSHIm36r66+sdRGfD1rzU5+YRFXQa+Kc+mcFwM9fcp+gM0zKeKUpuY/vbNazBjDN/hL01BP3291Rs98+dFgwvZwAmkRGI7naEv8g6HBcdlicOwZGQ7urnMOHc4y2oSFifneH+/pCNcT9EvtL8Ms1v5orgv7P4IDBAhcXIoAbHMgSDavwBQcc8L/uxixwCxD4mNcLtnmurhc88KOV/gfvNn91AEN6FpcogrlIaUSF17848BpaM3IcoYFl4YVozFvDlB6AdUoI+vlL7hN0hkkZrzQl9/GdzXrGAKbVTSaHq2ektrtzkZYo75WSd2jINlSCIvAcKhl67TVyJ15RbSGCkirbYRa1ZjTOy+P5i+TGXZUEofBqKhSq6YSZv48e3WbRZ8j+YvtnC14KCX7Jd3FTqzumEgAMOWBwwFAHXQEAJgbYa4EccDEguK7u0ysL3R9+6kvPAksBjK1IVLRAGdcJ1KWVBX4WAF7LA0dYmVYc6bUCgDXrB7BOAbAMkvsEnWFSxitNyX18Z7OeLYDZQr+e6NJCV8eu/XYbxIs3w9pEEG02ol8lzAzi7N/dOBF4t72y0m6HryCKYvk1QPJrW4yHwSZzyuOvgODBkuCQHbzvFPG+nWh+F25T9yuafET5WwgiP2AWcADXtuVywGq1yeB4GechVWAdNDTjsHgt0LWyd673/Pl7tx+sfNOhT2suMAOwhgGYsktL2UWXhUrHAwurPsVJm6CnAXAut4KwSuq2tSqWBhYVYa25JyUHLJfkPkFnmJTxSlNyH9/ZrGcMYMgeeqLLI3xr5s0cfzm7CgpX9YGmpqbgR7gqHO4jF0Dybny8kmC4pLKSmGPCYlu8IOhcSQEO1hcqpKtX+h/MLsDMI8DvIcZfqH22FHuL4RsJTL5b/LEYpDm5GmgCYLMjgElgqIMGD+z9BMqwgMDggT+9t9A/VrH9aQGsUTvjMJh2JXSu8KwEAMdDOAV/18P7SCTeBWv4KmgHD+C13jc8W8kByyC5T9AZJmW80pTcx3c2a10AplN713ESh/k35p75hXOd+68fzrER0wsAxoAxlCkTv1oF3B0IhULToJrpXaHQQKiM/E5gTHncV9UXDsOWuzkUo4jhJVfBykqO4FOhfdPDw51A35Xu7tlHmPvl7S9Eny0oGoGmP7ysBlolAnAMAByAKqyGVhaD9hZTCzzXW9cLFvjKSLT5KQGslswiQgucPoB1kSSZYMbbRBucyOH1vxi34hR9PQHApvUAGAisAFgGyX2CzjAp45Wm5D6+s1nrA/A6XZTOafJE28dODRL8Ht4LMec84n9ttsmhIPRnJoQl0Kwh2ARukq/V1cFOcnN4eph8A46JCItDA2RDciG2uKoqvDu8eze5BoXDVQhwwuxd0zXD5PkEvl3dD2Yx9csFn+vqiunkI46/YILptbfpJ2wSMJcBVsdMAoAraASaEBiadhRBEHqu7vyV25euvP+0AHamAnAac5GS54GRss51ETid12KvGBFGiQJ4XSyPKACWQ3KfoDNMynilKbmP72zW+kLQunU1Eyb+19MzMt41vL/ksHEvut/NMEW3kuC3L7QvRA0roebqysoKQSequnqlGu5aXX2DfBMsEyCjpndNE8zuCwFuCZKByJS73G5WwPk+eDC7cPs2Z35Z8VURm/zLbC+4WVqI5W1xGyICf0UhaL97pq2BzUPyer3wVCif7u2tq/t07NGj47lPD2ARgQUAp0dFyarKgvtV4c7XQWCu0DkNKyzq1ikC8BObQSsAlkFyn6AzTMp4pSm5j+9s1npbUa4DwDqn2dU+f7Bj4Dqh7t69NPqM/anC4anpGuJ10bGu9PevdD/oFmkFvuEBRmTEMbB4FXxy5zA1ycNgljsR1NXVHHwfscgzF3umja+IoJQZI8lemP5Lo9CFlqZWP/SB5vgrBvAMBXALOGBG7iJL0dxcb935T28v3NHrnh7A4iywUE4VWcenGmEDAcA8XfmFoTSUlSJznMwFU4iv8y/I5ddrlAD4yQBXirBkkNwn6AyTMl5pSu7jO5uFizGsg79PDprqnFbP8ljXL/vskzk56H4Jf4dKYJbQwDTAF0wrQBO0AN8LeAt/PFqYfUAkMJkT8blgmGm0mQqI/YDCl0aeRfydE1o/0/JnLIEG82shtwub3A61TuAvBbDBAJ04YCIwFkF794ADBv5CIXQvEPj27asGfRrtKCmANWoNA7CIwHGNJdceVGHUhRxwPH+xThlXfBBmCiUl8PosrPi1nwbAuco0pOcvuU/QGSZlvNKU3Md3NmudqyEBAJ4wlUXlqF+a6K6Brs+Q+4Xaq6ESiD2HprFQqmulv7t7duER6jaw8zZ3TW+ShxDNBMiMxeQazDJ+kyc/wHsewCaUvZS+EHo+/8e6ukN1xRS+4F0xhgwF0Dj7F0qgyX3eFr9VpWNdoAUAOxyNCOC2CuJ/WyACXcQscNFcL6SB568cc8TSmAjMAKxiAFareTRyMObvSDWo/NyjZJOQRAsjc7lsimEqpwTUIqlxXUffuhIKugg/V8vk8CgA3siS+wSdYVLGK03JfXxns9IA8BpnX5h+ZHLNn+wYsAN9Ab952J853Efou0rDxbPATczXJtVtymLYgvjhhYVHC4jkhUfMMBPHu7BAXS+/D8TvH2nl1aE6LvVbRHtPFkL/K28hOmDwwUXeljYHcigewIFGzAG3sSLoJpoDplVYkAU+/2lLINa8HvjwwyECMPRVVgPM1CrODqvjptVG4rOzwpRcJ3+Vmr/kD2Fdm1Gplm/AYDV7pm8df4VQhLVeAEeUxRjkkNwn6AyTMl5pSu7jO5tVmiICrVOZzA6zcGZdeyUcldrkaR89Obh/Eu0vzPsdKqmExRHYHF0Re+/RS5zIXXEsjhMHXm4fXOAZvK+49ApE+FvohfhzIYafiQO2FJFbTRV+k7AQIQdgYoARwO62BnDAWINVVMxC0IjguvN17X5D86Z0Q9AMwHTVQyCjWgAnuUm9LX1CJO6foMMliCN0SlBEuAZtFQAsNGwuFxFYrdqqozso0In2QIDK3kBSC5xwGOjUwmpI6wOwsh6wPJL7BJ1hUsYrTcl9fGezUgA4EjF5XNFG/jQdWfvcqzaZoxNdw7uDeWzmL3G/4b6padqgCpZHkHDz3qcAT/xK5DDPYjGSOeGDAnxF+OXaTkIRlhfcbzFxv0RFFtoDi6C5xW126lRCGw4OwJ5AAGLQM7QK+hh0wsIINAUwELiuxe1oTrcISwxgCke1UyQBgZsKNm2SFMKR37A4nXb/KMAqObhm22xNBWAMQgMot8btgTyRfHzQMf+bNADNv4NNVORTFds7tKKkAH5iDbQCYFkk9wk6w6SMV5qS+/jOZkkBvHUrfOsAuNGlb45dtXJxV92aM1h85sarE/2/rIL0b97mzUZbsJItDYgNqih+Ebvnef2Ru3GPXu7Rm5zOx2NZLNgS9oD0nTtUxLWdxMqrIksR5HwtaHzhZ1Eh9LWyeJtaAyZVhAKY7wQNRdAEwFCFNYNF0BiARgdsYSllaMfR1Pb0AAYjaTKbTWaTIDSqauZI+QytWBqRrGKJ9iK+LZHVqkkiYXPxCzn5OjFJvRi+B241JIdpXRlgBcDySO4TdIZJGa80Jffxnc2SAlir3bpVq9VGciPa4291v/et7c3ryXz61J6e8Y6Bykma/yX8tfdNhYZXq1cAv4y+53n41iE6z9f9EX7CDwmPBSGGz98TfnD1Vue5Gb9zdbje75xo5i8ymPZ+RtGQNDzobXU7aOrV6RRaUWpMkAP2BPwzMwDgJoxBF4sccNFc79xcb1OFY53wTQJgWJ2CySwS/sLx2GQS7k8tD8rh4fZWWmoQq5TbZM2n84+y12NQxj3gLbiL3G/1qRUAZ4TkPkFnmJTxSlNyH9/ZrDgHrNVFcN08tXm0a3jXkdZSCYGT22Cf1XF84lzV9cPE/kLf56Hg7tB0DZResf6QVwT61sWJuwODyWhqE0EsdswE2OQpf6yjkefe3t4ibuIv4pc64OLCQgmBC5G/7dFGs5qvYuIATFBjoA54ZobWYLU3sdWDi4stNAlMENzU4n96AGsQwCL0MsyRG+BUrWg2TSIEp5aB+wmCHUm98Tr2IBZzy1Y9KM5jEwDnigEceUIWQgGwfJL7BJ1hUsYrTcl9fGez4nLAW1n1bbnn6LC98jd3XokDcJLsoc9pdtW+MTAEyxZB+ncyGJ4aXoXo86PbV4R5QhAv/qNA3t4EFANYAa9/RGtMbDK5Bdito89Esyx6PqEiF3hG+nqLi+m6R2L8YhVWIWziba/wwxzgJACmOWA/TgNuwk5YhLxe3CEYYAt5pV7LVwCwplyjcTgMer2Ghp41yDvI1mJ9FJUKGKxx+ph061GkIBJ/T/wdfOHW1q3cTbJzeIs64ZXY/9HH3ed0Ao9NegXAGSK5T9AZJmW80pTcx3c2SwDwVjhJR1j6r7FnfGDS1vGtT3KbRdVBkSSNI3xq87GxroHddPZvnq3E3hcaXl3pejD7SMDvH6V+Fxpm9NYdwkuc/hj3e5xnnpsj6Ia5uVzYmbCymFvzF2cfFUoEc4CLwf82tc4EYk6+oQUPYKsYwBiCbvFCAFpwwNANa87S9JUADHXETr0a0r4EvRx0AWgFzbTLNBS99fTURw0+Xy6bBZxkx5ukigMwlF6l6OwhfMgi2xm2G0QPOfVOn15PXtUXMxgcBvjGjwtWJwMwfHwgAM5VALxRJfcJOsOkjFeakvv4zmYJAOabJ0HtTXT05JTRWNP/nwAI/uQdScwD6pzl5onqXZOT6H+NtknC387qlQd0bUCC3z+KmEpwO0d+g7jxIaxaPlR0qLc3wQwnFeL60JyAXq7jVTFeYfK3UIpfSyELJRdZCH/9Bl1uEgCbGYBnZipwLYZ2WAypkD6Tvgbi/isBuJwCWK/CrszwzdVzkeGlBI6YX1n+aH70uCvm8231YTHUE5tlxC2RRP9/T6Ak7DpQ/7qPj2zorIZYzLFdTx5yBPyogN/lIR6YB7BJAfDGltwn6AyTMl5pSu7jO5slBTC6X025Jzp6pMNuzJvqHI9uzyeIYFNgE/th6Zya9tFT+6pg5SNjntEWrArVQMPJR7e5uiuJfyWwJd+9rHIKAVcH3aaooO3UoaK6OaSsGLxzddiUivlRCYC5npNgWi1x9pfnr7eppcIdsObGA1ijUZvMuBgSALihorUdV0PCxllCGTREu3ub/OtoXSGMCg9gH047Nnk8JlOjy+NxRaNRV7TeZfBEGzGN63F5rATHEavr6ujp0dGr0QAhMIaDwcuuzWChWwdEsoHAT1g0krhqn7Px4z3vf7xnxueYiUa3+wwOV9Tlnnnd4MuNjk7cvnTp0vgE+RjQ2OggpjhdANPe1QqAn7fkPkFnmJTxSlNyH9/ZLKETlrAAndm1ND5sJ5727+z9S9EC9Gj8JpITPOGvebR7GP1vHsz+tYc6V1ew9gpbVHFdqgCjvb1FBL91tG6qiK33x7tM7m5eaHWLpXchcFm7DQZfC7fUQjx8Rfy1eFtaZwIGZy4PYJoDZksxOAKNgYB/BqYhtTe1tDQVMwKTZxYX8wB2x9JYyIAHsBpeEQAcMDl62qPR9qvLV9uXl9oD0eWeRiJXfXvUY80tiJT2jNXOj4xcbY8axPt5wmtyf46O3tZufcLmkVyd9v3vfvTxuz++45v55Op3onqPq+dYe+vP6j0+3/FTnfvKysr2/8up042v17v0uvQBjFIA/Lwl9wk6w6SMV5qS+/jOZnEA3roVo5gqjSd6fL72ZHUfgWqe7bXhU+NjI+0uX4Q/34stlk7njB5/u3MK/S/gt2+6s7p79pGwNi8WTh0CjwtlUyiep4Dg4uI4yEpwmyg2pYgBGAS9rryJ5lfgb7HX29LS5g/odTyxnDyA9QzA2IqytQUcsLcQu1gSohfRKDRac687tn4LzAHYZLbi6sMEYQFz/cSj0ZGJ8dnx+YkHtcujCxMjoKURQmAfccCvL82fPj0/Uh+Iicd3zVfRMQtMN9Ot7X5hC0Do1o9//KPvfEQA3PqP7965evz4L0bHRu58OvKNgOFq/64q+9/b/37w4EeBxlYXccBOKBnjc8DrXcxQAfDzltwn6AyTMl5pSu7jO5vFAVirxYV6NOWu5Ymu4f1B5mmHgrs6Zq+0x3xogSPS2aDAmeWJ93Kw/hnKn/tqVgl/ucV5sYDqUF1d76FkHhfiuyIAc9N1xaSFO5jjFdDLuCsAGLteJeKX979FxP82uANmVVIAGxwOXI2QALiiBdTk9XLFW8yew4cHALBzffzJFQPYRBtbmBwex9Vzwwu1XYO7qi89WHxv/uD0ewvj4+MLE/futPuduc2bSqNX5ydqT0fX06WZ4ZQPQK/zGVjHHNnzl7/8470f34l9PP/pnfmJoz8m72H+WxN3ooE7/bt2/5/K//P3HRNXtwdmGgmAfZjBZlXQ6/7rFQA/b8l9gs4wKeOVpuQ+vrNZvAOmdTyePfMHq4f7rr+2BQFMqLp73+DK7NFjMV1uhAU88eyPU1mcjfVHz9Xk5EH611hix/TvLGZ/zwsZ3BQGF8unWKWThYdqkUW6CRIXa6yKuW0sUrHJRin9r4X434oZvwMMcISPQHMAtpoZgGkjLGyFRRdQEgO49ykBbDVbdRyAiQMeH1marx2fWJo/ONE+Mj4xsrQ08ulye3t7o64gv0AfqP/09Eh7gOcvGeJUyxbBvUICWCXO/K5hmuGvj+hU3/joo3+8c6fB1/LRR5++e3Vk9DRxwGNjxxrN71/6TfVPf9rxxqmJX9S7Xt+OAIaWYQqAN7rkPkFnmJTxSlNyH9/ZLGkOWBs9fXIXLqiARVV50Nc5z/jawOqYQZjCo2PBzFyftn7pZBj6P6NX7hteheUGcd4Rlj4fkoacJcL17nGRIjFN+eQu73up6cUJQZZCzvjCk9h3cvYK/IUCrIaGGXEAWpQD1ph4AM+0NbTWNzQ0eYXpS8yegwHu9bbFnOtYNYpRUJoDBgA79GZXtBGqsFxmV33UFIhGXY5mh8vQ7PpGgM5Ect15V1TpBUOcYhFIeChugUJuM90aoIzQUmlP/Scf7SGv87U7n/7nMVfr1WPtra0jI/XWyCujE28dPHjw7dqxkWNRgwEBrBHmAa/3j1cA/Nwl9wk6w6SMV5qS+/jOZhEA53MAJhbJs3y0q6aqxMbzd69tyL7/jdl39YIDBsOlUkHDBs3IwY7rQ5z/Ha7uXrh9+8p5fuYR5n4lyVu+rKq4iFYvF9JWVYVSDgs8pov7Flv4h9mGybibYH4hNO1taq1oIAY4wiOIr4LW0DYcwmJIBNQVFMDU/xYX9dIcMEEwccCxNbEjIaQAYB2OGgGwNbK9EVo8ejwmc+P2fPLToC+wOvS5jkYDLp1Q4KiX9LtkGd5kiV2dLiKdgrQ+B0yDHObGaL3b58vdXv+NdrepkXwQaGys7wmoCjzfOH5n6d2lXxzf0+PartfTHLAC4AyQ3CfoDJMyXmlK7uM7myUGsE5Lzs7LtV3DU/aSLZS/W16zV+3755On38c6aNFZH/opmx0Tw/ttvP9dIfy9d48rez4k8b5cipeGdYvZar2FlLyFhQKBC8WoLcT5vYWiDcQ/n4zf4mL0vw3ugAknM0sAjDXQAGBPo/91QuC2hpmZmdYm0T6AvbwD/onjaXLAMacOXpUAWJNPpWWrFMF2BXR9B1zxiK5cJNlL6hRvCv+7trjPT7m5xNvim/RFaB8QfA8w4RuCIeQd4tZ8FbQC4I0uuU/QGSZlvNKU3Md3NgsATIPQ4J1UVnP0+DcnDvYP2o17CX83V9V88Hbt0ZH3XXEAwxWFekZPldkxAE3873Q15S/xv4cOQeK3ly9jJugFqhUxAlNrCp6YtorkaIpg5fO6FtH9og24bZ5MX/IuiP9taW1ogylIm4QMsBjA0IbD0wh9sFwzMBGpxSvaC6va5hxwOgCG3CkFMC6ACA4Y1wfUavPhwjXiKOC1if3gwtwRPt4QB1favHINAOMGyYjMnhVhL5yL/UAI9+ElCXrz8/klEaExiIoAmM5KUwC80SX3CTrDpIxXmpL7+M5mCQAGQTOOcrNnef7Uvsotezfvfa3mg4lvuKxa5thEDtLpNJlHjgwGabbYDvlfwt/z1PzGlVsJHakEAvM0FeVxOf9bGBdnFm0gmOQnWF/C317mf2fcNLIrphYDsNVs9mAfLJeb8Nc904IR6GIBwITih3qh+yXkgNeNIB1NMRPumugCfwDg3Eh+JKLVWrVavZajmQDgXA7A9F+RssQ53vsmbKQTKBsvHsDCyxbQ+AfrbCkAmGyq1sE0bwXAGSC5T9AZJmW80pTcx3c2C0PQPIB1BMCacrPr/bHuf67cu7lyf//o+y+Z8yP5BaIQNCCFGODG+onBKQBwni3Yx/lfmPUr+F5codcSj0ZG4OR6YoI3peL5y/xvQ4PfYxLxB4UGFQBscNDVgP1u4G+FhL/FlL9QSvbHdOcBMwCDAwYAaxwOPbyDfH0+fMaJaLlO0Dx/2e14zib63ycAWJfCOAsPUZIK1pt7eBMeBmx1CBV291AAnBmS+wSdYVLGK03JfXxns7AKWgRgYtA0pnJNz9Guqr05+/+tlktZIht0bNF2XFC3fulUmBZLB8PTq92PMP9bhCv0FnNlV2h0k/I3FYS/MoB7KX97Of/bMBMwqeFvE8dt+T5YDMCNCOCGliYJyDkAowN2P6krlRh1FMAaHsBqMwUwMcARrT6iTQBhwh44ACe/WyLyErrEDRKBGRE/IEZ/8hdQAJwxkvsEnWFSxitNyX18Z7PiAAzzVADA0asHB7bs3dX1XauIv+RhRK8aF7k9Pl5tx1ppW1/NavfCFay/OjSH3TVoqLgIIs3J/G986wwhEG0pfFoAC96Xxp8tWP8MBVgOjUorzZtialMDPZpNDg9zwH63u7UlzgD3Uv+LjTj8T2jzKMGYxAHT9YARwCq0v1okMGsuFokU8Esj0d8l71W83hFWnydFMIdHsUFO8MDcY6K1mKDHt7jBFXs+LJusfhoAR5Re0HJI7hN0hkkZrzQl9/GdzcLFGITSHyAE4YXGE52oqXxt8K13rZS/9PSsc1KeqKECer6rphL4OxQk/nf2Nm2+MUfn+BZyzrcwqf+lU3UlAOYKnEU1V0/D316E76Fe6P9M/a/fbOKWeeKlYQA2EQADgRthDSB3W4s3LgNMAQxF0L1proYEiOcAjKshMQcMF61e5IAjbLov+10SYXby105qpFU0/s/5XrztZFDF15X8lU/IHnNEjaik/pn+izVPA2BlNSR5JPcJOsOkjFeakvv4zmZJAQynYCvBldXsOV09EDz3zR4t8JeefHX8cg3k9OxqvzQcfg2aZdmnVrtmYfov4S/UWRVbRJ2Z1wpAJ41Bi+f60g2K4yG7Rt9Jan6JLE0t6H+hBZY6nr9qBmArLYIO0FX4GlriM8DFXA64rtfbmp4DBgLDPGABwNYIfr7RowMWHG9uRIgNx1c3I1t9PsAhFdJRRbdiAKZAJt5YF5cglhpgXWLlNIV2JCJGMR0clDquCEsVeXIvaAXA8kjuE3SGSRmvNCX38Z3NigcwuEXMAy8dWR049f5LoumpwnJJ5ZpYzze79+MKhENT0ysPHl0h+OVyv8WChU2SASZ0TAPA4mj1Gk8T8/cQ4y/43wa/xxC/bC7NACOADQaWAQYD3NrkFcXLizCZjAAGB9wk6ZGxDgAnrgcM4KT+NyK1k4lo5CwuXBMAlzNB5MGpwo4oTrEIHFVmT4C8RBKDy/ib7BUi7J/KbaoSPmABgeMA/MSlhhUAyyW5T9AZJmW80pTcx3c2SwpgXYSu6661WnvG3l6pdZlZCpifBUzTpybz1YMdOAW4xD690g2LD0L6F9wvrkxkScZGPrC7Bn95CFsSgJvSOIseYEXLrPy5YcYdMFsTp82yCikiCmBIAkMFllf0aaFIvL9eS2v0qwMYBDFovVYSHU7BXxp2duLzmSUl/NXpIuSfRXMBIgCrTK6e48ddal3yIqwUtdPggcXra6gkBI6fhrSOxZAUAMsjuU/QGSZlvNKU3Md3Nis+B6yCLKVeq1W93j5aO1Ka30yroCUA1qhNjtH39pXAIkjhqdXuR1fuYfkV7S5piWvQ/LQAFj8rbjdr89dC+Avh54Y2d6NDg7FTKdloDbQphhHogAeD0G10GaR4APfSHLC31W9YAzypAGxNBDAZWqhaFgiclL88WNVWj8tjcjS6opzq6+ujLo9aCmDt9qWx2h+/71DDS9NdiBif8BJcHpkbGsZWnF2G0XMcIKUIK1Mk9wk6w6SMV5qS+/jOZiXmgDFOCk0po+1RWgNN+QsrFqpodZHa7JkfrBoy5hltU50rj65gAw6svrLQ1ewtKQgZrxTwtaz5rDWiz5S/NP0L/tdgRb7E4YdbCckAGWAPTETyz7Q2gQHmG3XxAO7FXbb/xGN+CgCbEgDM05UVNudSzxqBCmfxFCCu6srkaP9FvSN67KPTRKPfnP/u0YmJibGRHhN5LuyDA3D9pXODH34zasgVERgaYkXiq6rZ7nkCiwxwLv57OQInhKDXY4FRCoCft+Q+QWeYlPFKU3If39ks6TQkWE0HTJoeQ9Es+sw1a8AlgymAPT21NZVbjHlD9umVB9gA6xDjrzT+HA9gUfp3LQKvWbglfZKwW8pfKH9G/DY0uP2OJOZSTUQzwDEzAzDwFwLQSQHcCzOaWt2O9S/FwBVhqbW0E5YIwE6hpBnRSZfcZQVTPICFyLLKU396/BfRdycOnjp16uTJk6e6u7q6Pjj11ogjN3fr1q1IeuBvec+pssp/m/iZh+zGJ3o653MT8+ASHywGMIS6KYBVHIA1680BKwCWR3KfoDNMynilKbmP72yWtBUlXbEugmXDEdqfkDzEHgUAs/rh+tGTU7AKg70PAtCEv8VsiUFxBVYqBwygLMYq46QEfoJpFj8pfq+Ev1z6t6Ftxu8wJVIHinxphNVkpgAOBNxtlL8WEX+5HDA0g/a2t7kM6vXzN0IDBWqdNQ7ATg7AfNQXcekTxl4MYCd5s/UjJzu+dXy8unPfvl37du3aNTBQVlZW01Eb4FCvc2LWfk9XVckvv7XHI/oQIOFl8jh3IoCdam6Ayk0MwOR3mgNWALxRJfcJOsOkjFeakvv4zmZJAEzDoVinC2dbSXAaAaxm5+blt9/YbTQabX3TKwswAUmM3wQCixgpQiWXC/4KAI7nL7G/TSz92zDj9ntM6mQAZhXFJrPDTL6h/gr5iwDmCcwD+BCWVEcDaXSCBtiByVZvkjhgNTeblwKY8ReVwEjMxTqdWnPP6G9qLl19u3p4oGzKHpycnLTvn9pf89Pa7c08Z1VaK3HAXfahX9YeC4jeRSRSIHlLSQDs5CYxqXG5ZBW3UHJSAOeu1wIrAH7ekvsEnWFSxitNyX18Z7MgBM1yvPxpGjs1JW1lSPFlMn+0MhA05tlKQqsYgKZLDBZBBXShNwGpxWzu0SGJir8ygBP8L1RftVZw+V9zMv5y06g0JmKADQaDg/EXAcyWiqCLJnL77S0iO20LqNfdiJLWqpEXURVopA44EcA+p88neR7HRszFOtWmHuKAf9wzWnvq3Hsdu6pKhnbvG+zo6Do4amhubuaepmUOuKb2WCO5o7mZPSb0mUw5z4mZYNYp84kAXh+BFQA/b8l9gs4wKeOVpuQ+vrNZCOB8KYAlcUkxWdQqxJfDNdZZaTPmBe3DKxCALuLzv8maWBWLAczaKx/qPRTnZtMCcDFtpiXBb3ER5S/nf6H+OQl/1bwBNjscyN+ZCsLfJspf/BwhBTC2tJzxrBvANJObHMAc+MiV1fx6T9RggA8BIKtTlwTAWqtr+ejbI9H3l05P1L5dvctu31d9cHz8W6dH2tuP1btgZpTVUd+zp6d+6QP7a8Qq19e3t/e8YnASAhsa6/ccIxt5nLq4MugI++YKrTWO6NVfRH0JAHbGh6AVAG9QyX2CzjAp45Wm5D6+s1lpAZiFbxvrJ3ZNwiKEU6uzt8+fp9a32GspjquBjmOm2P8+YSrSkwGcsF+R/QX+GtTJJr/S8iIgInHADocjQPBbQQ1wIQK4mFu0GK5xvzCnqc3t0ajSBrA6N6EIi9IVrsyNV4/ecTXiJOTGxsaAwSd+vywErdaaPdGe7TANqT569chg1f7Bg0vRaH37yMT4wbGrUfI/8UQ/qp2YGB17o5IAeGRpdPzS0XejxB/nuo7Nj48/Grtab1ZLJyJBuXWEtfWm9td19eCDqzHd2gBOcVAoAN4AkvsEnWFSxitNyX18Z7NgGlJ8CJqeplMD2HX8rX2wDFLfNDXAYH4tMAOp0FKckqKHuNQvVioT4KXGb3oA5ub+8vYX4s8OdWQNAGMAGnpw+GcIflvoFGALh18uE1xEq7paWmFF4fQcsJMC2Oow+RIBjOoZGe9++zRqjGj0mMuQK0wYYlVYVq0VS9Fzczc1N/eMv7G/rLo2anYdH1voql7tf2vseNS5PDZ77lzXye6aIdtA99sL3e+tdC0QBNe3f3O8u/qNN7oX5ttduRICA3x1Oh1XEmZytY+O95+6g0YZy7c1UgCXMwArDnjDSu4TdIZJGa80Jffxnc0qzd8krYFOyV8BwNGPjgzkbbYNhVYfXLkH7TeIAfYWE/crJGfjIco7394/YqOMpqYU6E0F4EOsdjrpA71i+9sw4w+Yk6V/VaIMMPAXFgFuYPy1WLBttQTAsOciC6ypNON3rHs1vjgA5/qSA3iku2Og873qjtVB1MrEcb/on8DVQUN6Nz8f1y3Krx+vnho4961XXCNvd+zrC++e2nfu4FXNRHVN1f79i2XXJ432XTX7pqqq9u/rPDIyert/19Tu8O79u7qvtEv/txFcVVLFAdjcfrp7sP9SO00p+5y8B+YBrFZC0Btccp+gM0zKeKUpuY/vbJYYwIJnTMZfHsCanrHvT8Ec4OGVhXvni4q8RV70wMUsBUytbXL/C+a3qQWg9xQATo7f4kJmfyu46UcBQ3L88o00TTD/CPnb0NrEKrDouhFSAOOspgpY0tCE9Uzr6cYYEQAcAQecHMD6pZOrVR1HHnT39/d3df2m/8jpnoAEwBTCepWVLZkQye+prS4rO/et+u8sVFdVlZUNVJVMd4yPnCqrsu8b3lVmtxknr9uv7x4Y2L179+DsbHfnZGV43/D0rgfzPXS//D+X+zdjlZdreeLUGx1vjbyChVu+eADjdCpsxKFTALxhJfcJOsOkjFeakvv4zmaVFuSL2nBw6/IkjbfyAG6vfW+/cXOwDzLAdQSp2P8KS6BThY+58DM41ZZWoiZu5aF1h6CT8ZcxHfZZIfhfh1WXfOV6rs+xyeCBFYAJfyEA3dTixTlIUgAfEvxvRYPfoafNOJ8MIMZPth4wywFrNHEAjhQcm/hN2ZGe5XdHRsllZOl41KwXLXnB9etgBdMwK6yg/lL1VNkHtctjg1VDZT/teGNXEGZhdwbtA+dOdg3CtOyhoH1XdUdNX5CQt2N6smrXymzXSu2yX7RjsYC1juNHu6Y7ukc8VtwIm3iIAYwNRQDAbMKSAuCNKLlP0BkmZbzSlNzHdzZLAmC6Nk6qjgs6FWthcfzgf+w22nZPrzy6VzfnJQD2YhVWCv7ywWc0qojKilYagi5OReCkEE+2Y5b85fkL5c8mX6rVBxh/zQJ/W7ECmvFXnAPGnYP/JfudCVhVBMDgIZ8EHwZ+bj1gR8wnAFjwoJFIQfT4xIMxVzTag6p3mQtg2m5i10j6DyFiDnh8ZHyfvar60sRE/8DuklDn1NDU4NujEwvDQ7a8HHtNV+3EkTfsk8HQ4D6bPdRxqvvkfNTRDHBNsmu1Nbo80dVZNnxu4lgjBbDYAUNjaTUHYJUC4I0ruU/QGSZlvNKU3Md3NisRwDpdKgA7KYB9V79fY99im1rtvnLvEOAX+EUAXCxe/rdXjElhjQTEb0VDKzHAwkyipyvConv1trTw5heWXwiYrSrdGv63XGM1O2ABYPdMWwPlLwAYX7RIlAI+xGYAk523uR3Y0wIGZ70AxvWAnQTAmAOOA3Akt6AgYooea6+I+j3Qi8vhIBYbpu2mWLUIRQA8Vfbe7NHZqapdb0cNhqMdA5MllZMlNV3/aGpcqh6yGfMGzk18w/X+eJnNNjUYsr1WEuronlg2awviAMy1wNKYj090LQ4MLNb0T9A4dW48gCXLESoA3qCS+wSdYVLGK03JfXxns5I4YF2yCDQ2/mcO+N1zZSW2ktDK7L3zRchfr7c4xdQjXFAI657B/fKglAB4nQ44Yb9sp63cTsH+YvlVqgX+AIrM/xL+0gA0VGB5cQnioqIisQGmXS3h48KM35C/iSFsnQBWazRm6DJNHDAC2MSXMXEA9tSPTNTWTlw5evQKuRw9ffwVAzHZuiQrJ6ho/+r8HghBV8/ePjUVrnnL0Nw8Wr3LaLNtKfll/7vNjjvvEQDnDPT/6EW9q3bAZhvu/qBzIFgVWu2qPR5l7z5umplKZXaNdZ/r6D956sGl0Zm1AWzFtSLWMwIKgJ+/5D5BZ5iU8UpTch/f2axEAKeogFY5GYDLTSM/tduG7MP9j87XwYQiCzpgb3FhcbLKZ2i9AWnaVsGnAoCbeAAn9q5cB4BpgrZFFHxuqAD7q07lftHxIYAdjRh/nmnDBDAfgJYAGHZfyPgLJVj5mxKHZA0AE9KbAm6YDcXPAxb3pQYA148sDHYOdw4OdnZ2/nPnv1R/65PGAsk+eNE9aNQUwA9ud/dV1TwqbW4eWamZ5AD88kj1pNGYt6//R69qXRP7Jo3VR2/PdlQGh65XrVw61rxJ9N9lO9WR3zz1B6c/GB/tWV7q4ZY7TglgeHZkff2gFQA/b8l9gs4wKeOVpuQ+vrNZAoCJx03JX2ACN0PU7PnmYMmWyvDqgyvn57wIYEwBx3OTxZ5hlhKmfhtEam0hAC7mksDJmleuCd/e4kIvn/sVsr8Bh1WVau15yt9yDcafkb8NFYy/yQDM2mrh3v0OTXoAJvw1e/xReEMGJ86slTpgyAH3jJ785eC5c10ffvAhUdeD734sBrB0EUGMZ2/tGa+emqqenXhQVtn34Xff/c5459Tk7jK7rWzwrdGjC8M2ozGnavDk6Y/Guvsm8zomLh3sfq9zYHdJTddH0k8H/HvQml2j42MjPY2uVxqxFWWSHLAIwLmKA96okvsEnWFSxitNyX18Z7MEAHOn+yf433KH6/S/bdliD1XPXqmzUP9bTDtxJAWwhV+fKAHA4n6S63a/fD4ZE8rgfCtY9jfZ4keC5VNhCZnJDPx1QQK4giaALd44/EK59SGLpYnRnQDYpEoLwJBqdpCX8HscFMBqNpNWsKAA4Af7zo2Pvz3+1vj4+KXaH9/5mkMAMEc5fr4QrBJIANw31TE7v7Av+Hf7qrsXqsPXg6HOKVtJ1WpXded+6IwyZB/u7n7vl5U5xsGFhdlLVx78tMxmr/mRjy3LILXWkVyVtrzcqs3XRsRLM60FYCUHvDEl9wk6w6SMV5qS+/jOZokcMO9/t26VMAUfEDokeaJHh7cYsQb6KkSgi71FYICLkhhgyKMmuF8MF2MSWNLQeb0A7sVpv+LKZ7b2UfLFF3gAqyl/PY3E/woJYC4ALfC3qLcXZxYz/wttKJ2R9ABMXsrjJv7X4AiY1epkAFZFXD3z4z9eGllaenfpF7/4xdVj9QGraMTjAUxAGINOWFMdC0sTg1Ul4V3DP90VrAp11Z6bsleGanZNVQ7Z7ZUlwf3Dnbv2l0wNnuv+sKP63OC+3X838MY3xW9O5IBh1UkiqP6if56PAZi1K1ElAph54EhEt0ZjMAXAz1tyn6AzTMp4pSm5j+9sljgHHKH+d6tWKyIwV9er4XoEB+onfmk0Vg333743522CADQ4YMZNSRsp8JFJ6IuutYUCWNT3Yh0Cc8qCw/Xi3UL2dw34Cu+f8ndmhs5AAgdssXil/CXvBgx2K2ev3X5DQUF6IWjiIT1Rd8Dgi/lj5QKAdeIkrJZs4tEWRPT50OyqYI29UQBrND3jHVNlb4z3jKzsq/w7ozEvb7Ksc8IFgegcIlvJ/rKqyqHD5OZkSeeRByvDwcm8yTxbyT9//11uwSVJq1H4DfgbiXAA1nH9t+gsZrUuCYC5Z67lhRUAP2/JfYLOMCnjlabkPr6zWaWc/cnFLDAYm61wVmbS0dwwdAlWMw/c2F5bY7T1QQrY4uVqsNha9vwqutwM3eT8JWBrQQtc3LsWgA8V87N/acsNzPzSVh4S9xvwmK1r0RcWmddQ/+tyuRDAFL9JDHARJTy8AFpsv8MqXRZ5XQAORN3bDbGYyAFbIxICarUmjzmfwC9fy7OMG3HR7nRs2SK12uqaPzg4+GDe1XN64Tc/nd431Vl9cmK5fKn2VMfwvtCuzuoj4wfJzYGB4TdOXRqZnzjy3uBwTc3gB29/8xuSN8dlliO47GRE/L9mvT+oA6YAhv85BTCtghb2kDQdjMePAuDnLblP0BkmZbzSlNzHdzZLDGCp72J2x+d06lFqFpoEAOfYQtWz9+o+EfFX8LIw8YifxZMUv0IWuFfqPYsxBExQyxte1gDrEN7r5eBbIYo/u/2etYPPfPYa+EvoSywwVEA3tfMF0JY4/pLXoD69oqEt4NStl75SAAdiMYM/FuNywFDlJG62nQ8qKIgIq/ayGvS4PUa4ps2envnu/olfmJv1759++1zHanftEkG4OTo63l1dfa770nK0Z2S8q6Ojf3ypp9xTP1I729/VNXt02awXv7mI+N+r1ePSz+Kh4nPAGrUKPTEPYHI7bp5yQhha51QALIfkPkFnmJTxSlNyH9/ZLOk0JJFR4ibUBKI97ceWj7XXuxwaZLBr+VKNbWgftMHyNnlpEXERt5iu0HKSNr1KxV8sQfayoLXAbv4nH3PGqHOhxYLet72FK3xmIu7XH3CY1E/I/tIO0FAA7XbTGUgtIgMsoa+Ff+NogWEZhnXb3zgAl8ZifqEIy5pLZ/Iw9wjgZYKnCUXP8QDW4Qxs8oDV1fPR6LGotVnlen9pfn7so+WoWZtvNfcsfTQ/Pz+yHPV46q+Ozs+PLvc0ak2N9ceXRkdH311+xaqSvDnxukhggOM+qwhFWBoOwCq1w2OCCIjTp5NMUk4EsEoBsByS+wSdYVLGK03JfXxns5IAGFsPE+erVpsdja72pdH5sYkxcoavb/SYrWqNq/3S9FCwpv/R+TkkmLfIUkwNMFtAiAZxW1LDV/DAhQKAWQGUGMcwHagIJgojftup863n6Qu5X7/HrFkLvk7e/2pMwF+XO+rGADTxv8wAx7lfyP6yPDX5dntM+QkhgvUAuAJC0A6RA7YiTMX5U4G/EmucbK/YElq3SZuvzS8gxlmrbc7X0pWSiIkm9zQ3N5MrNNX5eC/R1gK6SbzFFgsscCoAmxiANSqnI2A2mUwGQyzmE4dHFABvEMl9gs4wKeOVpuQ+vrNZSULQ2PSY8Ncc6BmZONLdda6a6L1z/UfGR9tdZrWr/XbNUHC4+zYBMFpgCEKzCTwUv2vkfsUeGNKwbFlgwQbjteCHmfWF9ZNaWyXuF5c98jjMmjXcL+R+1RTAJvgwgfYXKrB4AyxCsCXOttMeHFZVfjoE5gDcWO/2E175Hc7UAJaM99oAJiSE9Gq+FtLRmyLIWC35BULYm5C/jL4gcjdyGdAMdN4k2s8a06RTAFitVlkb3TRyAJXdTmEPSQCsIm9TAfDzltwn6AyTMl5pSu7jO5uVDMB44jU31i/PL1T/z3Usss3Jmbze13lkbDnqCLTXDk9WDj+4csfSxELQgv/tZUXKDWtEn8UIxkWRClk1tCgZXAh9pS2I33YIO7cyEQ/cyvDr9jvWYC/vfTXYicpkIvydcb9C+Qvoxwww14ODvVRLq+RzA1RAU6SlD+DWaDIHjM2kkqV5RQBOOsFHJy5P10ENV34+PpOuFSyRBMCb4v6/azQKSw5gYr5NLvpxqaWlwu2IiVcWTvzrnQqAn7/kPkFnmJTxSlNyH9/ZrGQA1hHraOoZrT11bnDAzvhLCfzeg4l2V8vEcNC++uBKneUT2sjCS1PAXOlVgvtNyeKKFqkVxW4eFuZ6mfHlsr5iANPKZ4dJmsEUC+ueae6XXFutJnPA5Z5B/yuaAsy/KnPZUv42tPkNekDZUwDYVe9+OUYA7NCoRUVYCOD4do7xpjQpgQmAcd6uKFfMbmEx8iZOdGuwxgUQ4iZ3EMMsKa7WcUr0whS/3HxvBLCavH+V1eNncpOPJD5RRy9d/LtUACyH5D5BZ5iU8UpTch/f2awkAI44NebG6OiRjkXifg/n2HIEBtv3nZtvbycADnfOcg6YhnBZHBkXsG8DiTC7Vi1WayulIeKQCtHb3tIaF3Pmfyfu1xVwmDQwjTWVlVOXCzKXvvTqy6WNbhfiF3tgtba0M+57cSpV0oqxGbcjN4mHXFsR3gE7wAE7TFIA4yzaSMIzpAROwt81IscpZ+Ryyd8UDUaTrQ+MAC4XAVhTTgCsNpO/xQpZYH+b2xDTpQxCKwCWR3KfoDNMynilKbmP72xWPIChHldldi1PnOocsP+fwzk5h3NEmtw9/cGjkSsEwKsEwF7OvHpZFhUKpWbcTMRqPtEBM7C2JCievmxDNL+uRo/DjJXPyfgreN9y6n9NL914eOvy6y8F3Iy/DbivlpaPm9rJpaWJs9nSN0b8ryNGA7lp8Beny4IDbp3Zjg5YLZ6GpHNiFjjCj3Ty9X/T4m+KGbkiAFPTKyJvitd1SgnMAKzRQDGeyUceIH+Q2+2IiZ6iAHhDSO4TdIZJGa80Jffxnc2KAzBdTIDw94MaYn8nc6DDsJjAOSVT1RO3h+0A4DrvxwzARTBvCAqI2wgdAyAaryS4a0sFX46/Qng5gbiJasMlF8xrTTviHRybzVr60o2Lj2/euvxCaYCuwcBeWoR6fkEH8RtrcweckXT9Lw4hMMzFHLB0HrDP6cO8LXIrJVQTzOra/E0CwrXfX6qdiPtgSXtBm8303TsNUFqmVwC8wST3CTrDpIxXmpL7+M5mSTphUV+k1uwZ79pVNYn4zcvLQ/BuJtq7d69x6Pr0g+7pcBXngLmpwN6mlhlgoxkmrJjMZoPZ4XDAyrtuxrwnwvWJ/MVZR+QVTGsVPmvE/NVorKYTl2/dvPvnC/dv6A0Ov/CBgBAXSrsqGsQtpcUG2O2wRtL2vziKQGDigAMYgvb5IKvKA9iJ83iSO1CBwBFJ2vbJ/BW5Zv55EYlyhftS7sMZlwOOB3CuLkYAHEjtgDH8rgD4+UvuE3SGSRmvNCX38Z3NEgOYnZvNrtFz+65PGlEI4M2ovVuGSkpKhvpWO0Jh4oDH6mipFISgm5pavuH2WGFyDJyUdVpEoVpjcni4KSxtbckgvC7fi1nlmRm3i076TV16Fe9/TYYXTzy8dWHHjjN3L1wu1evh00CiJU8WISf+V592/lcgsKqxNUq8op84YB+GcXkAY0+NpPij71/02ULH7Y7jo5op2dO5jVU4Eyg33mDruAeloyXZH3sBfvASAex0gAP2pQAwrlmpAFgGyX2CzjAp45Wm5D6+s1mJANa4lsY77SU2CmDmfPdS99s31Re8Hgr19U0BgPcwABP8zrwegKJkkIous4OJWOKFiQ/2eAK4CG8bZl8rYB1BKXWZQRYTWnyzDfpdeSDxu5b3xfeu4awvZH81pS89vPX53S937Hjnz3fv33jZZ/L43W0cc9eoDGto83sMEZzMkz5/EUWBnqjf7yAOmFBXjQCOUQCrU/wJeD/OWxbhjYrDo4ZTcgJjz252M9HoCjsSv6Z4f05p9jwZgH0xt9uQ0gErAJZLcp+gM0zKeKUpuY/vbJYIwDTUqTH1THSVTQ7ZjDaev0OVVVP7dg13Dg9PL5a8VnI9XLXYsXBlztuEc4g+bml4vdSg0TLBTrR4IufraU1mMw1Hu9v4Cmmet1Ifyt1BN8SyKVZ19QT4onvj+EtYYjJtf/3Gw1uA3x1A4McPXy2IWD1cSHzNacoz/oA1grNpn4q/ZCQ90YoZyIPHCHdpCNpKDTD5xZlMUOuE7x9/qpNsoaYfKrC3iCCVkLtlnJbcSrIbyR7ZcEnrn1MCWEUccExxwBtOcp+gM0zKeKUpuY/vbJYAYGqQNCbHUv8u+5DNBuFnFnrePTB47tT4xMTCuWn7UM5kSUk49MbClbpPmrCGuMEdMFgl/EUClwtuymSCVlSQFebKswiKUxZoMewS+cH5kmeZoehZvVbombk5VvgMCCstvXHx1oW7Z4C+5PLbm7duRApUJnMATTDt9Zzc/xLDjfnfp+YvkcMVbQXjThxwLiwvZHZYYbVdiPAmB7BaLXr/UsZyhGZsjqOzCLQCdtfgryYlgdXCy8NbMatzfRyAybvHEjJ0wKmmISkAlktyn6AzTMp4pSm5j+9slgBgrL8iqPCMDl4fshk5/tqG9te80X2wdn5p6f9b6AhNTubkTE6GQ9WzV86DBW5pcb9g8PlUIvjS/YgBzM0IAgwbgMIBrq9DUuFjUE1N4Gs2gZNG95scwAxK/EsBpazW0hdvXL7/+CZ1vzveeeedHX++8PBliMyaHH6GYIhzJ3rhthl3wOHchL2knpq/uSaPqzXaRhwwggsAbKKYBQD6BOl03C0uAiwxudxGThqAltz7JOlEWwrPwzUV+A2413TipwP20lQmDsAaCmDcgjpgBcAbTHKfoDNMynilKbmP72yWFMDk/Gt2zXe+ZiMGmPnfyqqOg6f39NRHe+YXOvZDY0rjUOVU58rst87fIQ64AVYjii8sUrMmVOVxwhN8LKaPxcwgA1w5JDILgmpqq4k97wnOVyPhr8ZceuIycb9fgv3dtmPbOwDgs3dvXX4pvyCiUlsNAT8CmF0E74v5ZvL3qLABRzqrIMVLV272eGClJp8PMGYCAFMOEpIlfwarsXIiJZ0IXX5L5p4Ro+IpvbnJ94Xa6uOezxAMP/A290ydk39Nmp/m/LUYwDCgZrMe3wHMAzaIItAKgDeG5D5BZ5iU8UpTch/f2awkAD7dOUQLoDdv3rt73+CH4yM9zc350aW3OxahM9ZeW2V4enVl9vandU0tFe6XDeXi5CyewjGXGWeAOQKrRVLRl4RuGSaTYP/wTuqo2UpGKaPP6niTrdZbt5+4cfnirZtngLzE/wKBgcFnLly8EYFleAv0EId28wHwCrH79QcMalzD4CvYX9AmbXm5w+GPbQUAq02Oxvr293/WI1F9fT298TO8iO5Oop4nPJ78OZLnr7VfySuwewLUlgOAHTGav0YHLPq4pQB4Q0juE3SGSRmvNCX38Z3NEpYjRACXqyEE/RoLQO+1DffXLvW4tM3NpUvE/wZzcvLybMHw1PBK9+zte3eaWtwBs1kCYBrE1PA1RUkscPpaw/9K9g6vaS09AblfSP6i891GL9swCF2qJwCOqMCROl52u+Oyv9Dkw2BVFdA1Db4agTdt0kXKYwFDLnpLq6dntHZi4ijRGL0Q4Y+jRyeOToCOco9ymh+bB/G/j4kfHBPfneyuo6kemz89Pz86P3r69Pzpse+Sy4/G4GVxy6NwE97O0YmxsdGRHpoYxhB0DG/HAmt1wlIALJfkPkFnmJTxSlNyH9/ZrDgAa9Qa81J3zW6bcfPmocqBzlNHl7frm5ubG5fHOwYg/Gwk/A0NV3fPPrpyr66pgRhgg7Q8GTKVamZ0Ey1wWjReo+oqPvNLm06WvkDM78P7j29+eeYdlvxl/H1n27YdO+7ev0z+3ALMJlsNBgdNQsMSDTT1DD22VJECTl8RwJsKmg3+GAfgPW+tdHV19ffDVze5wI1++AHirvupulHf56766QVEtuB/IT++Ty7wSzd7ChXstxs3YI8JF9jfqe5TqO5T5Onf7/9+vyD2Roi6u4+ML8WcdN4UD2DigN0xBcAbTnKfoDNMynilKbmP72xWAoCd1vr5U7uCBMD2svfGR1webX5zc/5SbXVVMI8YY1tJONS5gvw9P0ccsNvviEnnB+l0Ti6duCaAn8zfZOTlHkzYG3jf128Q+l64+2csfaYi9N1Jfmwj2vnnC/dPIIBxR/pYzGAopQVhUPBlNsWcupQrG6RP4IKCfM4Bq02Ny137+/b3wRfV/sX9i319U+SySO9Y7BM01Ve2f6psqox87S+b2j9Fnrqf/pia2r+/DH+ZguuyKfKT7AQfLcM7yCN0/7BzfI399LIfv8vgJ9k3bE4vU/xlP3tX+JzBldMxJ86cUkkdsF78v1YAvBEk9wk6w6SMV5qS+/jOZkkBjO0gGveMneqoqRmuPlW7VJ/fTB62Nh49N83731WIP1+5d6+OALhlxh3YHlMJLZwi1u2vvv5iqcGqXweAUxpcbRyAtfQF1Oqk/DWZzIbtr54g3vfW45s48RfRy122MQBv23H384cv6AtoES9xwXo98cFmVvxlUutyn6rxVWoC55sCMQZgx/H3JrewrtpQR04vkznCxUZ/5k2ye7nlL0QX7gd9dDLJXrjfRD/FjwtPjtszvw33/iYn93WMxXxxANZ42hQHvAEl9wk6w6SMV5qS+/jOZkkBDA0RteXlPUsT3d1HjrZHt5vwQU/PkSn7FqMxzzgU3re68mCB8Pd83dwc9MBqIKYIZ8mocfpppPRnly9ffn27wZrQ2SERwSkBzJxunOtNUtXFAFz68gmYdUS875kzbOYRZ4Gp0AHv3Hn31uXSZiSwFvgOYWsTKwsDmDxTAOdyDljnVFvNy+dsNqMtJ04cDI1MeXgz4WEZZAu9cVQfD2BwwAbFAW84yX2CzjAp45Wm5D6+s1ml+flsIXfor4DrtOfnm6PL8/Mjy2ZrLjziNF+9VH0dK6OHwP/OPrp95TzhbxFdSLehAVa9ZW0iVKrSEw9v3bp/8eHDGydeKEUbrCnnpgTTm0IEOlVjY6FJImzAwTcewPi4YfsrNy4/vHjxPkw72iFQd8c7EgSjA9524MyFiyciEfyskZBgBph8lZlHSQBMHTAsa286dm7IRj7AiJDK2U2bMUFIQLpV/IKQOdzdh7kfT6L04aQ74B7hLvEb2agD1qkogE28A3bERP8zBcAbQnKfoDNMynilKbmP72wWAJh84Rk0ggspqLT5WpPZ4/GYVbmIZpNrfLjvNWKAjVuCMAEY7C/43zlYhAGWsp/xOwSoGl5/ePOLL27evHDr4o0XCOy4uaQa+jgHYDDM6vK4Kb5Sq5vS8bIXU6udugjh/f3PL6D33SE1vWeFm8T77gT+brt25vMbsDRQsiWB0lnSb13alB9zMACrze0fTGJvMba4FJERwBdHXbzfKEbk5mTkTHpnSsrulfyel8Mtb0V/y+HeEfe6h3NsthzjFuKAfT4YKDGAHQTAJlHkQgHwhpDcJ+gMkzJeaUru4zubVYpTbiiAocUDccAR6EGh1Wq3bt0KANZFr54KB4G/tsq+4ZUHlL/EAFtgIUIgcEWD32zSMKdrKr38+O4XX3xxlyCYGOHLN26ceHW7wcqmJkGZNV0rAacLo8dNDD1ryhMBLKrOslpLt7964sSNy2B9bz2GjhvX4ugr1U5K4J3bdu64ef9yKRBYimBhxb5nI53T5AjAIhQsBK1WH/sgyK0uRYmXl5foegUQ2qgjhV7cdC0qXJKKY+hm4TbvXHmyx9M5bkXnPCq2Y/Is/oniN2MEBwwAjqgSHLAC4I0muU/QGSZlvNKU3Md3NgsBLIq8Rri1ZbdCJwzEx/GJattrYN9s4enV7kfM/xbNwSrAuCJhS4vbY+ZSvibDiYsXvjh79uxvf3vmi7sXHt+6+PDGie0GvjKaBquBqJIexiqW8k1pe0WNkPWGl6DXxv1bnwN7Ab47+EDzO9touDkRwDt3Hth54MCZm7dO+HLjl+Z7pvSFnZscroa2Gb8fAAxzppw9K0Fc4NGWx0vI/OZxBAVWCkQ2cgtBUlrmbOZwzHF2M++o80TrNnMIxhsiVAv43SwVb4fz4FMBfEMIevWoj36W4ABM/muKA96QkvsEnWFSxitNyX18Z7OoAxYQHIGuzlshFwwAhjXsNKe7h7egAbYjf2n4uaiI4Nfi/QQ9cFOF30H7PwOBX7p86+7ZszvJ5ewZMMKfPyZW+OLlyzdef/Xl0lKDwWTV69VCS2KW9eWNsNgBY+waKqXMBkNpaenLL544Abb3/v1bjx9fuHAT8LuNzvNF8L7D81dK4J2cDhzY8eXnD1/U+yiAeRv8LP2vTkd2bna5Z2ARRZyGBC6//UO6wGNeAoBtNAmcgwg1ivibZ5S4UuPezchUAkt4dDM8yHaUx/nqw4dtti17D+MN45acvSJgc3jGTeFFt9i2kG9ytZd5ZPoIA7kx9MZR+uc4IyoowsJ/Lzhgk0YB8AaT3CfoDJMyXmlK7uM7m8UAnC8BsLg+SVNeG6r6OwBFsA/4+2kd8nfOUuSd83qLWRi6IqDCCDPhprU08vDmGUI7aMC8g1jhszuuXfvy5ue3Ll6+ceL1F17eXmrQ64U2x3DeFnwwozEFMHZD9jn1ehOh78svvPgC+l4u5Lzj7G/JrlnBFfpfjr2c4C2I8Uv4u23nO9COA5org+8VAtHPjMA63K0nCk0tHdw8YLXu/Q+JA+bRy8wmondoyGaz8XAWotG4HVCSPky+cVFmo3Gz0baFsduYR7HK+GsrCZYMEdmMtpIh22tD8BRYUnIvQziwGDH/Gnl4iH6/Rl4A1t7YC6Tm3DjZZN/qGAOwzkkATMMbFMAp8uYKgOWS3CfoDJMyXmlK7uM7mxUPYOp8RQiOXj1VVUn5W7Py6Pa983NQfgUq8lrwgqVYfrOJ1Vdp9PrLF74g/lcwoTt2nPmSWOHHj2/dunX/PrHDFy8+fHiZ6MaNEydOvP7qiy+8TLjMafvLL7z6Orn/xo0bZJOHDx+Szcmz7pMnE9978+YXX57dsXPHDlplJSq12paEwFJt27ntwIE/37x/4+UIFn2LMsHPzAPrwFirCYADBp+BB7Dq4w+DNt7/UrwaJ4PBYGVl0B7u6wuHw0H6qJCxBaMaDoVLwn1Ti7vtZBs7qnLIHg5Xku+w/TrZpzgAXRIOV/WRDYO2yqqwvS80NRUmOye3+uzw6jTUDACuDJPdhhYXQzXToT6yq+tDuPLzZj5DnWMc6Dia25yLht4nAbC48ZkC4A0huU/QGSZlvNKU3Md3NovmgAUA09yvll9PVnt1ohqTl0H79OrsbZj+ayH8nbMU04sXMEwI3OYws2StVR+5/PndszvFUeAdNE1Lrs+c+fLLL+/+9eaFzz//HKYrIYkBw6+eeBX/0S8iegG8MLfo1uPPCXLvfklM7xdnzhDP+9vfEku7A/FLbv02rtoK5xqhgL4iArOb5O4DO3fcvHiitCChEvoZEViHDt4T9TtiIgBr2gHAggNGxgWBokShaaKQ3QbLX+SJ6pKJo53+vyH74nTnf4X6yBahKWhTRXg6HQr3hRZDi2F7cEhUYWUMToWmpj+bngoP7Q5N9U13rq5OL05PL4Zg70N8oVZezmR4etEe6vyvztWVlVV4nCA7Jy+PATiPOeAfNRfQPykOwCoFwBtMcp+gM0zKeKUpuY/vbFYCgCmBOQCr1aOnOvNYAHoFEsBzRRYqL8C3qBgqsQiBW8mZmTpgtVp/49bNMzsxKRsnAPE1wmBC4bt3b4IuXPj8wuPPHzPdesyL3E/Qe/Mu0R+++MMZIohmn31np9j0psIvL6kB3oYWeOfdxxdf0EcSKqGfDX8j0OSjPBB1BQDArBOWWr0nzgED40rsYH4XqwCQob7rNiNfUcUBeHKRsBb4TMBKtiE3AMEhchNvL4avB0UAngyS3YWGCYBLqsgOQ9OfrX42QGxuaPiz6fB1cS309cX91wnSp1dXVj+bJrtbDE8S+os+HxjBATeDA4Y1lCmAWQ5YAfCGk9wn6AyTMl5pSu7jO5uVCGA6S5YZYHX50dUB7MERDlXPYgDaW/wJArjYgh7YSxHcUhFw0iosjTUCddCsFCqOwWCEaWz4wJtvvvkPcIEvFLnjzZ07z+6kJIVnnoVM7w6IMxPyvoP8PUv5y7bArbadxUj0WbyXgffNNxMJTIPSxAKf/fNjCELn/g0ADBDSagDA7u0xH98JS13e/kGiAx66TgAcIlY2RFAahhxxThyAbeGpPgJgQl2C3KnQZ52fhfqm0DCTm5+FMHAtqnAeAjtNHPDuyirigPvCw6udoSp72fRnw8QC5wn8nbwetk/uJnsdXh0eIJaZoDyYh+Fp9vbIB66Bn45RAKuwExadQAYAtioA3miS+wSdYVLGK03JfXxns5IBWMfVRQFRJ2qqCH4ng1Od3Y8wAG0B10vg6wX4eouLLUU4HanFr9Zwc4Ffvfz4izf5TKwUwixRC1OCgJNUQGLk75sIylQWFyqq2EW8823CrnfuvHbtzDUiBLzEB3N54W3bdpy5+fhhqT5uNvAzyQJjcTUFMOaAaSMOQuA9H8BUahGAcVDD4T5MAO8HLzuZF+eAjbbJPmJOF/sgkxuaRgpD8BkgDFok3AyKZhnlkR3aycNTYfvUZ9NV5Bbh9SK65cVwUJjslJMTDF+frCKeerqTXIGjDlMA5/AG2Liv40fMAetoFXQigCO6xL/d6VMA/Nwl9wk6w6SMV5qS+/jOZiUDMCCD+V+TebzPTjPAKwtXPqUJYIu3yFvMHHAh2uBCS1OTX811i7S+fOL+F28e2HYgcUYQxeU2Fix+k9eBN68duLbzGoDy7LbfboPc7m/f4eyuIJzcROi7U+Av7v8sTQdv27nj2pd3v/zr3S+//BIgvJPslyOwUJhF3teZL26dKP1beGABwDQEbWCjqU3IAWP9M4ErMaPXJ+3/QywpX0vFA3hycvGzxaA9HIQ1qEJQedXXZyfPYcnjxVDYKPhaW97kZNBOmL642GcP/dc0ebjPbrcDhImNZnhnLzEUDE5O/dfwZ8DmcCVhu30oh84H5t9ciACY+6NgHjDO4JYCWJfkb1cALIPkPkFnmJTxSlNyH9/ZrOQOmPe/rp5ZO0SgYQoSBqBp9JnWXwF/URZLobfJbeLqoMtLX7j45Zsw6YeDcIIBZrFidL//cO3aXSzKunn32jXGylT+dxvQ96yk1JnGoWksmlhbrLHGmcIXbn55DdnOlWUJIh74/g29L94DPxsAQ71SIDoDDtjPHLBThQ44DsA2WzB4nXxNTl6vJFd5OaxAmi+qsk1eJ844GByyDRGw0prpYBBuXLcHoXz6Oh/PxiYeNqyrJsAOEmdNftqDwRIIU9uvB4dE848JrIOTNjsWdIWryH767EFpuyzy3va9MZbLCOxTALyxJfcJOsOkjFeakvv4zmYlAfBWVoKlLi/X9ox04xRVe2hl9sr5Omi+gVlfpC/5CfglLpjcaHKbTVzXKmvpw7s7kXucC+bLpPjYMcaFd0C0+NqXf/0cmlY+vP/53WtogsVR621YzbVtJy1rJpLil9s5THoiWL11+aVSbb7W+vKrJ25cvHXhDxCOJsYaPg1ICfzFzYsv6nOlHvhZxKAjHIDFDlitJg64hEagRSaTEFO0RBLNwYoywDnGLUbjJE4Rpt0yttCZw3l5h7dQyyvCL23Lweb7TsKtzcY8Y87evTm8reaKnLm2G0a+h8dmSS9MBuBV3gELAA4oAN6IkvsEnWFSxitNyX18Z7PWBLBGffxSNS7i0zfcDwaYVV+BAy5mUWjC3+Ki4t5Cbxv0SGLrA+of3r1GU7DbeARv4/ELdx7YSecGX3h86/67Dy+/fwJmH12+f+EudIwUR5hFc3tF8GbJXc5gn8WSLWJrL78Kf5BWry8tfeEE9My69fnNm1/8YWeCCz7zxecXb+RKu0I/iyww5M+BVMwBcwBWffwBq4IWA5hvdZUjNKmSIHWvDdttYA8O2DTPhgjmGmtgOy0RsAmSCXsnjaLANKI9J08s1uUyL05SABsHfvojiQPGgIgUwHHDpQBYLsl9gs4wKeOVpuQ+vrNZyQCs4gFcPto9TPhrHAqtEgOMCeAiLvoMmV/yXVhczADsMXELAGusl/967U2OwOJQMcUvzEXCzhy37l+8/LXtpbT3R36k9MbFC2eu7aRPknS24sqpuJotWkBNS7c4Dp+9+/hyhPw1kYKCgkhzpLm5Odf3KvHVty4QBF/bGUfgd+5+/vDlv4EHhgI2dXkjAXCcA2Y54BQA3pwUwFwTyr17jXF38Z5VDGCj2OJy8M3ZvFlKWnxZm6gvtPCmRK+8b/WoyAHHaKvvQMMTAKxUQcshuU/QGSZlvNKU3Md3NitZDngrywETKzs2uLglL88WHF55dA8qoL0QgC72FhVi8NlSVIwqKiomAA6YuD7OGt3Dm39ASgrQE/o079jx57sXHkPQGTphvfSS1Zqv1VoJgSP6ly/funlNDEpELk5S+td//ddf/+uvk4s89q//8A/XLtw/URBBFdDljXy+0hfookmPL3zBgZ0D8Jk/P354Ih7AX53AFMCBiuh2sQOOvP9h0ChxwGyVIoZSDn9JAYwPCHfFrW8kRSePXW53yWU0ihZwyJMsk8helzjgZt4Bm2M4J1yjAHhDSu4TdIZJGa80Jffxnc1aowpaXW4qrx2wE2wEw6sPrtTd8cICSKLaK0JhAcCFAGBGYHXBnr9eo1SE+b3Mp6KDheUQ7t58fP/hiVKrlqA3X0u+qAgzm194+PgP//APvL9l5EXw/p7o33+P15x+Ty94969/fe3ziycikXwr7ilSAC0kfD4foXAsVgrB7TM7dh7YKULwgZu3YDKSpBL6qwM4ggB24TSkGAdgp46fByyYTRGABfwlAbD4bs42JwGw+JmbhTWSUgA4T+BvjjEJgPeGOngA60xmEz0iPA0zCoA3nuQ+QWeYlPFKU3If39mslACGWb1mz3hfcLPRGAxXz16Zm/NCBRaGoFntMw/g3t5e708CMRVdTlCj9n3y1z/9+68oLn//69+jS0WfSvTlY1gl+NXSUkAlWF92IdJGSk/c/8Ovf89dOPHE/fdf/Yp84RX+xJvkAjD+/Z8+/86rzcBeLbXBET1c+SIajd7w4o2H94kJFqZGYR747q3Lr0JHLMwDR57NosAUwJ6KqCfGO2CCpQQHTDOxeRSwyTKx0rKoOHGP5SUHMNdzEltOJwMwe8kcfl1iiY+mDpivgtbFzGofEhgArNdFFABvLMl9gs4wKeOVpuQ+vrNZqQFcrtF4XG/ZWQ307XsEwJ+gA7Zw/pcD8CFQYYXfzCbBapyR7/zv737wcyLKSApISuM//eXiiZesUCkFYWdgsBXpqzVpTNaI4YWHf/oV5Sx3Af2cff+K/fZz7q6fix76018evhopiOi1EVhKQqsRBE649Mb9m2f4KPQBWBx4x46b9y+XcnngZ9QLmjngtqioCMsJDrgkLgecwwAstaqJjH0SgHNSAzgvNYBFPxMBTHPAggOOmZy5SGCHAuCNKLlP0BkmZbzSlNzHdzYr6TxglgEu90QXcCGk8HT37U+JAUYHDOFmrH0uLCwqEgH4J36DjgLYRBzw//vdz7/+A8JgxLDAzn//0+cXv1ZqteZbkbvU+ZpMBL6mcpPGqjZtf/dP+AS8/Jxdi/QD/opdC/r3v/zjieYCYoAJgmkwHO04SK/36V++fPHmNVH59IEdB3Z8efPWiRcQm5FnuBgDdcABg0qYB6zf8wFzwOn43GRKkvEVsCukktnv61GSPbEqaPx7CG9NZgJgIK6jbcah1un4GLTSinJDSO4TdIZJGa80Jffxnc1iAC5IBLCmvLyx5yAAeKiv88GVTy2fWAiBce4v8peot7f3EANwIXHAMWL/gHkmje8T4oC/9z2C4K8T/YD8JDCGy6/+9NErpVptPtRdcbHncngG+TJp1GrP1777px/QrSVXqfV1/tbv/t9/fg3Lr7QwE0jDzYnC9lxWvT5SevkCWmCcG0Xwix2yaCEWGNdntR5hhABY4yIANqscXCcstan9XFDgryTcmy6AUxOY3zMXXH5a/oodsM6pUpspgCO5jja3GMBKL+iNIblP0BkmZbzSlNzHdzaLAphIciplBHYhgG3B0OrsvfNecMBenAVcTPlLAMzsL5H3JwzAgDzndw7+7us//OH3BH0dSfyD3/3vd+ikI0z5muBCrC930Zhc7771u+8Btn/wdfrNAP51qb6HX/hNr0A//9NfPo5E6Po9aoG/5O2QL7VeX3rj8R94C4z4JZcLF0/4OAA/ozWBAVnggM1qMw9g9Z4PhlgOOAnz8tbCsIST0uytBKPr5C3bPI6/olyykRKYd8AMwGR0NgGADU464VcViegSe0ET/ioAfu6S+wSdYVLGK03JfXxnszgAxyGEBqFd7UcAwJXTqwv37niRwFiCxfjLA5gY4V7eAQPx1N/53ze+922iH3KiGCYA3pNPra+W8VerRfKWky+T2fVJ7fd/8D0Ost+DL6T39+L1Q7zwv8AmX//67/77P3/2OuZ0fU6xBcZ3pI7ov3br7rUDB948INaF+zdycwsYgJ/VkoQqjac12ujQm/l5wOr2c0PGuCrorwTgvDjgPi2AxbuVAFjkgDUOj8MQc+p0+gABsC+XJoETxypCLbEC4OctuU/QGSZlvNKU3Md3NutJAA7ajEP2mpVH5+u8nzR5sREWy/xiBBoD0L2gwoqAEIJWEwf87W//07fF+iGh8Q9+99bHLP1L+AvSWLUaLVZgEQvcePzHv/mX71FaA7Th1g+TCPf1w2+L74DNf/C7//7LnXpgXq6PyKkWE1ij1py49ddr4kWSwAQTADfnFhQ8UwATBerbXB49bcRB1wPmHTACmE/Wpgbvk4j8ZABzDThyxN024jYWdip+CVoF3UyPBbXZH3X7HQa91eFvc8ee+LcrAH7ekvsEnWFSxitNyX18Z7PWBHB0GRxwMNy5cvs81GB9Aha4qLiI568YwD8JxLgiLI3pO0d++u1/AhHysmuA8Nd/9/bHkXwsvdJqTGBSrSZy2+xxRXveX776Ue1//8sPqXEmjIUv/F5TP+Q2ITe+/vMP3/ruu58c+/hnX3MFDDFqgzmpTfW3/nANJyUfEHwwAbAPOmdFVM9mFhKTJxptcDk8PIA1cQ74mQM43hFzLxUP4PhtkwLYKFqOUOfUmKMVbW5/wOHx+90BvQLgDSe5T9AZJmW80pTcx3c2KxmAddxihNE9R4JGY2V4tfvKnbkmjEBbingCUwAfYgCGVpQqDsDq7xz5j/1//09//08Sffufvvcf//v/s3cuQE1d+R/f7YRoSAiNpE0bhatIsUERNJFHYHmopalWUBAsKKBVqwgjAlWxtEtqO6utCFPQAWErMXF8dRkftaIZHRGclmXpRFudsdRR1rXizv7VXcdpZxwX/+d1H3kh2VKvydzvTW5ubm7uhcOd8+F7fuf8zjTYS4qSAu8rRYHgCEqm1mfYVq+cm7Nua/fnGKblzi/l8IG3CNnhCXNZuEMGF5XWWD+7kjT3vdd3bsoKSk+XcCRVbfnl9pJ9S5ZwJkFEAAYO2DxSqaBpAdNYvGJVNgNgatnuWvtxwHaGc1jYdWSwyL63lT2bRaNJlkmaxVjOxtmFcCastXgcMALwKkssUrY+KF0A8DMnvitoL5NQXh6K7/vbl+UCwDR/JVItcsAxiQDAx8fl5eEgMNcBzyQhYARgDQtgKQBweSZUOV4RFk8qXfNdEACwTBohVclUavUEbYZxedP777UkraucVROVW/5rRFx2jXXrmpKcN1Y2vn3EotUHqVQYwOqskw+sp0/j9FwonzS0wSgGTLJhjaAFlmi0yDUyAB4qBqwc1lgku2+5ALB9vyyRaDSXuG4A7PpKCMD0bEhysUSttWRXZWdrs7OrVGL5c0/41QUAP3XxXUF7mYTy8lB839++LAJgbgXKzAYs0SIHHP7xT9dOjJuWh/Jw2Dlg0gEa8ndm8iq1lAFw+s6S7sTMOLDYqzx3w+u/V5jNCgr4X5Var82Y1tSaVNn9QVtUVNE2hF+W1nbKdNxCR2VmOh8DjHB8alpbTffWkjdWT7NkaTCAVfrZjbf3NOw5fWjfEjyfA7LA3wAHvJhNRzlSBJZHgv8u1BqNvQPmtAs7As/diGC4U8eKMz0DeWv3oc6dWABzIcxc0QHFyAHPakZN0KBoVFVZGrVapVapKHFgYKAA4GdNfFfQXiahvDwU3/e3L8sFgOlEHFKpBfWCDv845djK5Lw8YoFfwgB+iQvgeTNnJsc+lrAOeHlJTXkco0yGxOVtSbs2ZSlkqizLpt6m99e3tiQd7Y5KjM4k4M10VDmzsttweVw512yXlxd1f5Z0+L2Vu3Yuy8jS6y3LLg5aS0sb9pxCCMYZqv/w8jd/+Xqx38gDGOg5sVStUeHeYArptCEALHIHYDgFMFjCHFWLVrUmN2IPZHlNA3iUSwA7xqJJDNgPA1iq0aulEtREECgA+BkU3xW0l0koLw/F9/3ty3IFYJKKMgL2gg73N4Tvv3Tr8jjE35NjgQV+6SUMYGYMMByF9GFybKSYAXDkzpLt0RC9oWBBLwjDgMO5bWsubtEo1Bm9rXMqZ3W3pcVPSqCxGuMCrHHMyslOuzyUQ+SE3G1FbTWztpbMbTySMeXdN9ZY4fjiUmiC0RQRiMAwBmz+LQD8gkwcgebRhWWpsI8Bu8k+5dQM7O/vH6oMM5lqPzKBBazhBqtz4OEssBNz+COCY9YxOzVDu/LcDIAZBwwB7EHpCAB+2uK7gvYyCeXlofi+v31ZIa46QTMANibFhIVFT7p04TLg7zQSBMYDkTgAnjdz3odjCrPlYjIZg0pq7i2pyQyF0oUCBoeG0l44NLy8bU3L0ualc+dUdn8+KSE6E++PQYRmHDN2zZw37GecLUbwGswhdiQuL59U1L2hZP7cuYOf1aDxwgDBsBl6H56lCTZB+7EO2D634q+RHP4nggCcDgEcYe+A3YGPQ0DTuT6gH+Dya4XO0td3zqT0AMA7ZnEBrIocfpBcAPDTFt8VtJdJKC8Pxff97csKcc6DheYTQADOsiSdm1obve3ShfPT8gqhBR6HHPBY4oKZEPDVD/NWVfmRDMywFzRwwOE4dhkKFywIyriY6IT4tLQoYHyjY+xZOnUqY5bJRihmqyNu6T3oM3IY2UKbDIkJhIEVjo/fhvtJV0AEN5xi+mJ9Y+eAR8wAy1H5qQCA02EMWKFattvkuhe00hF92P1C/v5w8+Y9Wv+613nPXp2cBT+cF/rIezdv3gQMhgTW6dguW+5iwMgBz2omTdAyqQb+IzHsEhIA/LTFdwXtZRLKy0PxfX/7slwBWC4Xo05YEXptTnhtbeKOTy+cL4QAPplMOmI5AvjDl1Zkq82kBRoA2K+35INwkUFn0OlEoQTDrIIzY2KC46aa4mrj4mpr46YSmiJNnYpJTYu8RcwNjWM/QLY61P49u5eD68w4pi8YGrIEbDBqht63D7VCAwAH+o04gOVyVH5qDZWOASxdtjvMcT5gNwAG8OXSt7Pzeuf1AqDO69cL0EY+XjrzO+HegnzwCt7kwx35Ba4ETlFwHTAYeOFzsEWaBrDbztdKxgHDEdIysUajlgy/iUAA8NMW3xW0l0koLw/F9/3tywpxjgCziTj02pZwU21iVPWJvQjAeSgb9DjGArO9oJNXqVAfaJR8SiVNP4McMFgM8IkjkKGhaBXq7x9qmGowGEJra2sNhqlAGLtQBrAAgIIX8DlLYbjHSYY4eLy/8weExTS0OX4YdpKGJhgRGFrgJb+JA8blhwDs50c74CHGAYvY6QDh5FMmgN979z75BDw+6fxkMtAnk8GGS4Hdk5HYPZ2dkzvBDvRJPlwKFl5f2NW1cePCf93s6wsOY2YfdAdgPAwJAhj1uQqUqUknrOGVjwDgpy2+K2gvk1BeHorv+9uXhWLATgCBbdAAwGp1S2Jw7Z8BgN/NKyzEBE5GI5EcAJycl41raAxgieJMSVmMSKcj6EUMDjWAh7+/waBTigxYcRzQGjjCb8C3DfTHYFccpDYEMfqIPQxvgj3IZnO9dhxxxKHEQdMuGBEYt0LTDniEMnGQ/2XkeBg1C2BJxLTdU93ngub6YeR+EX+xIHzpLSdBNE+GmGUBjHGMdqFX4I+7ut6qHFgDlsqutfU/9H0UNgwAhzkCWHDAz674rqC9TEJ5eSi+729f1hAAjpSoIuZ+HF6beKD6xLxCbIFPJo87ORbzFxCYMcB5q6rEdB9oCGDsgA2gMteJwItBJ8KjWZlhMRDOdgjVwY66Sn+AZmybGfkjBsNDMLZFiMs69FTq/IHAN8Fn0F7DQ3S4yTuUAbGBoTGD4AoYB95z6BDjgHEj9K/3v1wAR0ilKgbA7jJhOTVA60x9HPrSOJ3s4HI5n+Yju0sQTMMXvs2HBji/oPN6V1f1usEHD+4/uD84ONB184dzJjLweIj/A4ADTuECWCUdfhuBAOCnLb4raC+TUF4eiu/725cFARzoNAwJTiwHs1dEtNYnBCekXWuedwQRODmPTkeJRPg7LpkbAYYAlkEHjGp5nQ49ADZFDH7hqBgD3AVRCl/8GTbjFmvIbMRhA2GsPzoWsRfTGceXlUp/HVwM9Heg44ZGGzV2IwwTvNOeOI5DYDggeB8AMGKKeUQyUdoDWMYBcPHuMFcO2BGCKPjrFsCOBEbgzSfApQXewQdicOfCrq7KNWsGH3x7H+vBYOWstm1/Bib4SQDeQRzwc3YOWADwsyi+K2gvk1BeHorv+9uXBWPATh4YAlgCp/CL7JgVb/o47dpl4IABgY+gNujjOBnHS6QB+qWX8gq1KjH0kGT6IdoBwy63o0ZBvytCllfJlQ6DFMHTbreO2F8DIjeLbMRXA/7EgJiupFNBKXX0l5hGb9zzS0f8MvoBDNgGQwTDrNGAwIcOAQB/STr7jkT81x7A4ic7YEdB/LJ8dQLwZHv8TuYQOJ/GcD4SJnFB18CaB/c3322/e7cfLECb7w9uXfu3Pvi3IBm4XP04xAEHcgAsEQD8zIrvCtrLJJSXh+L7/vZluQcwzEUZ0VRdFry//tr7e48U4iAwTEh5nLHAUOOSC1dVScwcAEdAB7w9HI86HYUjjVzIYomwpbXnL+2DnXbqMGOxN0ZcZT/B5zLQvlmHSW1gMU6/IU3RyANXlKI48H/ROODfCsBqGsCq4q1uekHb+18uf11ZYAfl0wgmD4DcgoULCwowhAu6utbdhvwF8IUPqLv379++bW1L/Aj9WTCBh3LAAVwHbDYLMeBnUXxX0F4mobw8FN/3ty/LHYAxQiJ7W1JMAMAnkANmu2GNw/2gkZLzVlWpxXI7AKefmbM9hp4BgK3VSd3O5arIrmmaHQdLv+NiGbVOYwMMng44Z48lbd7wzAYRbZdx8zTTDo08cAPwwN+MKIDp8iMAlqolBMDSae7GAXNkcubvEznM2l/shRdufHPjRoTgyQULB648uNvf3k90l369+601KtEkUtJ/DRfTMzG9oAmAUQx4mCUkAPhpi+8K2ssklJeH4vv+9mWhVJRO3bBILiypythRGTyp7Njl72gAT8tLHneSHgqM/e8KrVoqN3NiwBESyjaHccCMUCpEx1kCsLnVEZPLbGGmigCvaCAoSau1fcu0C3IoOd7XlSCDcRwYDkZiHPAI8peNARMHDN4MNRuSe//LNkYPDV+yFLx558bDR48e3XhrY0FBQRfg7/3+zf1O2nx/nzXtnIkGsMu8mP7IAT8XGBBoFgD8rIvvCtrLJJSXh+L7/vZluQYwkw3aYiv5aNv2Y3uPEwAfgf2wAH+PYwKPG5dXvMJSJZHTI2kxgaXpZ5JcAZj0qIKdqpgtF1Lq6IZrGsDMhEEYwQbG8LpoPEX9rQ0upaPHPAETnJuLBiP998d3RpC89qUnZQAcKZk2RAyY/Bp23Z9JDJj2vy48MIvefDoCvHHgkUWt0lse3nmrYOHCgQf329ud6It88OZvrYnnSCO06/8HcAwYAliMAOzBKGkBwE9bfFfQXiahvDwU3/e3L+sJAM6yJIVvKzt2/u3CwgVbSBv0yXE4GxZYJecVrjhYFSSnAUwcsDTSlrQ2XMdlL6BvWG1wTHh49JAKDw+P+Si4Ngz7Ydh+7ZCy2A13sYiD9p8aHBwcThQNr4ivCtaJ0YmJiQmJCQkJFTgt9APigEdSctYBK/ywA1YUb3WbCxr/Rqa+Pnf+11UTNB3zJfhF/a7y37zxUKvWatXGhzc2dr257v59QFsnBNe9Ute++eztmkmmMKVotJtJEHEMGALYDB2wRgXjvwKAn1HxXUF7mYTy8lB839++rCEBLJVEqFs+3lZ/7PK4wgULoAU+QqLAGL/JxStmrKp6nO5HJ3MkMWCpZDkHwDrDVEDe6MSESduiotLS0j5PqwfreqS0NHYTv4mKj9+2PyExOjy41qBzBrBoCP4q/blXOhCVhlWfRs5dj670QRvQBzU1NQ01DQ17Bn+cPbL0ZfOIcWPACrsYsIt/KcLOOfB38tAA5jZB0/ydPPDQKNNvylBFqB9+NTAA479O+G0/u+/Qkrr+/rO3Pz9nAj+PWwDDGHAgHQOGAB727y8A+GmL7wrayySUl4fi+/72ZbkBsB+cxRbNrPBG/IH6Y+dPAge84GvUCj2NJKRMzgP2d8bBbE067BmLAUx6YUkltpxZGMA6pX9w9KS0tdUlLYdbW5cubV7a3Ly+Ga7h6/pmrPVoWYqX1tbWuT3Xdpdtiw5WKrlT6DlQwn4fML9TY6InlaVUz2mZC06Br7WUXIqjlUQXV65/b+5/1/9lysihl4hkgrYDMHTAo93kgob+19R38557A+xI4U529C/HAxfceaiVHTm8PkMd0XunZPBbF/Hfun17gO3f9+rms2etfz7ndlYkJY4BPxdIYsACgJ9p8V1Be5mE8vJQfN/fvix3AEYNpwAika319WXHzh8H/EUeOA+lw4LKK16RsWBVdlUQOpzEgDGBgQOevzYa9bkKC0+Ir19b2dLRa9RGRMgCAhYvDqDF2eRIFiDTa429F6pT6uMTY/yVdgTGrKDXHHToAOf3x9enVLc8tFnAleCJZPYnBn5uMUcBASHPb1r9j5PjRwi7HOG5kKRiCjVBg3eSSOSAXQCY9N829fU9Cb9OPjjfvgU6v2DjHaMsomnDujPaxbYbc7+/2+7UAL1oyancmI+KTi/pv3vfGtUX5h7AMAacjgAsFgD8rIvvCtrLJJSXh+L7/vZluQUwdHEAIi8s3V5WdmwvcsCIwFvysMDmjAUHY6seR6LD7QGssOWkIAccHL22pKW1o8lm1OojZBEyDEWZI3Nl9C64JZNFqLUWW29Ha0512Ue1pCF7NOt6CYrxK+ylBY12eNSskrmt7/eiK0U4whfhl2E+Ib+MmjjlnekhI0RdbtERAKtYAG+6xHHAo1nO4ZXJ9MNQDdD2AM63WyYzfbE2DjwyqrVLy3Y3b1psbPzlLg4At5NVO3wu2ZOaOTW44tS+/v67tz+YZHI7LzBwwGubn4NlZvYEwGiYsADgpy2+K2gvk1BeHorv+9uXFRLwnPM4YEwRCFNJZHPK9rKevclbIIALkQcGLvhI4ZYZMxYA/mZr6KqXA2AVpVjeAhywMjg6vqynyZilhkQE/CUhYpwuC7MWriipSqWi4BtIaFqURmvrKEmbFB6sY0cTuwDwKNEoXW14Qlplyy5gsmUBATKuAmTkPT3hEZYMwR6sR3L0EV1yHABTfrQD3spJRUmIh3tfKdH8Ry4aoJ0hjPnLCfoyQ4CB/1341Y2Heq0tJ2rthTPSd/7yRT9Cbj+9gO1FfzhdlBkcF1yEAbwh6pzJLYChAwb/WgUGegJguQBgXsR3Be1lEsrLQ/F9f/uyQpynAyaVaSTKBi17v3JWWQ5wwDOIA8ZaAfm76mC25jE53AHAMAYcFhyVktTRa9GqMVelMgClCBhYpsCiklHMIiU78QY4JALujNBojb1Lr62ND1MyCT1G22kUAvCoUVP3t1W2dNgserXMbA6AVwIPKT45FHyV2ImizGCf2SwbVm4nDyWXOwFYUry71jETFj2W2QR7QDvx16UHhuFfmOzqekEBnP13MpuKMn8j4K9Rb2vZHZVywWb++scv+hn2tmMt2rcntTwuNDOh9NBZmBJrzQd9JqX7GPDaZj8ugIdVTOggAcBPW3xX0F4mobw8FN/3ty8LAdhlXRqJ1XhtQxkcB7wCOeAZkL6zF2AdzNZH0vWyHYCliuXzZ0UnRm093KsH8MUfSqSqCJUKYFFK01FKE1hKRcBdmI3SCHCcFO4FDNNrm3o2bAtHfbFcAHgU5K8uJuFP65batJGAuwFmOIM8OCeMYEspSgE24ZNS2PEXYD5SDOgrU4zYHMD2ZWcP4EiJAjlgpUsAK02OPaAJfifTDxq++QsXvvnWVwNIX331Fsx5BVSwEO4eAPzVWlZuqC+r7kiO/PKv33DYi15e3neqItMQGpqbevpsXX9///3BtX19o4aMARMAiwGAPSglAcBPW3xX0F4mobw8FN/3ty/rSQCWnTn8aVnPu3lbFjgK+N8givFFDjHg5T2zErcnNdssKpkZf0hcrlSKXCmELvGiUkeDSqFDgUMGa7Um40zruvpaf2ZQsYjTFo13mKJSWnYatZpInK3YLMbefUjBiSbEFCUhGY6xfjV42bLjAhj2Z5NOu+ScCYsMQBKJzrlNgcU1vwULNw7cufHw4cNeqIcPHz26cePOwFdvvfUW2P3ooc2oNTaX1JdVXtg7Y/GX//weUbeuru5sHYLwH/Y1VGSGhgbnlh5aAvYABzy4+4c+5WincV74RzPsmEU7YLMYz2s8DAlN0LyI7wrayySUl4fi+/72ZT3RARd3lJT1zDtZuOCgA4APxurNgWzV6wDgnN3b1zVlyHCMVYxGNEkl0PM+kY2o4RvCF7VNg7PZOqqjEv0dACyi+TsqZtLuFltEZHp6JB3gHQaAgaBHljDf8SDT05PlAGBAYOiAnSdjQAD2FzFTANMUnsy1v9gB528EmAX4tVn0ATIZOLtea7QRCN8A+DVqtRbb+nVr01JuXc7LfoEG8GuHDh1a8mpde92rwP/GhYZm5paePtuPemfdH6y8+TdTGCrJIWPAwwewXCwAmA/xXUF7mYTy8lB839++rCcBWKy15ZTlfJcHgIsEX4j/5bRLypHztOsF3dOyK0MPqvB0ORlR7Mg/QkGOFAp6A/ebgm5ZGkFpjR3HtgczBLYTYEVUytxlFgmo+dNZALuQQkFfj70ueIEGWC43jyiB6U5YMhbA0mWuckHjpCJoDLBjXyv6hTRA528E8O21GeEIqxeAYCnr9VoAYSgjwK/W1lySUr+9sqfj6h+rFn/5xffIAJ9KLUrdc2hJe92SPcD/+mfmNhx6DfeKvvv94Lp//QAB7GJCQpgJK8XOAQcGDv07419cADAv4ruC9jIJ5eWh+L6/fVlDdcJC0msPb791fFrhwdjY2IMHYyGCwbLqYGwV2/4sh9PZ2wG4uLXZlhGR7oczIcNorpRSBQVpNBq9Xg/WmqCgIDVQECt1UEgI3qIUYhjIJb2zVJTa2FgdHw2jvVPDEybFwwxX8dsSooPD0DinDS29EVK5nFwKg1VBBQ0lcFmVilJADCPq0gAeGQLTaTzpXNDgB5Oolu12dsC0AT7Xd9OpszP3JR+2PcMmZovRWGxbfgbLZis2QsF1sc3W1FK9PQr636t5sY8hgIEDrnutISYmpgJAd9/poszQ0LjchtNn6b7R9wfvdP1Qa0KtCa5jwJECgL1DfFfQXiahvDwU3/e3LwsNQwp0OQwJi1IvTTkMHPBBjF/wjEX81QdF0odyRvjQiTi0tmKtJpKcB3V6otSarOnjLVOmZFimWMaP12qzHKTFysqqCgky475UMhUlg12y9MbWyih/nSgsOm3tpyXzW1paktak1CfG6ESihPoWo1YlwZyjze3joAlV8ITTp0+cOHH6dHxi8kJfRK8JoiLT09PFcu7PPxKxYDcAnurogEkE2ARboB3HGtGC8yDlLxy4gfBr29Xacmzdp5c2pGzYsLvy03VzkloOH26d2zq3pWXOpyllafU/Vd+6vPfqH7PTYQwYGuBXGzJhs3PDqYaictr/kmHB/YODA10/kDmRnJugw1gHLAMAVri6RQQAPyPiu4L2Mgnl5aH4vr99WS7nA+YCWO7XUd16vHABQu8CiGCwis2uUhH+munWZ850SFKJOkuvFqfj80goTZVl0/Kdqxtfv0ingbx48XVnXcS7G1e/+/a02dNDKAUllalkAMAR6jOtKQnh0Wmz1rUs3dW73HamsflwSUpaeLDhg3W71MAA4x9ZQqmrxm9Z9t27qxt3wdO9fvF1F1eCO3Y1Nq5u2vn2sk1TsjQK3G49YqFgGsBSBwfsshd0mEFE94G+54rAwP/COQaNWqNt19w5lSnb6w9s27F/x7YdUfVl29em7N5dWVl5aXfK9rQDB8ouXbsA+Dvmj5p00gmr7uyp3HJlaGZFaW5mqD/yv3X0oKT2wRsQwB+5BrBIGcU4YABg9fAALHTC4kd8V9BeJqG8PBTf97cvaxgAbjrWfAYC+GAsdL+xSBoVGYAE2cvEUGkPLJVI1SpgRdMxFYO0W1a/MeezrVar9U9Wa7d1FnoFa/BE27Pg1p/QO7CZYt16NOm9nVMmREITLFXJpDK1dnnP9m1RJSt7jRnAv07Qai3GM69fi080VXYYI2QEmXJJUNbsd99LOroVnqYbnLHb2o0efyJnxw9ylQ2fHZ1z+OKyKRpKLhdH/gYAZjthSdQumqCJAXbsA22XaxK2PwP7q9UaO5JSPo/fsR+Q90B9WVlZff2B+APxO+Ljd+wA6x0HDvxU3XPh8uWrV8fmLQhaDAD8DaLsvlMVoUplZmZmqDIut/TQWWZQUvuiwTsDXTf7EIBFzlMyjD7AjQGrJcMDMJIA4KctvitoL5NQXh6K7/vbl+U2FSXTC0t+Zu7lcVuQA2b4O0FF4r/I/8pRJywGwFKphHSESk+XyyOpKcsbl+YctaYWVeRW5Oai5xACB1UUtVnXzF+5c8tEs5mSQRMsk2pXzqlc12EMCZDJYKoNmdmsz2iuTilrMVoo+M4slytCxp9sXD//tvXzCnKNcvgod3eZotQ269bBNxqLMw7qJZHpvzmAkQMe5QrA9+5NdgYwznSV/9adh0aLpal13dpJf95/oOynlEuXqqEuAc36CWg7XF0C7vfE/10FGluYnb548dd//QJh9uy+PcADK0eNUqL+zzj6Cx+vbEYAPndutNIlgKEDfgH8fQNlYrNZAPCzLb4raC+TUF4eiu/725flHsD0tHpSW3PTyULG/8INDR3/NYs5HaEZD2zXt5lSrc5ZY7W2Af5i5ZIXjMHcCga7HBWlllqtc5aeVKA8kpDAaltTU2+GGiasVMhQqg212tjUnNOUpZbJcNfnoPFvzz9q7W5LrXBmPHPlXPvLpFqtSUs7vstQRaabfwsAK/AeCOCphL9MKkpAvTCDSWQ6d/NeZ6czfnGe54Wo+XnXuu3xH+8/cKn62K0LJy4TnYC6gHXixOW9e+dBAOctgAB+5x9ftMPxv3Vn950qCgUAhuN/XyPwhXrl28E7XwEHfE7peoZl5Y5L0AGDkgYADlIrhtUJC0sA8NMW3xW0l0koLw/F9/3tyxrCAdMANjZ9dxx2gh6P3W/sxBeD0kn7MwAw3RWa0wxNj/QBT0qVsXO+taaoogjyF7zAFeIgYm4us3CoiI8oSrVeeePkO4sDMIHV2gxLFuQvxC9JYKnWFvcaVRDR4KJU1uzVv9wuhZxnXHYFQ18Oe3PpLfizANKvudV6ondFlkJMj0X6tbkpWQBTXAD7QwdsD2AYAYaDkFj+fsJtf+7s7Nw48MhiKV5asv3jHfUp1T2AvnuvcrUX6PL/Xb6K9867OnNsXuwEAODfffnXfpyA49Ule4rKMzNzG06/xjQ/ty965f5gyQAC8GiXAFZCB5zu5yeGAEYxYAHAz674rqC9TEJ5eSi+729flvsYMB0Ejsw4c+ZM4cTYiYC908GSXfU4nY3/isXcbW4cGI7+lajUr1/ZkFrkhF8Wu7lcJmIqElqnlt6evzPATAisUqvRhA3I/VIymChLpdZD/0shBxwy+/VBaxv8Zi5GcEUu58WFitCFShuO3rp1q3WXMSiStKL/6qFIbgDMiQEzkzGITATAnQ7+l8x01Hnnhk1vW1oZv3/HT9WAvgizM6HGzhw7dubVmXY0BgAem1yYHWJevDgk5Mf//AcTuG7J6dKKooZDr9W1s3rlQcvPX715HQDYhAHsMEmxUoljwLBIZAKAn3HxXUF7mYTy8lB839++LHcAZvgrlmiLlx8vzI7NBvAFFH5xwuPH6fgYM4kA+9n5X+CAcUcsmIzZcnI+DP4WMfgl/hYTt6goLfXz1CgHJiKhdzW35x6ZiHM7S9G4YGiAKTR/EowLy1RkJyWRBI0H/C3FX8RN2xXxqVGpUUXxDoQnV6IvlVpzNKen51br+eIsOSbwyAFYZtcEHebvCGCR0iQy2DlggFz0wBHgzoVv3ui1aFeuKdtfdqkH4XfsmDEAvIC/SJDDiLtgAQ+4v3BBVdDixWZzyD/++X17HWqGfnnJ6VOnTtvzd/PgjTtfdQEA99EO2BHAJAYMASwdNoCFyRh4Ed8VtJdJKC8Pxff97ctyA2DW/0qkekvxd4WxE7N/D/Cbna2h8Wt3ONf/RtIAllDU228cLUKkw64WMY9GcEVRaVtDd3dDW+q2CvYzgmBMx9Tb60/C+Y2Q30XtzwEUZq4KLRjAFCD9hCM50P/Spwa8jSqtqemuaStyZG8F7bHRNUpLgQPu6elp7ciIlI+MBeYOQ2IBvGEqdzpCgmAD7IOFHHAnnuoIPvKZCPCbAw/1emNS1I76Ywi/HyL+jhnLCJnhmYjAV2fOmzl2XN4KYIDhIGrzO3/5oq6OILju1Vfr6tgG6Pb2zd8O/jzw739fp2PAThFgOwc8bAAL0xHyI74raC+TUF4eiu/725flJgbM8DdSIlFnFTcVZmO9GPI4ko2RMqiy878MgKV67cqjVkK6CobDhMCl1qNzcub/Mn9+0pXPuosIgB1lvXLx+RAzhWlLG16Z3VRKcFuimbbydmpqKvHOuRWp3Z9dSQInzxm88ml3alEuF74VBPPo5wEOuAfqVusZbZAf8sAjYYHpRBxODpjEgEezDhgBeDKmL3h2TqZnGczvHLhhi7At3b1j7bUTe6+O+XDMGPhkAAyboWfCZmi0Av53bHJe4cEqygwMsJn63dd//f4/L7cvanel+4M/3xn4N+uAXQAYz4aEAawatgMWAMyH+K6gvUxCeXkovu9vX9YTAQxgoireWwzg+/vs32VrgsTsgBQ5wyqzHX8JgKWq8Ufmp6KuTna2Fm/mWgcvHvl6/Pjp73y9c/3tz1PZ1udUDoBTG+bPniijiOGlYARYhjNFE/sL5ziUSqjnL16xEgAjAnc/eG/a1++Ak88+2XilJo01vo5KBQ4YE/h8cRX+RX59Pkq5I4AVrnpBwwQYBgNxwNj8dpLBR2SO3zsPjdmtKfUHjl3eO4bVWDsHTFwwVHLeioNVanFggDmAUoTARuhFL8MeV4747b87OPfnO4C/w3XAKrVZiAE/w+K7gvYyCeXlofi+v31ZwwCwWGJZNuPF7BezsycEPU43k2PNZrnZDYARfyGAtzReYcFrr4bP5jceeV4NkBqkn3LyvStWhohoYTiceqXxa4oQGFteswzniUbvEX+lqglbfrE2FKWSbxaVbhi8uOz3ITKZWaUZv2nlA2tpEfNfQAVjw9FGahtywMd6elrPW3Aj9K93wK4AvMHOAdOcE5kM2AF3Mi3QDH7z82/YjJaetJ8uXZj3IYe/3CZoiF/kgWfOHAP4uypbrQCsDKQoKuTFL3/8+/f/qVvkRODN3w+23KABTGLATvyFDvgFAcDeIb4raC+TUF4eiu/725c1HACLq2Kzq6qqsidoHjvkf3YJYDoCLFUv/+Woo+GkIbn1vbefp1DaZbmECjlycU0a/Xkqeimi/eztX94OIAYYITdAgRui4RuYpVIF+zqN33kFfwWje8MvOydSCnxytWb2u0k1n5Prc/8VqCAOuAcT+FZrMTUiAObmgqYBHGKXC5qTigM54OvIAYMV7P2cT/pA5+cX3DAal637+NKF88ljkl3zl0B47NWxY/IKVxzM1igAfgNklFpdFZs38/Lfv69rh83QizgM3nw/B/D354F/X2cdsH0vaLTjf4kBYwkAftriu4L2Mgnl5aH4vr99Wa4BLLdrgpZqqvRoAqPHj2n/C7tdmRkH7MRf3AdasnqOleUdsrapeF1qHXz7HQr3ohZLJKrpR964bSXmFx3DHtx9uxH4OQbAcCASFYBHIiH7q5JSKv2Ri7cRftFXwMnfnU3JYBZFeG619sj6B9ZUB/AyPxXtgI/1XLBVUX4cW/+/E1juMBkDxwFjAHNIZyKdsJD9ze/E1hfp+vVHWuP56gPXOvay/MUIZiF8FT1g9LdwBpohMgD83gDAWdpVhTP3/vhPOC0hcMGLsA2uq/v228Gclp8hf7uucxyw0ygkMhuSAGBvEN8VtJfp/wEAAP//7L0LVFPntvdtOwIYEi7ZRDPMPiQQEUkqgoRSDJfCa0G8vOAGRClovaalOkSDirdqNu63davIqNQhShVIzqDdED9r89kWDn5R2SeUFk62pWcf2/RIIW0No8cOpVTGYED9nvk8a62sAF7iOe9Ow8g/gFzXguUazy//Oeczp/d6uSh3399TWZNWQQc6zdRFMBGHPAiRhzzg+gbRGWDI/9Ks0rHCz9H0PCSegqu7YT9ORZMpqhKLm17S+uviOCnVfRlYJZUs2HwpnTKxFEepf0tb90mlfIcDJhCmiEwi0ArVzuEjDmi33twcJuXDrweHFon2/+WD126WprNyy7AxijLYJaVvf0Zb4C59CDux/d8gMA1gOQ3gkEmmIQHoIjiUA6byv9TLmrVr1/b25o8qrtTt+f6H3znxd1waGOl3v3v55U3Pv/oC+N+AgKAAHZ8vV/5l08vIG/9vQ/O9CjDA6FFVVWUyDRV81k/4W97ee512wORXchpU7HXAniN3L9AeJu/1clHuvr+nsgDAEwcCOzlgIKoIEfgBz1cH3xkI0mEH7Os8C8nBXwCwVLC5tZS2tSUsuKZXv37jA3l2oA5HfKF5NE+sPjV0vNQJwTSGS5dNkzDApeuepdSYJBEeNJx3+tdW5mdK7ZsXSPgBGMAIzjyRSrlpQ0FrdYkjsQz/pFNGODPtFjbAH374w19z5D5UJe9/j7+TAHgjex8wZ5wDfo6EoNcgA0wpf/ntO3f6uxQ1n9269dGLL07EL2Hwiy++DHrllYObXn1hv1yqCwgIQH+2WJL3l+dfeRFZ4//3C2vnwEBzR3f3UPfQ0K+pqan3Ab+3765uzych6HpHCng62wI/lQP2VkG7Re5eoD1M3uvlotx9f09lYQBPspI6ARgRUgSNJWbgr/lOKjpcTfwvF70jkuy7MA6ppeRt66/zqNPATwKARdJ5K1qPO8G3tJRi8LA6mC8VAYCBuCKRFH0A/2L+wr/iPFIDTR/cDBjCPhQAzFMp9VuWkCLpdCYY7mDx97/8y4c4BP3DX7Wq/y576Ws3EcC7J3HAHJYDRsYX8Lt2DWC4t/x2/8hIl3LG1UM/XP1nGsB//N0fGQK/CA+EXoDv8wef/wPtfwOCkO+X572gf+Xl30GO+MWXX3nrA+u+FQi9n312n+j23bt3lyMDjB1wBA3gcVngp9oH7J0H7Ba5e4H2MHmvl4ty9/09leUMYMb9OeWAub58aO7siwHs1POKDWDsZAl6yVvxzH2lVGUUjV/8KG2w71Oz+mfBjylEYZuHWjGh4TvIv5RWfDCbL1VAtBkHnLHQ8wH4ABwwQrBy880G+gzVR4ZzEH+DiAGG30WuUmpfGz7CHI/6bSgQx3z/y5f3byEDfOuzv25Rcf9HCPwoB+wowSIxaHDAayD5CyVYawHAa/Mv3x8dGbFYLErF2UM//PM3//Ti716kvC7Y3ZcPklekg8j6bnp+0/N/eGHl/pAH4H+D+FyReL9Sjwzw77/55n/9/sVXXvmL2nK1n4Yvcr+Iv6vL28t7CYDrp0+6C4nqBe0FsCfI3Qu0h8l7vVyUu+/vqSxnAOuozs5OAKZH5fIxgAl/MQWd3S/lfaNxD2gAsHz2klKniDIN4NZfb8RlM4ciAFbkfYEYSSnd8UAqWBAGxCUlz9CBUspnfawQK8TB++ytJFyNDPDQ5jAdPjiGoAI9EVDp9VtO3yTHdQ5wgwX+t3/95Zd/QQT+7IerW5T8/wkAT5YDZhywM4A5tANeg3O/vWt71/TmL+8f0cpXPq/d8qrqI9iCBPxF4D24CbzupoObiOc9+IeDzz//h+f/8IfnMX8f+AZQ/lesWqnfdPDl3yMAfwN7k/aLtSP99+/fQY/bwN/bd1cvL8+HCPSfyTAGZ/dLzUl8x+uAPUbuXqA9TN7r5aLcfX9PZWEAM701HgNgx+BfLtZEAIukUgEBMJcnj2MBGMALqkayD38SHOgAMDaqCnnOa0PVWKUODgMwSwtsSi4BLl+E6Au/AN2CAz/ECuU++6c4aI2O3zr82uwAPKiJSzlghVyp37RhqLUBH3s8gWP+7V9//uWXQ//54a0frmqV6DlGIM5r/48D+NEOuJdO/65d03v5/oi26+zFW4cOXTzzw62P/vhHhF9EX/0mvf5V9GbT86A/0Hr11Rde2K+SP9AR/+srle9f+cJfNmED/Pv/9eLLBzftl1sQgAl7b9/F+MX8XbvmOQBwBAbw9PH7kJ6iF/QMvhfAbpG7F2gPk/d6uSh3399TWc5V0I8EsC8pfNb5OtVIOzYrAX/F4eESKaEzVz57WSkDX4a/DS0NQ9aXQnwcAKbQHfLWUGsL+mpDAwNhTODSgg1hUh4peJaKJYzEIhGOQYsVitn77NX4u4Hu+9YHs8w1AFgBFnjY3tbS0uCMYGyB//4dJvAt7IB5MwKpv/R/GMDrJ88BUw54Te8auvq5t/fOiGXlvx86mZAQue3DWx9+9Md/Qu73Vb1Sr3wBAfjVV/EbRn954YWVKhE03wgKQvyVSiX7V6JPI/5iAwwpYrmia/Q+we/tu5fvIvwCf/PXPreG5YAnENj1HPAMvhfA7pG7F2gPk/d6uSh3399TWc5V0ATAgYGTABjmHgF8AwPB/zLU5VK5Xx7mryTMZjA/E4LnAXMleeCASx38rW5oaGlpa2sbOvUMBhM9woEcQToPGIkoOZ7Bv26YB3llnkgkDbYZrAYimzFOLOKRGDR2wITuLUM31BIdC8AK2KakVG5ZYm8iB69mx6KRQ//7v/5MPPBnf7WoFIH/dwDsPA1pggPupSqgEX/zy/st2is/7HjnnZNfbvs+7cu/ffPiy5sOKleqkOQq1f79K9ELrf370SdDxFJfHW7PyedNMxrNzz9/EPOX7A4+qJSrRvrvgPVFukyizxjAa9dc/woBGPpxjfflT+mAdV4Au0XuXqA9TN7r5aLcfX9PZY3LAcM4m0BfXeAkAPbxydb5ckViRIG8PFj3RQLEGR7xr0SicPPAgEEtycYEFgcvKXXEngGPDW1tTQjAY0aJjg1gnAX25ev77PBVJGAwE4yuLgAAi0R8KJXuHOvAam7us5qDpdgBi6SzlxxpSMf4bWsZOjVbynbAkAVWKJR7dw2ho6Pjw6Gd0sF//1eKwJ+BA6Yi7OJweYg0+2k3JAVS3UjYAH6kA8YW+Dm8/Td/db/y+b/eWvj+93s+S3v3/e9/+OOLr+iVK+UPHsx4AJKKYDSyXI47o0gFvvygIOQ8fSEtLpZIjOiZyQebDr74OwAw8HfTCyqFchQXPl9G9EX87UXw7UUva3uxA6b2AbN3Aj91JyxvDtg9cvcC7WHyXi8X5e77eyrLAWDIfeIq6ECwuRND0IgqvlK5UrtxZ82ZM6d3btgbFg4ApswvljjcONBsMFMADgnfV+pwv8BHgte2Xz/A/HWUU0P1tK8ubNdQKzK/LQ2UDQYCI1ZWDyEAc6U8RB6Jua/7HnoMIvUMGOPwfiTkgPP22RtKyfFbhzZIBDpnAEMWWLt5yI7tNxOILiUOOGYHwi8m8GdXX1YqfOEnRfK9p2s25silQeRZiasAnoEj8tAj87EOuJ4UYYEFJgAuXz2qVG25+sOyjz778uS17w999M3BgysVigc+RUU+RehJUDb6/xAIBFIsHva9+PpxReFqo2Ggo7nT9sKrBw++DFXTB5F3znugtPRD4hepvbw8H/MX2d+1xAFDETRxwJwJDtgLYA+RuxdoD5P3erkod9/fU1kOAMNaG0i/Nz7DC3FisUqZ80HX1bragqWpqSv23djwVly4WISbXjkA3NwBAMYEDpHsO+4oviLRZ+Bf69BbzvwFTnKjA+N22VuZSHUL44KrC07N40LNlVgkMXZEIVXBm6hmm1pKCrFEs5fYW4n/bam++QnYa2cA8xTynM1DrdXEJLexCZye/m/IAH8HBP5PcMBcX3D5qpqCgrozW/T7Q5ALdr055Qy8ExgATPeClm6crBMWnsaAHXAvqcAiDlgvz/vLFq3+4sl33v3+h3//5uDKEJ1Eko0eAkG2AAvXiQXhoDNiL1hiSfBss62zuefbe32GlXIVIPgg8r/Pv6BQaEfuL4fEb3t+eT6OPfeiswB/1z6HACykc8DjAOx1wJ4jdy/QHibv9XJR7r6/p7KgFzTVXzKQBjB0unL2v2DoxMoFV2u3n0/bVvlG5aefttrtQ8M3bHHhXCoLzADYCgDORgCWSnYxFc0AVaBvdXpZyYWbbznzF4ESUTI7bNfrpRqNplBTWFiWDj9AcsEYwJABFoklxuYoIsTgZmOYFH9eIUIOuBWgXZ1eEnPpE4cBhgPjvlw8sX7zzePoyGUl+KkADkMTB5y5AyLQP3/388+/XLWsJI5enHcgrfLN868vq9kikQYFOcYePyGJJwJY9DAHLOQ4Azg/v7x/RCkX799Sc+vzd05++NF//f6VlQ8kaqPNZjQazWq1Gv2nzZRIJCFSgU6Ad1CL5eGz0deh7/NPFVUVPZ1qeYh85asHN23a9KpSrlCN9N9uL88H/KLz9GLv24se0G0aAbieM6EKGm9Dohww8tcEwE/yd3sB7B65e4H2MHmvl4ty9/09lcUexoAzwNRSGugMYJFcr605u33b3ND6+sQEREkAmX1on21eeAi06iAuWCwHB2wEAKPPCQS7Wh21z2BPG0rLNLmahTf3FvnoxgFYwZsRtu/SQuQS/YRCWa6mDOeMMYHHTuEcMPg8DOCqWVWrZs2a02yMg3prQH/wPnsb+t7SdE2s5sgGAatXCLUXmCtW7no9xo/DkeUW4mQxSQSXMkVYOA08+qKSFGSLw/fF5CZGJqelbl4/Ty6l3R867FMCWCqdtBc0bgZNQtC4DhqzMf/2qEVVVGT5W1p95pd/++ab37/ygkRnNHQiQe0ZBrHRbAYWq9VhavW8l8xGhN++jgocGTBV9BnjHjyAyu+DesRfpXb09l2wvrj0CowvPg3jgDkTq6AxgIkD5nsB7AFy9wLtYfJeLxfl7vt7KstpGlIgsXiBgTNmBLIGMiADrNJfTd2zLfNPkfWJiblgJNMRgNvs3WOdC9TZDIFZDjga8Vd3o7WaLr8Cf1pSptEkyiIXbkcAdu6oBQCODlt3aWEEnpkr9McnARuMALxiwzyKvxJjhwnM76xZUVEpzUa1FHf8ECmUu5ADLi0p1CQmJB/ZoMsOHAdg5GsBwBxOfJYsN5ccmPbAMdgB/x1Z4F8++iclFUqX7LugCQ1NmLsjbfu6LcoivMkHP2d4OgBnCwDAkztgKgR9nQJw79r85bdHtYqiv+55v/77Hz5CAH754MxstW2go6O5oxlpoHkAqQ+9IiQPdML7fc0dHT0VVaaoqIyoDFNPpzFcIHggl6vkYqV2ZPT+auh61UvsL93vEgN4zXfXoAr6IQ74ajYbwN4Q9G9X7l6gPUze6+Wi3H1/T2U5jyMkA3oReqEfBQNgrly55czWHXPr67NkiYkair84qmwfQ6s98cC0A7YaZ2b7ZONKIeuRBuBvKfC3obpMkxiPRAHYUQNN7RaKVq67FENqcpEJFsqIWQUHvGEe4S/lgHEOeA44YBHVdDp4s721uiwXeUxZ7PkNAoR/BsBUflqk3Lw9Bp0c4SUrK7IQo72UEPjvgF+IQv8yukUpgm+WSiW7jmtyE2WyrNhjR9ddCZMQAPs+JYCzs5EDPjK5AxbSDngthd9eZFT7kQU+u+PzyEOIv2CBp+kkxoF793766advf/r223v37nXfG+we7O7Bj+7uiooKE3hf9JqB1N1hnR0i0PlkKxQq4O9dPHehF8qeAfPPXWfyzY/IAU9wwE9kgXEVnxfA/2i5e4H2MHmvl4ty9/09lTXJPGBERtz0OTA6G9fcckU5XbXnTyZfm4/4m0v5XwrATfaxvg/iBEBgHnHAPVajBNfqCnS604iLpP65oSG9UCOTAYATko5+AFDydQawgqtft+cYmQ6PIBAfL4NANMSLV+BWlEDgcGNHRhQxwFEIwGrcoprL4+Vtvtlahg7v5xeRkHZKHp0dPZ7APOVZ5ICzOPF+6NiJ5MDVDICxAf77Lx8dpBywRHKjoUyTmyvLCo2M2fbhgb3Q6OKpQ9CB2dHggGWTO+AIKgfcu4bOzvaW92uVir99/vn7t/4L4RdZ4JXZEnNzBeine6Ce7opuE1KFiSgjJaPY1I0+VQwANt0bME+DRLhOj1tg3QWDjbtNU0OXrqOTkVzwd1/X1086igE54C9dD0Hj8gEvgP/hcvcC7WHyXi8X5e77eyprEgDTtUaB2dmYpCr9mRVpSZGceH/ExFxcIkV3vWhra2ocsxpDBNE4FIwB3GmcSQAcrTs1ZMf8RXYzvTAR4zc+PjR5z3qwyBMBXHeeArAQQyBeiEwwOtHwXiUAGBlgFQVgygGrBXi7Ew854NdLNYl+SLLQRTX7H2Sz+nfxKAdM7DX2wJz4UOSuSykC/xvjgEcOyvE3SyXTNreiJwzIA2dlzY+s3H7gpTxq49STVWGNA3B0NF/y6CKs670Uf/PXwiZdBGBlbfL73//wDXbAL8/WFan7MHHvDfbgOPRYdzFRI1GxaWhsuHlsDFEYIbgZ0gA+Or52pP82MsCIvwi8vegVhN5eJ34bHPC1yWchPV0O2Atg98jdC7SHyXu9XJS77++prMkAzBZCqbZm68mka/UcoT/wFxtgxgG3NTV1j1nDJRjAIgzgAdu0IgAwVxC94aKd4m+JJpfir3B+5PmN0uzA8QDmResvps3F+CWU5AixCU6vXvbSMyISgw62ORywCbYhRZMqLOSALyC+Q/ZY9uYZZchEACO67znGYQ6ehQ5cUkpi0NCIg+SA/5kywIpwdV9raRlN4KTMS39bL9URC4w3AOke06FjAoAFoo1sB8wud/LHDhhMKY3gfHDAys8id9z66Bto6PzNyy9kF6mbTY3FyOY2dxqMZrPNOmZvY8s+1GkzGm2GzuYxZIO7O6zPSAiA799FAL5O0Ivpex2PPaTqsL77GhdB4xi0A8N0DjjadQCDvAD+R8vdC7SHyXu9XJS77++prMcB2EeuPJNaiUwjsEKWiA0wRKCpxlYIwE2mzrhwCsAqALBhWpEPBrDIuG8IfRt6pGto/KKlPTRt535B4PgQNC87Z0VlEhvA6JwyWWhh9XCcigBYpbSNZWSkpMxKiUpJmdNhMFMA5uUtvnkOHRvoJqw8m+MEYBKD5iqXOdNdFqpJxwAu2YE7YSH9Z5dcATlgkSLuAwTgkkINJnC88ETmkX1784KCgqi6MdcBLJVuZDtghsCsbUgUgHvXQg5Yr9QXvPv93/7998QBv1CEAGxvarJ3D3duMEt0RS8ZCqBtNmmdDWr79cZLOp007gNrXzcisGnAOE2nU+iRA759t/369et/JiIMXvPcdRKBhlaUNH/HA/j9pwpBewHsDrl7gfYwea+Xi3L3/T2V9RgAZ2frr6SeTKon5jFLRqWA0x2trRCAd6ln6nAoWIQc8GCHdTYuwooWCF56DQO4ukyTy/AXre3bFutDxhdh8biBOUszI50aI3KA+UkXlsjFGMCi8JcMPQBgZIFTokwdVqOYNJ3mqmoKjsdTdNtRt2U/e4QE7grJ89WveCMJmj4JqRBwvD9sdSolVdDggH/+pf+PuF4aETjntbHW6hKwwLkyROCIyIVHl2wJogn8+DD0RAcsdnbANIFpB3ydqYLOp3LAytp3v/zov6gQ9EpdkXq4raXVPmxQPyMRSCSfLLE7hkaBPh3at1eiE0jC4wzN3RnFGejZCTLqEIK+e7f3+nN/pgGMHTBVgrV2zXVwwLT/dWxFYu0D9gLYE+TuBdrD5L1eLsrd9/dU1qMBnM0VX6lNw0PbAV3x8awkMEIwbm7V1DignhYNBJZCCLqio1NdRHVMDFs/jPxvKeV/hbQq67bIx3WiROATbzn0XoIzgDnIrx77dJeIjkAvsA4WEwuckpLRM2Cjpj5w5ev3bcN4Q3TLrP0iD5+dAJiMaeJxc5bGELpTABYKkbnGnbB2/Ovfgb8//+dHWgXV1su4eailNB0DGFlgf39hZObRA/MkVCX0Yw2wzwzci5LtgCXjHDDzDMPhgJnAMHLAAODPD/07LsFCAJ5WVGQebm1osI+9tmDBJ7ZTrw3fXFRSVlIC05xgoFNZWXrrzX2v7dzwyYIFp8eGGhvh4mTreAcBwO29f/4zywA/h8ugyZme++raNaYR5TgAkxywrxfAHiB3L9AeJu/1clHuvr+nsh4J4OxssXzdtoUnIih0YQRjBjP7kJADtvepp8H0XWSBAcA9AwBgvBEpXLkE119p4p0AfO6z11ayAIzbaPFEeV+cTzjBMNLPj5wu/sLriykDLIoz9BEAYwL39BkUpOk0V5xTc36+fzz8xPSYW4v1ZJwiywAD3WNDmb+CUAa3+yBV0NAIq7/roEKBdzWJPxm2NwCAaQuMPHDm0jP6IorAT2CCZ0TP4PFZDliycXfW5AAWOjtgmEeIAKyS171/6J8pA3xwZVGRGnny6lZ76nDBrzcv7f40pgwahtHSFCYtPHe89e2bW39dMdQKz4m6B2zEASMDjAB8/c/P/Zmqv0L4fY4G8JrvSC9ooQPB46qgHa0ovQD+7crdC7SHyXu9XJS77++prEkBDL0oA3E3jZya7e9FzncAGDNRhrtkMARu7FPPzMYAhhwwbILJzsbVW4KQcNiIhPf/ClmKObpL6cPqhYUBrNpydhsyiXgbsB/FXzjZotpTIhGpgp5nHTM1NTWiB8g0ZNXvDxEBgEX7F2w9FhkPBJ5+bE+dnlDPUYTFQ4TeHRoxDsBCWQJ6IoEdMN4FfFClwNuKxZKdY3b0vKEMJ4EhC4x++9htBRtCBBSAJ7fArIuILPCMGXzHNiTkgHc/zgEzlVG9+XcsSsW67z/8529wEdbLf5EgAP/aWlpa3XpzaWrqzZtvtx6PeS8pNzZXEwuPXPQ8Af2XxHx65PWbS19vbW1pa+puNgh0CgBwO04AP/dnpgqLmjuMAYwdMBvA46ugvQD2BLl7gfYwea+Xi3L3/T2VNek2JCp4G80Vnd5eSWwpjURgInLBMoRgaidSU2PnS8FB2IuKJAjApmbjzOwiQHC0QPrJPntpIez/Ze0v4ry36KLecR5CYJHyzIcnCX+ZU/lB56pLZ7bweFyBVCoSvwUDgxuoBpXIDg6f0ubJ4dfkivTL0o4JgcCcP735wzz8JIINYNWp2sp6oZA+PE0ZWS4iMHbAP//8L39dSQFYPts61FZdSlVhQTuOeCHnxJ8Wnf1LCBWDnpy/josIIWgHgNFzEXDA8x/lgPE4JKoVFgJwl15xdQ9sQoKpvjCMochcgDw5AvDwvhuLb2xednN3TGFkLqPE3MTYuW8c2bpi2Yqlra3VLW3dHYZsnQAA3Hv9z3j3L/Ng2nCQKujpBL8EwOx9wF4Ae4zcvUB7mLzXy0W5+/6eypq8EQcF4P36ZTveOxERwaYiABgng7EJhl4cTX3qcNz8mScSIwDPgVYcBMC+AeYNv5YWsvwvBnBs5odabqDDA/PA4OZQu4CnswGcFRq7db0eOk4i/qrWIxeYjnOehWUwVuFI6rJ1NVuUgdHc6P01BcdD/dFvNj02c+sWEUw1DnQAWKQ8ezSG5u90P8fQ21zN3HSogv7u51/6LXIFmSqhyrHaWxoAwIUUgP3jhf6hMR+e1pM5S5MHoNkAhl5iCMA8MRd/nD3RATOom+5wwIwFvjNqUXR9WPe/EX1//+IrL0gEQUHzhlqPt95cse/MqQVvmT/44sayW2mZSQmJRLLE3HOLXk9dtuv06dOblxUsHbIPIQecPcMycv8uBKCfc+xCgqmHzzHdoIkDns5owj5gHd8L4N++3L1Ae5i818tFufv+nsp6CIBJHbH+1NZ3D7PCzxR+6VRwYXop7obVN28mccBSBOAU02CzYZoPyQJzxXHLLhQy8CWrOyc0+egVeTScSkdHoEVi7dLMdyPY3RqxA449VquUkwprcd6pS0mxYPaIEnKTjmW+sX3fJxBuDsk5fT7yBPrlpoe++/aV/dFB5ODRXHLwnNST79bT/pc1dR45+ZK//wcY4P8DGWAy02n2gj57W0M1ADgXcsCyLAhC+8dWfrhe5/NE3Thm8J0BHDihCprV8oLsA+5lxhEiD3y5fyRgS93VP/7xd79/8eDz+9EzlSBzamvrzRtGvTJYFa5S5Slztix5+5wMPTuAJwhZsrmv7+vS6pVIYfP2frJvaGjMEJL9wDJ6v5c4YPLCRKAZB3ztmh9dfuWtgvZYuXuB9jB5r5eLcvf9PZX1cABzowMty3Yfjqin+RsfOvdc5bZFixZ9evzcwrm5uYl4JlJLSxPkgCEJzBNJPugwRVX0DEAjJgRg8MQ3Xr9AFXExAJ6f8H3dFVW2D5nIAIwUybVn9iQnRNAGmAJwVuLJowfE0PEZAVi1d9eiBJkfncPlZGVlJSbE7nh72akckVS6f8vSc8nw7EB4uPLilf0QJEYGmwBYnNN19E+REUKhI9pKAVgo1BwDB/zzL6NapYIUg4nmGYa77UitrTGFuAgLA3h6wrEjr4ULng7Aj9gHPN0B4LV0M6zVd0ZU2pquP7748suvvJoXkl2kC3pphb3gxl6VWEGNfhSrrix5e26sLF6WFZ+VuHB3nUUvFitEIimPJ4n7ZN++4VPZ0TMAwCQCzYSfoQ2HowgL94LmjOOvswP2Avi3L3cv0B4m7/VyUe6+v6eyHgpgLo+rO73nJC5dIlHhrORt22vXXd28blnBzSPH50ZCn6qS6oaWpmF1MCnCEkmMHcWmDFOzcVo2ruFSKKTr950PPUEFn2GBh/cijqX9LYwMCtLhgUWivNMf7jh8QhhBnYoC8InIPWe0Ch7eHCRS1hRc8IfoN3yDkJMFCI6QJSRvW3paFSIQ59QdeQcAPF04N21ZjgCnaQOj8TQk+ZVl2w6fEDoDmAJNguYkcsC//J8uOTU3SRpi7BtGWrKk4OaiYxrohRWPs8ARkZVn9TgL/BQOWLL+0Q6YHYLOX1t+t1+pt7z88ssHDx5cKUAXKihIvW/FqTCVSEQNl4Cwek7tG3PjZdBYJPb8RUu4GCYjKxCBpSEz44zWBej6W/pvMwYYrC8hMMsBk2EMk4agvTlgz5G7F2gPk/d6uSh3399TWRMBPANcKS5Gyqvb8afDEVQFln/kjku1Z7q2WLRbNtYsXncx9dKizCRNYXp1S1vfvJnEAIslH4wVZ5iiOmAgA9RB86SKsI0FldCDajp75M67MYdqckQYwDqoO9ZbVmw7Nt/Bej8SgU7aUatV4k3CEEZetvuYPzUNogw28OI+VoWaC4uWrQ+L5u3vWpaWlADwjnwfHTwEgy8QAVis1C47H3Migo0amn/ThYmxJ//jP375f0ZgDzCeHCwN+YvNajBssG147cbF7ZWx0MKakwVZ7MOZK07lPcu0yn4UgH3HO2DxYxwwuxNlb35veb9Fq9e+8srBV1fK4WxBRXGv3XhJLKKC5PiZglh1ZmllAqSBE2JSu/SYvsjAQ7gA/Q0L1Nk+M7r671LsvU5bX8JfCsDXv7sGGQbOZAD25oA9R+5eoD1M3uvlotx9f09lTQAw4gbVvlG5tyCJRI8RNeJPzN1ao5XDTEC5XA5ZyFPLLsUUaspKG9r2mYN9EGwV0AlrrBEBuKfPQJVhcfli1emlOyLY2VekiMOVP9SoAvGMO1+uSG6pSzscyhQpMzXQJw9dFYsowydffyg5AfYgl6WjU7Y1NcIggqa2BgTh13ctiI6Wqiwf7ogFckeEVtZ2hfsUwcxDAPDeq0ciD1N0H0dgjp8s9P3/+OWXswdXKmaQjh0iSbgkRA5/pUqlrdmelJuF8EvKyOYercspehISQSesR+eAHcFeahpSL21K8xGC8/Pvj2iVyoP6V1euFBU96/NsUJHkrQVKkcIhHnq+oz19KCk2NjY5qXKXUsLjYQSLIFrA40klguxs3Uj/ZTwBCRdeOR6MAQYHzKFaYU3ugL05YE+QuxdoD5P3erkod9/fU1mTAhgTmLf3wNFI4QmKiVlzK+u0qmefha/PmBEYyFfor+xacevIp6XVbX0YwFypVBT+yVhTY0ZUBYxEyoZgtpSvEGvPbN2RJCSpXWqJn14/d9GHV9fLYbyfr0h7pnZPjFDo71wDzYmNOXR1L59H+kPK5712iXT/gLrrRuSzU0ymjGJAcIN9bGd4iC9PeXXpjtgTfn5C4bG01MVbRPBH+Sq0XcteP1cvE+Lw9kQACw+//+W//K1LKaa6RiMbH/JgBhIfe+d1l87JsuI5pIw7dseH6wVPMg8JABzNBjB/QiesSaqgif9F+EUW+M5ol0r1gnLl/pBoDOAgQZ5SznMGsEKp3bV16/btW5fWboTcLwYwjwKwIFun43fdRw4Yxg+ugdfn1oyPQCMHfC1CODmAvQ7Yc+TuBdrD5L1eLsrd9/dU1sQQNB9ngNEK/0XqmwkRtCs9ce71moCAIqJnAS4isVK/YdfNC9Utw/NmAoC5fFG4baitKcNkMjUb1AK8zQhhQaW8unUHh6R2mVW+/lrmnjqlCK3rXDkCdGSoY5cQXWe18HydUkwFhkX7P9llb2hrLEbcjYqqqpoDmjUnKiolI6O4yb5ZLQnii5U1exYmQI54fuTJQ2fDfdDBo0U1qduSD8tYCeDp7KZPfog0/9/fLAcVihnRXDbgFLjQSWXZfEQmo5jEORGbtlMc/aQAjvZ1csC7H50DXktNCMQEzs+/fH+Ej06vwpF0ALAuWsBl/4I8aACGniHsXbB3r1at4vOlPERfEY/PxQDm8QQ6AX8EQtDXYdISVf3MInA+vCAHPB3GIU0EsNCbA/YcuXuB9jB5r5eLcvf9PZXlDODAQLJ7B6qHH9S8fvIww8TE40N9BpvRaDbHSQRFRUFBgGC5fv2Ngpv2XcgBBwYiBywN3jDUguxpVFTPgE2iC4IiWgCZBRH4vflCP/ZWl/p3M79csWTX2bPrag/tmEsVSjv465+cebTOQhX9Ikc37bXmoSbIL0etQvitIvydEzUnBSG4uLjPNjuALxZrz96qfC8h3m96fdKOPbX7Diy+uq5u+7ZjofPH85duOuHnF/rul5916VXg+p0BLA5XvvTBBmtfa24izgBD7VhC5QF9iE/QI2ZHOQHYl50DpvcBj0cdOOB8BODetQx/kQNefXtUKQ4JCSG4x3MgsqOj6QwwXBT0fIeHfkdQsErEl/KxA+ZxyXwoHvrP4PO1I6P99+9cLu/Fm5zWUJuAn6NJj0PQEawcMOtpgdDbCctz5O4F2sPkvV4uyt3391SWM4B1voEOAJ9JWxhKZ2U5uQ2m7p6O5oFOg00tARcchOAqUiiUb20eumGeiX6UqxCJEYAbWpqKTRkVHZ3TdEE6H4EUvkkBHvhwlp8zf+qvJb+/LS1tx+ex9WTaErPb2M/Pf37M+Tq9SsHn8XHhr3R2Z4+pKqoqKgq53lVYs6JmpcxBD/RiaraqAwL4UrGya+uOWDxxUBiZdHL3+T3b3k+mDz4u+IzLvPz8Yo9t7dqkgFSnL88pxCuZbTRYB5p7WjW5fvQmquknly0IDwp6LIwIgGf4cNkOeL4TgJ06YeWDBWb4Cxa4vb0fPSvwoc4UhM+ZTXt0HhlBwUXIhQZhYjFibTb6iIcj0FzyTIInQJ6YrzrYNXr/cn4v8tdraAiz9jt9de3a9AmlaV4H7Gly9wLtYfJeLxfl7vt7KosNYNiVi1FEALx4G3KtVFVUYlKL6d69n3o6EIMHrAajeppEAPZWpIpb8NoH0yBS6suTioNP2RvAAptMFX0Gs0CHfDLlgc8UnM+EODOT4UU6cTj52Dsx70WGwprvx9L8hGPbtp61qMR8HsIKcsBis625AvN3FYXfVRCAnjNrFoawqaPTXBQArR9zztSePxc7HzH4RGTS+5mZx5KvUTt+p7PPTN5GnEh+53ztX7XKGXxfmr+44HpmnNFm7Rxo7ujoGWwr05CezQDgzIKdyqAnc8CIg76OTlgTHPD4XtC9dF0U4Le3t/3uqF4VLc/LywvB/NWR0nTsbuGXpN4ND1OrzepwHTojtBPjibA55pG8OQT/9XotssG3y9Hh1zgQTGWbqW1I4yPQJAf8jncYg8fI3Qu0h8l7vVyUu+/vqSw2gPFqSwOYm31gR/J8OiqcW9h2r+Lbbz/+9uOPP6661zFgMwOBA/iw8VSnK8L4juZhADe0IABHmXr6bDOhEEhKPLDKcvb8sdgTEU4E5jg8Fwu/8RGRSds+q1EFEHqjn+aF2/p6ohB/q1YhAEdFzZoVhYTwi94DBM/pGTAXYQIrFNq6PTEJ8/1xX2iHn2MVV5MtTn4c/4jQyMy0Or0SSq7Q38yji4tDwtVGa3MPTjPPqWgq1UyHwi4M4IW3zuifMAQN84AZALMc8GS9oBFycQg6n67DAgAr5XK9du9bedmBCMC+iObAXTJdEXtgnkLKDzPbDDZbXJFuBvoPI2VYjEQiMfp5rYqvtPQvhyOvWXOdVQRNcsDIAU9eBe11wB4kdy/QHibv9XJR7r6/p7LGA5gew4AAvPlkLM3fCE16U8XHVVUfo0fVqop7EIu22swSKbKovrqgALBosA9YabhZXd3SVJwRldHdM2CcrQOIisADK/SWq7W3zmcmh1KUhUU+niz4VH9LP9xkIyL02LZDqeu6tGL0o1KMFFHwW509FQi5q2aR4DMDYEoIwMYizGu+Qrnx7IpLO94LFZJ+Hiyux5O35Gz+9Uknzy+tRTZbwZ/xLO5aiXOn3HC1zTow0NFTQfg7p6m60PFE4dihs08FYJYDnnQaUn5v/lomBo3423u7f0RpWVe7dGvq5g/igoIEM2eHQMswyvmSILRUKt3Q19fc3GebJp0RzYWiL5GC7qepgPdrUlOXXty8UT/Sfzu/d41DdA54zXfX6tlF0GwL7M0Be47cvUB7mLzXy0W5+/6eypoAYNIFmqvwLdqVeZjyjtNlhdVNFRVAXyQMwaqKjj6DeqZEKsUHCAjyhdht8E57aXUDFEuRdhwCHSBYisPQIpW+q25PZlIoSyechD6RkBA7d1vBVW0etFUUUVtb5WZDsykDOeBZVTSBAcBRzgAuCghAZpsvkublXN1emRyZMO745CNy3oSEyNgdh+osSrFYoeDzMYBx1FgaorZ19pjmzFo1h1Jja4mQAfDct5fkOM0dfEIAP8IBwz7g8t783l66Ahrett8f0a5cl3YuqXDhzRt7dT4havNMXSCXAJhLAZgrknTaixsbTZ3mcGi8Tdwxj04Ui3i8ujdi5l54+0aYduROee9aOgKNRy5hAwwOmOGvYxoS/r1i0q56AewhcvcC7WHyXi8X5e77eyprfA6Y2F/kogTZZxcmYP6iZVm2sLqxguCXQnBV1U89zQPIBQdLgnCRLmw4ghB0aXp1WxPeptvTbDU+EyTlYxMMX1UhF1yXun3P+bRtb75ZWVl5/PjxN4iOv3H8eGXlm4t2H9mOXGmXVikX4epneMub/ZK1eZDwlskAr6IM8Co2gOFMUp5IrtxyZl3B1j3nF6GTvEELnawSTlL55jZ0mkNbC+rOWJQqwC8WtpdSCbK/fT2DpMR6zhwTeiluK/Hj0Aie++WynCdywNimjnPAJAU8fhsSh4Sge/MpJuJdSMv7LVuupC6MuXC89civrwWHrLRZ1XQWGIqveNgHB+uHWxuqqxt+XfwSDKQg/MUAhrAB+mdd2vH0mAupp7do++/mU1ngtUwJFnoBByzksHuUMb/XeAf85AT2AvgfLXcv0B4m7/VyUe6+v6eyxldB+1JZRgVXt27hYVK8hABc1tBYgdkLIWh4wMvH4ILNswW6Z58FD8njiVWnLqWnlzZAHbQpqqqi2WBEFliKLDDpU4xAl6ftOrDkYkFq6tKlW7fe2n5rO9FWpNTUFcvW1ViUEpHAl3BGpOBJRRLK/0ax+QsEnkXFoFNmzenAOWBkgaW4aJrHV+VcOVBXm7oUN6qgH6ClqakFtcvWnbHkqEiqlM93lC1J4mwDHRXIZc9ZBVucsIrb0qfTgyQ476Ut2/RkAIbjOTvg+skBTBwwDkLnU0XQveV3R5WWs+frY1ovDR1p3aWeGdc5bJQIfLFJJwCGX1i54NeywsKyEvvwBh3jf3ENtEgEHcTEi2/aPy2LTVvxiXL09vJedhNKcjKoguYQAnPGAxg54GwvgD1D7l6gPUze6+Wi3H1/T2WN2wfsG80AOHsd7EIim5BOIABXOUQQjCD1U0/HgME8DW8fhsZPqp32EpiQ1FiMiGmq6mlGX9SRYiroEiESIXuas2X9lStdp7p27qxx1s6uK5YFWqVKzKPrfRn/a0qhY84O/K6aRfMXAdiKABwEJ6KHBSn16DRdO7sch4d3u3ail66NFotWjwcLQQNo/EOYv4Jpxs6On+bgGmukKEAwdsAMgJPSLr7k8+yzj0PwBAA/xgH35jP8xQy+fH9EVZP6pqx1uO9G5z7rgrgX+sasaomOAbAI8KowvjZUjdRgHzJMCwkMzOZy6SSxSJ4n5ynkts7msdbC46+fUo30r+6dwF/KAU8OYK8D9hy5e4H2MHmvl4ty9/09lYUA/CwLwNFsAMeEUntzWQ6YIvDH6EF2AyGba4aBPYjAsA3p7bKyklKSBUYErmi2mSWSogBSTSVSOHbaUqaTyyef4qMXaB5Bpgk4Ep0h4eB/sQGOIjXPDIAdSpnTZ1AXFQl0Op1UypOy9/PyeED/AF98WHQGEV/KjRYIgvgiqlIY23KqAJqrNjT/RP6qVRi/QODGtpJ6GsB+CMBan2eDAh5DIxrAikn2AU/ugGkCEy7e7h9R/PXSuVz7gM1oXLDhE7V6eGjANltAAVhEABxu6xtqa2traioe7DSHP4s3CtMx6tlvxc1QqNQ2w0Dxwpi010SW0cuTOGDcCzrC64A9Xe5eoD1M3uvlotx9f09lAYCRJgKYl70rJoHwN54jm1vd9LGJsb+rSCHWx9gq9nQY4iTws9gBA4BxFrg4A1Gzoqe506aGSiwp9pkiRycn+h0+eYf6LLPJlfwSUvWGTvC/KSlRKTRzKQI7/G/KnIpO88yimdMk0BxEwCX7cZBNhKwu3laFd/kywgXEZIcx/kYp3V9KMNswQAMYGn5ApfWcxpYyPzJEEQH4vbRlOY8HcGA0ATBPMUknLNZICrYDzqf5i14RgLsUN44cL7N3DHRarcbZkrBh+1inMTyEG80VCLgPgMDiMGNnTzdcZth0bVXr8PgpOnLwltWY/SDcNtDc0Vh6Ie20wjJ6uxc3hHa0u4SzOULQdGEYUxzmrYL2HLl7gfYwea+Xi3L3/T2VhQHMRgcD4Ohd52IxgGEcX2F6E3LAUQTAyADPIg6YIHhAPS2I7APO2/l2YWFZemlLW3FGsQm2A1d0IOs2UyLg80U4EzwBwBT9RDxmCysNYLF8JuRkMzIwfuHBIrDDAafMqugxSCTTjEa1RKATUAzCHZEBvFJCYNYcP9pg83D/ZGRUpfSX1DSAV2EAz0lBHripujCCAfDc81CE9ZheWLgeijyrcMwD3rj7xOQAJg64vTef4i/Q8Xa/RXH1SOvxxp6enuYBoy5bPWzvHjOYZ0uk0RjAYrEqz2ht/vjjjyvgca+nzzY7XIpHMKMnFeLwOMOw4cEDieHbb79tbDie9pocAfh6L92F0hHr/u5a/XTnThxUo9AJ+4CfnL9eAP/D5e4F2sPkvV4uyt3391TWQwHMzT5wPFYG/PXzE8bHlrRVmYDAs6oo+0vhFwCM/CeeK8gXhQOAC5EFbmlqzEDmLCVqTkVPHzLBM3U6vqPbsoO7PHqrEew6okQRUhQ+22btGxxMAQOMNWuCUqACa07HgFGitnUOWG2zJZQL5JKKYB5ukuwsOo2K7DHuHiXFFcVgtwXPOAC8atYs6HM5J6qtVOM3nYSg/fzm7qnL0QU92gHPiJ4AYJ/x+4AZAEdEcA5//V07ZYBxBTR693L/iPy111tb7feAwIZnJOqCVnt3c6dtXrgAAZgrDQmfZ+scu0fFJD6uqujusxrDJNmBvjxutCTuE2vfmBV9Z+dP337c1NB6qUY80n+59zprCzB1IuSAhQyAOY5Q9EQH7AXwb1juXqA9TN7r5aLcfX9PZT0CwDcWFc4nAOb4Jxa2mKpMUdgDQwIY2dBZNILBARfBlL5ABOAjhZpCRxAa9gOnDHYMGIzTJBIBnucjYk+1BeuLh+ix+IsJLAoJn222dXYMZoABTnk4ghEnBwds6mnIKg9CuHuaJERA1XBRqJc6N1BmyphwKFosDp4dFk79TlKWA2ZKrFvKYqkiLHQtjh09q38aAIMDnjwHzKnH25AgB5yfT7vgy3dGFKcKLrU29ty7193TqZ6mHvq0xW4a69tpDIub/Uxc2DyjoXPMXgxjL6LQ/4upqal7rNNmjps2My8vDl23sW5Tp0Ig6fy4Cjn43Uu/UI7cWd57neqCRUW7qSIsDnsfEgvAXgfsOXL3Au1h8l4vF+Xu+3sqa3IAI25l+5yxx8ynmjfGy2IboLAZLDB0w6CLkYkDHkAOGKKyfLEKAAwELm3ABAYGp5hMPQTBmMCOiT6UBRbh6mhnSSXTEEaaewZN6OfRg6g4AxE4KsXJ/66agyyi2mzr6zaZ7kHG2fyMRBCNZ/fxcJUVnzkh11FcTWE+WixRGw1WY7iYAHgaC8C4yHpOSnGDJtEB4IVbFz8WwJOEoH0mzANmDHAE3gdMW2BKy2+PKrfcWFptv9eNPHCneab5w3OlpW32sbHhTsMp205r3/DYkL26uroNP8vJaGpIb7WP9Q1YDZ8YN1h3oa/Z7Z0CiaRzTlVVS+mlJRbt6O127ICdUsAA4GtCqlU2Z1wjDuKAffl8bxHWb17uXqA9TN7r5aLcfX9PZU0KYMyq7J1DF3KFdN/mxNKmYlMVQXDVKmBwFcnGIkp1qoOLdNCNUhpcs1ujoQncCAQ2ASBM0JTDZlTHhYcIoun9RRjzCoJfBRvC4vA4tdloHegwoZ9PodCbUVzc1NRYjJjrbIQrfkJHVhs6B4FEUaaeAYPNDJMimHIkEU+qoLYZMeYX6rOkIZLgMDPCb9+YQRVCGB2HAPwxKwQ9a1ZGY3ViItWIwy9edq7glDLoKQCcPb4VpcMAc3AOuLw3n6Xy1f1a7frhVrupuxs5YPM09dKYwsLSlja7fWgYNGZvay0tLNSgTzU1NbUhl17SYO8eG+7bB2hua2tpa9v3QDCtc9Wc4pbjBa9tsfSv7h0HYBKChmEMQmbYk3MnLARgGKbhBfBvXu5eoD1M3uvlotx9f09lTQJgxC6gZPaGsVaNjABYyAktaWgE/EbNqqIemMHIKUaBAy6CXlh8kWonAnAuEDi9miJwMean6V5HR1+nwTxNkE1vlsFAxKNrYf8REs7LcgWC4Hm2zr7mjkGTCZlf9AIHQWqqLm1pKsYF0RjBKWCAZyH/azT0NQ92k4h3BYxMtBqfkdCn4Uv55GxSAZexwOh9nQ6ZX2tnc0dPT48hPAS7ZJ16nANOmVXclC7LoqY6+CXmfroExhEGuAxgnXj9pA64nlMPRVi97fn5Th64vH9EO/vGTTsm8IBxtnlpTHKkZm5ZaSti8M2hfUPH08s0CQkJONyfXlaYmxAb03pzeBhZ39bW4+klJekXhrOLJJ0/NbW03ryh147cb8czgekKLPpE3107jOkrdHTbdHLALAA/EXt1gV4Au0HuXqA9TN7r5aLcfX9PZU0GYEAw4oexz14SS6YkCDkyTWmTKYq0w6jCdMIeGOYiIAdMAOwryqtJy0XCBC6FuYQkRJqBN8vc6+lDNtisRopDmg2KcygsLAx9ZZ7ZbEPml8Se6dAz5m9Liaa0AR2SlRNGX+ke6zT0jZngTORU4LY7yWnCwuImEX0ao6GzecxkyjB1W1UhXMYBU/TFEeiUlKaWsix6rpIwoezIDbXk2aDHDCScBMDRIevPZ00owhJCCLq+HjlgOgXMWOA7o10rv0BGt7vb3t35CQA4ViYLTdCgJzat9lTrxbSYSBmgU5aALneobH5ibMyXBTc6b7YiGhdqYnOTj63wKdJZf7K3Du0zKrtGb+cz8w4dke78fOSA6x8CYHDAQS4CONDXC2B3yN0LtIfJe71clLvv76ksZwDTFhiXEOdYx6rLsqhZQhG5hS0ZUcwMhCo6BLwKAXgAAzhIxxeFEwDnauhSaMxFGo3d98CfdnZaDQaDzUkGmwFktXaC9+0Z7DaZKPhS/rexsSVdk6gpg8g2bEsC8EdlNDa1NFTbh7pNxQ4hAnc7TmNgnwJG99GnGWhGHhtOg77dGh6C894CygE7mmxltJRpqFFNHE6W5vjQhnCBz7PPPpK/kxRhBQqkG8/Pd8wDduxBQroGVdDlTgQuz799f9SyZZN1eGxoaMhqnjbv1kIEXITg3EjN8dTF6i+WHElOEMYLhfHwWYTiUBjguOBUQevc3NxE9JnYYxd1RUWGnubhnWqtZfT+3V488LDXkf+lHPA1Vgh6ggP2Atgz5O4F2sPkvV4uyt3391TWOAA7mlHyeGG2YXt6gowa5ifTVLcVm6KcxxBhBxzVaZYU6dAKnS1SIQCHJoIF1pQhWLY0NTmi0DhHa6ro6Wlubu4bQOqEN33kgYW+MNbT3W0inhk/8I8j/Da1lBbmZslyCxHW25qaGpvQp5raWqrTyzTpiMlIDgKzTgOiDk69O4BP0zEG9V0p+LciDhgnpeMMzT9VEXeP+VvcVJqbmEUBWJa70D78geTxbShpALMacQjE68/LxgFY6ABwubP9hSTwnf4Ri37BzhvDfbtscZJ5SxcSx4uUuX1z2LwNy77ccSw5IRSx1n9+aGRSZtrSMxbtma2VsfF+8fGy+NhjtYKiImPf6VNmlWW0/255L41f2gHDWcABT4+YHMCMA+Z7Afxbl7sXaA+T93q5KHff31NZEwHMjGOYqe40NWgS42kCJ5U2ZaQ4EzgKN4IcUAfr8EZgkWpnWkJiIolCl0FT6CZMxgxSD00YXFFxD2mwZ3Cwe7C7G70OIqGP8IcVJsr7phAGU/a3qSG9MFEWn5UF5hp56+qGhurS9JJCjSYXMbkFTtJY3EjhOgPbYORsKyq676FHD3kMkgc6zz30FZMpyoSD3MXEAUPRNGxDureKeWaRktLUUJKYRY0SFiYWHh+yqvm6x7ahZADMtKLMliIAz3duxCFkAbi9HTwwxUVMxuW37/ePjlheeWvePPUz2dkvLY2JpcuVY2O273wpTHvq4pc7/gRDFyMjkxZu237WotWO1FYmJ8K4Y6Ew8litT1GRJC5Or+0avX8bAZjGr4PyxAFH0A6Y3Y6S7YD5PC+Af+Ny9wLtYfJeLxfl7vt7Kms8gPFEQgLgkHDDmL20MNGfInBiYXVTRhTdFBJ2BMEjKspE7QPO5gKAkQNOJGngwrJSsKuMMSUAhjg2gh/mOEnzpsBnodoKHZreb0TcL3oDaG1sQ/zNRb4uPj5Lho6uKSwrK0P0jUxMrE9M1CBr3tTYyHbBGQzvqXOS05moF/wRcybigHHnDnDAq5gdTsWNLSUaEoJHtjJRU2oftimlAU9kgccBWCDeSDvgyQBcTmGXfuSXl1++gwmMsKpV7n/wh9STNIA59YcrCw6snxd+pe7Do2/v3p22+/yeQyvOWvSWA6lpSfUcDvBXGPtO7YOiIrFeaxkZvX//bntvby8bv+QsOAc8nT6uc4MulgP2Avi3Lncv0B4m7/VyUe6+v6eyJgOwL9WIWWBr7m6qzqWC0H7+uWUNTVHAX9IXkvAXvdtpnqkLCoJWlOFdaYiKucQD44YcJD7cyCJwiikqhRjpDGeZMhj+Uolf7H4Rf6vLNMj/xnOy4HEiMTExIRc9EinlFpa2kKi0A8MUwx3GO4pifooJngOg3yKFru4qJg4YCqXVhj7igIG/KY0tpbm0//eTJae3jVnN4fzH9KH0cRRhOULQ2fxJqqAR5Oo56AGdsNpZ9EUP9IIs8P37/f2j/aOjI9qV8y6++R7hZDxHGJGc+fbFnZK8eXvXX8Fznr7YuEWrt9Sev5B0DR0WADwdAdinSGEZHe1Hh7l7t51V+UzhF0P/u2v1EUIOZa3Zm5DYDtgbgv6ty90LtIfJe71clLvv76msCSFonS7Ql+yg5erMnc2mlnTNfMoDyzRlMOeINGZOIRRFHEsZUAeTXtAiVc3uXIqKuRpSC92A7SmrHBo70gzAbxTULJsyaE4yaV8izNLG4qamluqyXIRfGaIvZnBWvSwLab4sMQs9kDSFODHsRGCKwnREO4oWtPWIojFPAxg7YERgNeWA4Y9D/re0MCsrnnL/mvRWe7MtWMoPeBoAQw44a/w2JOyAOfX1X/9IB6DLCRzhpfzy7Tv3sfpHLUrluqMLSQ7YDznV+aExu1MX7/xkwd69Wu2WvVu2WK7UbK7dHRNZj64OjkALkzP/5qNQjhD8ggHGRV5r6cNTb3AV9HQObYGdAPw0OWDvNiT3yN0LtIfJe71clLvv76ms8QD2cexF8g1Q2/pMjW3ptAcWzs8tqwYCA8hSsPmFnUCmAXMw/jGuCDnghPkymYxN4GqwpyxbSkWFKdfb3Q01zI58L6EiyeliAuPwMzok5DazOMwDC4M4UYY8cDpwvgn74KZGkg4mJdHo8KZiCvtRzMYmOreMMd9tlYSQTcOUA4YdxtBdSpNIVUD7ZeWWtBQP9hkl0gAXHDCf5YCdOmGRoUPEAhMHXN5OhaEJHZGWIwIj3b9zf3REv/KLFTuEUPVMxjNHJLwbs+1o6pKrNRs3rr/Stbiu4NCizKTQek48FvqO93YsmaHUjiL+3r59FxlsPO2QLr2iCVxODWMY34hjnAN+8hA0kRfA/2i5e4H2MHmvl4ty9/09lTUJgH0CCYJ9fYPNnYOmppb0wgjigYUyCPfitC5xkAhfiHd982YGEQDLoQgLcTGRxKE1ZDtSQxuN4GInDpu6O/oGOvv6xpz2EZG0L8YvLnQugfKreMJfwmD0Lic+K55QOBFxmKmObmpiYtFA3x7YjdTX0WPKYIsUVhfTfrnRjhwwAXCYtbmbqvpqqUb8RTCKp/xvg727o9MsDcAGWKfTPYbABMC8hzhgDGAqBwz7gJe3l+c74Re9Wb6aEPjOnf4RrUJ7NS02NF6Ifx62RAkT/hSz7fz2pakFBalLt+9ZdHLutfnY/ZKnDJyYL8/OODgyevsu+F9mjxN1Clr55V9dq6cIPK4G+ikdcKAXwO6QuxdoD5P3erkod9/fU1mTAZj2wAKpxDpoYnlgoZBxmwhgCI+46WFbn3maDwXgrt0JiTLZfGKBqZYcBMEEivTGYBL7bbaGzd7/jNo61k2jl3hSWk1U9hcADGRA+EX8RcrC/MUPwDCy3LkaCHY7E7i7zxwW/MxsQ18PkwsmQe5G9kkQgMMpAOutw2CjMfY1icj/cujkd4tpzmAfroEOwpXivo8hMAawLwNgqWhCL2jsf7PAAl/7ETlgKiYMhKQt8Oq7l28j3bnfb3kgX7B9YWQ82cSEjxBxIjTy3Xf/lPT5e5//KfndyGvoeUg8hzbsfvE7ltYotKP9twG/vVSE20F4hsFfkT4cnIkAjniqfcDeELRb5O4F2sPkvV4uyt3391TWpABGHhjvRpJKjQM9yJ3CJlwZ6UkpFEI7DNgH1NDSQNQ2/NIz8DPZ0SL5qd2RiVnz5yfKmFIsKhPcgLfvsvfrAn9f0gUE6ATGTkRgKn3Lgm9LQ3VpWW4isXXxhA3xWRQi4plYNDHCYIJLG2gXjNPOY322YDE/QGA2NJtMlGWn7C99DmBti33XTNoBnx6zNzRUV1enF2oSEc/wAAa/XE16S6NpsMdqDg9Avy7CDOKvawAenwOmKVcPBKZC0HRelmLj8vLlyARfvo0g3D9yUK6v2/NOFnUAVjPLeuoVXxuGv6HJR85a5F39d+4uL6e6TNOxZ7by27+6Nn067oQ1fhewMCIm7Wq0twjLM+TuBdrD5L1eLsrd9/dU1uQAxtuBuTyRNM48kGHKKG6sLsydTpmreLwTCAeXS5EQi4fNs2F9zo7mibvOxyZmJcpgtxBVi0U2JKUjF9xCl0mRCLOp2xosheH2Oomyc8xEUbGJ4S+mIMn9grcDMlDhW/CPJNyK/TCOScMGJU0h44LhMH3mYKlUyudLg+HwLOtN2ewmHOIuLf10H+2A51l/bcG9HHNzMfKJ7dekt5lMFYPNRnStAnDLzUf738kcsHjjxH3AnAhcBV0f+R2xwOVsQgJ/0Qto9eXREf1+y7LKwxF+tPCRWMwkz0s41PCq5JgPtfqVo1D9jChL7y12xi9Cc3s7ccDCiS26WA6Y/+TDGLwAdo/cvUB7mLzXy0W5+/6eynoIgH10CCI8KV8SbO3pRuaRlEL5EwIjBssS8T6jMgTh6urhBXFB2AHzxFfeTk5A+CVp4MRExgSTQHQDBKzpMHH3mFVahIkmkHwyMIZDv1gtLchbQ48rqH3Gp0OoiedQY+OZTTzxpOQ3iwIxEBhcMPbm6Czdw1bkf/lSvlQqMfR1j08w4/A5eOyS9OP7pmEAP+CFLR5qLYPuHsB9BDLcAKystK3RFFXR0WkG/xuEHfDjAQzDnh6RA+Zg0xmBAXztKwAwsxOJhWD8z/Lll++MWpT6rs/SFkbOd/AXPyGKpwkc7wBw5NxtqVeVWkv/XeedTXR2mT748vIfv6JrsNj8pR2w6wD2CfQC2B1y9wLtYfJeLxfl7vt7KuthAEZ+NjqaL+AX2Zp7oIK4uK26LFFG8RcQHM/Y4OpfjXGkCAsBeE9SQhZVoowrsUgqGH8rLolGdGxpa0IUbusePiUowo6SL437ZNhOkRcxsbSkkDAwnrR1ElKOkWIwk7Ak4OUQEINLRs8LNBp8lpa2IetLYikGMF+ywDpGp5epBHATiXCXILtbdmHJTArA8278Wl2mIeCndl7lljQ0maJWzRocsAWjZws6YvQeC2Aow2IBGHLA4xwwFUGu53Cuff7dj+XtNBzzaX/KYBJZ4DsjWqXySl3a3FAHf8nBGOdL0Rddh6TKAotSYRm9vxwXV7c7x50Zf718eTsCMLDXeRfwf8MBE3kB/I+WuxdoD5P3erkod9/fU1kPBTBVCa1T25rxXtrippbSEsQm/3gawaTMGTnbYVsYWp59uTyReOPRYxSAyWYklgvGPrgsPR2i1kgN9l93CoqKgnQAYInaMDzUWp1eUlIGEWBNbiKbv44MpZNRg54TjAHOon8rMoqp9eYusxLTV8QXidfvsoMvRujHjxac5y1NLwO3qym8wDjgeTeGjhfS/tcPjlVS3dJUHBVVNdhsUEvAADuM3iM0YzyAoRPW5NOQwAJ//dWPdFnyRFBiVN7uH9UiD7xu6bbMd0P92QCGfcFUcgAce1Zo0rk9tTV6mEB4m3XEfPYxSXy7HAH4c3ocMCLwhBywF8CeIncv0B4m7/VyUe6+v6eyHgdgX6nEiscjpMxKKYatsTI/2AyEHDDiK6ZdevWvG9RBPjquQoEAfGhhbjzCLyeRIFhGCEwqsigKU/r019OSIpxR5UulInnOxUULI6mYM/UqjB+3Q4ZNXyr1yTbAjBKS0pacUmH/K+LzRKqNdbuByiRnXZqeTigPgj/gHO2AuWE3hkqBv1Tza2gzXZxSNSeKDkAHPcb5PhTAUumEKmjMOQ6JQX/9YzuTBZ5oVEkUekSreqCw1H4ZE3tC6De50BULjT15tE6vUmhH+u8un+h8GVONj/rjd58LHfI6YI+VuxdoD5P3erkod9/fU1mSoIcAmOwG9vUVSI2dHRl4BGBGUxvMQIAgbWIi1ZQZ2j13GNTP+gQCgEXrt2bGZmXFZ5HNQRSBcxMpAmMGEw5rNBfe3owcMDLAvlwESrHyVF3qkczICDZOxu9QnQBgIVs0fnPnfrq1bmOOGAwwT8oTiZRnj54jQXBoIo3gS9MXKymTDeDj4L7xX5ZeDVuLoWdXimmw0xgcEPD4JlhsAHO5D3fAjnlIuBcHroOePFBMV2MhD2zRypVdZ2uX7tm2MDZiEv7Oj1z45p6ty65Cvni0//by8kmOyartQgD+/GuvA54KcvcC7WHyXi8X5e77eypLEvDQ8bbUbGBRuLrPhFtOZsxKyYDWVKVlmlzcZwO537am4pRmg7nIJxs74C1L30hG6KV2B8lkBMK5NIMpO4xV8ukSCcxwCIwGm4qWeZX27Pn3EoR+ZDfNdJLupfK/dPWz89AeZwLTUejkN5ZuVIrRQXH8WYHY/llmEv0MYLwSEzUxS/ZTAFbfSC3FWC4sKW1paoSnHViDHTapFALQjxvEwAIwevLCf9Q+YOrXr+eABWbqoFkJYAaWBJiX74yOKAUCSd6WM58tWhjqL2Sep1Chek7C3G2pi7VKlUplGb1zeTWONbezjkioy+B3+ervvr4mJDlg8iv9t6ugvQB2j9y9QHuYvNfLRbn7/p7KeiyAfbmSYNtAhykK4ygDEbiprY1sAYZyqsbijKiOTgrACp72YtpcqmOkDFpFMmFohxGmUVi48PXFbwl0QT6BvgBKvkKstJwtOLTo5NwEf3o/jVPq13mvzHgKA4T8/ROSzqVtXVaTIxbz+CJkfhUihVh7dU9SJCkIYzCciF/xb6XJxADmgQO2jtkhQ4z+sLbGxmIyqQn53z6DWooN8NMCWCCeFMDYASMLfO0rZIFpWDoKsJzs6urLd/pHRrRapV7bdfZi6q2jb+9e9Gbl8TeQKt9ctPvI0e2pteu6LEolDEC6c/vy8uXt9E87rDRb7e1fhdb7MSXQ464n7APO9gLYM+TuBdrD5L1eLsrd9/dU1kNzwEw/LLQCz1R3DlJjepFmrZozZ04V6OOPq9D7q3oGjBSA+TlXDy3MIl2bcSUWFCYnAoSpmuhEdkT6+K0bM6XoROgMIvzgK/Rnao9WvpdwIsKf9DR+QgDjLhT+WfNDk964tKxGibw4D7tfxF+F8szWN8hJWT6cpeTMJaqQaJ6Cx42OM/T99HFVFT23gbSORv7XIMEFWC4CmBWClj4cwJAGvvb1Vz8SUJZTb6h/naAJCB7t0qvk4pA8vaXm7JKLqalbt2/funVpau2yzTUWrUosVqn0lpH+23cp7DKP8nH0hQD0j19FOPYgjX9C43XAHiR3L9AeJu/1clHuvr+nsh4BYKYnNB95YGtHhYkiMGLTHKyqOatWrYqaNWuww6Yr8vGFra/KU7XnslgWmIpBk1eZM/ly5x6/eWB9iMDHR0cRWCpC/u3MutpD22KSIk9k0R2wxnF4In+x+Q2NnXvu/NK6xRatWKQgx1OIRGJtzdLKufMTHypwwCoxAXCYtfmnORi+s1LIvMKMDNNgs8FM+98n4y/JAfO4D3fAHLYFnl5f//XnUIbFIuby5Y4ANONdEYERgke6tHq9Pke7ZeOVrp14HGHNqY2WBVq9UonH//bfuXN5NWNzx/teciB4+fGrzznCyQww5YC/BADrdF4A//bl7gXaw+S9Xi7K3ff3VNajAEx5YFiDw9WdPRVRtAdGBMYPjN9ZKRU/GQQ6Hx1MEVZp11XOp4cmgAeOlzkJkMdwWJZ4YfvZnDxBYADlgSETzOOL9TWfvb0j5r3kyND5/vGwucY5FD0JfyNCE2LnxlQeretC7penIH4aws9i5ZnabfWJsknZSz4bywBYp0ZPM6hphCl05+jBHkMwaYH1pPidWAUdiAC823kakqMMazqkgb/+7sf25ayoM6tW2ZmblyES3aUF3CIrLFYoyKtKpVRqtdqRkX4HfduZH3QKP69evXo5PH78/OuJPTgcTwtIERb2wN5pSL9xuXuB9jB5r5eLcvf9PZWFAfzQyCrywLBNSCeVBhsNfT0VkBTFBAYbnIJ9YsqslKiKzmckOl+YISxW1exODoW5RVSbZmf80g+Kf7K5594uqFkZEqTDkU68aQgBWJXTtXjdstqteyrfixQ6VRqxM76O6mfh/OTM3VsLlq07Y9GrcN4XP9B7YsvVpduOnYDe1DgWzpCXesAb5IDlIuKA1QM9FfhvyqAGFxYP9gwYzBLoWB3gAoImA/BDirCEUIhVT2WBKWaWO8DpVDQFDzwjqb9/FGlkpKvLYtGih6VrZGRkdLS/H9zvZfKNy1ePxzB1ACAwetv+1deHORSAJzylcThg16YheQHsFrl7gfYwea+Xi3L3/T2VBQBGLw9bTAHAaBEOkAZIZkMplskEBMaTgPErwdWcAeMz2Yg4PJ6vbuOhmASYFsihxiVkMVFoFoVp/slk72Wmrs8Jlwh0AXyIG2MIIylUSn1X3dZtmUlJybGxkZEJCaHz52f5+/vT1PXPijgRGpoQGRkbm5x0bMee2hqtUiUWSXk8kUKhwARG9ld/dfuO0BPM6ROpmjD6d8CWPDmzTv4AA1iq7hucQ7tfMq64o88oCCD53ycn0IROWOMdMKuXCHqpnz69/vC1r368287QlymaKmdAzEAVMRjE4jBm753bty9fXk19C3rcXX6XMrxs/C6n+LsaumBFCMf3wHpEDtgL4N+u3L1Ae5i818tFufv+nsp6HIB9QQK0CgskaqN1oGdwDuWCo1JYgo1I0VyuL8/Xd++KbUlCDtWeCgMYd+0YL4q/stzkyqO1i7eES7HXElGRaJ5CIVbptV1X111M3Xr0SNqbO84tfC85NiH0xIn5EdBA6kRoZGzSwsw33lx0/nXkfc+escD+G7ECPQkQ8Sj7q9Seqd1zcm79/ElOy/qM5ty+BxjAIpGxucLEmN+MFIRfq1kdEATp36cDsIgFYKoV5YSILwxFml5/DYLQd8flatudPqK962qCYJhUCNOCydDg25fvXr67mnwThu9q/MHd5Q7oMu4X/v3xq3fpNtDj+eutgvY0uXuB9jB5r5eLcvf9PZX1eADjLDB6BBUJzLbO5sEKUwrY4AyHT8xI6eg04q4dvr68nLOvH4sn43my6EQwcsF4QIPMicQYhVlZoZHbtp9doA+HvpEOBCsUUr6uKECltNQcqKtNvXXoPKLwyczMmJiFSDExmScrt52/tH1pbd2BLotSpaDEBKDF6CfPfFZ5rD5iAvsZQx4Pv1Fi0oV1D6KjkXsXqYzNjj9qjmlwbMCmpqqfn7D8mQVgPIxBFO0AcMTDAByBHHB9/bskCM2OPo8vnFpOA5YB6WoKxgSqlPWlIA30Xc32vZeX0/xe3d7+3bX66RHjG5045YC/9FZBe4rcvUB7mLzXy0W5+/6eynosgANxHljA1wl0YIJt1oGOQZMpg6XijIyePqOUANhXubMgBk8PJBYYv8YDfOOzslgpYWJF8adC555L27rOMo/MToDqKWRk+UQilVKv3bt+4xc7a06fWXzgwNl169bVrVt39uyBA2fO1NTgJGiOEgqRFAqR44Hwq62pPb9jbiSc0l+GfwcH/OGXod+Tza08m52djfx7SJyhozgF/z0ZJlNPc6fNrCblV0/cAosBMDUNaRIAk1bQzn2noBAaOkK3t99dPQG7zqHjcfxd7vwOpi/SXSe/y6Ca+db27z6/Vg+TkDgPA/DTdMLS6XTeaUjukLsXaA+T93q5KHff31NZ0IjjkTngQOzndHwBWl51RUUSNXLBHT2Dg90VJqQ56BW939xnpKLVPJW2bkeoP/bA1CM+HqLQ9IwkPMyQMaH4c5z6yJijdWcW6IOxC+aJRAjCPBHM8uXzkQXV6dDbgKKAAECzSgxCnyeERt8D8OXxWPxViJVay9nP0t4Nzcry95f5++OiMMZ9I+jCFikO8eSJC9MO+MDwJ67kJUNPSgr6kwYHB3s6+qxGKZwW4s8Brhlgeh7w5AD2GwdgsMDQjUP47ldQCU3bVmfvy0riskLKyx1EXk5D+O7qh+oy/U77d199TQYRPhTAT+GA4QbwAtgdcvcC7WHyXi8X5e77eyrrMQD2CQyEcQnREInGANZJ1GajzWawDvQhDqNHc9+A1Wr74Bm+jw4TWJx3evd7oUI/MiwwC4M4Hu9HggcxwVkOFBIyh8bGVJ5HLlgZgLnKI05YKiVhaV8CYvgaj0SayScQfhGlRdBvA7GOKn0WK8RifVfd9rQ3joXWZwGB/f2FyP5yMIHJG/JUgGrUteNQTTQAmDfTaO0A9DYPdBpstr1q6P4coIP65yffgDQewFzMrUCuowp6so1UyAGjB7TjaKeStkwtFfmAbWadfK0jLfwwv8v8Q0Wq0bvtP3717rXpTBPoyYuwkAMu8gLYM+TuBdrD5L1eLsrd9/dU1uMATBlbCsCYwQEBknBEYYO1E2Q1GM2zwyXQTgMRmI+sqCW1MtlfSI3rRQBG/8RDABpYG08C0hzKCGcBDOfDd3GuvZt5dFmNNkcZLJaSZR83soJxClhcLqExWzyMXYWIx+PR3lecp9dqz9TtiYmth+Czf4Q/3rQEPhzKwfDpMXkhQ41Lorf9cAX/mSKV0drXjOlrjguXCnQYvjoXze/TAJgD/IWOlJ9DT+i7tJ1l4s/Mx+z3Vj+cygDayxNEEfgy8Jfyv48E8NM54EAvgP/xcvcC7WHyXi8X5e77eyrrsQD2CdRRBPb11emCEIIFyJlKJM+o1Wqz2YzeBgdLxHy+jnybVCHKObM05gQiMNhOvB8JZgVCbw6AYDzpzkGYjD7gMNXSobELK/dsXXbAopRiGywlUOXBQ8GjRA04Qq98+AL6skKKP42/WQzB5zN1W/fseCfyGphfoZDsWyJ9QTB+47OymP1RwOTES1e16K/U+XJFwWqjEf6iYIlE+v+zd7axbRxpns8aFPXCtxHEhBgClCYeipKIlShPE4JF0YICnzlcaWAZEca3gQKsfd41kJXAiJmNwUycY0M2ZgNpKWE0HoQiPSTTBCxf7MBYBdkgiximMEG8kblgLs6XJIAwByd3FwQw4vs4X+bqqep3UhJbItVqov8U35vs7lKhfvxXPfVUO0RfMTj/Rg0AjLug7fwYcBnysAUGAiMPzPUu833LkjjmSpK9/H4F+goYhglIX20QAG+bWmzPDtjYb9UBfOBSu4HWmPTyUii163cja5cgLL5hxcIWuN0C3cHICWNZSKexmd0C+ogD+XOJwQGwwHjBXg5++IKeHvXjBYPZV0moNLbKCEAjK2Oz2dUL9E+mOh0IqibW2nIhzl6v2cT3NZvZB0Df1lYc90zRpWJ2PLNydSOHdm7nJw3b/WTN4KP4WNhMmaQ//LhnvERhAKOfEBb2jPDIL0MGf5V2P28D4PM8gCsRGHdBQz6OByQS629FA75lnc3CQHA5kAG+O/H3/T8Cf6/w5ncHAH9xmXPARh3Ah1tqN9Aak15eCqV2/W5kVQFgGAdmXTDTDgBuR1dkD23MNGCKwcHLDNmkFflSZ2A1c20Izy/FndDYBBtIKitCWz/xvWSQmCU0fsM12OOLjs1NrJbyFOmJ5jJr4EAr3CmNHTG72AJ0PptNXa2trSY8bzi1GUuEHgQ3jsIOWMoYCIHxXvlfA+wfAvBImuqDk2SYJmTv8ZQjfG425bOPdgLwhYzbXnkaEks8u9sAHvirL7///gc2kuoXYt6KrK4Qg1XJEnPdzZUN8PffPED+l/9lgv5L6GDkgVjSKGjG6NABfKildgOtMenlpVBq1+9GFu6C3p0znAs2t5vJ4KhYuJUmAEbMMXvNpbORQTy2GCbWlvW6mLb4oR8bUmJL8Rgx1xMNq+OO3MyMT6RWkxdem5wKmM0mkbq4Bw4vm+25C7lfmHQ0U0wWsul4pGcjl8No5wjDrTnEkd5PdgYPAMBBX/ZpKzlH8SkpnHdUGcBGk7O8C7oCgFkUIv7mckvXv4SB4O26l8U+WGSE+am+7+/YA43sL8Q/20UC+10GYIM4FaWRYXQHfLildgOtMenlpVBq1+9GFl4PuAqfx40EQ2bKdjOhVDu5oKfmdvZN3EFsyidnF912YcIrQS9xwAZsiQ1ssmicshJDWUgKseFZ80Gaja10oZQ3m8yW0/3trVg4PBpfvNgBQ74rZIID+WIqHc9EoivXRjZyBtLLzHpfA0GwAeOXvAP0N3DD0cMnC0aWv7iLnT0n5IdrDGCpA5Yvv8udfc6wcf3Bl9/88QdwwT/IEPy+HMWVLPB29vf/vP/+Dwi/19EPFHuOZ295GizukMgYMEKw0cY4qkpFacWhejqAD15qN9Aak15eCqV2/W5kYQBXBRUCXWRyzZZ2M09cFsjcEzJEG6CzkZElf0sL18KL+psNnA82EPcLL/AICrMAyOU2Bh+sjM2lz60mi3cvXCgdm6Hpycl8Pk9h4fX4aPpYqfT7Imt9Qw88YH4xaP28+TXwEPbjBNVkt2QYGI9FvxFfJQYYzozhjLzRug/8VgTw+d0BjBwwQfBXN7/5HpYnlBCXdCyzLrfME3Pudxv0oveQ+8XRV3z8c8vOAL55iayGBABGDrias9YBrJLUbqA1Jr28FErt+t3IqhrArLBPNCNUGUUScAxjwA6z01mcTeCFjHjU+PkRWJwkCxiI8QtjxAZJXzGL4CWXZ2QROeGxTHx2PJ2eyKYKkPnqQulC6W6xWHxrtXBuIn12dA4538SKryfo2Tie48y22FNyX4p34Od/DeBoaLT3SPpuv5WcF9vDvm8AwzLKcgA7zme2S0VpEB0kQTDEYkFH9A8/sAO3ZSO5+Lqz48Xg5f9++B653wdfbWy0tLjRJWd3w4+jbfDLOeA9AFifhqSG1G6gNSa9vBRK7frdyFIKYDJSKlhemSBVhsNkMtKpf1xbIgQ2sB6YC4PC8VBh0vcc5ujLA9jObgu3EJS0EVwMRRORsUwsPjc7Pjp6dvNs+uzZ0fXZufhCBrE36lsMgvPNhaV2UujR5u85AJMOaDwQHD4eK8ycBtpapWe0zx5oLgiLA3B/lxTAlYjH//QgCL725TfIB4MRBv3tH3+BruSWu+K7X/xRph/QBd/8ABsQfQ/4xfbXbhCKpuKBCA5YALDZ2ddVRYHoiTjUktoNtMakl5dCqV2/G1mKAdwEbpHrqa1A4C4zREZNvXYn5GkTAVhwomRVXz/ri8MCIO3CLRe9ZTAM5DaGNoKDwZGRtbWeB4s9i4vX4NLT86BnJBi8fn3Ds5FbEkaWw0AV3MEq7eTlblkP7GdDs49vjNMUiw+mZgAWoqArAFhUJGXYc/MP0S+Pja8egBEGCu9H33wD7P0KmV/ooDe4SQHhQ9iewFIHjADs0AF8iKV2A60x6eWlUGrX70bWXgDcxFibRLhi2CtxwDiFlckZeGsr6nH7RbThTR4OwfLzaOS9nygW1+7nHvkNnCMmYBJdDBDvHMaLLoGxBuqS5eXl/GW/Go8Gs9/KzgbuWZmgnNxJiflbkzFgEYBNx7gx4B0ATE4Qd0PDySEfjCB87Uusbyrpy2++5PUNf+FfYAX0zeVybHljABPy7gTgFh7ADAZwNT9JGKsOYFWkdgOtMenlpVBq1+9G1p4A3CTJzgGOWMAXTAp2mLzOfHEcd0JDe1+5jRfFScnfxPHTO3GKF/RlI1Ptb2nx41vypeSzsq8VhpjJvT8cfje+6rWypy/+SbGHApEUTkUHvAuAyUGJ3oNpSRsgz8Z1dEF3RNfhz8Net7t8BRYab54D75tDe84R77vtQLS0qDgA25qqBnCTDmB1pHYDrTHp5aVQatfvRtZeAdzExkQbGQYe4kTQ+BW8iCC6BvLnTi4O4E7oCmu+CwO+3FUicYRuc4UP5wxubrkl+BqM3ha/nx/fJB8tzy8hfRB2XcqWmrjztwqzgPfnfyEKS5aIo99SqtIBs/63JWfHySkhQZYdzDDMHcq53W78Os6aBVf03J1js2jhbFpu8jhHPmQH8OYIbSXo3RXAbvuwDmDNSO0GWmPSy0uh1K7fjaw9A5htcYV2GXxwE0tgyGDlLJ6NXPH7m5srJl+s0OjL+o3Jh2SkCCPyutlHeCYRO6WGOF4+mKuKnaGPH/fMlaim6uZBKymU/v6yxRgcxzK5HQDMvZTD9zl8gG7MTqCqnR3XtsMEXjeZxdvC3+DX2S0gwpl0MrNzfe0kySX5Gnt19CUliQDM6ADWhtRuoDUmvbwUSu363ciCVJT7ALAoYYUV+0YcI42TSJro5Hgo2OZnAVxVh7KESTIAtwgL+JRJBODqvh0HWwdDkIay5gCu4IDbvbt0QbdI7vC5uHNkxlALmzgjR6AK1xa39PQRq91oWwNs77azn8iRC9/3LLPAOxePPXzt5F4cMMxD0gF80FK7gdaY9PJSKLXrdyNrfwCuKEhN2Q4muONyLOTmASxq9oXmvyIHePBykULcE8n0ImHGEdleYG9VsG82GHyXzpmsR2oPYFEuaKNoHvCOXdDsizlyyjkygxnwiz0tgJQ9VfTIzflbA+f4cyx13S1cng3MXXZ78tAuLstdCLznMeD+/tM6gA9cajfQGpNeXgqldv1uZO2vC7qiIKEUXh7JPHPuX3s8zeUEFpr/yhhoMQhbSz5akb8sgJVZ7GbDcc+lbOnIkQMBcKujJM6Etf1hoTPPiZZHaCEGGCBsB+wSkvIGmAewTMQ3kw5oe4vdzZVa1UPA6JPDyqOgwfvrDlgFqd1Aa0x6eSmU2vW7kVUHAFshpyNOTxmgstE1O4wDSxv+XbtARZtx23K9zCJIiHGssJMb/Sjw9IxSDrzeYL0AbGwVAHy+OgAbWtj8nXacE0vcycz2IvMzrYSzFx6LfpRw9xysucDyXXof+O/jxoDZecAKIsN1AB+01G6gNSa9vBRK7frdyKoDgMk4MEzn6eorTvx2cVDaC11FD6jgfg3be1spgBVbYIMvk3IydQNwq0kK4FLGXiWAK5wiwih5KvzQkJx9mQUul6G86Lc/DLu/zX1t7FWbDmBtSO0GWmPSy0uh1K7fjax6ALiJn1Rrck5lIz0tcg+8uwuUbiDfeqdR1O2/VPZCZKLIWKbrBGCIgxYD2FnKGPYCYKFAxEPjnFgA809YxpNXeFMsLlTx/nc4jHAbOODTOoC1IbUbaI1JLy+FUrt+N7LqBOAmNlelo6+UXRgebG5uruSCt4Fs2Zu7m9vd0SZ7LxiaLeaZaeKAa33yIgCT5wDg6hxwpZMSthfKED8lPc0Cje04x6TAYXkfvazktz8OcMAndQesFandQGtMenkplNr1u5FVLwDzHtjRlx0bztlFBJYFVgnWjqNk2TCxeBR4Z1TttInwuNkf9mXOOaenCYBrfu4VAWyoLhEHK0nQMn/cbHJt7hW7eHqRdBwYf2wHAO9MYD92wP1NTTqAtSC1G2iNSS8vhVK7fjey6gbgJjZTlsNROrcQClaywCwCJFZXHPhcBaeqlvB16DgMrsGx7PkuAHBdzp4DsMnRSp7vzQGDcMgVnxNM/kOjRTy9SDYiTgAszUpS1QGgTyEHDFHQYgBXnx1MB/BBS+0GWmPSy0uh1K7fjaz6AbiJdcEmJ3UuFnK58TiwfEYSG/MrBkRdACx8HeKv3z3oG6edtnrxtxKAq42CLoMhKRD0o8EgjyXH5yUfBZaecFlasOr4iwgc9o2lTgsA7tIBfIildgOtMenlpVBq1+9GVl0BjDNTmpzOUmE20YNzYlUaCC5zwdX0KCuTsPo8HIJrMDK6OtVusUASknp2QQsAhnnA/HrA1R1zhZxeFcqFBXBFuLNUln3D7jsGACMH/GoTC2Cjs8+kA/gQS+0GWmPSy0uh1K7fjaz6Ahg8cJfZ0TW1Op4YdPmFMUwZgOURVzUGsLALOAL/YGirSJmnDxTA5zNLHCSrPOhtACzLrE342uZ2u8vxLgOwvKC33zM44GHsgPF/sFUH8OGW2g20xqSXl0KpXb8bWbUGsJVdS4hNEg0O2GQyO+lk+pLP1YYJLGTY4NNOSEOgBXpI6FMdt3YU7N89tDJ7ebJjetpWL/7KAMwwCGEzih0wD0N86/eT5RZbSCeCuECaDe4rHs/QgCi8i6wgtbffMKQL2u7DDpgFsFMH8GGW2g20xqSXl0KpXb8bWbUGMAz7WvHSSAz7FDlgs9ccKE5kFj1hiIaWzmsVAVga/Sznbw0ADPa3zTMcK9AQAU3gW/8xYECY2AErOZO2gSEPr8FBz5Crzc+Blh/UNrh6QqFhj72ZX7mRPNpbHwIJnW6TOGAEYD0K+vBK7QZaY9LLS6HUrt+NrLoA2GrFU5DaYX1CvDSS1+zIl1KjicEl0YxglrjlOSKEyUn7k/wLYM9trtDsP9A/YngA10MsgM0EwFZjv9QB7xIEJQbhlcFQBCmBhO5ORlZ6XKLyY8/KEFxIp7dCS23NnITfMNJ9VdsDbbfnOABbdQd86KV2A60x6eWlUGrX70ZWPQBs7O+H6OfOnz3T2W6DtZG6AMFOqjgb7fEM8ATeHsC7pImoVrJvAP87MDgcW6UdFss06X+u4ZmLBKsCEQD3N2EcgwPOVQtgUXrJtp5obHN0dH19fH19dDOdHl1IXBeVH3tabYt36FIqsuQWAFy5G79KRwx7dusA1o7UbqA1Jr28FErt+t3IqgeAkf/rN7Y7/svXjz55irGZLWaiQD45EYsOSlyaLNszB+CaTgFmheOfg9HZy3TAiPyvrS7rIBEhaMkA7KxyNSQJBO1trkx2tVgqYpWKpVKxsL7YIvx8gS+y+/1LoWyeLkRcAoBZ4VnEduUd0bDra2Ovsl3QVqMO4MMttRtojUkvL4VSu343suoA4H6sro5H/+u7258808EwFgthsCMwk51LrHkGSF4sg5B4g2v5eQDXnsBoh2HXSHR2dRLGf0kHdP0BDJmwrP2tJueFS3sAcHhotpQPUIFAwGs2OwMBiqKzvhzpy+Zm+gKmQ6m+fOEkjnFDT+08gO1uN5sVS1lZwYeQA/4L+YdarTqAD7fUbqA1Jr28FErt+t3IqhOAW00O56P7t259+t5FDGCEYARhJ0UnJxZWgktCV2n5xJkKuaAVqfLncP6rq4kzSbrPKExAqlsXNAFwq4kHcEkhgDEG3a6F1Qs0PUPnA14vRdN0qZgeXnK5BrjMnmQC0pWVVAAcMAKwfWnJtcQTeMDlcqHd+rnorKp2TIKwwtdOpth/qNXq1QF8qKV2A60x6eWlUGrX70ZWzachsQD2AoAfPrz16aOLT01j4hEfTJVScxFfcEBMYBE8awHgSh8EGnkWI+tFymGZruMMYK4QSBS0sRWwBQCuej1gCQrdS5HRiVTqXKGYR/xdzZ7LZmcTK4nEu77gEA6GHhoZXvlDyJcoUBjAS4OLK9FE1HcV4rH8g4uhaDTqW/MgT7xD0ZTtlcxDQg64Hc4FAfhpk6NVB/AhltoNtMakl5dCqV2/G1m1B3A/AbCz89H9J08e3v/u0/c6GYHACCTF7FZisEUaMCQJv9qv5CksyH6GQm9mL/zEwR5L7fkr+kLWAQsAbvUeqzoKWnweuZGVaCQRWUif99KFeAI9jI3fKRTOrZ8cHgBbe3NsayKbjsc/pmZSv3G1BaOxbKqQ3bwUdPnDV6LxdCqV3YQ0oHjP9gqpPSrt1c4FYeFz0QF8+KV2A60x6eWlUGrX70ZWzQFM+AsO+Pb9J48Rgm99/d7FznZIe0E8sMNJF0YjvhFPG2+C+XDdGgFYShoy+2jtjYWJGad5um7+V/SV5QA2zvx2ya0YwIjAuZzLNRjd+rxvJpvwuHoiW4USRU0m05fWPM2Di5l0oTRTSn1WyiMAe9YSW9lSHv3CSY/dHAoOxwtFmqaTn2UeeJQD2O/j5gEzVqsO4MMttRtojUkvL4VSu343suoC4FaT1+t0IAA/QQhGJvj2e09B3LENA7jLEcgXU+uRYZd4HLhsNLhKSBkq5mzk1EwWMWj2L62NnV2lA4ytXv63SWyB5QA2mY68FhsSAFz1IDC6CefcnpW5YgAB+LgnkU7SVKAvkC9NjA0bVhaAt1SepimKPvebxbHNJP3LPu8vqVIh/gCZYZr+7+hS2oys8WsmVbVXHLjl+yLFngxj1AF8uKV2A60x6eWlUGrX70ZWPQCM/K/X6+i8/fDJ/Pz84/mHD78DE8ww0wzDsDOS6NV0LDrscUGAUHNdAdxs8IeHRlbeTBfz05b6+d+mHQBsbG2d/ueFwSvKAWy3hw1++xBxwNHBUDyZz9PF4t9Tfb9Pjw1lsqXA35fuFmem+gIzqUhodJWmZorFEkJy9tvY5sfemT9//OdicTOxBwDbQ7EC9y/VAXzIpXYDrTHp5aVQatfvRlYdAAz+Fzlg7+2HwF8sZII/ISPBDE7L4YR46DsxX9DNrpEkWWGAe7yX/mgp4PDaC2FXT2LzLZryWkg3uK1+/K0IYPS8aZqeWxtSnIqSXeF3KBr/HDng6PBcajI/k/1iLnWhL19a71mn868n//fcQoqeQgA+GSnQvyym42PrxTz15/hmuugtbsa/iG99e3WImNrd9kv6qNkx4JWt1X4WutZWHcCHWmo30BqTXl4KpXb9bmR1gh+sIYYwgBGBTeCA5+c/eDyPdZ81wTYbw04KNudL2a1MYnhooIzA+wYw94SM/i4mYmeTVMBiY1WnCUg7ALipaXpydtizJwAbAMBkDPgPE+cDk4X4zXfjqam+qWw06/VS2bFoaO7V1xCAM5liIF+I3Rw5OVEM3E2nAcCfbcbjX9y84lYAYHYtBvtvNpNPs0f/tA7gwy21G2iNSS8vhVK7fjey6gBgPAXH5HDe/n/zy4i9cJ1//PD+d48udk4jAKMLZrCTypdWs7GrQ9imiim8I6N2xYiYv+hrlzyZiSRNOY0Ce+s2/4j74nIAN02OrgRFAK6OwQKA7/bNnEskLlN/KY0ngkHf6P/ocBZiBa93anPt+mAoluyjC/G5EjXzWXTwynAmS9Gp9ObH3l/SpY+z69ErS3aIwN4GwbALzvty/A23ucdS57ljxwDWF2M4vFK7gdaY9PJSKLXrdyOrXkFYJmfn7f+8d295GfO3ex53Q4MJtoELZnB+SpMTueD4WHSYXSpYFhK9R4n4OzDUE4rEJkp5hkFwtFls9eUvEJgUQgUApyNrYgBXTWAWwAE6lUisPstc2Fq5PhTcynd0rMYLFi+1fn1oaPiLt/pmCnOzpUApHcoN9EQQgAubmXSxVKLpYioeCtrbdliLWAxgNgQ6PLC08PHk0+yxEwBXTWAdwActtRtojUkvL4VSu343suoXBR34+j9P9fbe6+5mPTAywZ8+utjOIBfMhkOb0UaTpcLZWCjYsp0LbjFUYxflZMGm2u8fGonMZu9OBhy4f1gAcA3Pt3IhcADmRlGbTuezmUXlACam1JOYRQ44lfgNAvD59W+DnpHxvNe5Gl8FAF/1eKJznweQA94qTSEAX8kRBxy/9m18M1Xqo+jsgs9u3wHAvPPlA7D84SXPLP06dzpPt5pajdVbYB3ABy21G2iNSS8vhVK7fjey6hIFDVFYzsDP/+87L97rvQce+IPHEI318BYywT/tZJBsjKULL1To6KST2c1Ywhcc4hMsil1wdQAuW/jI71/y9ITG5tKrpSkny11b3Q0wXwhyAJ8+Tf181rdnAEfHPwcHHD032TGZ2lqJjmWpjqlzY9mAM5Adi0a3UnTgWCoTKyLujt1cHEsX+0oT8UgmHt8q0IHA6viKe0cAG9ixX46/CMCD184EvNzpYADDfODqzl4H8EFL7QZaY9LLS6HUrt+NrPpFQT/7P//9o3de7O2d757/YJ6Nh4bUlH8FsVgMgz1wF+TlCFCwTFJojV3NRzotuCr4lk1E8vvDnp7fxLMz+amOdkY8+KsKgFGhUHfTb9iF5NccC6uJi0IA3ioCgENnPp/qo1ML8c+KHX359LXNPOUsfrYeL+QDgZlsJLJKUcX1LyKbJcqbnJ0dTU/EE5sf04Hi2Tfs4jLdFv52AcA9iayXLyYAcD/8bKru7HUAH7TUbqA1Jr28FErt+t3IqheATc7Aq//+9kfv3OtdXu6exwhmCcyNBDMkGhqMcBddTG3OLkRWgnhReaUAtstzPLkGfZF/Hb9zueR0mLnA57pHYIkLQQ5gq7Fv8vLJK24OwBKDvzOB0d/Qu3NJSMSxdunOeYoqpQqlSef57JvBN7MlJ10sFGinI1DKJkLpYp4uZLOr+dfzqbH1QrKY3SyU8tSrCz5JEq7t9ykAeCW+ap7mTwcAbG2qthNaB/BBS+0GWmPSy0uh1K7fjaw6AdjU6nz21f94+e2PTvX2diN9gBBMpgRDP/RTDCYww60UbDY5KYq+m42veLhVGkQA4tAgODd+wipLKLt4BivS4LXfZouTVF+HlWlC+OVHgGt4njsXQtkYMNPqvBAbcflF9r76yUhDoXiSmslGlwbHLtOBjtcDfX2Bc4meK76xVzuf/VEggH5mTJWy0cVYlvZSSH350ubNUYqC9QsDgXz6jRG2XLaNgpYR2BCO3Lkr6nDub+3XAXyIpXYDrTHp5aVQatfvRlZtAWzlg6BbnYFf/8vLL39448V7vd3L88gEA4LxSPD9724/uvjTToxghiOwyRGgSoX0VmwsEeoZdLllAJZjgr1rM7RxQ5f4hfDQyPAbkTfnzqZKkx3t5Jg463tw/AUAG3HgkgBgo/Gf05ER+x74a7C7FiN3Ps7GfS1LvoWJy8m7d3+/moqveXJB30L28lvJ5D+cu1yYiIeCK7GJnyeLxeRqdjYSHJtIraInxZ9PXFrzGFj+7rZXbH/9/gFXbJXmsnBY0a8HPAasA/iwSu0GWmPSy0uh1K7fjawaA7ifrMVgQgDu/PW/vPTS2x/dOAGR0Fws9PyTJ09IduhOhu2H7oL00GaT2eF09E1N3k2d+cdvfR68pm3F1QPsdpnhbQv7Sb+pv9k/EPzDpdmJ1WNTHV3CiKXNcnDoZYsBAdjYb5QAmKHeWg8hBsrTfu2KX7vd7bmWiV+KBpv9V65GY+Nn0qPxyLArZwhvLEYzs7OzkWgmnokGc7m1RGx8ND0eT1zdyF0fTsRmR8+MxqJXc208f3fZMxSs3x92eeb4GGh05BjAxqrjoHUAH7TUbqA1Jr28FErt+t3IqocDJvOAA79+91e/evntj1480duNELxMBoIJhO/f+vTRJ890ToMJJsPADnTB6zScL17OptcXxqLDa0HPkMvdVom/wpSZtra2sHvA5Rkc6fElMnOjd1KrJXrKIT6ogxj1lZcDAwC2igDMNEGc1NASEFihAba3uQZD0ZsjQwa/e2hkJRGJRFYWr+fA8HvWfNFEdHjk5srNno1wztMTQu8mVh5sDCy5BntCUbRp6OqGv1r+QocD4m94cSyb7+CO3Gi16gA+3FK7gdaY9PJSKLXrdyOrfvOAO3/97gu/eum5D2+82HviFHjgZdwNPf9k/vH8E0jLcfEZiKyFgWAHvphMJrPZZGTMlr58Mbs1FvX1BD1LbvuOQrhA/B0cWQwl3hxNzVBek+l09VkT6yYrdr/WftGhdAWSmauuaqciid6EXxu5XDhn8DfDAyJ24Jt7hi5hA/807A+LtvSL6Lt7OkoAcGQz2cX12MN6wDqAD7fUbqA1Jr28FErt+t3IqtN6wCav81kEYETg331449SJeycgIUf3B5CYEndFIwJDPPRfYQSbWQdsMgOCYXJwYLKUTGXvpM+Ozy5kvl1ZDHpcA8AbnF4DiZhf5PKQAzz5Znx29Ex6IlsoHqOcZotFdDTVp2/avyTFCJ3QMgAbna/dyayJWKgsHZYhTKbrItZyr8q66MPCQ7/oSbOEv7vuEtKXxJJ5kwBgxmjSAXyopXYDrTHp5aVQatfvRlZ9ANzf6nAGfv2HF1554YXnfvfRi6e6T5zoXu6+1728vHyPHQyef/Lk1tcwEszFQnuxBTaZWAh7vY6+Z5/667/7p3/bXPjWtzY45FoakGhpaWPwWjQzmy78N5qaCjhxXg9Y7MhmEzB4oAAWlaMV80oCYJuNKqVDbrtfSPRVXUYOGAUm96IXW9CvEAlzEXR55DbDm272cbOEv7vtrtkQDvrOTNn4s2HQmegAPtxSu4HWmPTyUii163cjq14A9joDWd8rSL967u13bpw4cYJEYiELTBJTQj80zEh6dPGpaeKB4QoERhcvUNhocjg7X//Z3x37fDWVnUifGR0dn52dnQOh+/Hx0bPpdBbZ3rv0ZOBZp8PRhdBrgZTPNtHR1PDMdlOZA5YBuMnmzK/GfEMtfqWjwFJJMniUfYkklXZLuXb9+gHXG7OrAcs0Vy2QA7a2Yv7qAD6sUruB1pj08lIotet3I6uODvhvfIPHn0cEfvnDd06dOoFDse5hB7wMqSmfgAmGeOhP2tuRC7bwPhguZmKFkRc2MrbTTTbG2zdF5Wn62PnS+dIFdJ2haYpyYscLvtdsse1+aAepSgBuspnp9NhIm92vLA5aRlgxSeVfIsOsnL3V2G1XMLNKm6anp3kAW0lUtw7gQyu1G2iNSS8vhVK7fjey6uqAnz/+/POvvPDS7z568cUTeF0GIHA3Nw78mBAYx0MLebHAAOOLycz2RjM2s7m1qyMQmJqiKCpP5fMU9bOpZwPOLuAvdDoztgPsaq5OVpg2a5WuomuzUcV04vqS0plIcrxyOC1buFE0uryNdgfwcGaCnjJPHzlSBmBGzwV9SKV2A60x6eWlUGrX70ZWjQFsFTvg4eePH8UEfvudF8EC90JWrHvdyzAWDPHQf8Iu+P6t25881dnO8MkpWf5yIs5YtiC82QKm2WbBWDtk7pfIWgnA7X3J+IqnTTmBuXFjEUo50HJviP1vBfDuCmC7vbnZsOSJTBSd2P/KAayvhnRopXYDrTHp5aVQatfvRlat5wEbMX4hCjqQHXYdPXr0+VdeeeFlTOB7J+7htJTdCMGsCZ7/EzLCOB76qWmcl4N1wWbigGUUZsTi93kEcj3X7AxqJ2uTfAzaZmO6JguzIY+72S+sy1BVumuF4unMPZN82TY7afbb2xYvpYs/MVumLULObCv8W0HVnrgO4IOW2g20xqSXl0KpXb8bWbUFMOSfILOQHE5qYvF42H+UeOAPb4AHPgEAxmk5CH/ZzByPH9/6+r1nkAnmEMz1Q5skMoolArDlALM870uwLIQzUPjC5xnw82tOVDMwW+5kdwOwQQRg+djvNjts9vtd4H8DyP9aLPtYtEIH8EFL7QZaY9LLS6HUrt+NrNoB2MqIAWwK5O/05MJhAyHw7xCBIRS6t7e7lyTlWF5e5hBMVmh4dLFzmhC4i0sQbRaJJ6/cjh3I+ka1EQIw46QL44k1ds0JMTJ34q54jcbyp+Vqlt1L9gAPyxaQQgovLY6dKeYZAPB+Vo3SAXzQUruB1pj08lIotet3I6t2AIachRyAvSYzRZ8ZcSMAIxOMCIwDscADQzc0LFGICHxvGS9SCDcfPH54/9NHn3TCUDDrgbtY6Mr4a6zJsaolm81icVDJ2W9HhtqkBN4RwM1yAFcmsPByJQC3CF9bCcBtA56eSDo5NT3NjgDrANaM1G6gNSa9vBRK7frdyKoNgK2MFdwvJG2AlRhgNaR8cTbohpXtwmFEYAjEunEKExjbYDDB3VxerGVRfmhM4C7OBPMENjYGgJuO2CxG52Txzhc+T66Z0zb8FVGYf8i/wL1c8bPiDQzi8eBt9+L3L3lCC9li3gFh5ftbNlkH8EFL7QZaY9LLS6HUrt+NrNoAGEJlGQJIyAPt9Zq66NTCIPJZYIH9R48//8pzEIiFdA+ioYHBy5AXq3ueGw1enn8CiyRdBARbMH/bjRV06OYbKRSEjJn7SulYdNGzxAN4e/5KEEseSclb2TuLPycNkK7MX2R/31hIHQtM75+/OoAPXGo30BqTXl4KpXb9bmTVAsDQ88zIAHz67tmIB6+WgDzwUUTgF176EAiMPXAvzAruJdOC5+e7yUjw8jwMBX/96CkgsBn3RDMCd63k8SFYZ2F/gkAsxkiVktn4ynUDb4KbCQibResfS/uImw07Pd1e5KvZXfBLWBjIQsv4/4Nf8IR+O5Gkqa5piGjTAawxqd1Aa0x6eSmU2vW7kVULAAMbGUYKYG8yFnLZiQVGDgumI7380TvsOPCJE90netkpSRAQDVcSEf341qePLv60s52xQFe0UQ5grftfAmCEYHMgX4hHfD0jHpdbRGB+DWT5UgvNewQw+epmOYDtBvYKax16gj2+aDw708EcOWLj+asDWDtSu4HWmPTyUii163cjaz8AtrJTciV9xBjAJkdfKnE9xzb2EIqFCPwCLE14CkwwdEN39/JDwd2AYDYiGlJj3f4EFipElJJ+8178r7Xa9E0HJpbAJiddTKXjYyvBoRaMR//Oyy6CVxUWgtpV3LpRzdz6UeznJB9va2uzh11BXyQ2mk3SU0Yr4u/+DbAO4AOX2g20xqSXl0KpXb8bWfsCcIUxWsjB4TW1BvLZ4SttbKNvAAQfPX78lZc/BA986sQp7IBxZqx7gODlbr4bev5Pj8lQcIec7HsD8GE0zUBgSGI9WSqktzKRFd/i2kgwGBzcVkGZtt+yaqFvGVlbHA6tJC7Fz6aS9OswnctWgxFgHcAHL7UbaI1JLy+FUrt+N7L2CmCriI6M6IkJ87eVOn+2J0cA3NLSAsvTho8fJx4Ym+BucSc0eGB87eZnBX/93sXTp5uammQMVkxTK3SO40cHuTTwbrIRBHdSf02Xfl/IbsYzkUgUtIIUhQv5I/e7aZetVvhNViSbJyJjsbmz2UKxRNNUoOsIAbBt/yMSOoAPWmo30BqTXl4KpXb9bmR1Ys+jvJXF7refYNH8tNVqFTqgEX+9k6tbI3YewMBf0PMvcB4Yh2L18mk5EH4Bwzge6wOM4E8fvXexs71JlHtSuQe24onJbCc0c7gCuGAcGBU9YzNTdLGQTW+Oro+XaZ39Wx/lLqNou9HN8XVO+N2KF9Gn+XvyOtHo6Jk7iL401WmBnyZHCIBrwF8dwAcutRtojUkvL4VSu343sgiAlTe6EgCbjTgNtADg/pmJTJDtgW5pgWgi4C+MA7/8ETsOjAOx8EDwveV5EoyFE1QCg//0+PH9+9/dvtg5LdojozQMSxq3xRyuzmg4G8aGDorpCFCTNE3PzKC/mZkSXYI7Gt3T6Ak9Q8N7r9HkIX4DPaNfg6f4gt4o0XKx7+Ct8XVG9BBf8BdP5qkfOc0WckQsgPd/ajqAD1pqN9Aak15eCqV2/W5kdVqUW2ArsZatIJN3Kj9zYdL5F8I7NgQrUJyLejj+AoDDLIKPv/C7j965wQZDd2MXTCwwJvDyMu6Mxuk5Hj/+7vZ7n/wMuWCeWcQDc9r9MNl+66n86139h6oLuokFMAMAhnDvI5B8xARLUOCFKJCeNuN1jrvMXUjoLfzQgW5gxSh40IXTlXTBesgWvBHZlH0EX2bBHzPDFib8ZWbzNJfhE6c3gX+9GftfLvKqJkm1dQAftNRuoDUmvbwUSu363cjaA4D5+UYgp5NOTqyvUn3YcZphCNjr6KNSkatLHH9x6kN/GPdD87ORTuFYLMRfmBRMIqKXRUPCy93LeJmkRxc7Gdl+q47IIgBudcyszgQcTYdu0ULZ6ZilqvBSRQFD+QfwZ7bIN2DvdoIrHpOu1ZIWOoAPWmo30BqTXl4KpXb9bmQpAzC2nly8s9cZyNOlwsRsPFaYcjYBUsx4ErAj//tN3xW3GMAGHIcFLvh5iIXGHvgUOyOYjAb3/lcSDk0ITBZseHj/u9uPeBcsm/HE7OiDiUmHqDBnMXvu8uc05WwXMfgQjAdbpadjFhah4DJvsk8YcL8M+267ZDvM3S4L8sXoxmImOTy7pJtYyOKNO7pbCH+u2S8UHcAHLbUbaI1JLy+FUrt+N7IUAVhi2lq9gXyxMD4WfRCNFczWJg7AJpPjfPrS9SW7BMAGmA+MEfz8K899eOMGa4EhHBpcMJ4XzJlgsL+kT/rxk4e3vha54LKJSdv5YCEu2+RMpmOR9dQFyjkNRo99+3B0SEt+UGC8totTXzPouYWxkaxg8C66YQhf4d/GYLgCgS0YxYS6AoLbAd6Warhqq+WSjjqAD1pqN9Aak15eCqV2/W5ksQCurvUlvCBjv458CSbQRB5s5BKzyWn4AqsZuqBNzteTCyFPTuAvJjAHYEN4iYuFxrFYvYjA6PbHvT/+8Y+RC+ZHhO/BTe+9ZZye8r2fdTCiI5D5YPwOvuccMc9fdKDOC9lLa4n45rnkzBRjs5FJriQ0WvV1DK2iRCaYr4wkBza8gBdJxi7WAnfoxkJsL3nRZmPIy4yFJbGFHe8l21d3HEegXGpxPnCjA/igpXYDrTHp5aVQatfvRhYH4KqaX4wKkmvS2VdMx1Z6rm9sHM9lsuensbW0IgA7HIH8uYTnit2e4/nb0oKDoe04FssQPv7Kc+/c4AmMTPCpXsAvEJhk52B1D2zx8vyTh/e/e/RMO3av+Ahg7Fnugsl8IxY4gv9t9Zock/8Uc3lGhhPxLN3K2HgXjLBjURvARJJfFQBhEYFtNkxg9o79Q7S14UcW7i38Z8EYxn9wg9870BMhecd0AB+01G6gNab/DwAA///snf9PW1eauHeRMXFsLrVsYmEN9qQDTozqJFMTTBySUnVLaaJCCXKjhkpOtmyjLlEa0iqi686CCuqMkoVoKKMhwARyHYW46aq7acS2q0QlUtSqaSQQJdJHWwmpihKpv4w08w/wOe+599rXxiTc4Pj1vXmfiC9N+XJ5c/Q+vOe85xyKl0awx7eRWauAVau/Fne4b+7c4duNl2/enGqunRrqmf2wuKwIPoTJ2d9+5PC/jvQPTakKYDAwK4MVA5sq3+TrwC8rO4L37KmoUAysHJHFG7NYdQxT03BP0r0v3/kHh1wv8hrcElBXwfytqKwMM3XJz8pc3d63b4tvY39Dd8/4Kzf6/GBg6bCn3DT9rh9BXJXkDDv85pCycZlU+6bUzI+3ZH/kYhheIXSdCWYSMAbYCVpnULw0gj2+jcwa14CTRVqAEY7fgev0bt7kOq3qP32uTy5OrTWuWOvYqS11Vduc6QLekLxiwFnbzGpguBspeSSH5N89XMBcwxVwQge49xu+OvxN9cc/XvmFHxEtfZ8A3DrMniRzQjr5kCBebugAe6TgF4PTrCDv393UePuVeFlHBz+HqtC6ojWRtG/6X0qUQoGM0fVNAsYBO0HrDIqXRrDHt5HRKGBW/cbnzu0/0di0++Y2U21zrdMJAm4tkj7E4m7vGjvRVNfvrMrw7wbVJT/NpuZKuB/4kmLgCqUEVqai5bnorckjo6s//tt3V76HlujNDrsQAMNaVhGwtEQNAjZLAra6Pzrxl41OZ/PUxK7jvftHPwx6Rb7rpjDqX+MAM/+CQALOO9gJWmdQvDSCPb6NzNoFHODaY9Uv3GR7s3KKTybXOk1VQ6dv9XVIH2Lxx8+dbpqocjozC2D5KninouD6+vcvSJ1YvBGLGzg1Hc1e+Fy03CQttWad/fjHn3/68p1NLS2BTNT+5UvU/EpE/swg4LnJl6o21tY6q1gVPNw79mFYmrPVdQ1cgPC5CRJw/sFO0DqD4qUR7PFtZNYiYGmJlenXEps798WJ88MNlc2wtbe2Fq51d071zH7YAfOPFle47/CJ7gZ5C3Caf9MMzJeCT777KT+WUqVdqRiW/ku6MIk3SVfzbcIHq6v/CpcV/gR3JYnsofgMs0VBeS/pXxBwC/+lwd365z/UbYPL+TaY+geGe944fKPdXprLnTcEoxy2T5GAEcBO0DqD4qUR7PFtZNYgYLn6ZYazxsd6m/6vckpqpeIGZkodOn+4CwQcsPqD587/UDeUrQBOGli2MDRDv/np9dQysGTdigqVjuXDolOvDh48e/bsX7/7/t470J8kCVi2rSWQMq8i4EBLcQt7sbiCc/+6o9LJb8c1mabqRhrHW92lHR0dZOBcQgLGAjtB6wyKl0awx7eR4QJ+yHYcAfb2CC0Bi7t9bnTyjfPDu4dMsn7BsVVDQ0P9jfvf7mAGdv/Tnf29Tb7KVfy7Qe1fZ62peZt8OZKsXGUxOPlfW+GNZF+Jigoogz/+24+//PLT55/f+/Lb5zfb7bDey+9/kI7GhINArFAJe/7xnS+//fY3LcXFFne4a9+uhkr2i4HJBAbeMdK4d3L0Q7eZBJxLSMBYYCdonUHx0gj2+DYyjxCwcqF9i8XfOnYCTt2AwtdUArt6mX6rpir76+qO315g5WRR+E/jgzeHnnU60wVsyhSwM9kM3Xzyxa+Vu5FSdXCyGpZKYvYi1b/QnHWQUXGwAk6p/Pn7z7+EM7JY5V1jkdeCpcuYAgGhxf4P39776aefvmXPDjPjb3SP+KTSvKSEPUj/xOC+2aCbFoJzCQkYC+wErTMoXhrBHt9G5uEC5vfpikLAFZ8bu93TfcZXz+re2tpaLt+hyv5+38TAwPTxpVGYzw2Pvv67ymed6QvATLgrSmC5E4sfS/nehetKDaxSsKohS1JwcqMwUzB7Vc2P57jyC6wIf/4lq3Tfeeed538DPM/e+/bLLz//6ftfrnz38y9fsh/CUlMTn/xj98jADh9UwbAjeejmme7T4+da2+EioHxKyshwAVMXNALYCVpnULw0gj2+jcxDBZw8eaP9xuGeMzf53DMIGPw7NdTv801MTI9cvvxS70Um4NLNo6//p3wH8FS6gBUJpxu4ln25qZPvX+AXBKvL4AplPlr+kwYImJXB1eztnpe3fvM3puHvP//83r0vFe59/vn3v3z348dbq6t//PmeCAJ2BWevLnZvnx7Y0T9UtVF+tImmpT932e25uIKeAAT5UDIScL7BTtA6g+KlEezxbWSyC1g5m4lv63EH74yfaGzyVdaaamth7pkVv/39/ROs+GX27f5ksXdpdLmlo8Nz5NXBjZnrv8y9phWT0KqjoesPvP/e15fe2pMpYKXsldqxMix8UIK9U/3xX3/87rvvrlz5hZXDAHvnypXvfvz7x99s3XPwxyv3irmAw6PzVxfvd18+s5sVwawKhoepG+juefBRFz/WkfYE5wCogEnAGGAnaJ1B8dII9vg2MlkFLKS21QbgzsHb3T9M8cVf2MgDu2nrJph+py9fHr5///7pq1cfXNxs7+jwtn700rOZ/VcrBJzaj8QL6mam4Pc+u6SqgCX1qk7HyqyBmXcrDp4FA5+V3hz8H/4njYqK6oqDf7/yeakk4Ldn56/2Lt4fvjzg66+rrIKV4A2mqqHu3o/a/XAsB01Erx8SMBbYCVpnULw0gj2+jUw2AUsrv9Lss6vv3Bcnju/2cf1KS7/9PrDvyOXu+/cXF0/3Xp2fn18IOpiA2z/4447+FSdQqgScsRmJ+9e0rf7NFy9cv8TUm9wSrJzGkVYHr6yAZfmmUX2QiVdeKT749+/udYCArf6+hXMz81eXFj8Z3jU94asb2uisLSnZWDUw3DP+yoftZWUdJOD1Uy6SgFHATtA6g+KlEezxbWQkAae1AkP9K/Jjjbzu9vjsseO7b/JNvyUboO25v843MT0y0tTN7Nu7dPX2g/m7Y3cX2jZ3dJTa+o5t35Ep4A1ZBQxvmc15DWyaqn8fdgTLApZnnKXa96BcAWdOQUMJrPLwWTAv1MPVsFGpuoJLuKKCCdjOBeyOdx1ZuDXGquDG+01bBnbUwVJwCTAwvDR2JOxFUpbBoNuQcMBO0DqD4qUR7PFtZGQBJ6dgy21S7cteW6zBvtm9PcNnbg5JbVNVQ7zxagCK38VFJl9m3/mZu7cuXuxK+EHA8bHTu7IdwKHakGRS2qL5FHRyFvpNqRv6ZfUiMH85uHIGmu9DqpD9ezZ9MhpqYD77XFG9Byrgz6UK2B3qi3Z99dpHM7eXehoHL++abuAN0SUlprqG4fPjo//kEKkGzgECCRgD7AStMyheGsEe30ZGEnDyVEa+lUTGH5ybPdbUMJU8c6Oyv25i4IeRy8P3G3uXmHxn5sfu3rp78asXfhsNOZiASzfPvTo4tKqAlfXfDWoB806s5uapA+9fuH7pLWUaWm68WrH4K08tHzwobwhWVcDS9DMvgcHAFXIFLAnYFWyNJ9qiC7dm5m8vLTZ2N12ehj1JG+EZqnwv3T7X177Gq+uJR0ICzjfYCVpnULw0gj2+jYwn6V/mXlEUUwK29h3ed+ovDTeZf5kuq6b40i/Yl1e/UPsy/V5cuHgjGu1MRBwdZaWl3uC5Uw39SQGbUpPQqvYr9XakZvmCYLkI/uwt1ST0Svsqi79bWQV8MFXy8nf57LNUALM/B0HBe1IVsCscDIYSrdEbC+dmZx5cPQ3tWKwKrhtymko29m/p7nl9IWzvoFM5cgIJON9gJ2idQfHSCPb4NjKe0qIi3oTF/Jsqfs3MWK1jp4fhxl8+/TzV38/sC3PPjYu9V/nUM8w933jhhSPRzqOhSMwhwB273iMntvsyzsDKELC6EQs2A9fKB0ubmg+8y+9HAgVXJ4/C4mu5Wyu2pjVfna2oUOk3owIGAVekKuCOYrPV6nWEY5F4PN4a7boxemvywRIoeIQpeFtV7caNpqHp+1/MtcZcxWTgHEACzjfYCVpnULw0gj2+jYwiYPCvTbnQz2ptn5vde357w5BkSWh8HpgeaWK176I0+Szp99qhLlb+hkJMwLCZh5XSrftPbXGyinlDSfbO59Q2pA3KpQy1pma5CD4JK8GXpEno6j2pCnirCqh/eQtW6g8/leMs775SNFzBJ6Ir/noFKmCzxQICjrUHg/HOvq5fjd6dmYcquLuJF8GwL7hu+pPeyYW4QAbOASTgfIOdoHUGxUsj2OPbyCgCtqkEXBOOzx0+MTwBe3+bq6qmhmDp9zL0PS8tSX1Xd0G/hw51dbYdPcr8G2QCdgTKxNLS4Ojev1RuZAYuKXmUgFlpLJ+IBZcqSadywBWFyvUMcBUhlL5b1fcx8NnmrWeT886Sf7l5q2UBy8dFJytgUQgE7G6/PxzmCm7tgiKYKXipB+ahB3z9/UNOZ1XdmcXx0XjYLjIDk4TXBQk432AnaJ1B8dII9vg2MmoBK4u/NX3n3mhsaqiEDqWpIZh8nr7cdP8+7Dp6wLueX7tx4wYrfjt3tiVCUP8y/7pdAZiD9sQ/ahyorE1fBVYEnNaOpfo/TL21/M2z9QeYguFgLKiAt0oXAqfXv0n1sj/wtvpsdbWk3qSA5RL4IBzEcY/fkxiwu8DArAjmVXC069roOVYGL8HhWAMT/JaGId+Z+0tjXWF7GZ3KsU5IwPkGO0HrDIqXRrDHt5HhAi7jAubVL5w8OTe7r7GBlb/Npqqh/jofq37hzA2+9Dtzl9n3V10w89zZFgf7tkeYf8Mg4OKyMtHmPbKve0dGG1ay+2oVAZv4udC1MBnNm7G+vi4peKui4Io0/6YMDP49qxhYXQHLNfCPV+7Z4bqkQMArG5gRCSbinV2/unHrLu+IHh6ZnvD1D1VVVfm6eyffDjpE6sVaHyTgfIOdoHUGxUsj2OPbyICA4SBkUVn+dQfv7G0chrM3YNtvv2/ih8vDcvHLZ55fu9HVxeTb1sqq30gkGJL86/e7vQKsAttax3rP8BXgtFVgRbbZj+VQtiPBO/X1J+FkrLe+AQNLfxSqk/D6N0m1CrWC4SxosVgRMDdwmJfBkRBT8KGFW7MzD6AKHoF56MqpoYbtx69+EPRSBbw+SMD5BjtB6wyKl0awx7eR4QIu5gK2sPLXH+8aHR/8v0pe/db5fBPTcOhGL991xOR77drcC11ReeY5FIlFQu2spgT/+h3egFAmirbg3P5B37Y1Cli1NuyUBQwyPvn+p9c/u/TWy3u+kQrhrdI6MPOrPOV8Np1VBFzx4y/3WDUrCdjFauBwmEsYyuBQ/Pddh766qFTBDawKnqqqnBh8fbTrN3aqgNcDCTjfYCdonUHx0gj2+DYyKQFD83NN8M5k7+DuymaTswrWfn+Qz7yan797kdW+17q6ol3Ro4kErPtC6Rtrj4W5flkB7PUGWAlscwdHTzf5nBnmVS0Eywo2pftXRTPcE/yu1BBdvWfPN6kaWFroPZuddP1KFfAvcBsSCNju5ZPQfujF4jPR7aHEzp2dXW/fujszf/WP9y9PD0z4hqoqB7pPv3pjcwcZeB2QgPMNdoLWGRQvjWCPbyMjC1gQzFaXu73vznjPdt8UX/z1SUdOytXva9eOvDAXjXbujCfi0PYM9mW1r6Rft9vtYoqzBIRi0e7qmuw5U7nxEQKWNyJlsS+fi5a6sa5fugS3JFXvqU4K+OwaBcyPqvzu+y+hCYsZ2GKHSWg3n4eWFNweCSZ+3dZ36MbCxZkHcEQ0TEQPVfqaer64EXe0YFtMx5CA8w12gtYZFC+NYI9vI+MpYwbm9y9YmX9n9x3fzfzrHIJDJ0e6G0/3Lt2el07c6IK256NHj0rVbzDC7StXvwwvk1wgABtpvc/0HR5sGCpZMQm9ciuSKU3N8lqwtBy8re6AtC0YFoMzerAOrpSwPP189my6gH/6FozADGyxWF2SgpUyOAwK5kdzHBq9O88U3H15eqJuasg3/dLec3EHtsX0CV3GgAJ2gtYZFC+NYI9vI+Phd9EzAVvcwTuTJ47vnjJNNVfW7RgYgdYr3vd8a+Ha3KHOrk5W/YakuedYLNIek2tf/srlsjDHBcywi1b0uv90bNAHW4FLtAvYNCX3YzU319effJEpmDn45epquQDeCu6tPpt9ETijB7qi4sq9bzvACwKfX1eKYMnBfulojmAi0XpoATqiTzfybqyhoenjSx8d2WynXmjtkIBRwE7QOoPipRHs8W1kPHwFuCUQqAl2vXF8u6/SZNrW75uAU69OLz2YuXv31gfXujp3Aq1tvOWZCzg59Qw+c7u8rPq1Wi1MwMxaZlvfuRPTThBwiWoKOl26yb83pZ3NYaqC6wmZhpubp5qn6g+cPPn+ixc+e6u6OnkYx1m5FK5OLgdnyHfr1uTJ0Ve+fF4WAxOwxWLxel3cwQ5ox5I2JbW3B0OsCr62cGv+6uL9phFff1XdRNNLX7T6RRLw40ECzjfYCVpnULw0gj2+jYwsYFd76+h44w83TVNDdT5e/TL9zs9c/OC1a19F29oSiXgilAgFYzLS1DOY1+uF+WfmXwsXMC+BzeG+ycYzlSWKgRXlZgp4g7IOrD4s2snPp+SVMNySxBz84qdfX/8MmqKhF7oaFAxnYfF+6IOSf9UHQ29VBLzn5bd+/naTZFHBAv6VDMxwONiz83noMN+UlHhuZ/TQKN+TNDwwUdfvm16cXIj7C/6CJIFf/1dokIDzDXaC1hkUL41gj28jIwk44O67c6x7ur65uZJVv8NS69XMrde+euFIV3Qns28iGJH7rmIxf3Lh1+2y2+0ut8siAdcIsy8m2tzuufHGHakSWH0ER/aJ6IwSuYrPRPPZ6Kn6OiiDP/36s0t7pEMpz249uDrSniW4znDPpes//8bDlQB90OxXBOZfMDD/nUE1ER1jRTBTcNeNW2NQBY8M+Orqzgy+8c/xQhcwrNwXoIFJwPkGO0HrDIqXRrDHt5EBAbdY4kcOnxicuNk8VDcxDbf98iMnL371Qlc0GuUrv0Gl6TnMql+HQ5p7ZgUwE7AXZqCBACuAuYDNNm/r6N7hhm1qAZsy/fsQATur5GYsaUGYlcFvvvniexdYIXwJdgfvYYpVzsJKXsigcvCePW+9demz61//7789IzlUAGAd2KtIOKlgpQoOJp6LHlm4NfbgxOLg5QFfw3Tj3ldaY7gmewQCCFgUJLAfRgUJON9gJ2idQfHSCPb4NjIg4IB7bvJ8w81t23j5u9i7BIdevfZf0ejvo52JRDwUCSpNz7zx2cFwg8NcVuZfi7UGWrCYCwKyBUSbzVYTPHd6uNKpWgVepQErW4+Wkwm4Sj4Zi9fBzUND9bAeDJuD+QEd3MBbZf0qB0Of5V3Q1dVbX37r0vWv33v3P//33+yqqxVEi5V3ikE/lqxgvwxzcOT5YPxoZ9dXt2Ye9N4fHpmoG9h+4lZrIe9GElnEk9dHigVUrZOA8w12gtYZFC+NYI9vI+Nhibz1zhc9l6emKncMwMbfqw9mZi4u3DjU2dbaFofjJtsZyqovP/PKBf4FLBa7hQmYFZZmiyUlYFYBW2v6Dvdu3+FMrQJnY7VtSrAOzA3crLREg4an6k+++e6Ln3766YWvv74OIpZMDH1Y3L8VzLxvfcYq3wsXPn3vxTdP/sf/e8XeIV8wyAQl8iLd3ALdYlZ4eknBbr+8OTgCZXD0twvQEM0UPLBj8Njh34YwTfYQBEFMClgUpZmH4kKog9kzkIDzDXaC1hkUL41gj28j4yk2u+68cdxXaRqqG4ELB2/P3L3YFe3sbI3HQ8FIO595hq4recMR77wCfdVY5ZVfJmAmAmY1lYAZ4eBY45ltJSWpheBM+abNPGcaWHrbzNeDTXI93NzcXFlfeeDADibi96Az69Jb32yVWqH/5+xZVvle+uz6hffeffPkgQP1jFOHj4hFRUWSgM1isVQrCi3SM9u9Lu8ylzAcUunnrdGx9mBnNPoVb4je7huY7pk80oFps1XhJ3cHJFLWLYAyWAiQgPMPdoLWGRQvjWCPbyOz2dH359svjVT6JrZcZvqF1qsbXZ2s9E1I+g1L66R+t7Lu63bDGqqVIxuYqVc0W1L9QKwgK7V5XXP7ey7vqC0pyTIPbUr2P6e2IGWtk5vl11XcwyZojp5q5tPR77/74nusGL7AymGJC7zwBf3WP2tqfrb+wH+PPmeTbpqQ3CSaBYF5uCXAn9luV9aC5d3BkoFD8eeiX12ceX1psfvy9GDP/FfxAigr0xEg2haL2x+LJIk5ltk/AgN5PZgEjAF2gtYZFC+NYI9vI7MpPHui21fZ33C5e7H36vzdhUMf7kxA7St3XcEcLd9w5HDArK3URQz7fi1Wl1VqvUqt/ibhy8Dh4GTjLqdUA2fWvKmrGTJuKVTbt6qKV8JOjuRi5ZAO07ap+sr6ugMHDrBy9+TJk/CG173Nyo0OB3Yc69sslpUVJa82YlUwFMICHNkV4BaWVrLVB2TFmNQSbV1HYCn4k+0j04tf3FjxwyEDrVeWmpqacOhoNBqFNrlotPPfI/5lPistd6KjPRwJGAHsBK0zKF4awR7fRubtsWPdI9D73Mj0O3Pxnw91PhcKSrWvdNIkP2mDl4kw8QwtxFLLM38V4KuQ4kpFMQN73eG5yZ4zPqkENql2+6abVr1POKMKdkpT0bKBJWrlBmk+I93cXP9svcyzzzY3p25UMm353fjzrlKlAubPJEovvCXaDD+AHX4cqzV1QBY/JjoSTLR2LczO3O59qen+H+YXWr2BvErsEQis/HW5w5FQIsF/UwpGQqHQ0VCIKRi9H0sgAWOAnaB1BsVLI9jj28h8tDg8VecbaVpcmr978auunQm+7Ksc8yxvOJJalnjflZd3EvOXQEtxS2CVkgtKYFtNMD45uMVZktGJlW7ajBMq1adicflmzkg319ZKDdLNcFwWd3Gtif2dyaSyL6Pp9L94Sjs6VAJWPx5fQRWKBf7LhMudWQe3B9s+PPTBzNX7w2cWv1jwe5+4uTTAKvgatz/Y2bkz5HeVsh+xo0MIh3ZGWRFswa5/+WQICTjfYCdonUHx0gj2+DYyr3aPTIwMN8KpkwuHom2/jiTvOOINV3DOZAqvdNoGrEAGpMVGWHfMmvNFpmCrO3xn8vSuCaUTK73oTXt/ZYtW1p4tXg7XKhc2JGek2Z9atX9rTfW+U2N9XmansqwCLpYWSwXey2SxSgdkyQZ2cAUH451Hro09WGpc7Hkw2vqExbV2YJrZYnWFQ6EEK3ldllJOucsfCR1ti8RgGpqvweNMm7N4Uhc0AtgJWmdQvDSCPb6NzOsTA9sHF2/P3PpVtC3xa7n8lVZ9XVxIjmXp+MYa2O4rzXEKVqu693a1ootXwe6x47s2OjMMrC5zk8dkZfg389COZEnMj6pUNgpPNZvUf5L4tuwL2ph/S0vLsgpY8kUACkY+F21PKliZjA7Gjz4X/WrmwWLT4u2FQtkPzH9jqKlxR3YmYm727GWSgIvKi5eXQ9F/DzmUD8KpgwUzXcaAAXaC1hkUL41gj28js78Jdv6y6vefYMtv6opBXvlKh115pZ7nGjjsmQuYVcCCkFpqXC3ZQ0uQxTV3+ET3lg3JhWBFqPKrh2wSTrcv+zCVgZWNwiaTqgCuVX3KrvOTm0tLmX+ZgItWc7BolpqjAwGzxe61yoUwHBXtcPM9SW3RhbtfLC0tzX9QIOvAkoDdsVAi4vYKRWWygEvZD7gcibSFIsstmAKWdiKTgPMNdoLWGRQvjWCPbwOzaaaxd372tSPRhPqOBXdy6tkbCICA5cuO+OZTadVXWDXHJ+d8QcCsBA7PHuuu3OaUeqHTa9+1CTizRVoWsCl5VAfUxLW1taoCuH7w9Tvejg5JwGWlqwu4WDlRSt7UzETsWmbAcdHg4HjrtdkHvUsPFmKOQmiGFiCmNWHouLKIxUWKf/kP2LIcOhqJBVAFzCEB5xvsBK0zKF4awR7fRuaDBzMXr/1+ZyiibDpKIrdcMfXWWJOnHoqwCdWs9BM/AtiXaqtx942On9rev03dirUhXa4PdfCKjcLOFch/mfyUHdtPjLZKM9ClRasLuJg7lW8PThoYtgd7vRY+Jc0UHAn1Hbk1tn9+7IOdjkKogWELcE0sEfLD7wNFMvIPuByLHIUSmAT8tIGdoHUGxUsj2OPbyHx48RA0XsGqpzzz7Harm65gx2yNhXe3yubVduBSKXRD39l//oxvoykp4A0aBLzypI5s/oW/lKagS2pN23adnwyWdsj+fYiAOYL0owWSBrbDCSPLdmiPZlGBbcG3JudnbgQd6/NSbhDMFlcsEUn7ZaCsrKi4rKOjpcXfBqvAJOCnDewErTMoXhrBHt9G5rmu5yKbYsn7BcG+Xq/VanVZzRaYdLaY5Ut3pIIWEqy2jabQDR2fG7t9fGIoeSaHWqrS8m5WBas2D6/oi1a5V4F/afZSv6Nxcs4trQCvQcC8DpaOsAjAtcF2fkwH+DfgZb+NwLbg/7rx59lbN4KP76TcIdjYE4ViaV1hMOkP261aHKGQY7mFBPy0gZ2gdQbFSyPY49vI/GMksjnZdAXTri5+0AYrAgUB9hxZJD2tI6GXsRrYG7xzbHiLb1tt5kpw1gM40haKM/8yzcAZ/uVfvL7hL/s+BP+uVcAcKO+FFhBwINDSwg/KAg97Xf5YzB8LdS28cre1EM7EEsz+SCjizzod3uJg/5jLLSIJ+CkDO0HrDIqXRrDHt5HZFOZbXx3L/JgrULDVohzzDA1XLS3Q2bqufA5bhf3x0fnewemh5Kkca+u9Sjun4xGAfUtqTfVbjo+PBm1KdxJfI12DgHl9b5b2OXP3BqTzKr0uh4M5ONF35MjO9kKYhC4PtyUiSkeYkNzwCxuyoRM64lguFsWsp5PlCxJwvsFO0DqD4qUR7PFtZDYvO1j165CWfHnrkcUiXXVktcqHXa0/lZeViTXhvrGrx7fsGHKu1cAPmZteVcAm09D04N65sI1PQCtNSmvxLyDNQ8PUe0rAFsvyMkwQxCLxeMhfCPuBY9G2ZEu2mLwBA569ZdkT4X3QuDUwCTjfYCdonUHx0gj2+DYyHq/DsbwMZyJ7XXC5rzz/zF9YGSUdqiSu83xhJmCLO9h3Z7J3cHdlSUnqjkLFtQ+R8KPNu8GkfElTbf1uVv/GXaryV4OAeRUMhTC0egstLS0BUDGcVMmr4FjMj9IJnfH8sejO2PIKAfN5Bq8/Etq0XMybpUnATw/YCVpnULw0gj2+jYzHsgy7bux2i9crX24EtS974VWUslV2vemcn4rV3jV77Pj2hkpnhoFXt6w2AZua684c33sn6E01YGkTsOp5+U/MBRyw8rM5uIX99nXG4XHI+AEiXTvDy/L7glk1PSGal/2bQpFl6X+QgJ8esBO0zqB4aQR7fBsZj7z5Rq58+XZfVvqKFvlgfymPr3MWGhYleStW39zY7VPTUyZZwNLplBlbg9X6Tdl5g/KhGzZkNF9J8K9Yd+bU5FzQLXaoK+DHe2KzuQX23MrT0Ba+PM4UbDevLxKPRWYF3JmsgOGfRxCVwt3i9kcim2QB460Ck4DzDXaC1hkUL41gj28j4wkkO34tylmTXLy5vFmWn4lVaisttXnjd8ZPNclLwdL50BvUns0obVWvU2dnZbY/ywJ2VjY0nR8/4hClDcCKgB/zieV9SRAXZTEYFsntFsz+Yk4sujOiOpZLUFau4X7jmLQGLO0FJgE/LWAnaJ1B8dII9vg2Mh6++zXQIgiw/pv0b2rXb04Qk1WaJz43O366uyG5KVjZC7z2bqvMerlEelXVcHzf7G/DtrKO0jUXwA/5//Cw5gAsBMOLJGCr3etF3eED+NuORvxJuSb9C63rbqkLuphPQaO1QZOA8w12gtYZFC+NYI9vI5MmYJV/nwB8XbW01BWfG7vaOLxlR2VVTgTMm6+q6hq2N+4912qzFXWo+58fX8BSFdxSzPRb3MKLYGsNTEVbxLKyshxHRhPuSEh1EEfSvzU1Vqs/FNq8zP+XQNuQniKwE7TOoHhpBHt8GxkPdFoJAtOLWXjCe1e4gMvKbO5g69zo+GL37jon3JCk9m/6RcHS1PQj7Cx1X1VuGTw2Nhd3lxbDwRulj999lRUhIIhwCSOfpQcBIxpY9PojbXAUJdS+gkrAVqsrlkg4lh/9JZ4wJOB8g52gdQbFSyPY49vIePj5zoIZBJzLSecsSF8dbvCxucN3Jvf1HG/aPVSVtiEpQ8AbVKdVPsS/VXW7Bntun+sLlxbxCwrKynLr32KhBWIjtaux31IwBVxus1hjO0OOgHzchihfI8EE7GJmDhXAWSEk4HyDnaB1BsVLI9jj28h4BL6VRYDWZ/Ulv0+OMlEstdW0t3bdGbt6fGIKDFpbW7tSrWmFcTYDw9ov+8wSZ910z+RoX9BtK13jzLNmWvhFFPBbCj/jArEALrfZLLGdicgy+xHF1OovzEC7I4lEhAT8FIKdoHUGxUsj2OPbyHiK+VEb0lGGGu9ZeExEES6St1ldfaPj51/qbtq1uw4Oic7q39Sh0VkFXLvRN739d42nJ+eCos0mnTtZBgVw7p+ZhYbVwCI/NDrXX10DTMBmfygUUu4dhNq3BtZ/Xe5Yoi0Us6CuT3NIwPkGO0HrDIqXRrDHt5HxFBchpGyYwzVbw8G+udlX9/V0D9Rt4GVwshJOdmatNvUMH+p0Opu37Tre+8XsXDzskued+R31azr8+TEQc3MqyXoQbGZh2R+KhvzLkoBruH8tFkck0dkW82JW5zIk4HyDnaB1BsVLI9jj28h4nsiU7UNRtiTZbKXecHzu3OE3es8PNp3ZvaOussqZIeBV/Ot0bqv0NWzZPnjqxPhHb7e67Uy8ZXDrAi+An5R/JcpEUfoNAgfomPNG2o6GYo5lOCgTro50ud3+SKLtaMQh4HZoc0jA+QY7QesMipdGsMe3kfEwXZU9uZoxG3LjrtlcWmqzuT3hYLzvz5NLjd3bp32VTpNyZ/Bq8FLZWVu548xfXurdf6crHgw7zAIXMC+Cn/TT8x5ozEZo6Ltyx0JRpuDlZX5ECNyZGGrr3BlxBPL7q1R2SMD5BjtB6wyKl0awx7eR8YBL4NSK/CVofnYi33AMxSocEl0Tn5udHN97rLencXD4TEPd0EZTySoi3lhVuWNL02Bjz4l9b+wfuxF0dHQkO5/XdPHvusEWMPwCs7wcCcFCMCPGXkKJxNGjiYg/IKzt6sUnCwk432AnaJ1B8dII9vg2Mp4y+dioPGdp9Y15ZWVeN6uD4/G+t8/tX2ocHvBVJS84YgWvsjxcy95zMv/Csu+5ub7WeDAY9gplZcqsc9ETnntWwN0HXMzPmRQsy5HI0Wg02tnZGY0eikaPRvxeM4SApqCfPrATtM6geGkEe3wbGSwBF0sXHXLkRyi1ucJ9rBR+/eqJ0z1/OHWq8aXjnwwy/gNeDX5y/KXGU+f/+N+9x/ZOfnSnL+i12cSyFDD1mq/5V3TLscgJ5uVwJHG0jbFz587ORMRtF/lMAFXATx/YCVpnULw0gj2+jQwXcBGCgFUoAoa9STWsFg62fnjkT6Oz/zL56v7x8dffAMbH9+8/PPbK6J0jffFgOOxi9oV+X0m+pU+y8znrA+OXmXAMlsXlj8EMdCzsXw4IxU+6+2ytkIDzDXaC1hkUL41gj28j4ynFF3BR0qJAR4foCrfHW3/fNff2jT+N3pH+/OnO3NyHfa3BsMdmYx8kf6bavwUhn3whimZRMFtcboff7Xa4LHwyoUBCQALON9gJWmdQvDSCPb6NjEe5Nwg5a6cEDDYVxUDAa/d63bDDBvC4vF6H12vz2sSUfvnnYU2ho6I0kgvlgoB37+AqkIDzDXaC1hkUL41gj28jUwgVMFBUpkZMIf9/9lewW2rF5G9Ragn4aUK+rxhODzUj3jyYFRJwvsFO0DqD4qUR7PFtZApFwArJTcIKhSWXgkEs3CCRgPMNdoLWGRQvjWCPbyNTaAIWkqXvk72cWPckY6RqJy8MSMD5BjtB6wyKl0awx7eRKTQBJxHIv49GLLTqFyAB5xvsBK0zKF4awR7fRqZgBVwsANgPUegUWIj405CA8w12gtYZFC+NYI9vI1O4AiZ0B79amgScd7ATtM6geGkEe3wbGU8p7jYe/A1QRK7gW6IEEnDewU7QOoPipRHs8W1kSMBEjoBV+0CABJx/sBO0zqB4aQR7fBsZbAEXr/qNC+JcY2LtkICxwE7QOoPipRHs8W1k0AW8GkW0MK0zSMBYYCdonUHx0gj2+DYynrzfZLAWimSwn4PQAAkYC+wErTMoXhrBHt9GxlOI9S/pV4+QgLHATtA6g+KlEezxbWQKUcBFKrCfhVgzJGAssBO0zqB4aQR7fBsZEjCRI0jAWGAnaJ1B8dII9vg2MgUuYOxHIdYOCRgL7AStMyheGsEe30amEAVcLDsY+yEITZCAscBO0DqD4qUR7PFtZApUwKBg7CcgtEECxgI7QesMipdGsMe3kfEU4i4kQpeIJGAcsBO0zqB4aQR7fBsZJmCa7CVyA6uBScAIYCdonUHx0gj2+DYyXMDYiZswBiRgHLATtM6geGkEe3wbGRIwkTMEuAyJBJx3sBO0zqB4aQR7fBsZEjCRO0S6DxgD7AStMyheGsEe30aGBEzkGBJwvsFO0DqD4qUR7PFtZDzUg0XkFhJwvsFO0DqD4qUR7PFtZEjARI4hAecb7AStMyheGsEe30aGBEzkGBJwvsFO0DqD4qUR7PFtZEjARI4hAecb7AStMyheGsEe30aGBEzkGBJwvsFO0DqD4qUR7PFtZEjARI4hAecb7AStMyheGsEe30aGBEzkGBJwvsFO0DqD4qUR7PFtZEjARI4hAecb7AStMyheGsEe30aGBEzkGBJwvsFO0DqD4qUR7PFtZEjARI4hAecb7AStMyheGsEe30aGBEzkGBJwvsFO0DqD4qUR7PFtZEjARI4hAecb7AStMyheGsEe30aGBEzkGBJwvsFO0DqD4qUR7PFtZEjARI4hAecb7AStMyheGsEe30aGBEzkGBJwvsFO0DqD4qUR7PFtZEjARI4hAecb7AStMyheGsEe30aGBEzkGBJwvsFO0DqD4qUR7PFtZEjARI4hAecb7AStMyheGsEe30aGBEzkGBJwvsFO0DqD4qUR7PFtZEjARI4hAecb7AStMyheGsEe30ZGEbAgSmBnb0L3kIDzDXaC1hkUL41gj28jowhYNEsI2Omb0Dsk4HyDnaB1BsVLI9jj28iQgIkcQwLON9gJWmdQvDSCPb6NDAmYyDEk4HyDnaB1BsVLI9jj28h4SktLMwUsiiJ5mHhcSMD5BjtB6wyKl0awx7eRySpgs5kMTDwuJOB8g52gdQbFSyPY49vIZArYDH3QgiCQgYnHQhBIwPkGO0HrDIqXRrDHt5HxFJWBgAUu4EAAamAOCZh4LIQACTjfYCdonUHx0gj2+DYyHrPIBCxI1S8XsFQHk3+Jx6KFBJx3sBO0zqB4aQR7fBsZj9dcVqRMQJOAifUS8HpIwHkGO0HrDIqXRrDHt5HZ7PEWFa8QsCDQmViEdgSh2O7Y/Az2oH7awE7QOoPipRHs8W1kNm12mAUQcIALWDawIJpJwIRWBDaAHJs3kYDzDHaC1hkUL41gj28j88wmj9fMBSyj7oYmCC0IAYvXQ/7NO9gJWmdQvDSCPb6NzWaPVzDnV8Dl5UI5e8n516WF69UpL0+9flIIAS8rgLEH9NMHdoLWGRQvjWCPb2PDamB7fgVcbuPk/FvQuvVDsNnKeeSf5PcQyL8oYCdonUHx0gj2+DY4z2x2uOyWNAGLa10DZhUV1LKCoC6tyjmpt5mfY5MFbCsvX+VDsn+nh9Vv8GVstqI1frHcUl6u5QdZ21dc72erHkl6ywIuv0r+n/QHLlfB/kHV/4xr/L7kXySwE7TOoHhpBHt8Gx1WA7u8agGLgrA2AZezsopldfYpvMBS/pIjv12RvRX/MgHLrCnBw4c95ENtNk1fLafk/Huvr1AtT8ZeeiRbdsr5v576s1LwM0mVf7+1/liCnfyLA3aC1hkUL41gj2/js9njcNhVAuYbStaW6wWbLGBRkBGlJC5kF7Dyv+GzlPfW8r3KbfCZq6og6Q8tJVuOUEttbXF7BOXrMnm5rUhQyVT9fhpCejjVBua/hBVJP5KwJgELTL8e8i8O2AlaZ1C8NII9vo3PM5uYgi1qAa8NwfwQsn8VMduHrsla7DMfoeryfCx0rkT6kQT+3QtiHfqh/yyrxr3clvk/RWmH2lr+eQS7h/YfYYGdoHUGxUsj2OP7aYAZ2ONweS2yO/kiIK9neWpOQ07XfGGRV7FQAGdN7wJfHE5bjUyVWGmuFrJUjspqJH8lSKdVJ8tsIaPnmX8s+xC5klM+MxvS369SqgrZWEU6ygNKpbzIS3szX4cWlPitqdk7LaTSD5vt0dNj+bAnz/pLTjZE4SGfJcJucO5yW3nqo7JETjDbvQ7yLx7YCVpnULw0gj2+nw54FawYGOpXQX5bnLGKKO1nkUWafL1ajld/Xtoc5wpdr/CSTZndzvLh8HjqYlP5qqolZvX3ViM/8/oLdOUBzakoKF9ciR+8/0gDZ4TUvOqTp1jrk+cG1b9AtsiZmX7JvohgJ2idQfHSCPb4fkpgBpbKYMnCoih5IFW2Jk268q9yQXppt5Zvkfzwx3qcosyqfvUfa2XJ+egYFKk+e7W6tVz5MppDuvLrafr0dVIu91AL5gArfln1S6u/mGAnaJ1B8dII9vh+iuBlsFupg/OZ05XUnlZePpIcyaf8Ud9x9V5uzd8md9IsX/cDrQPeKWa2OzzUeoUOdoLWGRQvjWCP76eJTawMZnWwx+FwsVLYarVYLE/Yw2sSvTIP+mQfZV3Aw0m/tRTgYyqPxR/QvI5fr8xmNiKsVq/X63Kz0hf0S7PP2GAnaJ1B8dII9vh++pBno90ur8USyLlP2NezWvl7VvbWErA8+jPYU0DyDxSe2hSU6yzg1ZP+nUUzED9OIMAeTjr17NFRz/aF2A9nkdy7mbquCgXsBK0zKF4awR7fTyHP8EqY18IEkQEfGlT5FgzYCVpnULw0gj2+CYIgChbsBK0zKF4awR7fBEEQBQt2gtYZFC+NYI9vgiCIggU7QesMipdGsMc3QRBEwYKdoHUGxUsj2OObIAiiYMFO0DqD4qUR7PFNEARRsGAnaJ1B8dII9vgmCIIoWLATtM6geGkEe3wTBEEULNgJWmdQvDSCPb4JgiAKFuwErTMoXhrBHt8EQRAFC3aC1hkUL41gj2+CIIiCBTtB6wyKl0awxzdBEETBgp2gdQbFSyPY45sgCKJgwU7QOoPipRHs8U0QBFGwYCdonUHx0gj2+CYIgihYsBO0zqB4aQR7fBMEQRQs2AlaZ1C8NII9vgmCIAoW7AStM/4/AAAA///t3b1u3Na2B/AbCBdIOXEClQaMExi47Q1uDKTxG6Qx1OQUp7lAKj6BATUD9ioIVlMYvhBgN3wBAuxYEWBJNuYLCPMAQ7C4Z6/NmdGMJHu4txT992L+PyX+GEmjzeWFtWYNvxgvR+j8JiIKFrpAK8N4OULnNxFRsNAFWhnGyxE6v4mIgoUu0MowXo7Q+U1EFCx0gVaG8XKEzm8iomChC7QyjJcjdH4TEQULXaCVYbwcofObiChY6AKtDOPlCJ3fRETBQhdoZRgvR+j8JiIKFrpAK8N4OULnNxFRsNAFWhnGyxE6v4mIgoUu0MowXo7Q+U1EFCx0gVaG8XKEzm8iomChC7QyjJcjdH4TEQULXaCVYbwcofObiChY6AKtDOPlCJ3fRETBQhdoZRgvR+j8JiIKFrpAK8N4OULnNz2NRRB0r97XU/47UmDQBVoZxssROr/pSaB70I7u1ft62n9LCgm6QCvDeDlC5zc9Frr73Kd79b7+qn9fgkIXaGUYL0fo/KZH+u7dm8+f/wzH5zfvHJIqtNX7+vzml3/8df/GhIMu0MowXo7Q+U2Ps3hz+Xa9vgrGev328vPkrPousNX7Wq9fXP7JDjxH6AKtDOPlCJ3f9Cj/+OXyy/r65uYsEDc311df/vVmYi8KbfXezFav//jMDjxD6AKtDOPlCJ3f9Bhm/l1fmw4WTgszHfh6ffl/k/Jq8eZ/7erRa3488y9gtpoz8AyhC7QyjJcjdH7TIywWl2+v0M3nnpvrL5f/mHBM0uLd5YvwVu9JOvC/fuGRWLODLtDKMF6O0PlN/haLxR9X1+jWc9/11duL00cFLxbfBbl6XzdXL968YweeG3SBVobxcoTOb/K3WPz25TrAN3DNMPjfp8/LWSzeB7l6TzIC/8mzkWYHXaCVYbwcofOb/Jlyvw5xD+rNzfr9lAb8LsjV+zJbfckGPDvoAq0M4+UInd/kb3H+MswWdrO+OD/dgENdvber/zm91aQMukArw3g5Quc3+Vucn6/D7GDri/+Y0IAXga7e19UlG/DsoAu0MoyXI3R+k7eFzJDopvOwCROwWf2rQFfv6+pPNuDZQRdoZRgvR+j8Jl+LRcAT8C/nJ3aHjqtHr/NpXV3ymtCzgy7QyjBejtD5Tb4WoU/AJxvwzCbgyE7A7MDzgi7QyjBejtD5Tb7GFhboBDypAYc6v/uy+4DZgOcFXaCVYbwcofObfHECDgwn4DlCF2hlGC9H6PwmXyHPkFMnYPQ6nxYn4BlCF2hlGC9H6PwmX5yAA8MJeI7QBVoZxssROr/J1xz2AaPX+bQ4Ac8QukArw3g5Quc3+eIEHBhOwHOELtDKMF6O0PlNvjgBh4YT8AyhC7QyjJcjdH6TL07AgeEEPEfoAq0M4+UInd/kixNwaDgBzxC6QCvDeDlC5zf54gQcGE7Ac4Qu0MowXo7Q+U2+eB5waDgBzxC6QCvDeDlC5zf5mjgBR1H0wGNDHMfDnc9EqXl0SKPDr4t2f/j2E971VBNwtPfgg0efsMvfpMdfuP/jRjbt4WewX3X/kbOjv0zACXiO0AVaGcbLETq/yde0fcBRmqZ3O4i0qq7Lss3RZ6I0zgzTgaM73xtF6e2XPvSE9zzVBBxtdtLbFwPp5tDtuuK4y+L4cPm7VcsLjoNNu/MM8lVRdPzIdqtvf/aULswJeIbQBVoZxssROr/J16QJOMryPo+PHkmzvGhLo22LPts109tHi76Lx1kxy/M+k+fo+jbPhvHb47zvslPt6Ikm4DQrinar6M0SInmsaw8U2Z2NkuXb5aWbvM1lS6Ih6wv7qXHTNnHeHunjNO6Kw0e6yG7o/ocU+S4m34o1J+AZQhdoZRgvR+j8Jl+TJuAor+umO2pqcd5Uy1VVVatlVffxvq+W1evXq2q1WiXttoV1TV3n5ju6tlrVxfiYPFjmp5rRE03AaV+tfl7++uuvsrKkzDPzc+OuXP683Fvl0W6jXi9Xom47adSmz5bLNoulZfeNedxscVLLpsVd+1q+9cP3P38wv72u6m6TFdVPt0+6bM0TdG3yvfzsX5fmh8s3nlgsJ+BZQhdoZRgvR+j8Jl+TJuDUNODyoAGbUbFo6qbo+7w3Y2HdmGHPNJtN1pdNU5qH+76tmzK37+zmuwZcJMuqGdvaWdbU7RM14NMTcJ+YntlbhXkl0cfSgNtlYmbZvrAfMqLbFts0MiT3RSvrk2Y5mAZcmgYcxb3dNDPOF6VsWjp09hlr03rtk3fxYBpwVW6f0nyYET/q2nrVbH92aV51bLf/6zgBzxG6QCvDeDlC5zf58pqAzahYVaaRpWfbsXFVyLFJpkd9qgszHUbRRhpPa8fd2wk4WS6TPrNttzPdLH+at6AnTMCJeYVgt2OTtcmqNo1RJuBySKP04ACquKvNRnWy/3fIWjOtd/KiIm5sA06zZlWOb8NnRV2125H/LC1Wje205kMacN2lRwdhmTgk+fi1JlCrpI83J5bLCXiG0AVaGcbLETq/yZfXBGzmx6rOs814bFWW295kxuIyKfsstkcjxV1hGpM0m/0EbFpy0pS9bWLd807ATTvu5DVzbGkacCpvIJsGfNQqB7NAs1GyfPOqomtb24C3E3A0mO7cdsO49X3Z7wbZyDbg8c+2AWfHh0UfNGAzYVdVkZ3Yak7Ac4Qu0MowXo7Q+U2+Jp0HHN1pwFnRVO3+eKJoU5hxMZMJclVsj7KSYbPIbQPeT8BmcCxL8zzS4ewE/Gz7gKUBjw1zkJcO3SbaTcAHpwjFhdnIbPdNcZf3mZ2Ayw9tFtuNa810LK8uhizvvtqAu+Pzjm4b8Jlt4vsAfRUn4BlCF2hlGC9H6PwmX9OOgu6bo7egs7LeH04lo11fSV/N+rrK943JtKnxfNqDCTjpTSe3b0I/5z7gyHTWcQK2e3Krxr4FbSbgeNidISSvCeI2aYr9MVJDHMuhV2dmrN+/BV2XsqM3itJhnJPHJz9uwEk3DLfnJR1OwOOn+1PHQXMCniN0gVaG8XKEzm/yNXkf8NEE3CRNPxx9uu7MiFtV9mCsaJArdMTxYC9acTAB17lp3XZP6jNPwPJDra6sE9k1LRNw3XVdNn5IV4zLSt5Il+F9XL5tsnYC7gbTutuqSsoiN188HBxIdbcBV/3uOTN7aLhpwFU/Pl3Wl/uD0L6BE/AMoQu0MoyXI3R+ky+vCbir6yY/bMCmx3ZD1ya1/aK46wsxnup7OwF/qru4Nx3YjMDPvA+4MsNtW7RtU1d1IXtyZQJe1VuNHPAcZU1lD3xOd8svuk10exT00BVNnSTmlUjbH5zOe7cBL3dPasblbJyAV7X92WWT1GbEPrXRnIDnCF2glWG8HKHzm3x5TcBdbYbFOw04H/LStGGZ7+KibBrzUFPI9xxOwPI+9ac6j9MnfAt6ygRcrRLpiZ+qlRyHHY3nAS+rndK00EgOc+7sCb+5WX7d1J/k0G45CtqeBxzJBFtX1co8VZHvj2W+14BXuyetx61vk2VlG7L52bvjqL+JE/AMoQu0MoyXI3R+k6+pR0E3R/uA6+SwAdsht0vztkrk1KIotteTMgNf2R1NwNKfB3sJjuEJ34KeOAGbEbQ1rxCWZszdTsC1nJyby3+dHBllGnCznYDlileNnEaVygT8YTz62V55M5czhKuk7uOv7AOu2t2z5rZt2wnY/mzTvc2fTjZgTsBzhC7QyjBejtD5Tb78JuDm+C3oXk4TlktdVbk9nKkzDagvK/NF6dEE/KmT8dgMv5m04e4Z9wGbeduQRZnJNB4n4CYbYrlxhOyrllWbBixHlqVm1O37oq2/L+0VJ+1R0PZ60lFkxuBO5uBVsz/a+95R0PHuWTeRvRLWJzP32h9emPm5OXUWEifgWUIXaGUYL0fo/CZfk88DPpqAm7ouDma5Qi6ymGZFUhXy3mxkjznKE9OA707Atksldd7XzzoBHx6EVZXbK2GVpkXKpThSe3eFKC5X48HScj8k04SbD9KAt0dBR4PchkFurRDLacCrOt+OwPcbcJqOz7o/D/j2IKxmVfNKWH9L6AKtDOPlCJ3f5MvzPODxWOJtg4vbVdNnUZbLqbLbS0RF6a4BH+0DHs+GrVvTjJ/5POBxWbEZQ5tsnIDb414Yt4n91Lj8LG+W+wm4G1Iz+fbxbnuLVb29oteDF+I4fNb9aUiRHMZVJfnJo7A4Ac8QukArw3g5Quc3+fLaBxzLCTXZrn/FXfO63F6rYn+UURr3VXVnAv5kG3CUtfZwYsh5wEPerupsNwEfN+C+rsaDyETW1j+X4z5gmYA3WWEisB16N7k04K9MwMf3eDo8DziK86TqeSWsvyN0gVaG8XKEzm/yNW0fsN3JO1hy1QrTaeRSyXLV5CiVSzhWxfhurbwVLTtUo9SMmKvqoQl4vJDlalUDrgUtV8Iae6S9ElZstmbYbOSXdLxIlumP2+XnTfXTwT5ge5WRPt7Ye/7GhVyI8+EGbC/EMT6p3bN82IDTrj7dgDkBzxG6QCvDeDlC5zf5mjQBn8mVNvpsFMem6eZ1ldgrM27sdaEbuQBHNPRNldi+nGZ5kyyThyZge/uGerWsnm0f8MEEfGZfOpgeKBNw02V7QzQuqy7MKC/LL6vl99t9wPIWdCSfLOUyVqY5981qf0GNe0dB57dPKnelOG7ASTVeH/tbq+UEPEPoAq0M4+UInd/ka+pR0ElSjlen6HvZzSt3BKrbQg7ubZvKXnPi7GzT9bUZNvO8k0flChcPTsBnkRmVn64Bu10LWt4lzmN7LeikLXZ6ubFEKru263H5ZWNeQBxMwKYnt3Inw7yzn6z3V8K+14DL/ZPaC3nI2wP5Loz2hg6nTkTiBDxD6AKtDOPlCJ3f5GvilbDq6oPcjV4+7LmsdsTdXXGizYd024HMDDxeiaIu27YtH5yAZWdo+RozAe/uSCQT8HLcHvlIetmCTVc0+23q2t15wMtSLkUpN1g0n0jMVptG3G2+ch7wT6tdnFZyv4rDCdi88JB7A59owJyA5whdoJVhvByh85t8TZqAz7qibXZaOQNHDhO2Q65c7+r28k5Dtx195aLJXZ7b+y70hXQo8w3FrlOlpgO3ffZM+4BNE+zz3eHNcp/BLpMbGjUHSvuOsnlUpltZvtnIrs3tG9N9mctVne0NFuXyXo0s/fZOFJ3coWG/We3hs/ab9Oxgq+0lwoqOd0P6G0IXaGUYL0fo/CZf0/YBy5m9Wbz9Zdz7GQ1xluVyb4I4vR1lU/Mlco8DuWNBmtr3adNhsL/LPQ5279vKqbbDyUtSPNEEfGYWsD/gWU7klb/Yk31lc8b/hvHWxpvt8mV1228y22nvymA/aV5U2E9ubl87HG6J2eIt+6xjU4/jfctN99H7Rqg5Ac8QukArw3g5Quc3+Zp0HvCuN0R3/rrZ3jLo6NGNNKhJz3fKE03AXzNeKWP33375tuEebtT+z/Z1g9yP8JtPur0V8Knx/qs4Ac8QukArw3g5Quc3+Zo2AX+j20x91MNTTcBOom8tP4rSJ9q2r/98TsAzhC7QyjBejtD5Tb6m7QPG+Isn4EBxAp4hdIFWhvFyhM5v8vWoCfgvBpmA0TgBzxG6QCvDeDlC5zf54gQcGk7AM4Qu0MowXo7Q+U2+OAEHhhPwHKELtDKMlyN0fpMvTsCh4QQ8Q+gCrQzj5Qid3+SLE3BgOAHPEbpAK8N4OULnN/lyOQ/4uXECpplAF2hlGC9H6PwmX5yAA8MJeI7QBVoZxssROr/JF/cBh4YT8AyhC7QyjJcjdH6TL07AgeEEPEfoAq0M4+UInd/kixNwaDgBzxC6QCvDeDlC5zf54gQcGE7Ac4Qu0MowXo7Q+U2+eBR0aDgBzxC6QCvDeDlC5zf54gQcGE7Ac4Qu0MowXo7Q+U2+7Az5Bd11HjZ1Ag5zfvfFCXiG0AVaGcbLETq/ydc4Ad8E2MNubqY14N++hLh6Xzc3nIBnCF2glWG8HKHzm7zJDPniOsAWdnP9RRrw6dV/CXH1vm6u129ObjVpgy7QyjBejtD5Tf4W5//19uoa3XjuMaPgi3enW5GZgENcva8b87KDDXh+0AVaGcbLETq/yd/i/NVliEPk9ZfL91Ma8HmQq/d1vb48PfeTNugCrQzj5Qid3+TPNOCLy/X1TUh7Us1iTCd6cz6lAb8PbvXezFZfTdpqUgZdoJVhvByh85v8mQZ8fnH55eo6oB5mGpHpv+9fTWnAr96ZDryewxB8c329/uPy/YQ33kkZdIFWhvFyhM5v8mda2KvfLi7frq+ug3G1fnF58dsr04Anrv5FSKv3dbX+cnnxaspWkzLoAq0M4+UInd/0COfn56/ev7+4DMnF5W/vTSc6n7b688BW7+3iYuJWky7oAq0M4+UInd/0GKaFvXr54+///Gj88MNH9MfHj//5+/+/fDm1E+1W/88wVu/58cPH3z9+/P3HH9l/ZwldoJVhvByh85sexbQw08S2fgD+P/4izFg7tRMFs/pHbbnzZpMi6AKtDOPlCJ3f9Cjn4uX5y3Ccv3RowHbxIa3e1zn770yhC7QyjJcjdH7T4yx2TSyIjx2dq3/Edr902WpSBF2glWG8HKHzmx7rPDi6V+9u3Ii/6t+XoNAFWhnGyxE6v2kOtt3n79iHzvdbT3OELtDKMF6O0PlNT+Qc+rH7zXPp4NU/cstpxtAFWhnGyxE6v4mIgoUu0MowXo7Q+U1EFCx0gVaG8XKEzm8iomChC7QyjJcjdH4TEQULXaCVYbwcofObiChY6AKtDOPlCJ3fRETBQhdoZRgvR+j8JiIKFrpAK8N4OULnNxFRsNAFWhnGyxE6v4mIgoUu0MowXo7Q+U1EFCx0gVaG8XKEzm8iomChC7QyjJcjdH4TEQULXaCVYbwcofObiChY6AKtDOPlCJ3fRETBQhdoZRgvR+j8JiIKFrpAK8N4OULnNxFRsNAFWhnGyxE6v4mIgoUu0MowXo7Q+U1EFCx0gVaG8XKEzm8iomChC7QyjJcjdH4TEQULXaCVYbwcofObiChY6AKtDOPlCJ3fRETBQhdoZRgvR+j8JiIKFrpAK8N4OULnNxFRsNAFWhnGyxE6v4mIgoUu0MowXo7Q+U1EFCx0gVaG8XKEzm8iomChC7QyjJcjdH4TEQULXaCVYbwcofObiChY6AKtDOPlCJ3fRETBQhdoZRgvR+j8JiIKFrpAK8N4OULnNxFRsNAFWhnGyxE6v4mIgoUu0MowXo7Q+U1EFCx0gVaG8XKEzm8iomChC7QyjJcjdH4TEQULXaCVYbwcofObiChY6AKtDOPlCJ3fRETBQhdoZRgvR+j8JiIKFrpAK8N4OULnNxFRsNAFWhnGyxE6v4mIgoUu0MowXo7Q+U1EFCx0gVaG8XKEzm8iomChC7QyjJcjdH4TEQULXaCVYbwcofObiChY6AKtDOPlCJ3fRETBQhdoZRgvR+j8JiIKFrpAK8N4OULnNxFRsNAFWhnGyxE6v4mIgoUu0MowXo7Q+U1EFCx0gVaG8XKEzm8iomChC7QyjJcjdH4TEQULXaCVYbwcofObiChY6AKtDOPlCJ3fRETBQhdoZRgvR+j8JiIKFrpAK8N4OULnNxFRsNAFWpl/A9rvkLgJ9op8AAAAAElFTkSuQmCC;clipPath=inset(7.4% 22.33% 2.66% 21.33% round 6%);" vertex="1" parent="1">
          <mxGeometry x="159.75" y="194" width="160.5" height="144.35" as="geometry" />
        </mxCell>
        <mxCell id="KS9WaMUxeq6iMbUElf53-7" value="&lt;font style=&quot;font-size: 14px;&quot;&gt;&lt;span&gt;S3 Website&lt;/span&gt;&lt;/font&gt;" style="text;html=1;strokeColor=none;fillColor=none;align=center;verticalAlign=middle;whiteSpace=wrap;rounded=0;fontStyle=1" vertex="1" parent="1">
          <mxGeometry x="189.5" y="82" width="101" height="25" as="geometry" />
        </mxCell>
        <mxCell id="KS9WaMUxeq6iMbUElf53-11" value="FRONTEND" style="text;html=1;align=center;verticalAlign=middle;whiteSpace=wrap;rounded=0;fontSize=18;fontStyle=1" vertex="1" parent="1">
          <mxGeometry x="189.5" y="47.5" width="121" height="25" as="geometry" />
        </mxCell>
        <mxCell id="KS9WaMUxeq6iMbUElf53-12" value="BACKEND" style="text;html=1;align=center;verticalAlign=middle;whiteSpace=wrap;rounded=0;fontSize=18;fontStyle=1" vertex="1" parent="1">
          <mxGeometry x="514.5" y="47.5" width="121" height="25" as="geometry" />
        </mxCell>
        <mxCell id="KS9WaMUxeq6iMbUElf53-14" style="edgeStyle=orthogonalEdgeStyle;rounded=0;orthogonalLoop=1;jettySize=auto;html=1;exitX=1;exitY=0.5;exitDx=0;exitDy=0;exitPerimeter=0;entryX=-0.008;entryY=0.288;entryDx=0;entryDy=0;entryPerimeter=0;" edge="1" parent="1" source="KS9WaMUxeq6iMbUElf53-2" target="KS9WaMUxeq6iMbUElf53-6">
          <mxGeometry relative="1" as="geometry" />
        </mxCell>
      </root>
    </mxGraphModel>
  </diagram>
</mxfile>
